<svg width="26" height="28" viewBox="0 0 26 28" fill="none" xmlns="http://www.w3.org/2000/svg">
<path d="M8.74176 1H22.4263C23.5308 1 24.4263 1.89543 24.4263 3V17.8837C24.4263 18.9883 23.5308 19.8837 22.4263 19.8837H8.74176C7.63719 19.8837 6.74176 18.9883 6.74176 17.8837V3C6.74176 1.89543 7.63719 1 8.74176 1Z" fill="white" stroke="#B7B7B7" stroke-width="2" stroke-linecap="round" stroke-linejoin="round"/>
<path d="M3.00006 7.93555H16.6846C17.7891 7.93555 18.6846 8.83098 18.6846 9.93555V24.8192C18.6846 25.9238 17.7891 26.8192 16.6846 26.8192H3.00006C1.89549 26.8192 1.00006 25.9238 1.00006 24.8192V9.93555C1.00006 8.83098 1.89549 7.93555 3.00006 7.93555Z" fill="white" stroke="#B7B7B7" stroke-width="2" stroke-linecap="round" stroke-linejoin="round"/>
</svg>
