<svg width="318" height="95" viewBox="0 0 318 95" fill="none" xmlns="http://www.w3.org/2000/svg">
<path d="M154.073 41.8607C154.179 41.9047 154.414 42.4433 155.135 42.2015L155.146 42.7841L156.33 42.5972C156.429 44.0922 157.774 44.0593 157.25 45.7888C157.114 46.2395 156.498 46.7048 156.389 47.1262C156.22 47.7711 156.495 48.482 156.194 49.1305C155.696 50.2078 154.523 49.2844 154.765 51.6552C154.839 52.3624 155.355 53.2528 155.33 53.8537C155.3 54.5865 154.593 55.1032 154.549 55.6785C154.454 56.939 154.534 57.8294 154.853 58.9543C155.132 59.9326 154.322 61.8234 154.326 63.0582C154.326 63.835 154.681 64.2967 154.725 64.872C154.846 66.4769 154.67 68.5985 155.033 70.1558C155.209 70.907 155.769 71.0865 155.898 71.4896C156.491 73.3877 155.993 74.3477 157.14 76.2934C157.711 77.2607 157.975 79.2101 158.18 79.4922C158.268 79.6132 158.789 79.6938 159.045 79.9283C159.573 80.412 159.972 81.6908 160.83 82.0828C162.255 81.1411 163.083 80.4413 164.853 80.1555C166.883 79.8293 167.216 79.7267 169.162 79.0709C169.737 78.8766 170.382 78.9536 170.965 78.7191C171.177 78.6348 171.529 78.0192 171.742 77.8653C172.911 77.0226 175.607 75.9746 176.97 75.5276C177.15 75.4689 177.117 75.1978 177.216 75.1721C177.264 75.1611 178.143 75.1245 178.191 75.1355C178.425 75.1904 178.176 75.6228 178.513 75.5385L178.638 74.9303L180.514 74.9413C180.931 74.388 179.561 74.8607 180.114 74.344C180.177 74.2854 180.829 74.2121 181.096 74.0252C181.485 73.7577 182.075 72.9956 182.364 72.8234C182.54 72.7171 183.112 72.7501 183.412 72.5412C184.024 72.1125 184.438 71.321 185.2 70.9326C185.842 70.6065 186.626 70.5699 187.289 70.2218C188.051 69.8224 188.788 68.7378 189.517 68.4556C190.312 68.1478 191.312 68.5692 191.704 67.9463H191.103C191.184 67.2721 191.679 67.371 191.957 67.1548C192.195 66.9679 192.177 66.6968 192.584 66.5209C193.137 66.2864 193.339 66.5319 193.606 66.5062C193.731 66.4953 195.46 65.2824 195.588 65.1358C195.812 64.883 195.892 64.1721 196.398 63.9486L196.695 64.3444C196.607 63.8057 196.984 64.1099 197.094 64.0256C197.289 63.8717 197.333 63.5602 197.505 63.4503C197.758 63.2891 198.241 63.3953 198.293 63.344C198.391 63.2451 198.183 62.6148 198.329 62.3803C198.373 62.3071 198.879 62.2191 199.088 62.0469C200.015 61.2701 201.642 59.6615 202.499 59.0642C203.122 58.6318 204.027 58.5769 204.624 58.2837C204.98 58.1115 205.104 57.419 205.214 57.3457C205.478 57.1662 207.394 56.0559 207.526 56.0119C207.677 55.9606 208.043 56.2354 208.351 56.1768C208.461 56.1548 209.021 55.2974 209.234 55.1655C210.077 54.6562 211.513 54.4253 212.279 54.0479C212.535 53.9233 213.646 52.4613 213.986 52.1682C214.965 51.3327 215.899 51.2558 216.826 50.7135C217.086 50.5632 217.112 49.8927 217.277 49.6692C218.109 48.5149 219.952 48.2731 220.051 48.1449C220.128 48.0459 220.062 47.7088 220.274 47.4743C220.501 47.2288 221.755 46.7634 222.227 46.4337C223.246 45.7191 225.038 43.8504 226.258 43.6599C226.797 43.5756 227.526 43.931 228.13 43.7808C228.324 43.7331 228.379 43.2788 228.676 43.0809C228.731 43.0443 229.889 42.6888 229.959 42.6888C230.208 42.6888 231.641 42.96 231.82 43.0479C232.165 43.2165 232.725 44.2058 233.454 43.9786L234.066 41.7801C234.286 41.8534 234.968 42.0219 235.136 41.9743C235.286 41.9303 235.254 41.6079 235.349 41.6079C235.821 41.6079 236.507 42.1245 237.034 42.011L237.558 44.1912L239.222 44.6162C239.412 44.9387 239.335 45.6972 239.504 45.9317C239.574 46.0306 241.12 46.8331 241.549 47.1812C243.285 48.5809 243.106 48.6982 245.195 49.7278C245.678 49.966 247.543 51.1019 247.789 51.1349C249.463 51.3767 249.599 50.9003 251.589 51.7211C252.959 52.2854 253.003 51.6845 253.952 51.5782C255.231 51.4353 256.92 51.7651 258.144 51.9959C258.265 52.0179 258.206 52.3294 258.323 52.3367C259.419 52.3953 259.767 51.8237 260.566 51.6405C262.171 51.2704 263.948 52.0876 265.34 51.974C266.198 51.9043 268.03 51.0872 268.726 51.1605C269.159 51.2045 269.272 51.7321 269.924 51.7834C271.434 51.9007 273.713 51.1385 275.366 51.2155C275.725 51.2338 275.893 51.5599 276.201 51.6478C277.187 51.9263 278.129 50.9883 279.111 50.882C279.887 50.7977 280.928 51.0909 281.672 50.926C282.646 50.7061 282.731 50.2225 284.262 50.2151C286.131 50.2041 286.362 50.2958 288.308 49.6545C288.846 49.475 290.829 49.7974 291.507 49.7278C293.031 49.5702 294.449 48.6065 296.329 48.4417C298.425 48.2584 297.761 48.5076 299.784 47.859C300.968 47.4816 302.294 47.6978 303.478 47.6905C304.152 47.6868 304.628 47.1848 305.185 47.7674C305.343 46.9796 306.599 47.4487 307.479 47.1592C308.358 46.8697 310.451 45.5946 311.257 45.6202C311.737 45.6349 311.781 46.1149 311.883 46.1405C312.023 46.1735 312.389 45.906 312.766 46.0782C313.756 46.5289 314.071 47.3131 315.58 46.7708L315.405 47.2764C316.119 47.4083 315.493 48.361 315.694 48.7788C315.819 49.0389 316.826 49.6399 317.167 49.7828L316.984 50.3617L317.97 50.3727C318.036 50.7574 317.973 51.1495 317.841 51.5123C317.728 51.8237 315.903 52.8864 315.657 52.912C315.188 52.9596 314.807 52.421 314.239 52.6995C313.565 53.0293 313.983 54.0955 312.525 53.7548C312.36 53.7145 312.437 53.348 311.858 53.2345C311.751 53.2125 309.897 53.4323 309.762 53.4616C309.12 53.5972 308.945 54.4033 308.629 54.5499C308.476 54.6232 306.46 54.953 306.273 54.942C305.977 54.9237 304.976 53.971 304.185 54.0626C302.902 54.2091 303.104 55.2388 302.4 55.6345C302.312 55.6858 300.561 56.0449 300.418 56.0559C299.879 56.0962 299.007 55.1289 298.996 54.5609L298.403 55.1582L298.3 54.5609L297.003 55.6602L298 56.3564C297.692 56.2208 296.878 56.36 296.702 56.3124C296.567 56.2758 296.596 55.9899 296.351 55.891C295.845 55.6895 294.68 55.8251 294.156 55.9753C293.932 56.0412 294.156 56.5506 293.408 56.1585L293.808 56.9536L291.122 57.364L290.605 56.36L290.217 56.3674C290.176 56.3967 290.272 56.6825 290.118 56.7155C289.425 56.862 287.487 56.4003 287.095 56.7338C286.813 56.9756 286.846 57.6242 286.483 57.7378C286.252 57.8111 285.944 57.6315 285.71 57.6682C285.222 57.7378 284.035 58.1555 283.665 57.7048C283.2 57.1405 283.819 56.2098 282.024 56.1548L281.379 58.1225C280.682 57.8697 279.543 58.6355 279.015 58.2654C278.836 58.1408 278.81 57.6792 278.631 57.4483C277.986 56.6202 276.315 57.1368 275.358 56.7778C274.801 56.928 274.93 58.0712 274.64 58.2654C274.417 58.4157 273.915 58.3167 273.585 58.4083C273.306 58.4853 273.134 58.7638 272.731 58.7747C271.921 58.7931 271.269 57.4227 271.119 56.7448L270.02 56.851C270.122 58.1189 269.177 58.5622 268.008 58.6502C266.594 58.7564 266.597 57.4263 265.857 57.2431C265.469 57.1478 263.922 56.9793 263.53 56.9866C262.365 57.0123 262.713 58.2837 262.398 58.5183C262.105 58.7344 260.221 58.8627 259.844 58.6538C259.06 58.2215 259.269 56.3417 258.078 56.851C258.257 58.5805 255.777 58.9177 254.656 58.2471C254.359 58.0676 254.23 57.3457 253.71 57.1955C253.443 57.1185 251.424 56.8291 251.112 56.8217C250.083 56.8034 250.497 57.888 250.13 57.9686L247.789 57.5216C247.382 57.3787 247.334 56.459 247.001 56.2135C246.697 55.9899 245.898 55.9973 245.462 55.8507C244.813 55.6272 243.659 54.7075 243.861 53.9563C241.959 54.6818 241.003 52.6152 239.977 51.3767C238.874 51.5782 239.233 52.1059 238.929 52.7178C238.742 53.0989 237.98 53.8354 237.785 54.1762C236.869 55.7921 236.576 57.2541 235.323 58.39C235.276 58.4303 234.759 59.35 234.733 59.405C234.312 60.2698 235.224 61.8967 233.674 61.948L233.476 61.347L233.33 61.959L232.875 61.9443C232.802 62.0029 233.289 63.4796 233.224 63.8167C233.198 63.956 231.699 66.0556 231.538 66.0995C231.234 66.1838 230.886 66.0702 230.615 66.1435C230.464 66.1838 230.479 66.4513 230.431 66.4769C230.384 66.5026 229.71 66.1215 230.146 66.88C230.201 66.9753 230.772 66.9057 230.369 67.7301C230.296 67.8803 228.922 69.4669 228.786 69.5439C228.339 69.7931 227.859 69.6611 227.705 69.7601C227.61 69.8187 227.214 71.3467 226.873 71.8267C226.533 72.3067 225.481 72.9443 225.378 73.1275C225.192 73.4609 225.294 74.0435 225.144 74.4906C224.854 75.3407 224.026 75.9306 223.312 76.4656C222.92 76.7587 222.289 76.4216 222.392 77.5392C222.454 78.1841 222.817 77.5722 223.063 78.0339L223.077 78.7191L222.682 78.5139C222.762 79.0855 222.678 79.1735 222.11 79.1368L222.169 79.5142C222.04 79.7597 221.663 79.7744 221.399 79.7194C221.216 79.6828 221.399 79.0965 220.882 79.309V79.91L220.582 79.5106L220.479 80.1115L219.882 79.5142L220.175 80.9213C221.93 81.273 219.703 82.4383 219.479 83.3067C219.138 83.314 219.391 82.889 218.915 82.812C217.585 82.5958 217.163 84.0505 218.248 84.8017L216.361 87.0772C216.082 86.8903 215.269 86.6998 215.086 86.5788C214.888 86.4506 214.998 86.0365 214.694 86.1025C214.393 86.7437 215.24 87.7624 215.203 88.1178C215.17 88.4549 214.521 88.7297 214.36 88.9752C214.137 89.3197 214.554 89.6604 213.928 89.338C213.778 89.5212 213.576 90.1808 213.459 90.2577C213.213 90.4189 211.894 89.6714 212.491 91.0932C211.608 91.0528 211.388 92.262 210.516 92.3903C209.729 92.5039 209.336 91.9872 209.498 91.2214C208.681 90.6168 208.45 92.4159 208.065 92.6541C208.003 92.6907 207.548 92.3976 207.105 92.797C206.889 92.9949 206.493 93.768 206.295 94.0905L205.896 93.2953L205.5 93.8926L205.295 93.0975L204.899 93.6947L204.295 91.6977C203.672 91.8626 203.972 93.2331 203.694 93.4932C203.195 93.6911 203.345 93.1048 203.177 93.0975C202.851 93.0792 202.385 93.2111 201.924 93.0572C201.077 91.3606 202.653 90.6168 202.492 89.0998L201.898 89.4992C202.067 88.8067 201.257 88.367 201.14 87.9602C200.546 85.9376 202.136 84.4426 201.887 82.6215C201.851 82.343 201.601 82.1268 201.554 81.7347C201.356 80.1481 202.503 79.1222 202.946 78.0485C203.357 77.0482 203.444 75.784 203.91 74.6738C204.375 73.5635 204.075 73.8603 204.192 72.8234C204.357 71.354 205.584 70.5515 205.984 69.7198C206.625 68.3823 206.588 66.3011 208.516 65.5975L209.289 62.5416C208.582 62.6845 208.472 63.5089 207.878 63.824C207.369 64.0952 206.456 64.0659 206.141 64.2124C205.779 64.381 205.057 65.9163 204.485 66.3963C204.434 66.4403 203.47 67.0449 203.393 67.0815C203.21 67.1731 202.407 66.8543 202.495 67.5322L202.1 67.1365C202.059 67.7044 202.25 68.3457 201.913 68.8477C201.121 70.0312 199.432 69.8444 199.029 70.3097C198.626 70.7751 199.179 71.4969 197.769 72.0942C196.853 72.4826 196.255 72.2151 195.325 72.1345C194.841 72.7134 195.625 73.1935 195.416 73.5306C195.354 73.6295 193.577 74.6408 193.357 74.6884C192.701 74.835 192.961 74.388 192.712 74.2231C192.001 73.7504 190.371 74.5712 190.722 75.5972C190.88 76.0552 191.69 75.7327 191.506 76.2164L189.806 77.5172C189.345 77.6235 189.154 76.6305 189.106 76.319C188.637 76.821 188.018 76.4326 187.468 76.7221C186.747 77.1032 187.197 79.5655 184.812 79.5289C184.196 79.5216 183.57 79.1918 182.914 79.3164C183.376 79.789 183.141 80.1152 183.112 80.7124L182.536 80.5182C182.342 81.295 181.485 81.5552 180.895 81.819C180.433 81.4379 179.678 80.9543 179.715 80.313L179.319 80.7088L179.121 80.1115C179.022 80.4156 178.729 80.9689 178.524 81.1814C178.378 81.3317 178.198 81.1521 178.11 81.2144C178.037 81.2657 177.623 82.1195 177.11 82.3906C176.754 82.5775 176.278 82.5189 176.018 82.9073C175.446 81.7677 174.882 83.6035 174.417 84.0982C173.728 84.831 171.852 84.864 170.954 84.5672C170.595 84.4499 170.595 84.4939 170.426 84.1092L170.126 84.7064C170.921 84.7064 171.441 85.3 171.324 86.1062L170.65 85.89C170.455 86.4909 169.47 86.1941 168.832 86.5092L168.623 85.8936C168.026 86.1868 165.787 86.0182 165.458 86.1611C164.915 86.392 164.827 88.1691 163.237 88.312C161.958 88.4293 161.907 87.9676 161.035 87.308C160.273 88.5612 158.84 88.5978 157.543 88.0042C156.997 87.7551 157.671 87.7111 157.73 87.5535C157.788 87.396 157.997 86.762 157.942 86.7071C156.55 86.5532 153.204 86.5312 154.113 84.4023C153.56 83.9736 153.783 83.5229 152.845 83.5485C151.548 83.5852 152.083 84.373 151.449 84.5122C150.958 84.6185 151.5 84.0652 150.973 83.9406L150.951 83.5119L150.354 83.7134L150.533 83.1345C150.02 83.0319 149.863 82.7864 149.954 82.2514C150.39 81.4782 151.376 82.1122 151.152 81.1155C150.328 81.3353 150.573 80.5805 150.306 80.3607C150.038 80.1408 149.163 80.1884 148.859 79.5142C148.521 78.7667 148.969 78.1731 148.895 77.6491C148.844 77.2717 148.243 77.2058 148.954 76.5206C148.309 76.6671 147.781 76.6012 147.195 76.2751C147.07 75.5312 146.733 74.7288 147.14 74.0032L146.755 73.8237C147.125 72.9773 148.078 72.9589 147.954 71.922L147.356 72.1198C147.913 71.5958 147.411 71.4933 147.55 70.929L146.206 70.6725C145.898 70.0789 146.03 69.4193 145.957 68.822C145.92 68.5399 145.872 68.2577 145.561 68.5252C145.499 69.3863 144.96 70.2401 144.462 69.1262L143.604 69.9616L143.762 70.3207L143.164 70.1228C143.172 70.6908 143.685 71.0682 143.758 71.6398C143.908 72.8307 142.494 74.5052 141.164 74.3184C142.014 76.2494 140.636 77.5099 138.804 77.9496C138.771 78.5139 138.467 79.8477 138.108 80.2471C137.826 80.5622 136.972 80.5988 136.814 80.7527C136.649 80.9176 136.657 81.6468 136.55 81.9546C136.492 82.1268 136.342 82.6105 136.323 82.6545C136.283 82.7571 135.374 83.7427 135.191 83.8233C134.663 84.0542 133.656 84.0872 133.462 84.5122C133.37 84.7101 133.549 84.9446 133.509 85.0655C133.484 85.1425 132.439 85.7507 132.571 86.3004L133.37 86.1025C133.117 86.9013 134.008 86.6558 134.169 87.0039V87.297C133.238 87.3337 133.619 88.0628 133.571 88.0995C133.091 88.4512 133.286 87.6158 132.974 87.7038V88.5062L132.172 88.4183L131.772 87.2091C132.491 87.5095 132.135 86.6008 131.78 86.5092C131.772 87.1541 130.915 87.0515 130.49 87.5169C129.97 88.0848 129.922 89.1621 128.969 89.7997C128.475 90.1295 127.225 89.9902 126.976 90.2137C126.661 90.4995 126.558 91.3643 125.979 91.7967C124.748 92.7164 123.554 91.3057 123.341 92.8043C122.355 93.2587 122.088 92.0202 122.187 91.302C119.006 91.6868 118.797 90.353 119.204 87.6158L118.614 87.4949L118.391 85.5126L119.178 85.1864C119.186 84.4279 118.761 84.0432 118.775 83.2151C118.794 82.2038 119.512 81.6981 119.391 80.7161L119.757 80.87L119.889 80.5182L120.193 81.1155L120.49 80.7198C120.805 81.1375 120.747 81.4489 121.388 81.3207C121.337 80.8004 121.304 80.5988 121.798 80.3973C121.293 78.785 121.337 80.5549 120.424 80.1481L120.193 80.5182L119.988 79.32L119.592 79.5216C119.299 79.1991 119.823 77.0922 120.036 76.6671C120.41 75.9123 120.897 75.7694 121.205 74.6225C121.381 73.9629 121.604 71.7241 121.831 71.2807C122.077 70.8044 122.681 70.5992 122.593 69.936L122.791 70.3354L123.183 70.0386C122.275 69.1848 122.498 68.4446 122.934 67.3454C123.37 66.2461 123.891 66.0849 124.268 65.3264C124.579 64.7035 124.708 63.6262 125.177 63.0949C125.47 62.7614 126.074 62.7431 126.393 62.2594C127.17 61.0759 126.983 59.7494 128.467 58.4303C129.361 57.6352 128.826 57.9466 129.281 56.9573C129.548 56.3747 130.16 55.2388 130.86 55.345C131.087 55.378 130.842 55.8507 131.175 55.7628C131.186 55.3487 131.116 54.9237 131.226 54.5133C131.263 54.374 132.663 52.1608 132.765 52.0582C133.066 51.7614 133.571 51.7541 133.788 51.483C134.048 51.1605 134.022 50.4203 134.429 50.0246C134.946 49.5226 136.25 49.0279 136.781 48.6652C136.95 48.5516 136.792 48.2804 136.844 48.2218C137.943 46.9576 139.258 46.5802 140.753 46.0636C141.16 45.9243 141.233 45.3491 142.16 45.7741L141.963 44.7774C142.732 45.1658 142.476 44.6822 142.706 44.5906C142.992 44.4733 143.37 44.4916 143.622 44.3451C143.963 44.1509 144.876 43.0589 144.982 42.9893C145.099 42.9087 145.411 43.1945 145.531 43.1505C145.55 43.1432 145.568 42.8757 145.704 42.7878C147.814 41.399 151.673 40.9007 154.076 41.8644L154.073 41.8607ZM144.392 50.3361C144.282 50.2371 144.491 49.889 144.157 49.9733V50.97L143.359 50.7684L143.157 51.5672C143.619 51.4427 143.912 51.6882 144.047 51.1715L145.147 51.5819V52.1535C144.341 52.3184 144.029 53.1172 143.069 53.1575C142.871 52.7105 142.259 52.3221 142.56 51.9703C141.801 51.8677 142.578 52.7618 141.49 52.5566C141.281 52.5163 141.497 51.9776 140.962 52.1682C141.182 53.1319 141.101 53.9563 141.761 54.7624C140.819 54.429 140.119 56.3124 139.815 56.3637C139.203 56.4626 138.328 55.8251 138.137 56.7338L137.565 56.5652V57.5656L138.452 57.5619L138.566 58.0639C137.807 58.4047 137.65 59.7751 136.69 59.5626C136.572 59.5369 136.532 58.914 135.964 59.1632L135.565 59.7641L136.162 59.9656L135.752 60.2734C135.829 60.5299 135.975 60.7754 135.961 61.0502C135.953 61.2188 134.821 63.0655 134.685 63.1791C134.374 63.443 133.945 63.3184 133.582 63.377C133.711 64.0732 133.029 66.6418 132.524 66.913C132.267 67.0522 131.868 66.8543 131.604 66.9936C131.34 67.1328 131.054 68.2028 131.16 68.5472L130.765 68.1478C130.585 69.0785 131.245 69.4706 130.941 70.3757C130.776 70.874 130.116 70.7677 129.911 71.1964C129.684 71.6765 129.992 72.6658 129.918 73.1825C129.728 74.5565 128.914 75.8134 128.368 76.8833C128.302 77.0152 128.368 77.2644 128.361 77.4329L127.962 77.334C127.811 77.9166 128.445 78.283 128.46 78.7447C128.508 80.4083 127.137 81.2877 127.562 82.7277C127.936 82.1708 129.043 81.4306 129.332 81.0056C129.669 80.5146 129.75 79.5875 130.109 78.9829C130.38 78.5285 131.12 78.1365 131.406 77.6931C132.044 76.6964 132.201 76.2311 132.956 75.1904C133.212 74.835 133.539 74.1571 133.751 73.7431L134.048 74.1388C134.422 73.9886 134.257 73.3034 134.389 73.1678C134.48 73.0725 134.828 73.2191 134.975 73.0212C135.081 72.8747 134.942 72.4899 135.066 72.3324C135.176 72.1968 135.546 72.1821 135.561 72.0209C135.583 71.7937 135.228 71.3687 135.231 71.0389C135.239 70.1008 137.166 69.2068 137.342 68.2284C136.657 68.1148 137.071 67.5249 137.342 67.0376C137.987 65.876 139.255 65.7075 139.145 64.1465L139.54 64.348C139.295 63.2781 140.643 62.7468 140.992 62.0982C141.318 61.4863 141.391 60.2917 141.684 59.5992C141.926 59.0239 143.113 58.2105 143.252 57.954C143.45 57.5949 143.058 57.0746 143.183 56.5139C143.212 56.382 144.044 54.5719 144.132 54.451C144.352 54.1542 144.835 54.0113 144.89 53.9123C145.015 53.6961 144.89 53.2784 145.044 52.9706C145.451 52.1645 146.022 51.7028 145.913 50.5999C145.59 50.0722 144.436 50.3837 144.374 50.3287L144.392 50.3361ZM229.754 51.0836C229.431 50.7611 229.237 50.1162 228.669 50.1675C228.592 50.6585 228.885 51.1972 228.695 51.6772C228.658 51.7688 227.918 52.6335 227.859 52.6628C227.54 52.8387 227.244 52.5896 226.921 52.7068C226.562 52.8387 226.357 53.2967 226.06 53.4543C225.792 53.5972 225.393 53.5056 225.28 53.5716C225.247 53.5899 225.485 54.0882 225.074 54.2568L225.869 54.7551L225.071 54.9566L225.668 55.1582L224.47 54.7624C224.664 56.3197 222.147 55.1472 222.469 56.9573L223.268 57.2541C222.846 57.5875 222.169 58.5659 221.685 58.6722C221.439 58.7235 221.3 58.3497 220.86 58.4303C220.608 58.4779 220.238 59.1558 219.761 59.1448L219.864 59.6322L219.494 59.7714L219.479 60.1562C220.443 60.1891 219.856 61.5339 219.417 61.9077C219.12 62.1605 218.772 61.9516 218.475 62.0542C217.973 62.2264 217.621 62.7834 216.877 62.5599C216.844 62.9226 217.328 62.6881 217.581 62.9446C217.64 63.0033 217.559 63.3147 217.632 63.4943C217.731 63.7288 218.079 63.934 218.035 64.2124C217.984 64.5569 216.874 66.2864 216.621 66.4953C216.331 66.7371 215.84 66.6565 215.569 66.946C215.793 68.0342 215.452 69.401 214.463 70.0349C214.21 70.1961 213.576 70.2767 213.506 70.383C213.415 70.5259 213.539 70.852 213.466 70.9913C213.36 71.1964 213.14 71.1561 213.111 71.2477C213.078 71.3503 213.213 72.2884 212.865 72.6402L213.279 72.8417C212.891 73.2411 212.916 73.8054 212.715 74.2817C212.305 75.2601 211.967 75.6118 211.081 75.9453L211.861 76.6342C211.436 77.2681 211.257 78.884 210.897 79.419C210.733 79.6608 210.395 79.2431 210.011 80.3167C209.747 81.0569 209.593 82.2257 210.637 82.0792L212.385 78.9426C213.411 78.7081 212.766 78.415 213.276 77.6381C213.547 77.2241 214.584 76.5792 214.635 76.4912C214.749 76.286 214.609 75.9343 214.708 75.7804C214.785 75.6595 215.295 75.6558 215.551 75.348C215.698 75.1721 216.214 73.6918 216.555 73.2264C216.914 72.7354 217.643 72.336 217.9 71.7791L218.369 71.9513L218.274 71.3503L218.871 71.7461C218.625 70.5222 219.571 69.4743 220.329 68.6095C220.487 68.43 220.853 68.4776 221.018 68.2981C221.362 67.917 221.82 66.1069 222.322 65.6049C222.48 65.4473 223.257 65.1871 223.473 64.8464C223.601 64.2491 223.059 64.3627 223.07 64.2637C223.176 63.2414 225.422 60.8487 225.452 60.6325C225.485 60.3907 225.137 60.2001 225.104 60.0206C225.082 59.8997 226.177 58.1225 226.353 57.9466C226.731 57.5729 227.152 57.6059 227.526 57.1185C228.248 56.1768 227.947 53.7987 229.644 54.1432L230.468 51.6882C230.223 51.494 229.977 51.3071 229.754 51.0836ZM227.068 61.1565L226.474 61.1638C226.731 62.0212 225.558 61.5302 225.763 62.3693C225.818 62.5892 226.001 62.7981 226.166 62.9483L226.269 62.351L226.862 62.7504L227.064 61.1528L227.068 61.1565ZM146.953 65.9493L147.052 65.1542C146.382 66.3743 145.18 65.8174 145.172 67.4736C145.165 69.0236 146.085 68.2724 146.154 67.1512L146.55 67.5469C146.297 66.8177 147.334 66.869 147.954 66.7444V65.9493L146.953 65.9456V65.9493ZM124.099 71.6911C124.231 71.3137 124.341 69.8737 123.781 69.7454V70.5479H122.978C122.945 71.1781 122.883 71.7681 123.484 72.1455C123.638 72.2188 124.085 71.7351 124.099 71.6985V71.6911ZM120.78 87.7221L120.941 86.4799L120.384 84.9263C120.487 85.4283 120.175 85.9559 120.193 86.4103C120.204 86.6595 120.461 87.6231 120.78 87.7221Z" fill="#DA1112"/>
<path d="M114.216 4.66764C116.48 6.78556 118.587 9.38715 119.778 12.3918C119.972 12.8755 120.859 13.5607 121.17 14.1983C121.742 15.3672 121.383 15.8692 121.507 16.8402C121.632 17.8112 122.511 18.5037 122.669 20.0903C122.98 23.2745 122.881 24.7805 122.332 27.9391C121.98 29.9654 122.739 30.9181 121.713 32.9114C121.493 33.3401 120.676 34.0876 120.588 34.3625C120.555 34.4577 120.364 35.8904 120.295 36.2935C120.188 36.8908 120.368 38.1696 119.869 38.4737C119.679 38.591 119.331 38.3198 119.177 38.5507C118.616 39.3898 119.115 42.061 117.982 42.9697C117.777 43.1346 117.4 43.0943 117.261 43.2848C116.901 43.7832 116.74 45.7325 116.323 46.4947C115.905 47.2568 115.165 47.0626 115.282 48.2352C115.322 48.6346 115.652 48.7812 115.549 49.3015C115.498 49.5543 114.718 51.1666 114.571 51.3351C114.318 51.6209 113.765 51.577 113.578 51.9397C113.384 52.3245 113.534 52.9291 113.439 53.3981C113.171 54.6989 111.654 55.0726 111.094 56.04C110.801 56.542 110.518 57.6962 110.229 58.0773C109.474 59.0776 108.096 59.7408 107.99 61.529L106.48 62.4524C105.909 63.2512 106.744 64.1122 106.656 64.7828C106.612 65.1126 105.381 67.1206 105.106 67.2195C104.802 67.3258 104.271 66.9117 103.981 67.3184C103.699 67.7105 104.223 68.414 104.062 68.9783C104.033 69.0773 103.073 70.6529 102.999 70.7262C102.523 71.2098 101.929 70.6346 101.589 70.8984C101.101 71.2795 101.186 72.7781 100.497 73.4084C100.182 73.6978 99.3755 73.8188 99.1996 74.1156C98.9505 74.5406 99.1263 75.5153 98.7049 76.2188C98.1407 77.1642 97.3382 76.9553 96.8142 77.3254C96.4624 77.5746 96.6237 78.1828 96.107 78.1169C96.2756 78.6335 96.8142 78.7691 97.3016 78.7141C97.4335 78.8277 96.1766 80.8724 95.5904 80.92C95.1067 80.9603 94.6926 80.3044 94.121 80.5279C93.7399 81.3671 93.8682 82.0119 94.7183 82.4187C94.099 83.4044 93.4395 85.5003 92.3732 83.6938C91.5341 83.5839 91.3838 84.1812 91.12 84.8151C92.8349 85.8777 91.2483 86.8414 90.7243 88.0103C90.127 88.3474 89.592 87.6768 89.0021 88.0909C88.4122 88.5049 89.3722 88.9227 89.0131 89.6958C88.9655 89.8021 87.6134 91.1468 87.5071 91.1945C87.1846 91.3374 86.7266 91.2421 86.5031 91.396C86.4298 91.4436 85.9315 92.4257 85.4625 92.6418C85.0374 92.8361 84.0554 92.8214 83.5241 93.0999L82.9305 92.0079L80.5231 92.1032C81.3365 93.9023 80.9775 94.375 79.0574 93.906C78.8229 93.8217 78.9512 92.8837 78.123 93.0999C78.0791 92.5026 78.5078 92.2974 78.9182 92.0043C78.3392 91.3117 77.6247 91.7661 76.9102 91.6232C76.6427 91.429 76.4412 89.4393 76.5291 89.0473C76.5658 88.8897 76.9945 88.908 77.0824 88.3694C77.1813 87.7648 76.9358 87.3983 76.9615 87.0099C77.0934 85.1522 77.7529 84.456 77.5551 82.5652C77.4012 81.0702 78.8376 80.2092 79.1234 78.9193L79.5154 79.1209C79.5228 78.912 79.3872 78.7068 79.4275 78.4943C79.5887 77.6076 79.739 75.5336 80.0138 74.918C80.2373 74.4197 80.5561 74.4343 80.71 74.1669C81.168 73.3717 81.0764 71.9207 81.5417 70.8544C81.7872 70.2901 82.8279 69.2238 82.9012 68.9783C83.099 68.2931 82.9818 67.1535 83.1613 66.483C83.4068 65.5669 85.0411 62.7565 85.7043 61.8917C85.8875 61.6536 86.3016 61.5766 86.4188 61.3421C86.5251 61.1259 86.3126 60.8291 86.4188 60.5543C86.9391 59.1985 88.2656 58.4913 88.9984 57.535C89.4894 56.8974 89.7313 55.7652 90.215 55.1569C90.5447 54.7465 91.3472 54.4644 91.4535 54.2958C91.8529 53.6656 92.3915 52.2585 92.9704 51.6173C93.3002 51.2545 94.154 50.9797 94.5827 50.5327C95.114 49.9794 94.8355 49.5177 95.1873 49.1549C95.616 48.7115 96.8655 48.1436 97.4994 48.1546L97.3125 47.3851C97.9611 47.2642 98.2286 46.5423 98.7123 46.2748C99.2289 45.989 100.174 45.8901 100.75 45.5566C101.23 45.2745 101.732 44.1349 102.091 43.8858C102.475 43.6183 104.08 43.6622 104.549 43.5267C104.883 43.4314 105.092 42.9551 105.414 42.7938C106.861 42.061 108.371 42.3798 109.837 41.9217C110.372 41.035 110.203 39.8734 110.584 38.972C110.801 38.4627 111.35 38.1513 111.445 37.8325C111.746 36.7955 111.632 35.4654 112.219 34.2196C112.394 33.8458 112.684 34.095 112.882 33.8348C112.973 33.7139 113.776 31.2259 113.809 30.9877C113.9 30.2915 113.336 30.5334 113.27 30.2475C112.948 28.8698 115.326 28.6646 114.556 27.9684C114.355 27.7852 113.992 27.7815 113.794 27.3748C113.659 27.1 113.457 26.0117 113.486 25.7039C113.615 24.3958 115.634 23.8681 114.882 22.3915L114.087 22.593C114.263 21.8895 113.549 21.4681 113.486 20.8781C113.365 19.7202 114.311 19.2073 114.285 18.1996L112.889 18.599C113.003 17.3129 110.819 15.4404 113.289 15.6017C113.453 14.3412 112.12 14.4328 112.677 13.2199C110.471 12.7143 109.786 11.9081 109.8 9.59968C107.986 8.92546 107.147 8.74225 106.891 6.60967C106.121 6.93213 105.638 7.10801 104.846 6.76357C104.604 6.65731 102.97 5.49575 102.93 5.38583C102.882 5.25758 103.175 4.9278 103.098 4.81421L102.102 4.61268C101.611 7.2619 99.7346 6.76724 97.7046 6.21394C97.4408 7.03839 98.1077 6.81487 98.1004 7.41214L96.8032 6.81487L96.6054 7.21427L95.5134 6.80388L95.5024 6.01241C94.7586 5.83286 94.3225 6.55105 93.7106 6.7196C91.9884 7.19228 91.2702 5.44445 90.2113 5.59835C89.9475 5.63866 88.9251 6.77456 88.6687 6.8735C87.6097 7.28755 87.0088 6.54005 86.1477 7.73459C85.7996 8.22193 85.9571 8.67629 85.3269 8.91447C84.3962 9.26623 83.3079 9.01707 82.4541 8.56637C82.0144 8.33552 82.1976 7.69062 81.0581 8.04971C80.4938 8.22926 80.3509 9.89281 78.9292 10.3142C78.4638 10.4534 76.3715 10.6806 76.5218 10.0064H76.3276C76.1517 12.5933 73.649 13.6047 72.0294 11.4061C71.5018 11.9778 71.2526 12.5311 70.5051 12.8865C69.8016 13.2199 68.9185 12.9854 68.2516 13.4215C67.2513 14.081 68.0428 15.4148 65.782 15.7482C65.5145 15.7885 65.258 15.6273 65.0308 15.642C63.6457 15.7153 64.8329 16.646 64.3456 17.093C64.221 17.2066 62.9312 17.9138 62.671 18.0384C62.169 18.2802 61.9235 18.1996 61.4362 18.2326C60.3296 18.2985 61.0405 18.6979 60.8536 18.9947L58.4535 20.1819L58.0321 19.3831L56.0718 19.9694C55.709 20.9075 55.1924 22.4904 54.0491 22.604C53.5032 22.659 52.6824 22.3035 52.3489 22.4757C51.6417 23.5347 51.9678 24.3005 50.5388 24.8758C49.4322 25.3192 47.6551 23.7142 47.1531 25.3851C47.3619 25.572 48.8569 25.0334 48.7543 25.6893C48.6591 26.2975 47.23 26.8801 46.6621 26.9827L46.3689 26.6713L46.5521 25.9861C44.6064 25.5134 44.8922 26.3525 44.0312 27.1586C43.2873 27.8548 41.5725 28.4594 41.1621 28.8881C40.8286 29.2362 40.8103 29.9801 40.5282 30.4527C39.7257 31.8048 38.6338 31.083 37.8899 31.563C37.6371 31.7279 37.6114 32.3471 37.3623 32.6842C36.4023 33.9741 35.6144 33.8165 34.1634 33.9814C34.0901 34.2928 34.4419 34.0876 34.5555 34.3222C34.6398 34.4944 34.8303 35.2455 34.7497 35.3555L32.4669 36.9677C32.0162 36.2202 30.4845 35.7036 30.4076 36.9091C30.3856 37.2352 30.9572 37.521 30.741 38.2319C30.6934 38.3821 29.4402 39.4411 29.246 39.5437C28.4326 39.9724 27.6558 39.2945 26.78 39.1699C26.5382 39.9467 27.0585 39.9101 27.1757 40.1116C27.9196 41.3904 25.9995 41.7825 25.2777 42.5666L24.9662 41.57C24.4569 41.6469 23.8853 41.8595 23.7754 42.4677C23.7754 42.53 24.5375 42.7095 24.3543 43.4314C24.3213 43.5633 22.6578 45.2818 22.3207 45.1463L21.0822 44.5453L19.9902 45.6556L20.855 46.3518L20.9576 46.7475C20.4299 46.7915 20.6461 47.3558 20.1331 47.6269C19.4626 47.9787 19.3307 47.4217 18.9129 47.4071C18.759 47.4034 17.9383 48.0923 17.8979 48.1692C17.4363 49.0743 18.2387 49.6349 18.1838 49.8584C18.1435 50.0197 17.755 50.0783 17.6524 50.2285C16.7987 51.467 16.894 52.057 14.9886 51.5623C14.6661 52.2988 15.5345 52.3977 15.5089 52.8594C15.4503 53.8927 13.8453 54.7282 13.303 55.3731C12.856 55.9044 12.2257 57.5899 11.9363 57.9051C11.775 58.0773 10.6538 58.2898 10.4742 58.55C10.4046 58.6526 10.5658 60.0486 10.2727 60.7375C9.88064 61.6536 8.77038 61.8991 8.58717 62.9507C8.1438 63.2402 8.16212 62.1372 7.79204 62.555C7.46592 62.925 8.14014 63.1852 8.18044 63.2988C8.338 63.7458 8.85099 64.9367 8.89863 65.1382C8.92061 65.2335 8.53587 66.4244 8.57618 66.8494C8.63114 67.476 9.36398 67.8278 8.6971 68.3701C8.44427 68.5753 8.13281 68.3921 7.98624 68.4653C7.28637 68.8208 7.85433 71.1219 6.20176 71.4627C4.96692 71.7155 4.80203 70.7371 3.79804 70.3451C3.90064 70.913 4.21942 72.5729 3.5965 72.8551C2.87099 72.5729 2.53022 72.452 2.69877 73.3424C2.29571 72.4777 1.87066 72.6352 1.08652 72.3604C0.884984 71.8914 1.10117 71.3564 0.961932 70.8874C0.789714 70.2974 0.0532063 70.0776 0.00190721 68.6449C-0.0383992 67.5236 0.573525 67.1389 0.573525 66.4537C0.573525 65.4534 -0.261916 65.3544 0.29138 63.5443C0.489248 62.8957 1.0059 62.5623 1.12316 62.1629C1.25507 61.7195 0.961932 61.3714 1.03522 60.9097C1.354 58.8248 3.68811 58.0443 4.28904 56.1499C4.43561 55.6919 4.10583 55.2485 4.58951 54.6586C4.86799 54.3215 5.56419 53.9514 5.9929 54.1639C5.80603 53.5483 5.65946 52.5846 6.0552 52.0277C6.38864 51.5586 7.89463 50.8185 8.18777 50.463C8.48091 50.1076 8.56518 49.2868 8.9939 48.6712C9.44826 48.019 11.0202 46.9014 11.1008 46.7805C11.4306 46.2785 11.35 44.8971 12.4456 44.0323C13.7244 43.0247 15.1571 41.7642 16.3846 40.478C17.4143 39.3971 18.3083 37.0813 20.1808 37.5833C19.7447 36.6453 20.8183 36.605 21.313 36.1176C22.2694 35.1723 23.1341 34.3808 24.1674 33.4831C25.0212 32.7429 25.7797 32.1823 26.9742 32.3875C26.1791 31.5337 28.1651 30.1853 28.8686 30.1853C29.2973 30.1853 29.7224 30.4747 30.1731 30.3904C30.1548 30.1156 29.9422 29.8958 30.0668 29.599C30.1071 29.5037 31.3456 28.1186 31.4299 28.0527C31.7743 27.7889 32.1554 27.9061 32.4192 27.7779C32.8223 27.58 32.8699 26.9351 33.8629 27.3895L34.0791 27.1953C33.83 25.9677 35.5888 25.7442 36.274 25.2019C36.842 24.7512 36.8676 24.0514 37.4942 23.6263C37.8276 23.3991 38.773 22.9777 39.22 22.7542C41.0485 21.8418 42.4885 20.8745 44.3023 19.8485C45.746 19.0314 46.9296 18.0713 48.769 18.1226C48.9705 16.7596 50.788 16.2466 51.8726 15.5284C52.675 14.9934 53.5361 14.0517 54.5401 13.7073C55.1191 13.5057 55.8006 13.667 56.3979 13.2199C56.6727 13.0147 56.8596 12.5237 57.2443 12.2159C57.6804 11.8642 59.3732 10.7539 59.4319 11.6187C60.3186 11.4061 60.6814 10.5707 61.3959 10.1786C64.4518 8.51507 68.5851 7.03839 71.8755 5.87683C73.2899 5.3785 73.1727 5.15132 74.2426 4.64932C75.254 4.17297 76.617 4.05938 77.6723 3.68929C77.9142 3.60502 77.8885 3.27157 78.0571 3.23493C78.7166 3.08836 79.7646 3.28989 80.5671 3.18363C82.227 2.96744 83.4545 1.84619 85.228 1.65565C85.9315 1.5787 86.9501 1.83886 87.3972 1.73626C88.3205 1.5274 89.1633 0.571043 90.2223 0.450124C91.1273 0.347526 92.0507 0.713948 92.9594 0.552722C93.3295 0.486766 93.696 0.120344 94.2309 0.102023C94.9455 0.0763738 95.7809 0.501423 96.8032 0.439131C97.7559 0.380504 98.6097 -0.106837 99.6027 0.0214105C100.731 0.164315 101.556 0.160651 102.538 0.270577C103.52 0.380504 104.875 1.20129 105.843 1.37717C106.433 1.4871 107.272 1.3332 107.939 1.47977C109.478 1.81688 113.091 3.63433 114.216 4.68596V4.66764ZM106.484 49.3528C104.875 49.1329 105.418 49.6239 105.022 50.2871C104.135 51.7748 102.856 51.7089 102.087 52.8448C101.732 53.3724 101.695 54.0356 101.2 54.5523C100.61 55.1679 99.8702 55.0873 99.2912 55.6406C98.8149 56.0986 98.3642 57.2089 97.8915 57.8354C97.5727 58.2568 97.0707 58.429 96.8252 58.7881C96.3415 59.499 96.4808 60.6276 95.5464 60.9757L95.7003 61.3311C94.8868 61.049 94.9784 62.7931 94.099 62.1995V61.5326H93.5054C93.7106 62.2105 93.4614 63.1595 93.5567 63.7751C93.597 64.0463 94.0221 64.3064 93.9158 64.7938C93.8828 64.944 93.4908 65.032 93.3332 65.2482C92.8825 65.8821 92.6627 66.8861 91.7063 66.3254C91.8638 67.2378 91.2556 69.9127 90.7243 70.5906C90.5594 70.8031 90.149 70.7042 90.0024 70.9094C89.9365 71.001 89.3246 72.921 89.3099 73.0346C89.2366 73.5513 89.5114 73.8847 89.5041 74.1925C89.5004 74.427 88.6064 74.7202 88.5697 74.7641C88.5331 74.8081 88.1483 75.7901 88.1483 75.8487C88.1337 76.1199 88.5111 76.3617 88.5258 76.8051C88.5441 77.45 86.9538 78.4291 86.9135 79.0959C87.683 79.1472 88.7969 77.6076 89.0094 77.3144C89.1853 77.0726 89.6836 77.1166 89.8229 76.926C90.0867 76.5303 89.6397 76.1052 89.7972 75.7205C90.083 75.0353 91.2593 76.6402 91.4535 75.7205L92.9704 74.1925C93.1133 73.8737 92.6993 72.4923 92.7506 72.3567C92.7909 72.2505 93.8096 70.7958 94.0074 70.5283C94.9711 69.2165 95.1397 68.6998 95.9311 67.4577C96.2646 66.9374 96.9351 66.5233 97.166 65.926C97.2979 65.5816 97.0707 64.8378 97.2209 64.53C97.6387 63.6652 99.2912 62.3607 99.3975 62.1336C99.5624 61.7855 99.4378 61.3458 99.6027 60.939C99.8445 60.3381 101.116 59.1656 101.534 58.4767C102.157 57.4507 102.827 56.2562 103.435 55.1825C104.128 53.966 104.395 52.5003 105.55 51.4047C105.678 51.2838 106.07 51.3241 106.195 51.1556C106.25 51.0823 106.081 49.6789 106.484 49.3454V49.3528ZM3.36566 68.7658L2.07952 69.3191L2.20044 70.1252L2.9113 69.9383C3.26306 70.8801 4.29271 69.7735 3.9959 68.927L3.51223 69.1395L3.36566 68.7695V68.7658ZM82.5018 75.508L82.707 73.9177C81.223 74.0606 80.5561 75.7205 82.5018 75.508ZM87.8992 79.7218L86.9135 79.5166L86.7083 80.7112C87.0674 80.5353 87.3459 80.495 87.7013 80.7112L87.8992 79.7218Z" fill="#DA1112"/>
<path d="M241.369 54.2578C241.519 54.3677 241.864 54.6645 241.875 54.8624C241.974 56.6066 240.032 55.2178 239.445 54.6572C239.892 53.404 240.416 53.5689 241.369 54.2578Z" fill="#DA1112"/>
<path d="M146.961 65.9516H147.961V66.7504C147.345 66.875 146.305 66.82 146.557 67.5529L146.162 67.1572C146.092 68.2784 145.172 69.0296 145.18 67.4796C145.187 65.8234 146.389 66.3803 147.059 65.1602L146.961 65.9553V65.9516Z" fill="#DA1112"/>
<path d="M124.102 71.6935C124.091 71.7301 123.641 72.2175 123.487 72.1405C122.882 71.7631 122.948 71.1769 122.981 70.5429H123.783V69.7441C124.344 69.8724 124.234 71.3161 124.102 71.6898V71.6935Z" fill="#DA1112"/>
<path d="M227.075 61.1562L226.874 62.7538L226.28 62.3545L226.177 62.9517C226.009 62.7978 225.826 62.5926 225.774 62.3728C225.569 61.5337 226.742 62.0247 226.485 61.1672L227.079 61.1599L227.075 61.1562Z" fill="#DA1112"/>
<path d="M120.782 87.7235C120.464 87.6246 120.207 86.6609 120.196 86.4117C120.178 85.9574 120.486 85.4297 120.387 84.9277L120.944 86.4814L120.782 87.7235Z" fill="#DA1112"/>
<path d="M81.618 74.7289C79.6723 74.9415 80.3391 73.2852 81.8231 73.1387L81.618 74.7289Z" fill="#DA1112"/>
<path d="M87.019 78.9435L86.8211 79.9328C86.4657 79.7166 86.1872 79.7606 85.8281 79.9328L86.0333 78.7383L87.019 78.9435Z" fill="#DA1112"/>
</svg>
