<svg width="178" height="106" viewBox="0 0 178 106" fill="none" xmlns="http://www.w3.org/2000/svg">
<path d="M70.6689 54.7754C70.6412 54.8201 70.4945 54.8307 70.4477 54.9052C70.218 55.2817 70.2754 56.2302 70.1967 56.7981C70.118 57.366 70.0223 57.0682 70.1031 57.7595C70.2073 58.6315 70.2158 58.1849 70.5561 58.6549C70.6944 58.8442 70.7688 60.1565 70.7412 60.4457C70.705 60.8413 70.3647 61.12 70.588 61.49C70.1818 61.5602 69.8245 61.3071 69.5267 61.0668L69.7373 61.4369L69.5246 61.8091L70.2201 62.0218L70.2733 61.8176L70.4796 61.8091C70.5349 62.2557 71.2176 62.6045 70.8007 62.9767L71.1325 63.0384L71.5685 64.9186C71.9067 65.3291 71.9237 65.814 72.0684 66.2458C72.1853 66.5988 72.3768 67.2943 71.8642 67.3348V67.4921C72.4299 67.7495 72.1471 67.9026 72.23 68.1855C72.2662 68.311 72.4576 68.898 72.498 68.981C72.7234 69.4361 73.4019 69.6914 73.6146 70.2061C73.7103 70.4358 73.7422 70.5527 73.4593 70.523V70.6272C73.9804 70.6272 73.8103 71.361 73.8975 71.4652C73.9188 71.4907 74.3505 71.546 74.5164 71.646C74.778 71.8012 74.9333 72.2032 75.2183 72.4329C75.5182 72.6754 75.8712 72.7349 76.1648 72.971C76.5816 72.72 76.99 72.7626 77.4239 72.5137C77.7727 72.3138 78.1981 71.8863 78.649 71.7247C79.1743 71.5354 79.5805 71.6204 80.108 71.2674C81.2119 70.5272 82.3008 70.1869 83.3749 69.3872C83.728 69.1235 84.6362 69.0065 85.0871 68.8129C86.2292 68.3238 87.0566 67.422 88.2349 66.8753C88.975 66.5308 89.7769 65.9672 90.5532 65.6694C90.802 65.5737 91.287 65.5737 91.3997 65.5056C91.4848 65.4546 91.5358 65.1653 91.6336 65.0717C91.7549 64.9548 92.997 64.2975 93.1012 64.2635C93.3373 64.187 93.8435 64.2742 94.0094 64.1614C94.1625 64.0572 94.1157 63.8339 94.2136 63.7509C94.322 63.6595 94.9154 63.5553 95.0771 63.4149C95.1813 63.3234 95.0962 63.1639 95.2153 63.0873C95.7322 62.7577 96.4787 62.6981 96.8871 62.3855C97.3805 62.009 97.8846 61.4837 98.5546 61.1349C98.7715 61.0221 99.1309 61.0158 99.333 60.8477C99.5074 60.7031 99.4649 60.5159 99.5733 60.4266C99.7796 60.2543 100.562 59.8949 100.854 59.7205C101.205 59.5099 101.296 59.1335 101.83 59.4695C101.864 59.4504 102.158 58.9165 102.194 58.8782C103.025 57.9615 104.308 57.4426 105.259 56.7875C105.509 56.6152 105.984 56.5131 105.877 56.1834C106.301 56.3685 106.124 56.1962 106.275 56.0835C106.573 55.8602 107 55.5284 107.356 55.5411C107.288 54.9052 107.617 55.1264 107.887 54.9562C108.417 54.6223 109.042 54.2735 109.521 53.9587C109.797 53.7758 110.25 53.0293 110.482 52.8208C110.595 52.7187 111.316 52.3976 111.378 52.3274C111.433 52.2678 111.358 52.0998 111.473 52.036C111.624 51.9509 112.49 51.9786 112.66 51.8021C112.705 51.7553 112.652 51.5894 112.703 51.5341C112.76 51.4724 112.939 51.5447 113.009 51.4469C113.079 51.349 113.045 51.1129 113.132 51.0045C113.196 50.9258 114.587 50.0452 114.778 49.9155C115.361 49.5241 115.025 49.5901 115.257 49.303C115.336 49.2072 115.61 49.1817 115.733 49.0945C116.148 48.801 116.678 48.0906 117.195 48.3225L117.25 48.0034L117.461 48.214C117.367 47.6504 117.569 47.8737 117.739 47.7524C118.279 47.376 118.849 46.7145 119.587 47.0463V46.7252L120.013 46.9378V46.6167C120.223 46.7528 120.77 46.5869 121.004 46.4891C121.166 46.421 121.14 46.2317 121.259 46.1934C122.159 45.8999 122.756 46.4827 122.671 47.3611C122.967 47.3632 123.173 47.0697 123.463 47.0591C123.928 47.0421 124.783 47.3866 125.281 47.3228C125.466 47.2994 125.487 47.0059 125.564 46.9612C125.728 46.8677 126.417 46.9889 126.232 46.5125L125.86 46.723L126.017 46.0871C126.698 46.6571 126.885 47.2824 126.812 48.1566C126.785 48.5075 126.561 49.0179 126.6 49.32C126.647 49.6943 126.891 49.5709 127.072 49.7007C127.144 49.7517 127.068 50.0048 127.344 49.9091L127.448 49.6986C127.41 49.9687 127.727 49.9091 127.882 50.0601C128.055 50.226 128.165 50.5387 128.35 50.6642C128.516 50.7748 128.68 50.4855 128.618 50.9747C129.016 50.7237 128.969 51.1108 129.156 51.232C129.55 51.4851 130.252 51.7085 130.675 51.9446C130.868 52.053 130.958 52.2444 131.215 52.3614C131.717 52.5869 131.545 52.2997 131.645 52.2636C131.745 52.2274 133.514 52.5146 133.748 52.572C133.846 52.5954 133.825 52.7634 133.955 52.8123C134.522 53.025 134.848 52.9952 135.346 53.1016C135.38 53.108 135.567 53.5057 135.943 53.3015L135.952 52.9931C136.249 53.1675 136.517 52.9782 136.849 52.9889C137.053 52.9952 137.262 53.1058 137.494 53.108C137.783 53.1101 138.425 52.9272 138.608 53.0463C138.685 53.0952 138.676 53.2888 138.787 53.3164C139.002 53.3696 140.231 53.3802 140.51 53.3504C140.873 53.31 140.837 53.0569 141.107 53.0931C141.318 53.1207 141.246 53.3036 141.331 53.31C141.896 53.3632 144.544 53.5291 144.938 53.3781C145.07 53.327 145.291 52.7124 145.57 53.3143L145.782 52.9952C146.118 52.9378 145.772 53.2483 145.835 53.3121C146.04 53.5206 146.044 53.0824 146.101 53.0995L146.167 53.2888L146.578 53.3143V52.9931C146.752 53.1165 146.982 53.0548 147.135 53.108C147.224 53.1399 147.211 53.2802 147.297 53.3036C148.4 53.6057 148.479 53.2483 149.311 53.0165C149.7 52.908 150.259 52.9527 150.685 52.7996C150.848 52.74 150.829 52.5635 150.883 52.5656C151.07 52.572 151.212 52.8166 151.435 52.8655C151.765 52.9399 152.797 52.9527 153.12 52.8378C153.297 52.7762 153.49 52.5656 153.771 52.472C154.052 52.3784 155.762 52.4125 156.066 52.489C156.295 52.5465 156.455 52.7847 156.621 52.7847C156.714 52.7847 156.685 52.572 156.776 52.5146C156.953 52.404 157.163 52.5018 157.346 52.4593C157.529 52.4167 158.15 52.0296 158.571 51.9552C158.829 51.9105 160.115 51.9403 160.33 52.0296L160.449 52.3508C160.649 52.2062 160.877 52.3402 161.094 52.2615C161.438 52.136 162.212 51.4298 162.472 52.0381L162.534 51.8361C162.812 51.9233 163.444 51.8935 163.725 51.8254C163.823 51.8021 163.837 51.6042 163.976 51.5256C164.397 51.2852 165.769 51.1193 166.245 51.2937V50.9726L166.76 51.0023L166.779 51.1831H166.989L167.002 50.8854L167.589 50.7599C167.84 50.9917 168.023 51.0087 168.37 50.8641L168.476 51.1831C168.412 50.7684 168.776 50.5472 168.895 50.1707C169.525 50.2898 170.022 49.8219 170.66 49.7985C171.367 49.7751 171.218 49.9559 172.007 49.5816C172.434 49.3774 173.185 49.2051 173.759 49.1009C174.189 49.0222 174.676 49.2243 175.01 48.8372L175.206 48.8435C175.414 49.2732 176.492 49.4795 176.614 49.907C176.677 50.1346 176.414 50.1707 176.848 50.3792C176.79 50.4727 176.797 50.6791 176.741 50.7365C176.607 50.8769 175.933 50.6684 176.022 51.0768L177.086 50.8641C177.111 50.8343 176.835 50.1409 177.296 50.2282L177.415 50.9598L177.83 51.1321L177.775 51.4001L177.405 51.2916L177.409 52.2423L177.83 52.2487C177.805 53.4164 176.756 53.2888 175.997 53.5504C175.601 53.6865 175.306 54.0757 174.853 54.0544V54.5351C174.117 54.567 173.54 55.0307 172.792 55.1243C172.694 54.6202 172.283 54.7691 172.194 54.3735L171.983 54.584L171.928 54.265H171.771C171.809 54.6202 171.273 54.4437 171.001 54.5862C170.863 54.6585 170.814 54.9903 170.492 54.9031L170.601 55.22C170.193 55.1349 170.173 55.5135 170.048 55.6156C170.016 55.6411 169.355 55.7283 169.242 55.724C168.755 55.7028 167.821 55.4497 167.834 54.9009L167.517 55.0073V54.6521L167.198 54.584L167.304 54.9009C167.121 54.935 166.658 55.0285 166.53 55.1136C166.402 55.1987 166.462 55.4114 166.288 55.5326C166.205 55.59 165.69 55.7559 165.524 55.8155C165.409 55.858 165.241 55.6305 165.282 55.9623L165.109 55.7496C164.558 55.5964 164.703 56.2345 164.222 55.7496L164.114 56.7067L163.331 56.5939C163.197 57.0725 162.71 56.3749 162.623 57.0236L162.517 56.8109L162.093 57.0236L161.855 56.1898L161.56 56.1728L161.666 55.6432L161.453 56.1728L161.294 55.958L160.549 56.2792L160.449 56.0665C160.134 56.3302 159.801 56.1622 159.435 56.1749L159.86 56.3345C159.775 56.8789 159.747 56.8343 159.369 57.0704C159.324 57.098 159.322 57.232 159.256 57.2405C158.943 57.2788 158.191 57.0002 157.742 57.232C157.642 56.9066 157.606 56.5025 157.837 56.2281C157.837 56.1239 157.208 56.0665 157.159 56.0707C157.087 56.0771 157.108 56.2579 157.027 56.2813C156.938 56.3068 156.57 56.1515 156.408 56.1728L156.351 56.494L156.034 56.2834L156.085 56.6024L155.715 56.494C155.832 56.9428 154.924 57.5702 154.596 57.5681C154.156 57.5638 153.431 56.9725 152.95 57.0257L153.056 56.6024L152.635 56.5961L152.578 56.2834L152.42 56.6024L152.367 56.1771L152.048 56.6024L151.995 56.2855L151.889 56.6046L151.465 56.2855C151.676 57.3426 150.908 57.7956 149.938 57.5638C149.813 57.534 149.938 57.3043 149.764 57.349C149.789 57.7871 149.528 57.4575 149.338 57.349L149.232 57.668C149.336 57.349 148.936 57.266 148.911 57.1682C148.83 56.8683 149.017 56.3834 148.86 56.0729L148.702 56.2855L148.654 56.092H148.179L148.118 56.2898C147.954 55.7964 147.784 56.1792 147.743 56.5004L147.533 56.2898C147.616 56.494 147.256 57.0853 147.105 57.1895C146.995 57.266 146.795 57.2809 146.65 57.3532C146.584 57.3851 146.59 57.5425 146.501 57.5638C146.337 57.6 145.74 57.5957 145.567 57.5638C145.259 57.5043 145.11 57.0831 144.661 57.1959V56.8215H143.919C143.896 56.5982 144.289 56.7726 144.344 56.7173C144.368 56.6939 144.444 56.0303 144.132 56.1856L144.076 56.5046L143.866 56.2919C143.643 56.5939 143.292 56.5025 142.962 56.5046L143.387 56.8215H142.962L142.958 57.668C142.647 57.7127 142.358 57.5213 142.271 57.8871L142.154 57.6638C141.226 57.9488 140.265 57.668 140.403 56.5642C140.659 56.4748 140.754 56.4919 140.835 56.1877H138.815V56.545L139.029 56.7173C138.678 56.6918 138.695 57.1278 138.581 57.2235C138.495 57.2937 138.283 57.2745 138.151 57.3554C138.087 57.3937 138.083 57.5213 137.991 57.5638C137.904 57.6042 137.489 57.6638 137.389 57.6531C137.232 57.634 136.222 57.1746 136.181 57.1214C136.071 56.9789 136.154 56.3302 135.524 56.5046L135.843 56.0814H135.42V56.5046L135.314 56.1856H135.101V56.5046C134.818 56.5982 134.931 56.3408 134.837 56.3153C134.69 56.2728 134.422 56.3196 134.403 56.5089L134.038 56.3983C133.912 56.7939 134.335 56.6939 134.365 56.9832C134.42 57.5319 133.727 57.7978 133.255 57.6744C133.131 57.6425 133.28 57.4192 133.027 57.4596C132.921 57.4766 133.049 57.7935 132.761 57.6744L132.708 57.3532L132.442 57.6723L132.423 57.3724L132.117 57.2979C132.164 56.6556 132.464 56.1409 132.336 55.4433L132.23 56.0814L131.911 55.7623L131.8 56.0814C131.426 55.9899 130.954 56.0388 130.588 55.9708C130.407 55.9367 130.307 55.7645 130.16 55.7581C130.137 55.7581 130.052 56.0962 129.786 55.9771L130.105 56.1367C129.939 56.4685 129.686 56.6024 129.784 57.0406H129.465L129.409 56.7194L129.25 57.0385H129.146C129.163 56.7407 128.331 56.6237 128.089 56.7152C127.872 56.2473 127.914 55.924 128.089 55.4497L129.031 55.4369L129.097 54.6989L127.87 54.5968V55.1285L127.55 55.0222C127.538 55.1668 127.619 55.354 127.485 55.4582C127.251 55.6411 126.389 56.1345 126.585 55.5645L126.123 55.4412C125.4 56.6024 124.873 57.9296 124.169 59.1313C123.144 60.8754 121.659 62.3578 121.172 64.372L120.978 64.2912L120.908 64.4762L120.487 63.8764L119.689 64.0551C119.664 64.2422 119.677 64.4677 119.836 64.5932C120.247 64.9165 120.891 64.2571 120.313 65.4525C120.264 65.5545 120.021 65.5992 120.111 65.8608L119.9 65.7523L119.887 66.1713L119.592 66.1841L119.579 66.6031C118.775 66.5946 119.058 65.2951 118.199 65.4354C118.065 65.5482 119.079 66.1628 118.411 66.3372L118.73 66.7094L118.411 66.7626C119.122 67.0859 118.669 67.7963 118.307 68.2536C118.184 68.411 117.909 68.5067 117.892 68.5386C117.854 68.6002 117.988 68.7725 117.941 68.8406C117.775 69.0873 116.997 68.9746 116.712 68.9406C116.601 69.4595 117.25 69.887 116.933 70.3592C116.835 70.506 116.62 70.457 116.523 70.5655C116.501 70.591 116.155 71.0313 116.135 71.0611C116.07 71.1632 116.182 71.395 116.004 71.5056C115.753 71.6609 115.159 71.5269 114.906 71.3865C114.819 71.9544 114.802 73.2943 114.234 73.5772C113.945 73.7218 113.539 73.5517 113.63 74.043L113.313 73.9345C113.085 74.2939 113.375 74.5322 113.368 74.7959C113.364 74.9426 113.041 75.7381 112.96 75.8211C112.913 75.8678 112.771 75.8359 112.715 75.8827C112.611 75.9699 112.594 76.1209 112.439 76.1954C112.265 76.2783 111.407 76.4166 111.341 76.4804C111.142 77.4609 110.735 78.8327 109.491 78.6158L109.291 79.307L109.589 79.5644C109.244 79.5133 109.425 79.8132 109.376 80.0217C109.353 80.1153 109.21 80.1046 109.166 80.1769C109.106 80.2726 109.1 80.4385 109.036 80.5002C108.844 80.6831 108.438 80.4875 108.368 80.8448L108.255 80.6236L107.947 80.7427L107.887 80.5236L107.624 80.7342C106.935 80.3194 106.983 79.424 106.022 79.4751C105.814 79.4857 105.586 79.6814 105.352 79.6877L105.159 80.6321C104.759 80.8554 103.534 80.6704 103.212 80.3577C103.138 80.2833 102.883 79.5304 102.881 79.4027C102.87 79.0263 103.2 78.8838 102.996 78.5031C102.606 78.871 102.551 79.1071 101.934 79.0327L101.756 77.1674C102.298 76.8973 102.423 76.5293 102.676 75.9997L102.451 75.7955L102.676 74.8895L102.413 75.2085L101.966 74.7534C101.751 74.4045 102.013 74.1408 102.009 74.094C101.996 73.977 101.779 73.909 101.76 73.7792C101.751 73.7239 101.981 72.7434 102 72.6881C102.072 72.4946 102.4 72.4755 102.423 72.2925C102.46 72.0139 102.279 71.3397 102.304 71.0121C102.311 70.9292 102.553 69.953 102.602 69.921C102.728 69.836 102.976 70.0253 102.891 69.5808L103.102 69.7913C103.017 69.4999 103.304 69.2149 103.306 68.998C103.308 68.8087 103.142 68.6279 103.144 68.4641C103.147 68.3153 103.648 66.7307 103.742 66.584C103.844 66.4244 104.091 66.4181 104.15 66.2118C104.218 65.982 104.063 65.763 104.101 65.5354C104.127 65.3844 104.678 64.0615 104.78 63.8743C104.95 63.5595 105.233 63.4978 105.303 63.3894C105.467 63.1363 105.707 62.2749 105.858 61.9814C106.099 61.5156 106.501 61.12 106.609 60.6542L106.926 60.7626C106.9 60.4394 107 60.1778 107.243 59.9651L106.822 59.6992C106.798 60.367 106.075 60.3118 106.075 60.8669L105.697 60.769L105.588 60.9838L105.271 60.8775L105.167 61.0859L104.163 60.9753L104.48 61.3965C104.163 61.3454 104.325 61.6474 104.238 61.7921C104.189 61.8729 103.461 62.7428 103.4 62.7662C103.302 62.8045 103.153 62.6577 103.11 62.6854C103.076 62.7066 103.081 62.9257 102.927 62.9789C102.723 63.0512 102.062 62.8959 101.955 63.232C101.853 63.5468 102.298 64.2593 101.828 64.7272C101.741 64.8123 101.624 64.7825 101.545 64.8357C101.466 64.8888 101.462 65.0356 101.326 65.0951C100.652 65.3929 100.29 64.9186 99.6988 65.1207C99.803 65.3525 99.8073 65.7949 99.718 66.0288C99.7052 66.065 99.299 66.6307 99.2692 66.6541C99.0437 66.8286 98.2313 66.8817 97.9633 66.7988C97.7485 66.7307 97.7485 66.4968 97.6442 66.4287C97.3805 66.2522 97.036 66.2649 96.8807 65.8629H96.7233C96.7127 66.2947 96.4085 66.0288 96.2384 66.1671C95.9661 66.3904 96.0044 66.8349 96.0852 67.1369L96.1916 66.9243C96.517 67.1922 96.9573 67.2114 97.3592 67.1369C97.1614 67.4709 97.423 67.5155 97.5698 67.7708L97.0402 67.9856L97.1466 68.4088L96.6148 68.1983L96.6978 68.3876L96.1682 68.9214C95.6237 69.1469 95.5599 67.7793 95.5514 67.4539L95.445 67.7729L93.533 67.8771L93.5245 68.1855C92.8736 68.06 93.0672 68.6513 92.9055 68.8789C92.8417 68.9703 92.6631 68.9086 92.6035 68.9661C92.5525 69.015 92.5971 69.1703 92.5078 69.2638C92.1207 69.6594 91.3146 69.4085 91.0402 69.685C90.6425 70.0848 91.2146 70.2018 91.2083 70.5846C91.2083 70.6251 90.9764 71.3184 90.953 71.3503C90.8956 71.4375 90.4575 71.6289 90.3192 71.7034C90.098 71.8225 90.1767 72.0501 89.5748 71.8842C88.5241 71.5949 88.9367 70.1848 87.6904 70.6421C87.7372 70.9292 87.818 71.3312 87.4777 71.4333L87.7351 71.5864C88.2519 71.2865 88.9367 72.3819 88.3412 72.7073L88.4348 72.9753H87.852L87.7946 73.2943L87.4777 73.0837L87.584 73.507L86.6354 73.6112C86.6992 73.29 86.3845 73.2518 86.3122 73.105C86.1526 72.7838 86.3164 72.3882 86.5227 72.1288H85.1402L85.2402 72.4329C84.8425 72.4818 85.036 72.7498 84.9403 72.903C84.8829 72.9923 84.7404 73.0008 84.6787 73.088C84.6064 73.188 84.5405 73.507 84.2874 73.6644C83.8088 73.9621 83.2813 73.5963 83.0686 74.1451L82.8049 73.8282L82.7858 74.1323L82.4837 74.1472L82.5603 74.3003C82.2626 74.4152 82.4795 75.2681 82.1328 75.3914C82.0286 75.4297 81.9159 75.3446 81.8351 75.3702C81.6883 75.4191 81.5926 75.5658 81.448 75.6062C80.846 75.7743 80.4994 75.2 79.8358 75.3191L79.7188 75.736C80.0463 75.6424 80.0017 76.0529 80.2505 75.8423L80.3569 77.2227L80.0931 77.0121C79.9613 77.0929 79.8358 77.3375 79.7167 77.3907C79.4572 77.5013 79.3189 77.1823 79.2509 77.5353L78.4469 77.2759L78.23 76.4825L78.0194 76.6931V76.374C77.5579 76.9441 77.4558 76.3294 77.0644 76.691L77.0538 76.4932L76.9049 76.4804C76.7029 76.8973 76.3732 76.6484 76.1562 76.7867C75.9265 76.9334 75.8925 77.2418 75.75 77.4013C74.7078 78.5562 74.242 77.8756 72.9149 77.8161L72.8064 77.597L72.9149 77.0121L72.7553 77.2248L72.2789 77.0121L72.3831 77.5417L72.0684 77.3312C72.0045 77.6034 71.358 77.9394 71.073 77.8501C71.0304 77.8374 70.5221 77.2992 70.4349 77.2078C70.3243 77.0887 70.4413 76.8079 70.0457 76.9036L70.1265 76.7143C69.699 76.5506 69.7054 76.1231 69.833 75.7381C69.229 76.0614 69.1885 74.9193 68.9333 74.6725C68.7781 74.5237 68.3527 74.5832 68.2421 74.3025C68.1315 74.0217 68.944 74.0217 69.0928 74.0387L68.9844 73.4007L68.6675 73.507C68.6589 73.3921 68.6972 73.2645 68.6675 73.1539C68.6292 73.0093 68.2846 73.1795 68.7781 72.4988L68.4548 72.1266L68.3825 72.4499L67.923 72.552C68.1485 71.9459 67.7656 71.9969 67.6146 71.7481C67.1148 70.9186 67.1446 70.2422 66.8298 69.4468C66.7213 69.1745 66.4406 69.0256 66.3406 68.8491C65.9791 68.2195 65.86 67.4071 66.011 66.7073L66.4363 67.1327L66.4427 66.2904C66.7979 66.2309 66.8511 66.2054 66.9149 65.8587L67.1808 66.2841V65.5418C67.0531 65.6226 66.481 65.7502 66.4534 65.7779C66.3917 65.8395 66.498 66.1565 66.0131 66.1798C65.9344 65.5737 65.9769 65.3206 65.3857 65.0505C65.4963 64.3869 65.4367 63.1341 64.5009 63.4276C64.3903 63.4617 64.4541 63.7169 64.2052 63.5234L64.3031 64.1146L64.9475 64.1614C64.9773 64.1912 64.8497 64.9654 64.8178 64.993C64.737 65.0654 64.42 64.8846 64.5221 65.3312L64.3116 65.2227C64.4286 65.3823 63.9989 66.1118 63.833 66.0735C63.4225 65.9523 63.2737 65.0377 63.1439 64.9548C63.0567 64.8973 62.7441 64.8782 62.7143 64.9058C62.5335 65.0845 63.0865 65.4354 63.1354 65.5992L62.9248 65.8076L63.2417 65.9693L62.9227 66.1798C62.8483 66.5116 63.2035 66.3309 63.2481 66.6584C63.3417 67.3369 62.4463 67.8154 62.2889 68.3578L61.117 68.411C61.0191 68.8023 61.3956 69.0979 61.4339 69.4297C61.4871 69.8806 61.2722 69.7892 61.0723 70.0189C60.9043 70.2124 60.6576 70.3996 60.6384 70.4273C60.5385 70.5612 60.6448 70.7824 60.4151 70.959C60.0897 71.2078 59.3495 70.8143 59.3112 70.8548C59.2623 71.4928 59.3261 72.5584 58.7285 72.9817C58.4966 73.1454 58.2393 73.1093 58.1032 73.1858C57.9756 73.2581 58.0649 73.4304 58.0245 73.4964C58.0138 73.5155 57.7884 73.373 57.7288 73.5751C57.6182 73.943 57.9394 74.3258 57.7714 74.6768C57.6565 74.9171 57.1035 75.5446 56.8398 75.6615C56.6399 75.7509 56.457 75.6977 56.306 75.7466C56.1932 75.7828 56.2549 76.1273 55.804 75.8466C55.7253 76.3209 55.6998 76.8101 55.4743 77.2482C55.3637 77.4651 54.6853 78.1138 54.4619 78.1564C54.3535 78.1777 54.2025 78.0671 54.0706 78.0926C53.8005 78.1479 53.4899 78.971 53.9961 78.9284V79.0305C53.6495 78.9795 53.8345 79.2815 53.7813 79.4857C53.7601 79.5665 53.6282 79.5431 53.5771 79.6473C53.5389 79.7239 53.6091 79.9068 53.558 79.9727C53.4708 80.0897 52.3521 80.2067 52.1372 80.1493C51.3716 79.9451 51.5864 79.3772 51.1865 79.1305C51.0483 79.0454 50.5867 78.9327 50.4315 78.9391C49.7062 78.971 49.8466 79.5304 49.7317 80.0791C49.166 80.2854 47.9196 80.2003 47.5751 79.6622C47.5325 79.5942 47.2964 78.9518 47.2901 78.871C47.2645 78.4754 47.7729 78.1755 47.3028 77.9692C47.2496 78.4244 46.7243 78.5031 46.3436 78.4988L46.25 76.4953L46.769 76.4825C46.5903 76.0401 47.1348 75.7785 47.0944 75.4744C47.0859 75.4191 46.7881 75.4893 46.8774 75.0532C46.9264 74.815 47.6048 74.1238 46.8243 74.6725C46.6626 74.5938 46.7137 74.345 46.635 74.2727C46.501 74.1514 46.3096 74.445 46.2989 73.7665C46.2904 73.273 46.3138 73.1135 46.4244 72.5754C46.5137 72.1437 46.2224 72.133 46.8711 71.848C46.7924 71.4631 46.7328 71.0823 46.7647 70.6846C46.7902 70.372 46.9072 70.2571 46.9497 70.038C46.971 69.9296 46.8625 69.7722 46.8923 69.6467C46.9497 69.4 47.4262 69.4255 47.3028 69.0405L47.507 69.1426C47.792 68.4407 47.6389 67.6325 47.8579 66.8881C47.9919 66.4287 48.7448 65.5524 48.6619 65.2674C48.6406 65.1908 48.4131 65.2632 48.4747 65.0632C48.5088 64.9526 48.7555 64.7463 48.832 64.5677C49.3787 63.3064 49.9976 61.9984 50.6676 60.7818C50.7867 60.5649 51.144 60.5606 51.0227 60.1161L51.446 60.2224C51.429 59.846 51.6034 59.5163 51.7055 59.1696C51.8565 58.6634 51.8054 58.9654 51.965 58.6719C52.0756 58.4699 52.1777 58.0211 52.3499 57.885C52.5754 57.7063 52.837 57.8297 52.9199 57.7616C52.9774 57.7148 52.9306 57.4256 53.0965 57.3532C53.1624 57.6595 53.3836 57.8701 53.6792 57.9892V57.1384L52.9923 57.2448C52.8434 57.2405 52.954 56.8109 53.1475 56.8194L53.2539 57.03C53.2305 56.8258 53.5027 56.7917 53.5261 56.6195C53.5538 56.428 53.307 56.1962 53.4261 55.9686C53.4751 55.8751 53.8962 55.371 53.994 55.2731C54.313 54.9562 54.8937 54.6861 55.1702 54.4309C55.3914 54.2267 55.6232 53.6844 55.8721 53.3738C55.921 53.3143 55.8933 53.1718 55.9359 53.1314C56.1103 52.9527 56.9185 52.9995 57.1865 52.9952V52.4635H57.8224L57.3992 52.2508C57.3673 51.8127 57.7501 52.0934 57.9288 51.8786L57.5055 51.8254L57.7203 51.2958C58.0266 51.3703 58.1181 51.5872 58.4605 51.4001L58.1415 51.2958C57.9585 51.1321 58.6647 50.3175 58.569 51.0832L58.6753 50.7641L59.3495 50.8811C59.6303 49.9368 60.615 49.0222 61.6466 49.0562L61.653 48.7457C62.14 49.1158 62.3952 48.2055 62.7398 48.0396C62.7994 48.0119 62.9546 48.063 63.0822 48.0119C64.0904 47.6078 63.9436 47.7737 64.8561 47.7333C65.3665 47.7099 65.5622 47.3164 65.894 47.4653C66.0131 46.9378 66.8213 46.9187 67.285 46.7826C67.4573 46.7315 67.6253 46.5593 67.7848 46.5359C68.1293 46.4891 69.4778 46.8911 69.8096 46.7656C69.9606 46.7081 69.967 46.5125 70.0478 46.4678C70.3307 46.3168 70.7795 46.5359 70.6837 45.985C70.6518 45.9297 70.3668 46.3827 70.2754 46.0233C70.2456 45.9106 70.1563 45.4958 70.4179 45.5617C71.3218 46.219 71.3048 47.0059 71.2027 48.0438C71.0581 49.5241 70.6093 50.9215 70.5731 52.5146C70.5646 52.8761 70.7156 54.684 70.6561 54.7818L70.6689 54.7754ZM66.7639 50.762H66.2343V51.081C65.7387 50.8364 65.726 51.1236 65.4091 51.2661C65.2666 51.3299 65.0241 51.3171 64.9199 51.3894C64.8476 51.4384 64.5455 52.3189 64.3201 52.5124C64.0372 52.757 62.7504 52.9889 62.7249 53.276C62.6951 53.6248 62.9972 54.0672 62.6186 54.5287C62.5803 54.5755 62.0507 55.0456 61.9911 55.0668C61.5147 55.2434 61.1829 55.2072 60.7278 55.0307C60.1258 55.4688 60.5895 56.1196 60.4874 56.4302C60.447 56.5514 60.262 56.5663 60.2152 56.6386C60.0408 56.9023 59.7664 57.3596 59.4346 57.5064C59.1517 57.6319 58.6881 57.4468 58.5328 57.7722C58.3775 58.0977 58.5413 58.6166 58.2882 59.1228C58.2435 59.2143 57.7459 59.9417 57.7054 59.9736C57.6012 60.0523 57.3992 60.0353 57.2716 60.1225C56.8143 60.433 56.7058 61.5581 56.3145 62.0898C56.1954 62.2536 55.8274 62.4705 55.7338 62.6194C55.4637 63.0554 55.2489 63.8998 55.0702 64.3826C55.0277 64.4975 54.5747 64.925 54.5619 64.9611C54.4811 65.193 54.6385 65.4142 54.6555 65.6354H54.228C54.43 65.9735 54.0344 66.3181 54.0132 66.5478C53.9919 66.7775 54.1961 66.8902 54.228 67.0774C54.2535 67.2199 53.8154 68.9086 53.7303 69.1171C53.675 69.2532 53.2624 69.4957 53.1901 69.7488C53.1028 70.055 53.2007 70.4549 53.1645 70.7867C53.0943 71.4482 52.7625 71.7417 52.4222 72.2755L52.8434 72.7052C53.4431 72.7073 53.0284 72.3138 53.0795 71.9756C53.1262 71.663 53.6346 71.3354 53.5984 70.9483L53.7813 71.0207L53.8664 70.8356L54.0727 70.9398L54.1259 70.6272L54.2322 70.8399C54.6172 70.7654 54.2578 70.3081 54.3386 70.2018L54.7618 70.5208L54.6576 69.9912L54.9745 70.0976L54.8852 69.3744C55.3148 69.2128 55.3106 68.5003 55.8231 68.3578C55.9678 68.3174 56.1954 68.4705 56.3102 68.2982L56.3591 67.6538L56.5697 67.7623L56.5739 67.39C55.6721 67.0987 56.5463 66.8902 56.7505 66.669C56.8972 66.5095 57.1737 65.965 57.3141 65.746L57.4204 65.9565L57.5778 65.7438L57.8969 66.0629L57.9564 65.746L58.4839 65.7417C58.6094 65.1972 58.184 65.7119 58.1649 65.2121L58.4818 65.3185L58.6966 64.7867C57.4353 64.5124 59.3623 63.5489 59.5346 63.2277C59.7217 62.881 59.4878 62.5641 59.5686 62.3153C59.6239 62.1494 60.5938 60.8116 60.7469 60.6755C60.8724 60.5627 61.436 60.3543 61.4573 60.3203C61.4849 60.2798 61.2765 60.0884 61.2935 59.8864C61.3424 59.3164 61.9039 58.9378 62.1592 58.5847C62.2655 58.438 62.2527 58.1253 62.4123 58.0338C62.5718 57.9424 62.7653 58.0296 62.9185 57.9552C62.9376 57.9445 63.2269 57.6616 63.2354 57.6404C63.3141 57.4723 63.2226 57.2469 63.3183 57.03C63.3545 56.9491 63.9755 55.9559 64.1116 55.7262C64.1733 55.622 64.3711 55.6134 64.4158 55.4752C64.5349 55.1094 64.3307 54.5011 64.3371 54.1076C64.3456 53.6205 64.5859 53.2632 64.5413 52.7783C64.9624 52.9676 64.8518 52.7081 65.0432 52.5614C65.5069 52.2062 65.8919 51.7872 66.4193 51.4107C66.5214 51.3384 66.649 51.3192 66.7618 51.2788L66.7724 50.7577L66.7639 50.762ZM122.246 51.2916H121.716L121.823 51.6085C121.142 51.3426 121.312 51.6064 121.076 51.7595C120.91 51.868 120.681 51.8233 120.515 51.9212C120.251 52.0743 120.102 52.84 119.943 52.9974C119.613 53.3249 118.866 53.393 118.447 53.5461C118.188 54.0459 118.564 54.4181 118.241 54.9796C118.224 55.0115 117.782 55.488 117.752 55.5092C117.503 55.6836 116.612 55.807 116.344 55.5454C116.295 55.7687 116.05 55.8006 115.967 55.9091C115.808 56.1154 116.18 56.8364 115.699 57.4426C115.623 57.5404 115.019 57.9934 114.91 58.0338C114.67 58.1232 114.323 58.0338 114.16 58.2402C113.985 58.4592 114.109 58.8144 114.04 59.076C113.943 59.4546 113.483 60.2692 113.185 60.5053C113.034 60.6244 112.813 60.5861 112.709 60.6691C112.447 60.8796 112.173 62.0473 111.965 62.4238C111.816 62.6917 111.256 63.1086 111.148 63.3064C110.929 63.7063 110.793 64.5868 110.629 64.9654C110.589 65.059 110.159 65.4588 110.148 65.4907C110.08 65.6864 110.153 65.9565 110.129 66.1671C109.631 66.182 109.523 65.9034 109.117 65.7523C108.949 66.0161 108.744 66.0352 108.753 66.3691C109.061 66.4904 109.48 66.2713 109.495 66.6988L109.81 66.2734C109.925 66.6159 109.568 66.8264 109.538 67.0668C109.495 67.4156 109.846 67.3922 109.821 67.6985C109.793 68.0302 109.591 68.2004 109.521 68.4769C109.444 68.7768 109.468 69.317 109.332 69.5659C109.259 69.6999 108.745 70.0699 108.657 70.3868C108.598 70.5995 108.757 70.8611 108.757 71.1057C108.757 71.6587 108.36 72.3521 108.002 72.7009L108.332 73.2815C109.008 73.1135 108.549 72.6818 108.581 72.535C108.593 72.4755 109.151 71.5417 109.195 71.5035C109.217 71.4864 109.312 71.5758 109.361 71.546C109.512 71.4567 109.665 71.1759 109.863 71.3439L109.972 71.2674L109.919 70.7357L110.342 71.0526L110.129 70.523L110.552 70.6272C110.235 69.7509 111.039 68.8257 111.924 68.8087L111.937 68.1834L112.148 68.2919V67.8665H111.722C111.633 67.4687 112.007 67.4624 112.205 67.2348C112.528 66.8605 112.662 66.3734 113.209 66.2734L113.368 66.5925C113.522 66.1479 113.8 66.4329 114.057 66.1139C113.183 65.6247 114.413 65.8842 114.102 65.3099L113.741 65.21C113.666 65.1058 114.221 64.338 114.328 64.2571C114.502 64.1231 114.983 64.0423 115.125 63.7509C115.314 63.366 115.038 62.9831 115.072 62.8747C115.153 62.6152 116.161 61.3242 116.412 61.1327C116.563 61.0179 116.848 60.9158 117.035 60.852C116.533 60.2628 117.25 59.7013 117.567 59.2845C117.692 59.1207 117.892 58.623 117.988 58.5677C118.156 58.4699 118.433 58.5656 118.507 58.4975C118.613 58.4018 118.728 57.7999 118.79 57.6723C118.915 57.417 119.3 57.1895 119.375 57.0597C119.5 56.847 119.46 56.5216 119.636 56.2834C119.741 56.143 119.985 56.0962 120.011 55.9984C120.102 55.6326 119.902 55.0264 119.911 54.6393C119.923 54.1523 120.155 53.7928 120.115 53.31C120.502 53.5397 120.449 53.2271 120.657 53.0548C121.04 52.74 120.972 52.7102 121.225 52.4529C121.559 52.1126 122.45 51.9594 122.24 51.2916H122.246ZM53.8643 65.3631C53.4112 65.0568 53.6686 65.5801 53.173 65.5418C53.1071 66.0246 53.5389 65.7247 53.5878 66.1671L53.6941 65.8481L54.1174 66.1671C54.1429 65.7991 54.1833 65.5758 53.8664 65.3631H53.8643ZM49.9721 66.0607L49.4595 66.182L49.4212 66.5755L49.1234 66.6435L49.6424 66.9009L49.9721 66.4287C50.0593 66.182 49.7658 66.3287 49.7594 66.2181L49.9721 66.0607ZM105.452 66.5925C104.986 66.5201 105.093 66.8115 105.02 67.1157L104.603 67.1752C104.942 67.7155 105.703 67.0731 105.378 66.803L105.239 66.7499L105.452 66.5925ZM70.6986 75.3042C71.1155 75.2234 70.6518 74.2429 70.5391 74.2429L70.1669 74.664H70.5923L70.4859 74.9852L70.6986 75.3042Z" fill="#DA1112"/>
<path d="M1.07621 68.9832C1.08046 68.9598 1.22934 68.8726 1.26337 68.745C1.32293 68.5323 1.23998 68.3324 1.38886 68.1218C1.49946 67.9644 1.86316 67.6816 2.03331 67.8666C1.95674 67.5816 2.20346 67.3838 2.23962 67.1647C2.26514 67.0116 2.1588 66.8308 2.18219 66.6968C2.22686 66.4288 2.78623 64.8315 2.91172 64.7039C2.99254 64.6231 3.22862 64.6763 3.36475 64.4614C3.45195 64.3232 3.27754 63.9595 3.35198 63.717C3.42642 63.4746 3.62848 63.5022 3.7093 63.3299C3.85393 63.0215 4.07938 62.2729 4.30696 62.0091C4.45584 61.8369 4.73021 61.8368 4.77275 61.7858C4.85995 61.6795 5.31723 60.5522 5.4257 60.3693C5.70433 59.8993 6.20202 59.6249 6.28497 59.1506L6.60188 59.2591C6.77203 58.9889 6.95069 58.0637 7.05703 57.9042C7.1017 57.8362 7.29099 57.817 7.34842 57.7234C7.53771 57.4214 7.62066 57.0513 7.93118 56.8153L8.03753 57.0279L8.13749 56.8259L8.40761 56.9216V56.6026L8.60328 56.6536L8.61392 56.8684C9.08183 56.8642 8.81384 57.1003 8.93933 57.1875C9.19243 57.3661 9.06482 56.426 9.15202 56.2835C8.94571 56.258 8.93508 56.2601 8.92232 56.4664L8.40974 56.4962C8.27787 55.9262 8.91594 56.2559 9.03292 55.8901C9.08609 55.722 8.93933 55.1627 8.9606 55.1308C9.05418 54.9946 9.81561 54.5437 9.99214 54.4119C10.3622 54.1332 10.9535 53.7653 11.2172 53.4058C11.3172 53.2697 11.3087 53.0379 11.3746 52.9464C11.4469 52.8486 11.6256 52.9167 11.6788 52.8592C11.7319 52.8018 11.6788 52.6317 11.7192 52.587C11.7596 52.5423 12.7295 52.4509 12.8252 52.4785C12.9209 52.5062 12.8039 52.7167 12.9783 52.6699L13.0783 52.0787L13.7227 52.0319L13.2973 51.8192L13.4122 51.5108L13.9333 51.5002L13.4037 51.3938L13.7248 50.8642L13.9375 51.2896L14.4693 51.1811L14.0439 50.9684L14.365 50.4388L14.6819 50.8621L14.7883 50.4388L15.3243 50.7132C15.4476 50.2304 16.1133 49.5009 16.5579 49.2861C17.0024 49.0712 17.3342 49.1584 17.6872 49.0585C17.8234 49.0202 18.5231 48.4417 18.706 48.3204C19.1314 48.0397 19.7971 48.1397 20.1289 47.9908C20.2268 47.9482 20.2076 47.776 20.265 47.7781C20.4075 47.7823 20.6947 48.0376 21.0477 48.0461C21.1179 48.0461 21.7581 47.9929 21.7879 47.9716C22.2175 47.6696 22.3026 47.4931 22.9088 47.4612C22.9832 47.4569 22.9619 47.2719 23.0428 47.2506C24.2126 46.9614 24.4529 47.2272 25.5014 47.4314C26.4841 47.6228 26.1182 47.2676 26.4394 47.1613C26.7095 47.072 27.2902 47.2698 27.0626 46.7168L26.6925 47.0358C26.5564 45.9617 27.7836 45.5874 28.6046 45.3343L28.2941 44.8728C28.6471 44.626 28.6003 44.324 28.7216 44.0369C28.7598 43.9433 28.8811 43.9518 28.8981 43.9029C29.0491 43.469 28.7088 42.8799 29.668 42.999L29.617 42.7884L29.349 42.8394C29.4426 42.731 29.5936 42.6331 29.6531 42.5077C29.8786 42.0461 30.5847 40.77 30.9378 40.3935C31.0909 40.2319 31.4397 40.1425 31.4568 40.1149C31.5184 40.0107 31.4419 39.7448 31.495 39.5683C31.646 39.0663 32.8626 37.535 33.3284 37.1479C33.4411 37.0543 33.6453 37.0734 33.6942 37.0352C33.7155 37.0181 33.6517 36.6821 33.7134 36.4779C33.9005 35.8739 34.3089 35.3974 34.7704 34.9763C34.998 34.7679 35.2915 34.9657 35.2043 34.3999L35.5127 34.3936C35.5702 34.1086 35.4468 34.2404 35.3 34.1298C35.5212 34.0107 35.4617 33.7172 35.551 33.5811C35.7552 33.2684 36.4592 33.0579 36.5783 32.6963L36.7889 32.9069L36.9505 32.4836L37.2142 32.9069V32.2709L36.791 32.3773C36.7187 32.139 36.6761 32.0157 36.7506 31.7605C36.7867 31.635 37.3376 30.7034 37.4482 30.5375C37.8906 29.8739 38.0693 29.6229 38.4734 28.9062C38.5733 28.7296 39.2731 27.5832 39.339 27.5343C39.4858 27.4259 39.7559 27.6619 39.8814 27.4429C39.9962 27.2961 39.9579 26.724 39.9984 26.6027C40.0154 26.5517 40.5386 25.8349 40.6215 25.735C40.8534 25.4521 41.8105 24.931 41.8828 24.7481C42.0785 24.2653 42.2826 23.289 42.6272 22.8594C42.7293 22.7318 42.9717 22.7084 43.1143 22.6042C43.361 22.4213 43.4354 22.0618 43.8034 22.2852V21.6471L44.0714 21.7407L44.2245 21.596C44.1415 21.4684 44.099 21.3323 44.1203 21.1792C44.1713 20.7942 44.7179 19.8733 45.0433 19.6457C45.3688 19.4181 45.7367 19.5436 45.6112 18.9906L45.8218 19.4138C45.8813 19.1544 45.7431 18.8694 45.7559 18.6354C45.7792 18.2036 46.2706 17.2317 46.6172 16.9679C46.8002 16.8275 47.1639 16.7637 47.1851 16.7382C47.2149 16.7042 47.3085 16.1427 47.4531 15.8875C47.5148 15.779 48.2677 14.7857 48.323 14.7411C48.5378 14.5667 48.7548 14.6368 49.0121 14.6326C49.0462 14.3603 48.9483 13.9924 49.0291 13.7436C49.0738 13.6074 49.2695 13.5968 49.3333 13.4926C49.4396 13.3182 49.6438 12.6652 49.6778 12.6354C50.0649 12.2973 49.7927 12.5227 50.0181 12.1888C50.0628 12.1207 50.8689 11.6358 51.0178 11.3827C51.2411 10.9977 51.239 10.4937 51.6091 10.0555C51.8303 9.79391 52.6725 9.35152 52.7108 9.29622C52.7725 9.20689 52.7278 9.00909 52.7852 8.89636C53.3318 7.82653 53.2638 7.80101 54.2613 7.17996C54.8568 6.80775 54.6037 5.92509 55.1057 5.6805C56.0117 5.24023 55.6331 5.1743 56.067 4.57451C56.3074 4.24272 57.2645 3.39622 57.3623 3.15588C57.4346 2.98147 57.2687 2.79856 57.3198 2.5965C57.3581 2.44124 57.6984 2.22004 57.8196 2.02437C58.0663 1.62664 58.0833 1.10555 58.6597 0.952416C59.4339 0.746107 59.8805 1.50753 60.0613 2.14348L60.8121 2.09456L60.7143 2.40296L61.0227 2.57098L60.7079 3.04953C60.8844 2.92192 61.112 2.98998 61.2694 2.94106C61.4396 2.88789 61.1843 2.5412 61.6608 2.94106C61.5991 2.66031 62.0053 2.74539 62.0883 2.57098L61.7947 2.3668L61.8777 1.98821L62.1946 2.2009C62.1755 1.63302 62.8242 1.58623 63.2262 1.48201C63.5665 1.39268 63.4835 1.12469 64.0982 1.41608C64.1981 1.46287 64.917 2.06903 64.9383 2.12008C64.9957 2.25833 64.7235 3.35155 64.6384 3.50043C64.5746 3.61316 64.4257 3.64081 64.3343 3.75353C64.1088 4.03003 64.3598 4.2491 63.6856 4.00876C63.9578 4.99777 63.3006 4.18317 63.2602 4.22145C63.0135 4.68937 63.5707 4.44052 63.207 4.74892L62.8858 4.42776L62.201 4.69575C62.2754 4.98288 62.4775 5.20833 62.7646 5.30829C63.1177 5.43165 63.4473 5.07433 63.6537 5.56565C63.8429 6.01867 62.9284 6.14204 63.1432 6.76096L62.8348 6.76734L62.9369 7.07149C62.7093 7.23313 62.2052 7.34586 62.1967 7.61384L62.0393 7.40328L61.6671 7.93288L61.346 7.29694H61.6608C61.7309 7.11402 61.5289 6.63335 61.5757 6.51211C61.6459 6.33771 61.8777 6.38237 61.8777 6.28666C61.882 6.01229 61.5778 6.01017 61.4587 6.13353C61.4459 6.14629 61.5459 6.29943 61.4438 6.48021C61.3587 6.63122 61.0844 7.00768 60.9631 7.17996C60.8781 7.30119 60.6675 7.32884 60.6165 7.47347C60.3293 8.27956 61.1269 7.91799 61.2864 7.95202C61.3183 7.9584 61.7139 8.37953 61.7288 8.40718C61.8947 8.75811 61.397 9.11969 61.2694 9.39831C61.1758 9.60462 61.0546 10.4341 61.0142 10.4724C60.9716 10.5128 60.4484 10.4937 60.3378 10.7914L60.072 10.5915L59.9656 10.8042C60.072 10.3533 59.4743 10.466 59.5339 10.0087C59.5424 9.94279 59.8784 9.99596 59.7508 9.74286C59.3914 9.85772 59.117 9.73436 58.9617 10.1725C58.7746 10.7042 59.3914 10.3958 59.1127 10.9105C59.5785 10.6978 59.9167 11.2955 59.8593 11.6975C59.838 11.8421 59.6913 11.9804 59.653 12.1463C59.6168 12.3015 59.636 12.6758 59.6189 12.6971C59.5785 12.7503 59.2935 12.8588 59.1787 12.9438C58.932 13.1289 59.1319 13.3437 58.6384 13.1395L58.5831 13.567L58.4704 13.2586L57.8898 13.1587C57.6877 13.4479 57.8791 13.6351 57.4155 13.8329L57.7345 14.0456L57.5239 14.3603L57.8409 14.841L57.5218 14.8942L57.8387 15.3175L57.5197 15.477L57.4686 15.2664C57.2432 15.4344 57.1688 15.5365 57.307 15.796L56.9816 15.7343C56.7987 16.3873 56.72 16.0661 56.4329 16.1469C56.0925 16.2426 55.7969 16.4511 55.3949 16.2214L55.3864 17.1721L55.078 17.2295L55.4226 17.8952C55.9118 17.8463 56.4562 18.4057 56.3308 18.9034C56.2776 19.1097 55.9692 19.3756 55.8501 19.5968C55.731 19.818 55.6757 20.1987 55.5502 20.3582C55.3928 20.556 55.1121 20.5581 54.9462 20.6815C54.5697 20.9622 54.7654 21.7024 54.6356 22.1044C54.6229 22.1448 54.24 22.4787 54.1294 22.6531C53.7764 23.2125 53.7998 23.6846 52.983 23.7442C52.4683 23.7804 51.8771 23.3401 52.2152 24.4333C52.2429 24.5226 52.3939 24.4971 52.4173 24.5865C52.5109 24.9523 52.43 25.4202 52.53 25.7839C52.1535 25.8115 51.8856 25.9774 51.5729 25.6797L51.6771 26.3177C51.4368 26.2922 51.5431 25.9413 51.3921 25.8902C51.139 25.8052 50.5882 25.8073 50.4031 26.054L50.6115 26.1093V26.3177C50.1585 26.5411 49.8267 27.26 50.5648 27.4897L50.6179 27.2791H50.7732C51.7771 28.1511 50.6094 28.6595 50.5073 29.5081C49.8842 29.4315 50.0862 29.3082 49.8735 29.0295C49.6289 28.7084 49.3886 28.6616 49.0206 28.5489L48.8079 28.9742L48.7548 28.4446L48.4889 28.551L48.5421 28.9721L48.2783 28.6552C48.4336 29.2975 47.6935 29.3932 47.853 30.0356H48.2783L48.2145 29.7186L48.7016 29.5038L48.8611 30.0356L49.0185 29.825C48.9632 30.1951 49.4333 30.0036 49.4992 30.1334C49.8565 30.8289 49.295 31.1947 49.3375 31.8434H48.91C49.027 32.4347 48.8058 32.3092 48.5293 32.5793C48.4123 32.6942 48.3911 32.8962 48.3762 32.9069C48.3549 32.9217 47.8913 32.775 47.8657 32.7644C47.8338 32.7516 47.8998 32.4836 47.6339 32.5878C47.8019 33.0153 47.8785 33.7895 47.719 34.217C47.6658 34.3595 47.4829 34.3553 47.4191 34.4765C47.2808 34.7381 47.5977 34.938 47.0277 35.0997C46.8172 35.1592 46.7385 34.8487 46.6768 35.5612L45.7218 35.3485V35.8803L45.2964 35.9334L45.507 36.0908L45.2922 36.1567V36.4524L45.507 36.6225H45.0816L45.188 37.1564C45.6197 36.9586 45.977 37.2691 46.3259 37.4946C46.396 37.9455 45.9834 38.2688 45.7899 38.6431C45.6942 38.8281 45.7048 39.1876 45.4496 39.4875C45.2837 39.6831 44.8945 39.8405 44.8115 40.0256C44.7073 40.2595 44.854 40.4424 44.82 40.6636C44.7286 41.2592 44.4818 42.1206 43.9927 42.4949C43.6375 42.765 42.9654 42.7586 43.2631 43.2563L42.574 43.5222C42.5102 43.6179 42.7293 44.2964 42.8441 44.4176C42.9207 44.5005 43.0526 44.3729 43.1164 44.4772C43.4312 45.0089 42.3847 45.3598 42.1593 44.8026C41.8785 44.9919 42.1508 45.2662 42.104 45.5449L41.685 45.0727C41.4042 44.9663 40.9703 45.3577 40.9384 45.3343C40.8874 45.296 40.9087 44.8876 40.5109 45.0174C40.6534 45.2641 40.9129 46.1936 40.915 46.4701C40.915 46.6679 40.6768 46.7146 40.7236 46.9273L41.0427 46.8657V46.3977L41.2553 46.6104L41.417 46.5041L41.3617 46.185C41.6722 46.1638 41.7062 46.3828 41.5744 46.604C42.4549 46.7104 41.8062 47.1485 41.7892 47.2081C41.7658 47.2953 41.9211 47.6079 41.8487 47.676L41.4702 47.7845C41.6424 48.1248 41.383 48.1439 41.3128 48.3141C41.2639 48.431 41.3447 48.5884 41.3128 48.6331C41.1852 48.8054 40.679 48.765 40.4833 48.8437C40.3493 48.8968 40.4705 49.0925 40.3004 49.0521L40.1919 48.3098H40.5131L40.3535 47.4591L40.2429 47.6803L39.4432 47.508C39.2348 48.0078 39.4581 48.2992 38.9179 48.5757L39.875 48.8394C39.49 49.6051 40.7385 48.9032 40.7257 49.2116C40.1791 49.4456 40.3238 50.3112 40.1855 50.7791C40.1728 50.8238 39.6942 51.4002 39.6602 51.5555C39.5475 51.6235 39.1008 51.4619 38.8605 51.4874C38.6478 51.5087 38.6478 51.9085 38.2798 51.7107C38.3415 51.8724 38.2671 52.0999 38.3394 52.2339C38.4181 52.3828 39.0306 52.6232 38.7371 52.772L38.3883 52.9316L38.8115 53.408L38.1714 53.3484C37.7162 53.6823 38.5627 54.5756 39.0242 54.3672C38.6861 54.6033 38.8583 55.2073 38.7903 55.3647C38.7031 55.5668 38.4776 55.4817 38.4096 55.5561C38.3415 55.6306 38.367 56.0241 38.2713 56.1644H37.6524C37.4588 55.7518 37.7757 55.5157 37.6418 55.1095L37.3227 55.0053L37.948 54.8862L37.965 54.4246C37.9438 54.3077 37.6737 54.4055 37.5333 54.314C37.4206 54.2417 37.4907 54.0141 37.3227 54.046L37.3078 54.4565C36.5358 54.5182 36.8335 54.9968 36.3763 55.2733L36.472 55.6391H36.1529V55.9581C36.3273 56.0028 36.2018 55.7752 36.3273 55.7454C36.4528 55.7157 36.6017 55.7561 36.7314 55.7412L37.11 56.4898L37.2164 56.2772C37.9693 56.7429 37.1717 57.8978 37.093 58.5976L36.1508 58.721L36.4698 59.3569L36.0508 59.3675L36.0445 59.6781L35.7276 59.5717V59.8908L36.1508 59.7844L35.9402 59.8886C35.8828 60.7224 36.3337 61.186 35.9721 62.0134C35.8701 62.2452 35.4404 62.677 35.4255 62.7195C35.2958 63.1087 35.3639 63.5745 35.1405 64.2445C35.0703 64.4551 35.0937 64.8166 34.9555 64.9655C34.7747 65.1591 34.1154 65.1718 34.2366 65.6291L33.9197 65.5228C33.9027 66.4862 33.8197 67.4114 32.8477 67.8134L32.9626 68.4962C32.7031 68.5897 32.5244 68.3515 32.3586 68.3154C32.0502 68.2473 31.9332 68.6429 31.8991 67.7539C31.6822 67.7326 31.8587 68.0346 31.78 68.1622C31.746 68.2175 31.4653 68.2643 31.3695 68.2856L31.5844 68.6557C31.5844 68.7216 31.3887 68.694 31.3674 68.7769C31.1441 69.6532 32.2224 69.198 32.4096 69.4745C32.4649 69.5575 32.4245 69.7574 32.4798 69.8765C32.5627 70.053 32.6755 70.1594 32.7393 70.3657C32.9605 71.0867 32.4798 71.4632 32.2735 72.1183C32.2224 72.2778 32.3352 72.4139 32.3245 72.4245C32.282 72.4692 31.5078 72.5309 31.3674 72.7202C30.9825 73.2327 31.3419 73.4476 31.3291 73.6475C31.3228 73.7241 31.1717 73.8219 31.1654 73.9601C31.1462 74.4132 31.3738 74.6663 30.9272 75.1767L30.4124 75.081V75.8254L29.5617 75.6149L29.5085 75.9318L29.1363 75.6149L29.2363 76.1976C29.5915 76.3359 29.8701 76.2785 30.0381 76.6741L30.304 76.4635L30.2083 76.8761C31.1377 77.1441 30.0828 78.1097 30.1742 78.7754L29.0321 79.3944C29.1321 79.7644 29.1214 80.7003 29.0321 81.0618C29.0087 81.1597 28.8003 81.1852 28.7173 81.3086C28.5812 81.5064 28.83 81.8169 28.2856 81.7765L28.6025 82.255L28.3409 82.4145V82.1997H27.1179C27.3114 82.4209 27.4029 82.8123 27.756 82.7315L27.6496 83.3674C28.2473 83.1228 28.3217 84.7286 28.26 85.0944C28.175 85.5857 27.9452 85.641 27.7283 85.9473C27.6666 86.0345 27.6922 86.2387 27.6241 86.3195C27.539 86.4195 27.0668 86.5067 26.9052 86.5577C27.1732 87.0469 26.9605 87.5723 26.6925 88.0423H27.0137L26.9052 88.3613L27.5454 88.5209L27.2264 88.6272L27.4114 88.8399C26.8839 89.2695 27.371 89.9523 27.0243 90.4244C26.9286 90.5542 26.6393 90.4393 26.5245 90.5903C26.4947 90.6286 26.5458 91.2369 26.5096 91.4241C26.3267 92.4003 25.7801 92.6002 25.0995 93.1979L25.3122 93.3553H24.8868L25.2058 93.9423C24.8315 94.038 25.0824 94.1784 25.0463 94.3634C25.0101 94.5485 24.7762 94.6569 24.991 94.9483L24.5677 94.842L24.4614 95.2674L24.8804 95.2801L24.9017 95.5651C25.5844 95.546 25.578 96.0394 25.3951 96.5711C25.3377 96.737 25.1271 96.8327 25.1101 96.9285C25.0888 97.0454 25.2717 97.1518 25.276 97.2326C25.2781 97.2794 24.9208 97.9919 24.8187 98.0196L24.3572 97.9238C24.3189 97.9706 24.3019 98.9214 24.2445 99.1234C24.2189 99.2127 23.8978 99.1787 24.0552 99.6594C24.2126 100.14 24.3976 99.6381 24.4231 99.6317C24.4486 99.6254 24.8166 99.6466 24.8868 99.6785C24.7868 99.8827 24.6358 100.112 24.5805 100.327C24.4082 101.018 24.723 101.391 23.834 101.654L24.2551 102.86C24.2317 103.118 23.7787 103.496 23.5043 103.452L23.6128 103.769C23.3405 103.683 23.1534 104.085 23.1151 104.092C22.7641 104.151 22.1516 103.886 22.2282 103.45L21.8049 103.556L21.9006 103.247C21.4901 102.962 21.0222 102.903 20.5288 102.811V103.237L20.2097 103.024L20.3118 103.934L20.633 103.875L20.5245 104.085C21.4455 104.068 21.9113 104.66 21.8007 105.574C21.5305 105.368 21.0541 105.689 20.9159 105.661C20.8053 105.64 20.6968 105.43 20.6372 105.47C20.6309 105.474 20.6564 105.6 20.5947 105.64C20.4373 105.747 20.2608 105.693 20.1566 106C20.0587 105.759 19.7354 105.523 19.6929 105.285C19.6844 105.232 19.6908 104.658 19.6972 104.564C19.6993 104.536 20.0438 104.413 19.8886 104.09L19.5164 104.407L19.2526 104.196V104.517C18.9613 104.349 18.7315 104.596 18.5571 104.615C18.5146 104.619 18.5167 104.481 18.4657 104.451C18.3657 104.394 18.219 104.441 18.1849 104.341C18.0573 103.977 17.9893 101.891 18.1892 101.752L18.5061 101.861L18.6146 101.118L18.8273 101.276C18.9676 100.819 18.5295 100.721 18.5104 100.689C18.4784 100.636 18.6911 100.478 18.6677 100.261C18.6401 100.019 18.2892 99.6551 18.3083 99.5956C18.5231 99.2447 18.6273 98.8384 18.7698 98.4577C18.9655 97.9409 19.0931 97.977 19.3143 97.5708C19.4036 97.407 19.3845 97.1624 19.5504 97.005L19.5674 96.871L19.2569 96.7115C19.7673 95.8097 19.8503 94.7505 20.2076 93.7849C20.3054 93.8636 20.5692 93.8657 20.6117 93.9147C20.6883 94.004 20.5352 94.2464 20.7351 94.2103C20.8733 93.7126 20.5054 93.7934 20.3076 93.5233C19.8567 92.9044 20.4139 91.658 20.4182 90.9157L20.7351 91.0242C20.7287 90.6541 21.0775 90.4244 20.8414 90.0671L21.1413 90.0522C21.1137 89.8076 21.303 89.6226 21.3455 89.4524C21.4199 89.161 21.2158 88.3783 21.7964 88.4719L21.1583 88.1529L21.1753 88.0146C21.3646 87.7233 21.3689 87.2341 21.4901 86.9661C21.6156 86.6832 22.2239 86.1621 22.2856 85.9282C22.3366 85.7304 22.1963 85.4815 22.2197 85.2391C22.3154 84.299 22.4536 83.6481 22.9768 82.8506L23.2895 82.908C23.8169 82.3805 23.0343 81.902 23.0704 81.5234C23.0832 81.3873 23.2406 81.2533 23.2767 81.081C23.3533 80.7066 23.4065 79.9197 23.5192 79.6241C23.549 79.5411 24.2126 79.1072 24.3465 78.8286C24.4699 78.5691 24.3465 78.2607 24.3827 78.0417C24.4486 77.6397 24.6847 76.0339 24.9059 75.8658C25.0357 75.768 25.2951 76.0509 25.1399 75.298L25.4142 75.1937L25.2037 74.93C25.544 74.7684 25.4887 74.6939 25.5206 74.3472C24.8081 74.4068 25.4547 73.8432 25.5674 73.5943C25.8524 72.9711 26.0693 72.1672 26.2012 71.5482C26.2948 71.1101 26.6415 70.5677 26.6904 70.2445C26.735 69.9403 26.4373 69.5107 26.852 69.3512C27.0434 69.2789 26.9903 69.5383 27.0775 69.5596C27.2604 69.6043 28.0048 69.4256 28.2856 69.5617L28.3919 68.5004L27.1179 69.03C27.1477 68.7046 27.4178 68.6706 27.5348 68.3303C27.7347 67.7432 27.3582 67.722 27.3561 67.5986C27.3561 67.5093 27.9133 66.0821 27.9984 65.9269C28.1197 65.7035 28.4812 65.5121 28.6386 65.2037C28.796 64.8953 28.7811 64.2445 28.8853 64.0339C29.1384 63.5192 29.9403 63.3193 29.7744 62.6557L30.2529 62.9726L30.4082 62.7301L30.7272 62.7599L30.4082 62.5472L30.5145 61.805L30.2487 62.4409L30.0913 61.9113L30.1955 62.6536C29.4894 62.4962 29.9084 61.9964 29.9424 61.7305C29.9807 61.4264 29.8552 60.5714 29.8828 60.4905C29.9318 60.3502 30.1402 60.348 30.1721 60.3012C30.2019 60.2566 30.4486 59.3824 30.4635 59.3059C30.4826 59.208 30.3657 58.9889 30.4082 58.9379C30.5167 58.8124 31.6758 58.6784 31.7885 58.3509C30.5486 58.1828 31.7566 56.9599 31.5206 56.1729H31.8949L32.1097 55.3243L32.3309 55.3902L32.5308 55.6412C32.3607 54.782 32.2671 53.8376 32.6074 53.0103C32.6563 52.8933 32.7946 52.8911 32.8414 52.7933C32.9222 52.6317 33.0243 52.117 33.0902 52.0553C33.1561 51.9936 33.3667 52.0191 33.4433 51.9298C33.5007 51.8617 33.3624 51.6703 33.3858 51.5576C33.4241 51.3683 33.59 50.5069 33.6198 50.458C33.6453 50.4133 33.8091 50.4006 33.8516 50.324C33.9431 50.156 33.9112 49.9029 34.0622 49.7859C34.1919 49.6859 34.4067 49.7178 34.545 49.6264C34.7343 49.4987 35.1661 48.9543 34.9661 48.7416L34.6577 48.682C35.1235 48.2524 34.9916 47.6547 35.5064 47.2995L35.1894 47.2485C35.2873 47.0443 35.2022 46.5615 35.2639 46.4254C35.3787 46.1702 35.7914 46.2084 35.6148 45.6555L35.8254 45.7639C35.7701 45.3556 36.1253 45.1195 36.2146 44.726C36.4167 43.8306 36.2529 43.4392 36.808 42.5481C36.9548 42.3141 37.3397 41.927 37.6332 42.044L37.4227 41.8334C37.9693 41.7547 37.6992 41.2634 37.7609 40.9593C37.7864 40.8359 38.1373 39.9277 38.1905 39.8405C38.3372 39.5981 38.9711 39.764 38.8179 39.194C38.9583 39.1195 39.1221 39.0791 39.2816 39.0685C39.5857 39.0451 39.2391 39.3088 39.5049 39.379L40.077 39.2812L39.9707 39.6002L40.2366 39.7044C40.6343 39.2492 40.613 38.7771 40.5003 38.2198L40.2344 38.6431L40.2897 38.2198C39.9452 38.1284 39.9856 38.4155 39.7112 38.5474C39.6325 38.5835 38.9413 38.7728 38.9094 38.7494L39.2284 38.0071C38.9689 37.7796 38.4032 38.5112 38.2968 38.7218C38.014 39.279 37.9544 40.2425 37.2908 40.5828C37.0951 40.6828 36.791 40.6977 36.5719 40.77L36.7846 41.0337C36.5847 41.1252 36.5315 41.1592 36.5698 41.4059L35.9339 41.1954C35.8956 41.3591 36.0785 41.2719 36.1508 41.3719C36.2189 41.4633 36.2104 41.676 36.2635 41.7122C36.372 41.7866 36.9782 41.5782 36.8676 42.0823C36.842 42.2035 36.6634 42.2716 36.6272 42.3609C36.5847 42.4651 36.708 42.6416 36.674 42.6735C36.6464 42.6991 36.4358 42.6672 36.3061 42.7863C36.1891 42.8926 36.0019 43.4584 35.9126 43.5094L34.9768 43.5328L34.9236 43.2117L34.6599 43.5307L34.5493 42.999H34.0218C34.0218 43.3223 34.0686 43.6073 34.4472 43.5307C34.0558 43.9327 35.1639 44.2368 35.1682 44.4304C34.9406 44.826 34.7003 45.6895 34.126 45.4406V45.9724L33.3242 45.8745L33.0604 45.1237L32.9498 45.5427L32.467 45.6448L32.3181 45.4428V45.9745L32.7308 45.983C32.6542 46.4594 33.0285 46.5743 33.1179 46.7189C33.2072 46.8635 32.9222 47.0847 33.271 47.0379V47.2485L32.9732 47.2613C32.9073 47.8355 32.3671 48.548 31.8119 48.7075C31.5865 48.7735 31.2972 48.6586 31.1462 48.8968C31.3525 49.1414 31.3972 49.8688 31.2313 50.0943C31.1611 50.1879 30.908 50.1687 30.8421 50.2368C30.8293 50.2495 30.9144 50.4282 30.8229 50.5792C30.421 51.23 29.7084 51.1046 29.3405 51.6575C29.1618 51.9277 29.1746 52.1935 29.0725 52.3467C28.9045 52.6019 28.4366 52.4083 28.5961 52.9869L28.326 52.8933C28.2281 53.1208 27.8644 53.208 27.639 53.0932C27.5922 54.4629 26.8201 55.5795 25.427 55.7752L25.4036 56.7068L24.9804 56.6026L25.0846 57.1343L24.874 57.0258L24.7677 57.5575C25.0463 57.5958 25.0357 57.5639 25.1378 57.3449L25.6163 57.7681C25.1207 57.8851 25.0314 58.6699 24.5018 58.7273C24.1721 58.7635 24.5061 58.5657 24.3997 58.4104C24.3465 58.3339 24.1253 58.2764 24.0764 58.0871L24.0211 58.6189L23.8106 58.4083L23.4915 58.7273L23.4384 58.0893C23.2554 58.436 23.4128 58.8783 23.2491 59.2825C23.1129 59.6164 22.728 59.7121 22.6684 59.8163C22.6089 59.9205 22.6557 60.1013 22.5897 60.2225C22.5387 60.314 22.3111 60.1587 22.275 60.4161L21.9517 60.3182L22.0048 60.5309L21.7475 60.3289L21.2604 60.4267C21.3115 60.5756 21.9347 60.6458 21.6837 60.9563C21.5178 61.1626 21.4646 60.7606 21.4029 60.75C21.3242 60.7351 21.1647 60.8436 21.0477 60.7458V61.0648L21.3646 60.9584C21.1158 61.6539 21.7049 61.8007 21.8964 62.3367C21.4667 62.426 21.2859 62.6493 21.2583 63.0832L21.0477 62.9747C21.1711 63.1513 20.801 63.6511 20.7011 63.6894C20.4735 63.7766 20.1502 63.5852 20.1949 63.9297C19.8971 63.6745 19.7184 63.4831 19.2888 63.5256C19.2207 63.532 19.2782 63.817 19.0272 63.6107C18.8847 64.2828 19.3505 64.2232 19.7737 64.5189L19.5568 65.2059L19.2399 65.0995V65.5249L19.0272 65.3143L19.0144 65.7333L18.7188 65.7461L18.706 66.1651C18.068 66.1268 18.0573 65.4909 17.9489 65.0081C17.8425 64.9698 17.7149 65.0229 17.6149 64.9974C17.4703 64.9591 17.6085 64.7422 17.432 64.7847C17.2087 65.2378 18.3678 65.6695 17.5384 65.7929L17.9637 66.1119L17.5384 66.1651C17.5022 66.5352 17.8723 66.2948 17.868 66.75C17.868 66.8691 17.5107 67.4859 17.4341 67.5731C17.298 67.7262 16.8344 67.9495 16.8088 67.9942C16.7642 68.0686 16.9875 68.309 16.728 68.3856L15.5199 68.292C15.4136 68.4345 16.0027 69.1789 15.7901 69.566C15.7114 69.7085 15.0818 70.1381 14.9202 70.304C14.7883 70.4423 14.9223 70.6869 14.5033 70.8357L14.348 70.6273L14.2417 70.8379L13.6057 70.5188C13.3803 71.0995 13.442 72.2437 12.8337 72.5628C12.5231 72.7244 12.0148 72.5734 12.1169 73.0711L11.7426 73.0647C11.7149 73.8113 11.8128 74.1686 11.23 74.7322C10.7302 75.2171 10.5813 75.0597 10.0645 75.1959C9.94961 75.2256 10.0623 75.6404 9.56889 75.1959C9.55613 76.0892 9.00314 77.1292 8.08007 77.3568C7.61002 77.4738 7.48028 77.0782 7.32927 78.0034L7.54409 78.065V78.2735C7.16763 78.1884 7.42286 78.6925 7.32077 78.7988L7.03576 78.8265L7.00173 79.103C6.84009 79.1944 6.39769 79.0966 6.37855 79.1221C6.32963 79.188 6.48064 79.4752 6.27221 79.4411L6.11056 79.1242L5.84683 79.3348L5.74048 79.0158L5.68731 79.3327C5.55544 79.1008 5.18537 78.9669 5.05775 78.7946C4.90462 78.5861 4.911 78.2267 4.67066 78.0055C4.38565 77.7439 3.64975 77.9077 3.30519 77.9608L3.17758 78.8945C2.36936 79.0987 1.67386 78.8648 1.08259 78.3054C0.791204 77.5908 1.20595 77.1143 1.06345 76.4656C0.874153 76.4316 1.00177 76.6464 0.931579 76.7528C0.799712 76.9527 0.227578 76.9995 0 76.9952C0.0808219 76.8867 0 76.7953 0 76.7315V75.0853H0.531723C0.448774 74.6174 0.872026 74.4493 1.06345 74.075L0.744413 74.0218L0.769935 73.7198L0.957102 73.6496L0.744413 73.4922C1.20382 73.6666 1.19744 72.8712 0.957102 72.9605L0.635941 73.1732C0.774189 72.784 0.378587 72.7414 0.357318 72.433C0.340303 72.2012 0.489185 72.1289 0.489185 72.0566C0.489185 71.98 0.340303 71.8907 0.340303 71.7588C0.34243 71.4972 0.740159 70.9187 0.644449 70.5231L1.06345 70.5167C1.12725 70.0594 0.976244 69.4001 1.06345 68.9768L1.07621 68.9832ZM51.6644 11.9867L51.4559 11.9825L51.5708 12.3419L51.3794 12.427L51.4559 12.6163H51.0305C51.0199 12.8269 51.122 13.0544 51.3475 13.0438L51.1369 13.2544C51.5389 13.3054 51.7197 12.8864 51.9855 12.6716L51.6665 12.4589L51.9876 12.2462C51.658 12.2505 51.6814 11.9995 51.6622 11.9867H51.6644ZM50.0734 14.639L49.5438 14.3199C49.7459 14.7283 49.2418 15.0877 49.2312 15.1324C49.1972 15.2685 49.3482 15.7045 49.2248 15.913L49.8629 15.8066L49.7969 15.4855L50.0756 15.3281L49.8629 15.2239C50.1096 15.0346 50.1032 14.6517 50.3946 14.6368L50.0777 14.3199V14.639H50.0734ZM48.2677 17.9314C48.272 17.5805 48.4485 17.2189 48.323 16.8658C48.2103 16.5489 48.1465 16.97 48.0954 16.9722C47.8317 16.9786 47.7402 16.7361 47.7892 17.2955L47.4191 16.8701C47.3872 17.321 47.5977 17.6847 47.1022 17.8782L47.4191 17.9314V18.3568C47.6254 18.2632 47.6849 18.0101 47.9444 18.1356L47.9529 17.8251L48.2698 17.9335L48.2677 17.9314ZM53.6445 19.8881C53.5743 19.8371 53.2893 19.601 53.2638 19.6308C53.385 20.1093 52.8554 20.0817 53.0022 20.5943L52.6278 20.7006V21.2238L53.1021 20.6942L53.334 21.0154C54.0699 21.1175 53.7657 20.7155 53.8508 20.5815C53.8955 20.5092 54.0911 20.5028 54.1167 20.4262C54.2336 20.0732 53.9125 20.1817 53.7636 20.0583C53.7019 20.0072 53.6807 19.9158 53.6424 19.8881H53.6445ZM51.1369 22.7105L51.9876 21.1175C51.5878 21.0983 51.4942 21.562 51.2773 21.6322C51.0029 21.7194 50.6541 21.4876 50.5499 21.6492C50.3648 22.2533 50.9497 22.1937 51.0263 22.3C51.0603 22.349 50.8349 22.6701 51.1348 22.7127L51.1369 22.7105ZM39.2348 31.1054C39.0242 30.5545 39.6538 30.1695 39.5517 29.6187L39.4454 30.0441L39.1285 29.725V30.1504L38.8094 29.725C38.7201 30.076 38.9136 30.495 38.5967 30.7332L38.9136 30.7863L38.8073 31.1033H39.2327L39.2348 31.1054ZM46.6725 31.1033L46.3578 30.7863C46.1621 31.1926 45.9515 31.3627 46.1451 31.8477H45.8239L46.0898 32.1667C46.0728 31.9221 46.445 31.5946 46.4577 31.5563C46.5152 31.3627 46.328 31.0586 46.6725 31.1011V31.1033ZM44.3351 33.8703C43.9522 33.613 43.865 33.7746 43.4865 33.7619V34.2915L43.5928 33.9724L44.0139 34.2915C43.9969 33.8512 44.3946 34.234 44.3351 33.8682V33.8703ZM42.104 35.6718C41.8211 35.1443 41.3638 35.8313 40.9363 35.5676L41.3596 35.8866L40.8321 36.1504L41.2596 36.5779L41.2532 36.7884L40.9363 36.9501C41.2979 37.4903 41.4936 36.7608 41.6042 36.6523C41.6616 36.5949 41.8339 36.6651 41.9062 36.5651C41.9934 36.446 41.8317 36.0568 42.1061 35.9377C41.7934 35.8696 41.7701 35.6442 42.1061 35.6718H42.104ZM43.8055 38.7558L43.5928 38.2241L43.697 38.9132L43.3801 38.9685L43.4631 39.3492L43.1674 39.7129L43.4843 39.6066L43.5418 39.932L44.6541 39.8193C44.6626 39.2493 44.2862 38.8217 44.0161 38.4389L43.8034 38.7579L43.8055 38.7558ZM41.3596 40.2425C40.7321 40.0617 40.479 41.1316 41.1447 41.1996L41.3574 40.8827C41.2851 41.1443 41.3149 41.5633 41.5701 41.7313C41.4276 41.1507 41.8105 41.3868 41.8955 41.2379C41.9508 41.1401 42.1486 40.3063 42.1018 40.2446L41.3596 40.67V40.2446V40.2425ZM30.874 43.2946C30.7868 43.1202 30.874 42.8543 30.6251 42.7927V43.1649L30.3061 43.0053V43.4307L29.8807 43.3244L29.9892 43.8008L29.668 43.9071C29.7552 43.9858 30.4869 44.1007 30.5124 44.0667C30.5337 44.039 30.5039 43.8561 30.5762 43.7583C30.6847 43.6073 30.9378 43.5498 31.0484 43.3754C31.0824 43.2861 30.9038 43.3542 30.8719 43.2925L30.874 43.2946ZM39.8707 43.3244L39.1285 43.4818L39.4432 43.5349C39.5623 43.7455 39.0242 43.871 38.9136 43.9603L39.2327 44.0645C39.2476 44.2964 39.0264 44.4389 39.2837 44.5941L39.5496 44.4899L39.3369 44.122L39.7623 43.9582L39.5645 43.6945L39.8686 43.3244H39.8707ZM37.3206 46.9358C37.3206 46.6445 38.2267 44.9089 37.6971 44.8281L36.6783 44.96C36.321 45.2216 36.8803 46.3637 36.1529 46.4062C36.2295 46.7785 37.059 46.6274 37.1164 46.6679C37.2164 46.738 37.1547 46.9699 37.3227 46.9358H37.3206ZM38.8073 47.5739L38.5967 47.625L38.7009 47.9993C38.3734 47.9227 38.3096 48.0801 38.0841 48.2375L38.1692 48.6374C38.3713 48.6735 38.2181 48.4225 38.2883 48.3375C38.3692 48.2396 38.8009 48.3481 38.8626 48.2162L38.8052 47.5739H38.8073ZM37.3206 49.6987L36.472 49.9114L36.6825 50.7579L36.2742 50.8834L36.2593 51.2938L36.8038 51.1216L36.7889 50.2304L37.2015 50.2176L37.3206 49.6987ZM22.7578 51.1854H22.2282V51.5044C21.9517 51.6065 22.0431 51.3236 21.9644 51.3066C21.8602 51.2811 20.8223 51.6512 20.733 51.7937C20.6649 51.9021 20.684 52.0936 20.6309 52.1659C20.4947 52.3509 20.2268 52.4168 20.1821 52.755L18.6401 53.1251C18.4083 53.3186 18.7422 54.0992 18.4083 54.5161C18.3296 54.6139 18.1786 54.5799 18.0935 54.6522C17.6213 55.0627 17.5192 55.2158 16.7727 55.0946C16.6195 55.0691 16.4919 54.9181 16.4303 54.9053C16.3728 54.8926 16.392 55.0436 16.3409 55.0733C16.2346 55.135 16.0517 55.152 16.0027 55.218C15.8432 55.437 16.0921 56.2155 15.7475 56.6366C15.722 56.6664 15.1541 57.0747 15.1158 57.0918C14.7372 57.2662 14.5139 57.179 14.2225 57.264C13.7121 57.415 13.8907 58.3232 13.6185 58.7592C13.5143 58.9251 13.023 59.2548 12.8996 59.4037C12.8464 59.4675 12.8932 59.6419 12.8613 59.6696C12.8039 59.7206 12.3509 59.6143 12.0531 60.0375C11.9957 60.1205 12.0446 60.2757 12.0106 60.3395C11.8978 60.5501 11.5107 61.4221 11.464 61.4668C11.3704 61.554 11.196 61.5348 11.1322 61.588C11.0301 61.6731 11.0917 61.8305 11.0407 61.8858C10.9599 61.9708 10.7238 61.907 10.5898 62.1325C10.4856 62.3069 10.5154 62.6174 10.409 62.8003C10.3154 62.962 10.1304 62.9854 10.0666 63.0832C9.92621 63.2938 9.99852 64.1828 9.35833 64.2126L9.36471 64.8911L9.09247 64.7932L8.99463 64.9974L8.40761 64.3615L8.29701 64.672L7.87589 64.6784V65.1016C8.13324 65.1314 8.63944 65.0867 8.62243 65.4207L8.93721 65.2101C9.02654 65.6461 8.63731 65.459 8.60966 65.9035C8.58201 66.3203 9.09034 66.1013 8.82023 66.716C8.55011 67.3306 8.22044 68.2282 7.84398 68.6769C7.74402 68.7961 7.53346 68.7897 7.46965 69.0002C7.39308 69.2491 7.47603 69.6319 7.43775 69.9254C7.35054 70.6124 6.90602 70.9123 6.4934 71.4249L6.8252 71.5397L6.92091 72.114C7.13147 72.1331 6.96345 71.8588 7.04852 71.7099C7.08468 71.6461 7.29737 71.6333 7.34416 71.5291L7.1336 71.2122C7.40372 70.9081 7.83335 70.4678 7.87801 70.0956L8.08857 70.3061L8.14175 69.9892L8.35444 70.1998L8.46078 69.8808L8.56713 70.0935C8.81384 69.9361 8.57989 69.7106 8.62243 69.4554L9.04568 69.8808L8.94146 69.2448L9.25837 69.4575C9.13926 68.5536 9.91983 67.6773 10.845 67.7496L10.8535 67.1201L11.1704 67.2264V66.801H10.7451C10.6217 66.2353 10.979 66.4246 11.3044 66.1672C11.549 65.9737 11.7596 65.3101 12.1828 65.5057L12.2339 65.3143L12.3402 65.6334H12.6593V65.3143L12.8698 65.5249C12.8337 65.2335 13.1591 65.3377 13.2952 65.1527L12.8698 65.0995V64.7805C13.4632 64.9847 13.6781 64.3211 12.8698 64.3551C12.8571 64.3423 12.9464 64.1658 12.9783 64.1211C13.0464 64.0276 13.7908 63.2449 13.8439 63.213C13.8929 63.1853 14.2034 63.3682 14.4714 62.9237C14.6628 62.6068 14.4097 62.1772 14.5139 62.0219C14.5692 61.9389 14.7415 61.9049 14.8266 61.7964C15.1626 61.3562 15.1435 61.4859 15.3902 61.2456C15.5008 61.1371 15.5582 60.7436 15.8943 60.5288C16.0814 60.4097 16.3558 60.4331 16.4962 60.2736C16.611 60.1438 16.4792 59.7078 16.6132 59.4377C16.8726 58.9103 17.6149 58.6593 17.6638 58.0999C17.9744 58.1509 18.4317 58.034 18.5784 57.7405C18.6486 57.6022 18.5869 57.4108 18.6635 57.2406C18.7401 57.0705 19.1101 56.8472 19.2463 56.6536C19.3632 56.4856 19.6334 55.8433 19.6993 55.7795C19.7907 55.6901 20.046 55.7369 20.1778 55.6178C20.3267 55.4838 20.3607 55.001 20.4458 54.9223C20.4947 54.8777 20.6585 54.9223 20.7053 54.8777C20.7776 54.8096 20.7585 54.565 20.8542 54.4353C21.1137 54.0758 21.4689 53.71 21.7177 53.3293L22.6493 53.3059C22.7641 53.0294 22.4515 53.1357 22.4302 53.0251C22.3281 52.4828 22.6067 51.7022 22.7535 51.1811L22.7578 51.1854ZM26.2671 51.5044C25.846 51.4257 26.214 51.7809 26.1608 51.8213C25.9141 52.017 26.0034 51.5597 25.8439 51.6108V52.1403L25.5248 52.034V52.5636L26.0566 52.4573L25.9502 51.9277L26.2671 52.1382V51.5023V51.5044ZM34.7704 52.3552L34.0409 52.5253C33.9367 52.9316 34.0877 53.1783 34.3982 53.4144C34.6939 53.106 34.7109 52.7444 34.7704 52.3552ZM32.5372 59.1548C32.014 59.0761 32.1501 58.7358 31.9523 58.4104C31.544 58.6338 31.8098 59.1081 31.7843 59.1442C31.7545 59.1889 31.4801 59.1804 31.3866 59.4441C31.3164 59.6483 31.5652 60.2672 31.4738 60.5352C31.9055 60.5969 32.1395 60.146 32.0055 59.7929L32.3224 59.8993C32.4075 59.7844 32.1331 59.1804 32.5351 59.2612V59.157L32.5372 59.1548ZM34.5726 61.7901C34.5216 61.7603 34.4833 61.5008 34.3982 61.4944C34.2026 61.6476 33.7049 62.1772 34.026 62.4005C34.311 62.5132 35.2235 62.3111 35.0427 61.9156C34.9108 61.6263 34.6003 61.805 34.5748 61.7901H34.5726ZM4.6898 64.9995H4.15808V65.4228L3.73482 65.3165L3.84117 65.7418L4.1517 65.6419L4.16233 65.8482L4.69193 65.2633L4.37502 65.1059L4.69193 64.9995H4.6898ZM29.7722 66.8032L29.2958 66.1693L29.2512 66.633L29.03 66.7011L29.2405 67.1243C29.1002 66.9967 28.528 67.2796 28.7109 67.4433C29.3426 67.2966 29.2958 67.2945 29.6021 66.8414C29.6425 66.7798 29.7659 66.8095 29.7722 66.8032ZM30.8251 67.6433C31.1228 67.4625 30.5443 67.0116 30.4656 66.8053C30.1679 67.0477 30.2146 67.3136 30.3189 67.6433C30.3593 67.6773 30.7676 67.6794 30.8251 67.6433ZM29.7722 70.8379C29.5191 70.9548 29.4702 70.4954 29.4022 70.5231L29.1363 71.0548H29.8169L29.9849 71.2675L29.9339 70.7358L29.7701 70.84L29.7722 70.8379ZM6.28497 71.4802C5.91064 71.5674 5.76813 71.5121 5.43634 71.3738V72.0098L5.97232 71.9609L5.96594 71.5865L6.2871 71.4802H6.28497Z" fill="#DA1112"/>
<path d="M62.0834 0.291384C62.1068 -0.195674 62.3152 0.223324 62.5173 0.357318L62.3004 0.772062L62.5109 0.929452L62.194 1.14214L62.6173 1.41013L62.2387 1.78659L61.7155 1.4633L61.1306 1.88655L61.1093 1.58879C60.6137 1.59517 60.8498 1.31867 60.7477 1.0443C60.5818 0.599784 59.8821 0.570007 60.5967 0.0808219L60.6563 0.299892L61.0242 0.187167L61.0753 0.397729L61.607 0L62.0834 0.291384Z" fill="#DA1112"/>
<path d="M4.23403 79.1578C4.31485 79.2067 4.48926 79.5534 4.68919 79.6045L4.31698 79.8703L4.26381 79.6576C3.89373 80.032 2.3964 80.2425 2.92386 79.4811C3.19823 79.0855 3.80653 78.9005 4.23403 79.1578Z" fill="#DA1112"/>
<path d="M51.2446 80.7215C50.9745 80.9512 50.8681 80.8278 50.6321 80.8959C50.296 80.9937 50.1897 81.2404 49.7047 81.149C49.1666 81.049 49.7047 80.2812 50.045 80.2131C50.4959 80.1238 51.0064 80.3131 51.2425 80.7215H51.2446Z" fill="#DA1112"/>
<path d="M106.835 81.2531C106.356 81.4828 104.334 82.1251 105.238 80.9851C105.601 80.5278 106.569 80.7575 106.835 81.2531Z" fill="#DA1112"/>
<path d="M94.5083 69.7863C94.1467 69.6311 94.0637 69.9905 94.0361 69.9884C93.9595 69.9841 93.8489 69.882 93.7298 69.8884C93.6511 69.8927 93.381 70.5456 93.0216 70.318C92.8876 70.1926 93.415 69.3907 93.5831 69.3248C93.9404 69.1801 94.7082 69.6374 94.5104 69.7884L94.5083 69.7863Z" fill="#DA1112"/>
<path d="M23.4322 60.3552C23.2366 60.6275 23.1068 60.7232 22.9707 60.9018C22.8686 61.0337 22.9197 61.374 22.7112 61.2804C22.2327 61.0614 22.8112 60.3191 22.8835 60.0234L23.613 60.0575C23.8491 60.2446 23.496 60.2638 23.4301 60.3552H23.4322Z" fill="#DA1112"/>
<path d="M77.1724 77.9629L76.7917 78.4734C76.4812 78.3522 76.1281 78.6372 75.8984 78.333C76.2515 78.0374 76.7003 77.7439 77.1724 77.9629Z" fill="#DA1112"/>
<path d="M85.6759 74.1391L85.5695 74.5645L85.2058 74.4539L84.7209 74.7751C84.672 74.4178 85.4759 73.9924 85.6759 74.1391Z" fill="#DA1112"/>
<path d="M29.1342 82.3242L29.1299 83.0559L28.7109 83.1728L28.813 82.3944L29.1342 82.3242Z" fill="#DA1112"/>
<path d="M122.243 51.293C122.454 51.9608 121.563 52.1139 121.229 52.4543C120.975 52.7116 121.044 52.7414 120.661 53.0562C120.452 53.2284 120.505 53.5411 120.118 53.3114C120.161 53.7942 119.927 54.1536 119.914 54.6407C119.906 55.0299 120.103 55.634 120.014 55.9998C119.989 56.0976 119.744 56.1444 119.64 56.2848C119.463 56.523 119.504 56.8484 119.378 57.0611C119.302 57.1908 118.919 57.4163 118.793 57.6736C118.732 57.8013 118.615 58.401 118.51 58.4989C118.436 58.5669 118.157 58.4712 117.991 58.5691C117.894 58.6265 117.694 59.1242 117.57 59.2858C117.251 59.7027 116.537 60.2642 117.039 60.8534C116.851 60.9172 116.566 61.0193 116.415 61.1341C116.164 61.3255 115.156 62.6165 115.075 62.876C115.041 62.9824 115.318 63.3673 115.129 63.7523C114.986 64.0437 114.505 64.1224 114.331 64.2585C114.227 64.3393 113.67 65.1071 113.744 65.2114L114.106 65.3113C114.416 65.8877 113.185 65.6261 114.061 66.1153C113.804 66.4343 113.525 66.1493 113.372 66.5938L113.212 66.2748C112.666 66.3748 112.532 66.8618 112.208 67.2362C112.011 67.4659 111.634 67.4701 111.726 67.8678H112.153V68.2932L111.943 68.1848L111.93 68.8101C111.047 68.8271 110.241 69.7523 110.558 70.6285L110.135 70.5243L110.347 71.0539L109.924 70.737L109.977 71.2687L109.869 71.3453C109.671 71.1773 109.52 71.458 109.367 71.5474C109.318 71.5771 109.222 71.4878 109.201 71.5048C109.154 71.5431 108.599 72.4789 108.586 72.5364C108.554 72.6831 109.014 73.1149 108.337 73.2829L108.008 72.7023C108.365 72.3535 108.763 71.6622 108.763 71.1071C108.763 70.8625 108.605 70.6009 108.663 70.3882C108.75 70.0713 109.265 69.7012 109.337 69.5672C109.471 69.3184 109.45 68.7782 109.526 68.4783C109.597 68.2018 109.799 68.0316 109.826 67.6998C109.852 67.3935 109.501 67.4148 109.543 67.0681C109.573 66.8278 109.931 66.6172 109.816 66.2748L109.501 66.7002C109.486 66.2727 109.067 66.4939 108.759 66.3705C108.748 66.0366 108.954 66.0174 109.122 65.7537C109.531 65.9047 109.639 66.1855 110.135 66.1685C110.158 65.9579 110.084 65.6878 110.154 65.4921C110.167 65.4581 110.596 65.0582 110.635 64.9668C110.796 64.5882 110.934 63.7076 111.153 63.3078C111.262 63.11 111.821 62.6931 111.97 62.4251C112.179 62.0487 112.455 60.881 112.715 60.6704C112.819 60.5875 113.04 60.6258 113.191 60.5067C113.489 60.2706 113.948 59.4581 114.046 59.0774C114.114 58.8158 113.991 58.4606 114.165 58.2415C114.329 58.0373 114.676 58.1245 114.916 58.0352C115.027 57.9948 115.628 57.5418 115.705 57.4439C116.186 56.8378 115.816 56.1168 115.973 55.9105C116.056 55.8041 116.301 55.7701 116.349 55.5468C116.62 55.8084 117.509 55.685 117.757 55.5106C117.787 55.4893 118.228 55.0129 118.247 54.981C118.57 54.4216 118.191 54.0473 118.453 53.5475C118.872 53.3943 119.616 53.3263 119.948 52.9987C120.108 52.8413 120.257 52.0757 120.52 51.9225C120.686 51.8247 120.916 51.8694 121.082 51.7609C121.318 51.6056 121.148 51.344 121.828 51.6099L121.722 51.293H122.252H122.243Z" fill="#EAEAEA"/>
<path d="M66.7642 50.7539L66.7536 51.275C66.6387 51.3133 66.5111 51.3345 66.4111 51.4069C65.8858 51.7833 65.4987 52.2002 65.035 52.5575C64.8436 52.7043 64.9542 52.9637 64.5331 52.7745C64.5778 53.2594 64.3374 53.6167 64.3289 54.1038C64.3225 54.4972 64.5267 55.1034 64.4076 55.4714C64.363 55.6096 64.1651 55.616 64.1035 55.7223C63.9673 55.9542 63.3463 56.9453 63.3101 57.0261C63.2166 57.2431 63.3059 57.4685 63.2272 57.6365C63.2187 57.6578 62.9294 57.9407 62.9103 57.9513C62.755 58.0258 62.5572 57.9428 62.4041 58.03C62.2509 58.1172 62.2573 58.4341 62.151 58.5809C61.8958 58.9339 61.3343 59.3125 61.2853 59.8825C61.2683 60.0846 61.4768 60.2739 61.4491 60.3164C61.4257 60.3483 60.8621 60.5589 60.7387 60.6716C60.5877 60.8077 59.6157 62.1434 59.5604 62.3114C59.4775 62.5603 59.7136 62.8793 59.5264 63.2239C59.352 63.545 57.425 64.5085 58.6884 64.7829L58.4736 65.3146L58.1567 65.2083C58.1758 65.7081 58.6012 65.1934 58.4757 65.7379L57.9482 65.7421L57.8887 66.059L57.5696 65.74L57.4123 65.9527L57.3059 65.7421C57.1655 65.9633 56.8869 66.5057 56.7423 66.6652C56.5381 66.8885 55.664 67.0948 56.5658 67.3862L56.5615 67.7584L56.3509 67.6499L56.302 68.2944C56.1872 68.4645 55.9596 68.3135 55.815 68.3539C55.3024 68.4964 55.3066 69.209 54.877 69.3706L54.9663 70.0937L54.6494 69.9874L54.7536 70.517L54.3304 70.198C54.2496 70.3043 54.609 70.7616 54.2241 70.836L54.1177 70.6233L54.0645 70.936L53.8582 70.8318L53.7732 71.0168L53.5902 70.9445C53.6264 71.3316 53.1181 71.6591 53.0713 71.9718C53.0202 72.3078 53.435 72.7034 52.8352 72.7013L52.4141 72.2717C52.7544 71.7357 53.0862 71.4422 53.1563 70.7829C53.1904 70.4532 53.0947 70.0512 53.1819 69.7449C53.2542 69.4918 53.6668 69.2472 53.7221 69.1132C53.8072 68.9048 54.2453 67.2161 54.2198 67.0736C54.1879 66.8864 53.9858 66.7673 54.005 66.544C54.0241 66.3206 54.4197 65.9697 54.2198 65.6336H54.6473C54.6303 65.4103 54.4708 65.1891 54.5537 64.9573C54.5665 64.9211 55.0195 64.4958 55.062 64.3788C55.2407 63.896 55.4534 63.0516 55.7256 62.6156C55.8192 62.4667 56.1872 62.2498 56.3063 62.086C56.6998 61.5521 56.8061 60.4291 57.2634 60.1186C57.391 60.0314 57.593 60.0484 57.6973 59.9697C57.7377 59.9378 58.2354 59.2104 58.28 59.119C58.5331 58.6128 58.3736 58.0832 58.5246 57.7684C58.6756 57.4536 59.1436 57.628 59.4264 57.5025C59.7582 57.3558 60.0326 56.9006 60.207 56.6348C60.2559 56.5624 60.4388 56.5476 60.4792 56.4263C60.5813 56.1158 60.1198 55.465 60.7196 55.0268C61.1747 55.2034 61.5065 55.2395 61.983 55.063C62.0446 55.0396 62.5721 54.5717 62.6104 54.5249C62.989 54.0612 62.687 53.6188 62.7167 53.2721C62.7423 52.985 64.029 52.7511 64.3119 52.5086C64.5374 52.3129 64.8415 51.4345 64.9117 51.3856C65.0159 51.3133 65.2584 51.326 65.4009 51.2622C65.7178 51.1197 65.7305 50.8326 66.2261 51.0772V50.756H66.7578L66.7642 50.7539Z" fill="#EAEAEA"/>
<path d="M53.8639 65.3622C54.1808 65.5749 54.1403 65.7983 54.1148 66.1662L53.6916 65.8472L53.5852 66.1662C53.5384 65.7238 53.1067 66.0237 53.1705 65.5409C53.666 65.5792 53.4108 65.056 53.8617 65.3622H53.8639Z" fill="#EAEAEA"/>
<path d="M49.9658 66.0586L49.7531 66.216C49.7595 66.3266 50.053 66.1798 49.9658 66.4265L49.6361 66.8987L49.1172 66.6414L49.415 66.5733L49.4532 66.1798L49.9658 66.0586Z" fill="#EAEAEA"/>
<path d="M105.442 66.597L105.23 66.7544L105.368 66.8076C105.693 67.0777 104.932 67.72 104.594 67.1798L105.011 67.1203C105.083 66.8182 104.977 66.5247 105.442 66.597Z" fill="#EAEAEA"/>
<path d="M70.6958 75.3035L70.4831 74.9845L70.5894 74.6654H70.1641L70.5363 74.2422C70.6511 74.2422 71.1127 75.2206 70.6958 75.3035Z" fill="#EAEAEA"/>
<path d="M22.7601 51.1875C22.6133 51.7065 22.3347 52.487 22.4368 53.0315C22.4581 53.1421 22.7686 53.0358 22.6559 53.3123L21.7243 53.3357C21.4776 53.7164 21.1224 54.0822 20.8608 54.4416C20.7672 54.5714 20.7863 54.816 20.7119 54.884C20.663 54.9287 20.5013 54.884 20.4524 54.9287C20.3673 55.0053 20.3333 55.4902 20.1844 55.6242C20.0526 55.7412 19.7973 55.6965 19.7059 55.7858C19.6399 55.8497 19.3698 56.492 19.2528 56.66C19.1167 56.8557 18.7466 57.0769 18.6701 57.247C18.5935 57.4172 18.6552 57.6086 18.585 57.7468C18.4382 58.0403 17.9831 58.1573 17.6704 58.1063C17.6215 58.6657 16.8792 58.9166 16.6198 59.4441C16.4858 59.7142 16.6198 60.1502 16.5028 60.28C16.3624 60.4395 16.088 60.4161 15.9009 60.5352C15.5648 60.75 15.5074 61.1435 15.3968 61.252C15.1501 61.4923 15.1692 61.3626 14.8332 61.8028C14.7502 61.9113 14.5758 61.9453 14.5205 62.0283C14.4163 62.1835 14.6694 62.6132 14.478 62.9301C14.21 63.3746 13.8995 63.1917 13.8505 63.2193C13.7952 63.2491 13.053 64.0339 12.9849 64.1275C12.9509 64.1722 12.8637 64.3508 12.8764 64.3615C13.6825 64.3274 13.4698 64.991 12.8764 64.7869V65.1059L13.2997 65.1591C13.1636 65.3441 12.8381 65.2399 12.8743 65.5313L12.6637 65.3207V65.6397H12.3447L12.2384 65.3207L12.1873 65.5121C11.7641 65.3143 11.5514 65.98 11.3089 66.1736C10.9856 66.4309 10.6283 66.2438 10.7495 66.8074H11.177V67.2328L10.8601 67.1264L10.8516 67.756C9.92642 67.6837 9.14585 68.5621 9.26496 69.4639L8.94805 69.2512L9.05227 69.8871L8.62902 69.4618C8.58648 69.7149 8.82044 69.9424 8.57372 70.0998L8.46738 69.8871L8.36103 70.2062L8.14834 69.9956L8.09517 70.3125L7.88461 70.102C7.83994 70.4742 7.41031 70.9144 7.14019 71.2186L7.35076 71.5355C7.30397 71.6397 7.09128 71.6525 7.05512 71.7163C6.97004 71.8652 7.13807 72.1395 6.92751 72.1204L6.83179 71.5461L6.5 71.4313C6.91262 70.9187 7.35714 70.6188 7.44434 69.9318C7.48262 69.6383 7.39755 69.2555 7.47624 69.0066C7.54218 68.796 7.75274 68.8024 7.85058 68.6833C8.22491 68.2324 8.56309 67.3221 8.82682 66.7223C9.09056 66.1225 8.58861 66.3267 8.61626 65.9099C8.64391 65.4653 9.03313 65.6525 8.9438 65.2165L8.62902 65.427C8.64603 65.0953 8.13983 65.1399 7.88248 65.108V64.6848L8.3036 64.6784L8.4142 64.3679L9.00123 65.0038L9.09906 64.7996L9.3713 64.8975L9.36492 64.219C10.0072 64.1892 9.9328 63.3023 10.0732 63.0896C10.1391 62.9918 10.3242 62.9684 10.4156 62.8067C10.522 62.6238 10.4922 62.3133 10.5964 62.1389C10.7304 61.9134 10.9665 61.9794 11.0473 61.8922C11.0983 61.8369 11.0367 61.6795 11.1388 61.5944C11.2026 61.5412 11.377 61.5604 11.4705 61.4732C11.5173 61.4306 11.9044 60.5565 12.0172 60.3459C12.0512 60.2821 12.0023 60.1268 12.0597 60.0439C12.3553 59.6206 12.8084 59.727 12.8679 59.6759C12.9019 59.6462 12.8552 59.4717 12.9062 59.4101C13.0296 59.2612 13.5209 58.9315 13.6251 58.7656C13.8973 58.3317 13.7208 57.4214 14.2291 57.2704C14.5205 57.1853 14.7438 57.2704 15.1224 57.0981C15.1607 57.0811 15.7307 56.6728 15.7541 56.643C16.0987 56.2197 15.8498 55.4434 16.0093 55.2243C16.0583 55.1584 16.2412 55.1414 16.3475 55.0797C16.3986 55.0499 16.3773 54.9011 16.4368 54.9117C16.5006 54.9244 16.6261 55.0776 16.7793 55.101C17.5258 55.2222 17.6258 55.067 18.1001 54.6586C18.183 54.5863 18.3362 54.6203 18.4149 54.5225C18.7466 54.1056 18.4149 53.325 18.6467 53.1315L20.1887 52.7614C20.2333 52.4232 20.5035 52.3573 20.6375 52.1722C20.6906 52.0999 20.6715 51.9085 20.7395 51.8C20.8289 51.6575 21.8647 51.2875 21.971 51.313C22.0497 51.3321 21.9583 51.6129 22.2348 51.5108V51.1896H22.7665L22.7601 51.1875Z" fill="#EAEAEA"/>
<path d="M37.3182 46.9437C37.1502 46.9777 37.214 46.7459 37.1119 46.6757C37.0545 46.6353 36.2271 46.7863 36.1484 46.4141C36.8758 46.3716 36.3165 45.2294 36.6738 44.9678L37.6926 44.8359C38.2222 44.9168 37.314 46.6523 37.3161 46.9437H37.3182Z" fill="#EAEAEA"/>
<path d="M43.8078 38.7565L44.0205 38.4375C44.2906 38.8203 44.6671 39.2478 44.6586 39.8178L43.5462 39.9306L43.4888 39.6051L43.1719 39.7115L43.4675 39.3478L43.3846 38.9671L43.7015 38.9118L43.5973 38.2227L43.8099 38.7544L43.8078 38.7565Z" fill="#EAEAEA"/>
<path d="M32.5362 59.1606V59.2648C32.1342 59.1861 32.4086 59.788 32.3235 59.9029L32.0066 59.7965C32.1406 60.1496 31.9066 60.6026 31.4749 60.5388C31.5663 60.2708 31.3175 59.6519 31.3877 59.4477C31.4791 59.184 31.7535 59.1904 31.7854 59.1478C31.8088 59.1138 31.545 58.6395 31.9534 58.4141C32.1512 58.7395 32.0151 59.0798 32.5383 59.1585L32.5362 59.1606Z" fill="#EAEAEA"/>
<path d="M42.1021 35.6771C41.7661 35.6494 41.7895 35.8749 42.1021 35.9429C41.8278 36.0641 41.9873 36.4512 41.9022 36.5703C41.8299 36.6703 41.6597 36.6001 41.6002 36.6576C41.4896 36.766 41.2939 37.4955 40.9323 36.9553L41.2492 36.7937L41.2556 36.5831L40.8281 36.1556L41.3556 35.8919L40.9323 35.5728C41.3598 35.8366 41.8193 35.1517 42.1 35.6771H42.1021Z" fill="#EAEAEA"/>
<path d="M53.6438 19.8889C53.6821 19.9165 53.7033 20.008 53.765 20.059C53.9118 20.1824 54.2351 20.0739 54.1181 20.427C54.0926 20.5035 53.8969 20.512 53.8522 20.5822C53.7671 20.7184 54.0713 21.1182 53.3354 21.0161L53.1036 20.695L52.625 21.2246V20.7013L53.0015 20.595C52.8547 20.0824 53.3843 20.1101 53.2631 19.6315C53.2865 19.6017 53.5736 19.8357 53.6438 19.8889Z" fill="#EAEAEA"/>
<path d="M48.2671 17.9345L47.9502 17.826L47.9417 18.1366C47.6822 18.0111 47.6226 18.2642 47.4185 18.3578V17.9324L47.1016 17.8792C47.5971 17.6857 47.3866 17.3198 47.4185 16.8711L47.7885 17.2964C47.7396 16.7371 47.8311 16.9795 48.0948 16.9732C48.1459 16.9732 48.2097 16.552 48.3224 16.8668C48.4479 17.2199 48.2692 17.5793 48.2671 17.9324V17.9345Z" fill="#EAEAEA"/>
<path d="M41.3585 40.241V40.6664L42.1008 40.241C42.1475 40.3048 41.9476 41.1386 41.8944 41.2343C41.8115 41.3831 41.4287 41.1471 41.569 41.7277C41.3138 41.5597 41.2862 41.1386 41.3563 40.8791L41.1437 41.196C40.4779 41.1279 40.7289 40.0602 41.3585 40.2389V40.241Z" fill="#EAEAEA"/>
<path d="M50.0773 14.6433V14.3242L50.3964 14.6411C50.105 14.6581 50.1135 15.0389 49.8646 15.2281L50.0773 15.3324L49.7987 15.4898L49.8646 15.8109L49.2266 15.9173C49.3499 15.7088 49.1989 15.2728 49.2329 15.1367C49.2436 15.092 49.7477 14.7326 49.5456 14.3242L50.0752 14.6433H50.0773Z" fill="#EAEAEA"/>
<path d="M51.1365 22.7129C50.8366 22.6704 51.0621 22.3492 51.028 22.3003C50.9515 22.194 50.3666 22.2535 50.5516 21.6495C50.6537 21.4878 51.0046 21.7197 51.279 21.6325C51.496 21.5644 51.5895 21.0986 51.9894 21.1178L51.1386 22.7108L51.1365 22.7129Z" fill="#EAEAEA"/>
<path d="M30.8757 43.2967C30.9055 43.3584 31.0863 43.2882 31.0522 43.3796C30.9416 43.554 30.6885 43.6115 30.5801 43.7625C30.5099 43.8603 30.5375 44.0432 30.5163 44.0709C30.4886 44.1049 29.7591 43.9901 29.6719 43.9114L29.993 43.805L29.8846 43.3286L30.3078 43.4349V43.0096L30.6269 43.1691V42.7969C30.8736 42.8586 30.7885 43.1244 30.8757 43.2988V43.2967Z" fill="#EAEAEA"/>
<path d="M34.5759 61.7955C34.6036 61.8103 34.912 61.6317 35.0438 61.9209C35.2246 62.3165 34.3143 62.5186 34.0272 62.4059C33.706 62.1826 34.2037 61.6508 34.3994 61.4998C34.4845 61.5062 34.5227 61.7657 34.5738 61.7955H34.5759Z" fill="#EAEAEA"/>
<path d="M39.2375 31.1057H38.8121L38.9185 30.7888L38.6016 30.7356C38.9185 30.4974 38.7228 30.0784 38.8143 29.7274L39.1312 30.1528V29.7274L39.4502 30.0465L39.5565 29.6211C39.6586 30.172 39.0291 30.5569 39.2396 31.1078L39.2375 31.1057Z" fill="#EAEAEA"/>
<path d="M51.664 11.9886C51.6831 12.0035 51.6597 12.2545 51.9894 12.2481L51.6682 12.4608L51.9873 12.6735C51.7214 12.8883 51.5406 13.3094 51.1386 13.2563L51.3492 13.0457C51.1238 13.0563 51.0195 12.8288 51.0323 12.6203H51.4577L51.3811 12.4289L51.5725 12.3438L51.4577 11.9844L51.6661 11.9886H51.664Z" fill="#EAEAEA"/>
<path d="M34.7701 52.3516C34.7106 52.7408 34.6935 53.1024 34.3979 53.4108C34.0874 53.1747 33.9364 52.928 34.0406 52.5217L34.7701 52.3516Z" fill="#EAEAEA"/>
<path d="M29.769 66.8018C29.769 66.8018 29.6414 66.7784 29.5989 66.8401C29.2926 67.291 29.3394 67.2931 28.7077 67.442C28.5248 67.2782 29.0948 66.9953 29.2373 67.1229L29.0267 66.6997L29.2479 66.6316L29.2926 66.168L29.769 66.8018Z" fill="#EAEAEA"/>
<path d="M39.869 43.3203L39.5649 43.6904L39.7627 43.9541L39.3373 44.1179L39.55 44.4858L39.2841 44.5901C39.0247 44.4348 39.2459 44.2923 39.2331 44.0605L38.9141 43.9563C39.0225 43.8648 39.5628 43.7393 39.4437 43.5309L39.1289 43.4777L39.8712 43.3203H39.869Z" fill="#EAEAEA"/>
<path d="M46.6689 31.1038C46.3223 31.0592 46.5116 31.3655 46.4541 31.559C46.4435 31.5973 46.0713 31.9248 46.0862 32.1694L45.8203 31.8525H46.1415C45.9501 31.3655 46.1585 31.1953 46.3542 30.7891L46.6689 31.106V31.1038Z" fill="#EAEAEA"/>
<path d="M26.2657 51.5058V52.1418L25.9488 51.9312L26.0552 52.4608L25.5234 52.5671V52.0375L25.8403 52.1439V51.6143C26.0041 51.5633 25.9127 52.0205 26.1594 51.8249C26.2104 51.7844 25.8446 51.4271 26.2657 51.508V51.5058Z" fill="#EAEAEA"/>
<path d="M30.8266 67.6466C30.7692 67.6827 30.3608 67.6806 30.3204 67.6466C30.2183 67.3169 30.1715 67.0532 30.4671 66.8086C30.5458 67.0149 31.1222 67.4658 30.8266 67.6466Z" fill="#EAEAEA"/>
<path d="M4.68935 65.0039L4.37244 65.1103L4.68935 65.2676L4.15975 65.8525L4.15125 65.6462L3.84072 65.7462L3.73438 65.3208L4.15763 65.4272V65.0039H4.68935Z" fill="#EAEAEA"/>
<path d="M37.3191 49.6953L37.2 50.2143L36.7874 50.227L36.8002 51.1182L36.2578 51.2884L36.2727 50.88L36.6811 50.7545L36.4684 49.908L37.3191 49.6953Z" fill="#EAEAEA"/>
<path d="M6.28826 71.4813L5.9671 71.5877L5.97348 71.962L5.4375 72.0109V71.375C5.77142 71.5132 5.9118 71.5685 6.28826 71.4813Z" fill="#EAEAEA"/>
<path d="M29.7666 70.8355L29.9304 70.7313L29.9814 71.263L29.8134 71.0525H29.1328L29.3987 70.5207C29.4646 70.4931 29.5135 70.9525 29.7688 70.8355H29.7666Z" fill="#EAEAEA"/>
<path d="M38.807 47.5742L38.8644 48.2165C38.8027 48.3484 38.3688 48.2378 38.2901 48.3378C38.2199 48.425 38.3731 48.6738 38.171 48.6377L38.0859 48.2378C38.3093 48.0804 38.3731 47.9252 38.7027 47.9996L38.5985 47.6253L38.8091 47.5742H38.807Z" fill="#EAEAEA"/>
<path d="M44.333 33.8753C44.3926 34.2411 43.9948 33.8562 44.0118 34.2986L43.5907 33.9795L43.4844 34.2986V33.769C43.863 33.7817 43.9502 33.6201 44.333 33.8774V33.8753Z" fill="#EAEAEA"/>
</svg>
