<svg width="139" height="33" viewBox="0 0 139 33" fill="none" xmlns="http://www.w3.org/2000/svg">
<g clip-path="url(#clip0_13644_695)">
<path d="M53.6367 4.79438L46.6004 16.0488L56.1482 31.2748C55.6267 31.4951 53.6843 33.2296 53.2907 32.9723L44.4094 19.1875L38.4405 28.763C38.2617 28.8709 35.637 27.3042 35.5513 27.1582C35.2201 26.5956 41.7254 17.3919 42.4004 16.0444L37.6724 8.34088C38.1464 8.01163 40.1268 6.38393 40.5299 6.64558L44.2475 12.4238L44.6664 12.6102L50.7041 3.08927C51.1093 2.8636 52.9966 4.7257 53.6367 4.79547V4.79438Z" fill="#111104"/>
<path d="M22.4041 0.00414767L29.8371 11.9007L30.1926 11.7906L35.6938 3.09384L38.6317 4.88617L32.1032 15.2193L36.8935 23.0842L33.9736 24.8754C33.6372 24.1515 30.2709 18.5609 29.9196 18.6568C29.3378 18.8149 24.3327 27.9575 23.1933 28.9474C22.8442 28.4525 20.5029 27.4091 20.54 26.9545L27.9064 15.2204L19.5043 2.00798C19.4535 1.83681 19.5741 1.78666 19.6587 1.68854C19.8481 1.4705 22.2697 -0.0907018 22.4041 0.00414767Z" fill="#111104"/>
<path d="M117.963 9.23438V17.7654C119.881 15.0671 121.542 12.1485 123.137 9.23438H126.413V22.9189H123.309V14.2102L118.136 22.9189H114.859V9.23438H117.963Z" fill="#111104"/>
<path d="M99.8544 9.23438V22.9189H96.7504V18.2985C96.2204 18.3715 95.3339 18.1077 94.9371 18.474L92.6118 22.92H88.818L91.7496 17.9453C88.1092 17.5604 87.2343 12.1584 89.9394 10.1251C90.2864 9.86452 91.6628 9.23547 92.0077 9.23547H99.8544V9.23438ZM96.7504 11.9H93.3873C92.6277 11.9 91.8099 12.8397 91.7549 13.6116C91.7147 14.1829 92.3346 15.4552 92.8699 15.4552H96.7504V11.9011V11.9Z" fill="#111104"/>
<path d="M79.6362 8.92667C84.7196 8.21802 88.2531 11.2292 87.9526 16.6095C87.6808 21.4708 84.4911 23.7439 79.9388 23.274C72.5565 22.513 72.6274 9.90351 79.6373 8.92667H79.6362ZM80.3207 11.5868C77.842 12.1123 77.5775 15.7537 77.9943 17.8131C78.427 19.9543 79.8594 20.9377 81.9647 20.567C85.6368 19.9205 85.6664 10.453 80.3196 11.5868H80.3207Z" fill="#111104"/>
<path d="M105.027 9.23828V14.3918H109.683V9.23828H112.96V22.9228H109.683V17.0574H105.027V22.9228H101.75V9.23828H105.027Z" fill="#111104"/>
<path d="M138.832 9.23547V11.9011H131.675C131.283 11.9011 131.283 14.7444 131.675 14.7444H137.969V17.2323H131.416V20.2533H139.005V22.9189H128.312V9.23438H138.833L138.832 9.23547Z" fill="#111104"/>
<path d="M20.9555 9.23634C25.0233 9.80107 25.9754 15.5727 22.772 17.5057C22.3668 17.7499 21.0084 18.2994 20.6106 18.2994H16.5577V22.9197H13.2812V9.23525C15.6711 9.474 18.6376 8.91363 20.9555 9.23525V9.23634ZM16.5577 15.4561H20.0933C20.6953 15.4561 21.2274 14.1849 21.202 13.6027C21.1682 12.8592 20.489 11.9019 19.7484 11.9019H16.5577V15.4561Z" fill="#111104"/>
<path d="M63.6376 13.8576H60.3611C60.3199 13.8576 60.3643 13.3233 60.2257 13.0214C59.5857 11.628 58.0083 11.2421 56.6446 11.7164C54.0728 12.6114 53.9511 18.2195 55.8173 19.8723C57.0551 20.9691 59.098 20.9451 60.0501 19.4918C60.3061 19.1004 60.4627 18.1236 60.5325 18.1236H63.6365C63.7508 24.0621 54.6663 25.0389 52.1124 20.6682C50.6842 18.2228 50.8175 13.7703 52.3557 11.3849C55.0556 7.19846 63.3371 8.12624 63.6365 13.8576H63.6376Z" fill="#111104"/>
<path d="M0 22.922L4.93421 9.22656L8.26142 9.25491L13.1068 22.922H9.65789C9.51401 22.3758 9.25376 20.9323 8.98716 20.5398C8.80943 20.2771 4.83159 20.4995 4.16298 20.4591C3.82549 21.2594 3.75461 22.2526 3.19073 22.923H0V22.922ZM6.72424 13.147C6.28202 13.0761 6.45658 13.1884 6.36454 13.3967C5.76681 14.7562 5.51079 16.567 4.82948 17.944H8.27835L6.72424 13.147Z" fill="#111104"/>
<path d="M74.6776 9.23438V11.9H70.7114V22.9189H67.4349V11.9H63.4688V9.23438H74.6776Z" fill="#111104"/>
</g>
<defs>
<clipPath id="clip0_13644_695">
<rect width="139" height="33" fill="white"/>
</clipPath>
</defs>
</svg>
