<svg width="225" height="34" viewBox="0 0 225 34" fill="none" xmlns="http://www.w3.org/2000/svg">
<g clip-path="url(#clip0_13644_3192)">
<path d="M225.001 2.54952L213.26 18.4592L213.17 32.0419C213.234 33.4803 210.445 33.4468 210.232 32.3307L210.166 18.5848L198.572 2.87876C197.653 1.0456 200.06 0.435941 201.16 1.56737L211.566 15.8044C211.854 15.8072 212.596 14.6799 212.815 14.3925C216.058 10.1528 219.043 5.71221 222.319 1.49622C223.047 0.765185 224.45 0.811223 224.999 1.71246V2.54952H225.001Z" fill="black"/>
<path d="M131.141 1.19781C142.988 0.205893 152.591 10.0623 149.105 21.8034C145.487 33.9869 128.658 36.9961 120.406 27.5261C111.916 17.7842 118.298 2.27483 131.141 1.19921V1.19781ZM131.985 3.29046C121.109 4.29633 115.741 17.7604 122.873 26.0543C132.936 37.7564 150.424 26.8342 146.039 12.8455C144.229 7.06839 138.152 2.71986 131.985 3.29046Z" fill="black"/>
<path d="M167.04 32.3353C166.829 33.0943 164.301 33.5351 164.086 31.6378V2.61968C164.208 1.79936 164.371 1.36967 165.273 1.28596C173.89 1.54963 186.712 -1.13035 185.756 11.6948C185.408 16.3614 181.725 18.8977 177.361 19.5534C177.148 19.5855 176.18 19.439 176.326 19.7794L185.529 31.0211C186.708 32.7162 184.373 33.4835 183.084 32.6088L172.737 19.7111H167.04V32.3367V32.3353ZM167.04 17.7565C173.624 17.6435 183.396 19.3386 182.803 9.72771C182.474 4.40541 178.487 3.33118 173.861 3.10936C172.154 3.02705 169.15 2.91125 167.525 3.10099C167.32 3.1247 167.164 3.11773 167.04 3.31723V17.7565Z" fill="black"/>
<path d="M49.1567 32.0546C48.9147 33.1706 46.384 33.3925 46.2109 32.0462L46.232 2.08919C46.3601 1.62462 46.7666 1.30096 47.2533 1.2884C53.723 1.7711 65.2443 -0.974453 67.4824 7.46033C69.269 14.1917 65.1585 19.3605 58.2977 19.6382L67.8383 31.5258C68.1816 33.0172 66.1137 33.3088 65.1866 32.6154L54.7119 19.7051H49.1553V32.0518L49.1567 32.0546ZM49.1567 17.7548C54.3377 17.4897 63.1989 19.3047 64.6802 12.4325C66.1432 5.63832 61.6332 3.37547 55.7037 3.10064C53.5317 3.00019 51.3301 3.18713 49.1567 3.10622V17.7548Z" fill="black"/>
<path d="M20.9512 20.1288L21.1073 19.84L13.3027 0.541545C14.1875 -0.317837 15.8686 -0.142054 16.4848 0.981002C20.283 10.5751 24.4653 20.0269 28.2621 29.6196C28.5519 30.3507 29.4958 32.3359 29.4058 32.9651C29.2285 34.2095 27.214 34.2862 26.5838 33.3766L22.3959 23.0208C22.1962 22.5758 21.6644 22.5339 21.2382 22.4949C16.9996 22.1056 12.1674 22.799 7.86559 22.4976L7.31977 22.6539L2.85193 33.2901C1.95583 34.6308 -0.601646 33.9779 0.129864 32.1252L9.06555 10.504C9.14855 10.4412 9.39332 10.769 9.4524 10.8848C9.60996 11.1931 10.6214 13.8815 10.6102 14.0503L8.36077 20.1302H20.9512V20.1288Z" fill="black"/>
<path d="M95.4349 32.337C95.2324 33.0597 93.5752 33.0778 93.0027 32.6914C92.952 32.6579 92.6214 32.2282 92.6214 32.1975V3.24918H81.7191C81.0509 3.24918 80.5346 1.44531 82.2748 1.28906L105.918 1.29325C107.433 1.46764 107.031 3.24918 106.337 3.24918H95.6459L95.4349 3.45844V32.337Z" fill="black"/>
<path d="M131.99 3.28862C138.157 2.71803 144.234 7.06656 146.045 12.8437C150.428 26.8323 132.941 37.7546 122.878 26.0525C115.746 17.7586 121.114 4.29449 131.99 3.28862Z" fill="#F8F7F2"/>
<path d="M167.047 17.7583V3.31897C167.171 3.11947 167.327 3.12644 167.532 3.10272C169.157 2.91299 172.16 3.02878 173.868 3.1111C178.492 3.33431 182.48 4.40714 182.81 9.72945C183.403 19.3403 173.63 17.6453 167.047 17.7583Z" fill="#F8F7F2"/>
<path d="M49.1562 17.7549V3.10637C51.3297 3.18729 53.5312 3.00035 55.7033 3.10079C61.6313 3.37423 66.1428 5.63848 64.6797 12.4326C63.1998 19.3049 54.3387 17.4899 49.1562 17.7549Z" fill="#F8F7F2"/>
</g>
<defs>
<clipPath id="clip0_13644_3192">
<rect width="225" height="34" fill="white"/>
</clipPath>
</defs>
</svg>
