<svg width="218" height="50" viewBox="0 0 218 50" fill="none" xmlns="http://www.w3.org/2000/svg">
<path d="M190.759 16.4161C189.817 16.4161 189.124 15.0328 186.944 11.6828C185.854 13.1328 182.881 15.8328 178.868 19.0328V15.1828C176.44 13.6328 176.093 13.3328 173.814 11.1328L168.868 16.1661L171.931 18.3828V31.0245C171.931 33.2245 171.585 33.6245 169.405 34.2745C169.305 34.3245 169.008 34.3745 168.711 34.4745C172.179 35.4745 173.566 36.6745 175.251 40.2245C176.787 36.8745 178.166 35.7245 182.039 34.4745C179.413 33.7745 178.868 33.1745 178.868 31.0245V19.9745L182.039 17.3745L183.822 19.0245V35.5661L188.727 39.6661L193.566 34.4828L190.759 31.7245V16.4161Z" fill="black"/>
<path d="M49.8401 19.5258C51.9953 19.5258 53.812 17.8008 54.4726 15.3424L54.3487 15.2258C54.2001 15.3591 54.0184 15.4341 53.8202 15.4341C52.978 15.4341 51.376 13.4258 50.5833 10.9258C49.2786 12.3424 47.5032 13.9841 45.7526 15.3841V15.3258L40.5503 11.8258L35.7031 16.9091L38.8162 19.1258V30.3758C38.8162 32.7758 38.4694 35.0258 38.4694 35.0258C39.9558 35.0258 41.9871 36.4258 45.7526 39.9758L50.9466 34.2674L45.7526 30.8841V16.5924C46.5536 18.5091 47.9739 19.5341 49.8401 19.5341V19.5258Z" fill="black"/>
<path d="M90.7463 19.5258C92.9098 19.5258 94.7182 17.8008 95.3788 15.3424L95.255 15.2258C95.1063 15.3591 94.9247 15.4341 94.7265 15.4341C93.8842 15.4341 92.2823 13.4258 91.4895 10.9258C90.1848 12.3424 88.4095 13.9841 86.6588 15.3841V15.3258L81.4566 11.8258L76.6094 16.9091L79.7225 19.1258V30.3758C79.7225 32.7758 79.3757 35.0258 79.3757 35.0258C80.862 35.0258 82.8934 36.4258 86.6588 39.9758L91.8529 34.2674L86.6588 30.8841V16.5924C87.4516 18.5091 88.8801 19.5341 90.7463 19.5341V19.5258Z" fill="black"/>
<path d="M107.705 32.325V15.7667C105.376 14.7167 104.782 13.7 103.543 11.25C101.76 14.15 100.917 14.95 98.5391 16.05C99.4969 16.6417 100.603 17 100.769 17.7V35.975L106.12 39.725L110.835 34.4833L107.705 32.3333V32.325Z" fill="black"/>
<path d="M103.494 10.9328C102.205 8.58281 101.215 7.58281 98.5391 5.93281C100.917 4.83281 101.76 4.03281 103.543 1.13281C104.782 3.58281 106.07 4.88281 108.399 5.93281C105.723 7.53281 104.732 8.48281 103.494 10.9328Z" fill="black"/>
<path d="M12.0798 22.8164L11.4688 24.9997H20.4282L19.8502 22.8164H12.0798Z" fill="black"/>
<path d="M35.5439 31.5737C34.553 33.1237 33.5125 34.0237 32.7693 34.0237C31.6298 34.0237 30.8866 32.5237 29.7966 27.9237C29.103 25.0737 28.4589 22.3737 27.7157 19.4737C26.3284 13.8737 25.0898 6.25703 19.937 2.63203C18.0626 1.30703 15.6761 0.832031 13.5952 0.832031C8.29386 0.832031 4.52841 3.98203 4.52841 8.38203C4.52841 11.382 6.41114 13.582 9.08659 13.582C11.5639 13.582 13.4466 11.232 13.4466 8.13203C13.4466 7.78203 13.4466 7.58203 13.397 7.08203H12.753C12.753 7.23203 12.753 7.43203 12.7034 7.48203V7.98203C12.6539 9.63203 11.4648 10.632 9.58205 10.632C7.3525 10.632 5.76705 9.13203 5.76705 7.03203C5.76705 4.68203 7.74886 2.68203 10.0775 2.68203C12.7034 2.68203 14.7348 4.68203 16.0725 8.53203L8.64068 30.2237C6.01477 30.8737 4.87523 31.4237 3.63659 32.6237C1.9025 34.4237 0.8125 37.1237 0.8125 39.8237C0.8125 42.5237 1.85295 45.0237 3.78523 46.8237C5.51932 48.4237 7.50114 49.1737 10.1766 49.1737C13.4961 49.1737 15.8743 47.9737 17.8066 45.3237C18.8966 43.8237 19.5902 41.6737 19.5902 39.7237C19.5902 39.5237 19.5407 39.1737 19.4911 38.8237L18.6984 39.0737C18.748 39.4737 18.7975 39.8237 18.7975 40.0237C18.7975 43.6237 16.3202 45.4237 11.3657 45.4237C8.4425 45.4237 5.32114 44.8237 3.5375 43.9737C2.29886 43.3737 1.55568 42.1237 1.55568 40.6237C1.55568 38.4237 3.28977 36.9237 5.81659 36.9237C8.49205 36.9237 10.573 38.4737 12.307 41.7237C13.8925 39.1237 14.933 37.7737 20.2343 31.5737L19.5902 30.9237L17.0139 33.9237C15.2798 31.6237 12.5052 30.2737 9.5325 30.2237L10.7216 26.9237H20.928L23.8016 38.4154C25.833 39.4154 26.0311 39.5654 29.7966 41.7154C32.1748 37.7154 33.9089 35.0654 36.188 32.1154L35.5439 31.5654V31.5737ZM16.6175 9.63203L19.4911 21.4737H12.4557L16.6175 9.63203ZM11.4565 24.9987L12.0676 22.8154H19.8462L20.4242 24.9987H11.4648H11.4565Z" fill="black"/>
<path d="M68.5273 3.13281H65.9509L61.5909 7.28281V12.8828H57.875V16.9328H61.5909V29.1328C61.5909 33.4828 61.2936 35.2328 61.2936 35.2328C62.0368 35.2328 64.5141 37.5828 66.6941 40.2328L71.7147 34.8745L68.5273 31.8828V16.9411H72.9864V12.8911H68.5273V3.13281Z" fill="black"/>
<path d="M132.914 14.6237C131.7 13.2487 131.527 12.9237 130.932 11.8237C130.437 12.3737 123.757 18.7737 123.203 19.2737V1.83203L116.267 3.13203V26.7237C116.267 30.2237 115.227 33.5737 115.227 33.5737C116.416 33.5737 120.924 37.5737 122.857 40.2737C125.334 36.0737 128.158 34.8237 134.591 34.9237V16.5404L132.906 14.632L132.914 14.6237ZM127.662 34.8654L127.316 35.0154C126.473 33.8154 125.532 32.8154 123.203 30.8654V20.1654L126.077 17.5154L127.662 19.7654V34.857V34.8654Z" fill="black"/>
<path d="M162.131 16.5242C161.239 16.5242 159.703 15.3742 156.829 12.5742L152.123 18.0242L155.194 20.2242V31.1659L152.123 34.0659L149.943 32.2659V16.0742L144.79 12.5742L139.992 17.5659L143.006 19.7242V31.1742C143.006 32.9742 142.313 35.6242 142.313 35.6242C143.138 35.6659 145.583 37.2742 147.763 39.9742C149.943 37.2242 151.578 35.5242 155.194 32.2742V36.0242L160.347 39.9742L165.227 34.5492L162.131 32.2742V16.5326V16.5242Z" fill="black"/>
<path d="M211.553 33.6734L205.905 30.1234V26.6234C208.779 25.5734 213.535 23.0234 216.607 20.9234L211.405 11.5234C208.581 13.9234 204.815 15.2234 200.752 15.2234C200.306 15.2234 199.761 15.1734 198.969 15.1234V34.9484C200.306 34.9484 204.716 37.3151 207.837 39.7151L215.368 30.1151L214.724 29.6151L211.553 33.6651V33.6734ZM205.905 15.6818L206.301 15.5318L210.81 23.3818C208.581 24.6318 208.234 24.8318 205.905 25.8318V15.6818Z" fill="black"/>
</svg>
