<svg width="101" height="72" viewBox="0 0 101 72" fill="none" xmlns="http://www.w3.org/2000/svg">
<path d="M68.3028 20.1458C71.2983 18.4872 74.9523 19.6575 78.1449 19.8174C78.9295 19.8562 79.3118 19.2786 79.987 20.3125L80.0712 19.6406C80.8441 19.5682 81.0259 20.2131 80.9047 20.8901C80.6369 22.3819 80.2059 23.7189 79.2259 24.9245C78.714 25.5543 77.9276 26.0359 77.5454 26.7717C76.3448 29.0769 77.9782 31.9782 78.3436 34.3776C79.1585 39.707 76.9695 44.5986 77.2474 49.9094C79.0625 52.095 81.6001 53.789 84.2286 54.8566C87.8118 56.3114 92.1763 56.4613 94.3249 60.2179C95.5339 62.3311 94.7257 63.6395 95.0422 65.714C95.2594 67.1318 96.8945 67.1991 98.0024 67.7952C99.3141 68.5007 100.146 69.4235 100.915 70.6779V70.8463C98.7012 70.033 96.2159 71.1326 94.1346 69.8125C93.3264 69.2989 92.6848 67.9265 91.5954 67.999C90.8629 68.0478 89.8762 69.2164 89.2027 69.6424C86.9463 71.0636 83.449 71.5367 81.4166 69.506C82.9169 69.6188 84.8314 69.3662 85.8754 68.1657C86.0219 67.999 86.4529 67.5258 86.2037 67.3187C84.3717 67.8592 82.4673 67.8642 80.5746 67.8255C80.3372 68.0646 81.4839 69.4168 80.3978 70.417C79.47 71.2707 78.6769 70.6392 77.7879 70.523C77.1564 70.4405 75.4254 70.1509 74.9523 70.1812C74.528 70.2082 73.6557 70.7487 73.1422 70.8935C72.2632 71.141 71.3657 71.2774 70.4884 71.5182C69.1464 71.4104 67.5989 71.6647 66.2855 71.5182C64.9721 71.3717 62.8017 70.3732 61.6583 70.3344C60.8956 70.3075 59.6394 70.9507 58.6443 71.0215C56.691 71.1578 55.0644 70.3698 53.4193 70.3395C52.5066 70.3227 51.2118 70.8531 50.2318 70.8615C47.5932 70.8851 45.3789 69.3241 45.022 66.6485C44.7256 68.0562 43.7877 69.1204 42.412 69.5835C40.516 70.2216 38.5998 69.6525 36.633 70.0246C35.7844 70.1846 35.0048 70.6241 34.1797 70.8463C34.7943 69.1692 36.2458 67.9804 37.7646 67.125C40.8443 65.3907 42.5753 66.1787 42.4154 61.6997C42.3884 60.9251 42.0618 59.6505 42.0803 58.9281C42.2251 53.624 47.4484 49.8589 51.4071 47.1732C53.8756 45.4977 58.1812 43.6741 58.3765 40.1835C58.4237 39.345 56.9301 38.7152 56.2818 38.1158C55.3894 37.289 54.5576 36.3966 55.0257 35.0899C55.1739 34.9552 56.7112 36.2113 57.2096 35.9268L55.8625 35.0091C54.9583 34.3372 54.4245 32.4581 56.0343 32.7376V33.7445C56.3054 33.7698 56.2397 33.3774 56.4367 33.2276C56.9335 32.8487 57.5666 33.2377 58.1273 33.2495C58.9187 33.2663 61.2677 33.4027 61.7627 33.0036C62.3453 32.5355 63.9197 29.9643 64.1824 29.2082C65.3544 25.8406 64.4249 22.2961 68.3045 20.1475L68.3028 20.1458ZM78.7258 20.3159C77.6144 20.1946 76.5435 20.5028 75.4406 20.4893C73.6254 20.4674 72.5865 19.9101 70.6619 20.5718C69.9984 20.7991 68.1462 22.0738 67.8768 22.6631C67.7909 22.8517 68.5267 23.66 67.7741 24.7376C67.375 25.3101 66.9793 25.3607 66.3074 25.3724C65.6592 28.3108 64.5242 30.978 62.4211 33.1585C70.0102 33.3774 70.3571 41.8741 73.9369 46.6714C74.0716 45.8951 73.3122 45.0229 72.9822 44.2669C72.1032 42.2614 71.4819 40.133 70.5187 38.1646C69.2727 35.6153 67.0281 33.1905 67.3161 30.1546C67.3329 29.9862 67.3834 29.3648 67.6292 29.38C67.7269 30.7523 68.1378 32.4075 69.3097 33.241C68.0165 30.0923 67.4407 25.8187 70.4867 23.5034C70.549 23.5404 70.1466 25.2192 70.6551 24.6787C70.6905 24.64 70.7646 23.9378 70.9077 23.6684C71.3606 22.8096 73.4486 20.7772 74.4252 20.8261C75.3884 20.8732 76.0114 21.3716 75.0365 22.0873C74.7469 22.2994 74.3831 22.3062 74.3562 22.3297C74.2535 22.4207 74.2585 22.6934 74.5987 22.6564C75.3295 22.5773 76.5991 21.6629 75.87 20.986C76.8247 20.9675 78.0758 21.1713 78.7275 20.3142L78.7258 20.3159ZM60.4022 35.0865C61.9092 34.6454 63.8254 35.2499 64.7718 36.5144C66.3765 38.6563 65.6979 43.3929 65.969 46.0635L66.6206 48.3502V45.2452C66.6206 45.2031 66.7856 44.442 66.9557 44.4908C67.3548 47.4392 68.8837 51.1538 71.1586 53.1373C71.8237 53.7183 73.4385 54.3497 73.4705 55.3466C73.4974 56.1582 71.8658 57.3688 71.332 58.0087C71.0609 58.3337 70.7039 59.2127 70.6534 59.2632C70.1331 59.7751 70.4918 58.1704 70.1533 58.2579C69.2558 60.3577 69.9344 62.7487 69.6061 64.8485C69.3804 66.2915 68.2977 67.9939 67.4609 69.1675C71.8506 68.2397 73.6372 63.7742 74.8597 59.9367C75.1712 59.9098 75.0247 60.484 75.0045 60.6692C74.9388 61.2703 74.762 61.8967 74.5212 62.4524C74.7772 62.5147 74.7923 62.417 74.9321 62.2773C75.2655 61.9422 76.195 60.0899 76.296 59.61C76.5233 58.5307 75.9222 57.1011 76.3869 56.3434C77.143 55.1142 78.7544 57.4968 79.3943 58.007C82.5936 60.558 85.9882 58.5778 89.4822 58.007C87.7983 56.6145 85.4746 56.5252 83.5113 55.7439C82.0615 55.1664 80.8693 54.1662 79.6536 53.2182C77.0436 51.1824 73.7871 48.7829 72.1403 45.949C71.5829 44.9909 68.9561 39.0149 68.6126 38.8129C68.1361 38.5317 67.4693 39.0655 66.784 37.8682C66.1559 36.7704 66.8581 36.3814 66.7183 36.1036C66.5701 35.8106 65.4403 34.8777 65.0984 34.6841C64.9098 34.5763 63.7732 34.0863 63.6806 34.0863H58.0499C58.2772 34.7952 60.3028 34.6858 60.4039 34.7582C60.4291 34.7767 60.3904 34.9939 60.4039 35.0933C58.9356 35.5243 61.3047 36.7721 62.086 36.437C62.1399 35.9386 62.0911 35.5631 61.6634 35.2633C61.5944 36.5818 60.5285 36.1069 60.4039 35.095L60.4022 35.0865ZM60.739 51.371C60.0991 48.8048 61.1885 46.1511 60.6918 43.6118C60.4477 42.3624 59.8465 41.1299 58.8901 40.293C58.8682 40.7022 58.9356 41.1265 58.8699 41.534C57.9438 47.2675 46.0121 49.2746 44.0487 56.6145C43.3028 59.4012 44.1043 61.208 44.9378 63.7961C45.4497 63.5502 45.6298 62.9777 46.0205 62.614C48.3812 60.4149 52.1008 59.9552 54.0979 57.0826C54.5054 57.5204 53.0825 59.0258 53.1718 59.0948C57.2382 58.1569 56.5799 52.2988 60.7373 51.3727L60.739 51.371ZM58.7217 66.0609C58.8413 65.6264 58.7217 64.1362 58.7217 63.5418C58.7217 63.4745 58.9271 62.7167 59.2252 62.9558C59.2673 62.9895 59.1865 63.7254 59.2353 64.0318C59.4104 65.1499 59.8751 66.0625 58.981 66.9903C57.5818 68.4435 56.0949 66.6536 54.5172 67.4012C53.8588 67.7127 53.3957 68.4081 53.5153 69.1591C54.8169 69.1659 56.2094 69.7535 57.4538 69.8411C59.4239 69.9808 62.7444 68.8005 63.7968 67.0981L64.7718 65.1364C64.7415 66.9331 64.1605 68.5462 62.4211 69.2501C63.9568 69.7182 64.5141 70.2856 65.8696 69.1692C66.9355 68.2919 67.9172 66.8792 68.2944 65.5473C68.4729 64.9175 68.8467 62.7689 68.4409 62.3143C68.3567 62.22 66.5954 61.7721 66.0616 61.4151C63.1064 59.4417 67.0972 56.5404 64.9149 53.9978C63.3018 52.1186 60.3028 52.2954 58.816 54.2352C56.7988 56.8671 55.5999 63.0215 57.5733 65.8638C57.8461 66.2562 58.5028 66.859 58.7217 66.0609ZM79.3976 67.9939C79.2545 67.8508 77.6885 67.578 77.2625 67.354C76.6025 67.0089 75.5197 65.5759 74.6425 65.8302C74.4522 65.8857 72.797 68.0074 72.3406 68.4132C71.726 68.9604 71.0188 69.3376 70.3183 69.7569C70.1062 69.8849 69.8923 69.7232 69.9866 70.1728C71.3606 70.0044 72.6421 69.8444 73.9403 69.3376C74.8344 68.9891 75.6225 68.26 76.2926 67.9922C76.9173 67.743 76.1663 68.7954 76.2068 68.8274C77.1329 68.6456 78.7191 69.8815 79.4583 69.6474C80.3541 69.3646 79.0019 68.2734 78.3924 68.4906C78.3031 68.1556 79.9179 68.5092 79.3993 67.9905L79.3976 67.9939Z" fill="#0A0A0A"/>
<path d="M9.46358 34.5828V0H68.3005V20.1455C64.4192 22.2941 65.3487 25.8386 64.1784 29.2063C63.9157 29.9606 62.3413 32.5336 61.7587 33.0017C61.2637 33.399 58.9147 33.2627 58.1233 33.2475C57.5626 33.2357 56.9295 32.8467 56.4327 33.2256C56.234 33.3772 56.3014 33.7695 56.0303 33.7425V32.7356C54.4188 32.4561 54.9526 34.3353 55.8569 35.0071L57.2039 35.9248C56.7055 36.2094 55.1698 34.9532 55.02 35.0879C54.5519 36.3946 55.382 37.287 56.2761 38.1138C56.9244 38.7133 58.418 39.343 58.3708 40.1816C58.1755 43.6722 53.8699 45.4958 51.4014 47.1712C47.4444 49.8586 42.2194 53.622 42.0746 58.9261H9.46358L9.29688 51.3707C10.3678 51.0289 11.3865 50.1263 12.3211 49.5252C12.3345 49.8367 12.8228 51.3707 13.0788 51.3707H18.8779C16.7428 46.9473 20.6881 37.5716 14.8872 35.2951C13.3516 34.6922 11.1205 34.5946 9.46358 34.5828ZM18.5412 10.2411H14.5067V25.3503H18.2044C18.2802 25.3503 18.1472 24.0285 18.2061 23.8399L19.2231 24.9192C24.3824 27.5359 26.5209 21.4673 25.3102 17.3284C24.3858 14.1679 21.0467 13.0228 18.5395 15.2775V10.2411H18.5412ZM38.3785 25.3503C37.2015 22.215 39.7812 15.3331 35.2281 14.3093C32.4531 13.6846 27.4319 13.8665 27.282 17.6265C28.193 17.3705 30.1479 18.1401 30.8703 17.975C31.01 17.943 31.1868 17.1988 31.5623 16.9496C32.5154 16.3164 34.5848 16.5842 34.1858 18.0323C34.1016 18.3387 29.0972 19.2194 28.1324 19.9047C26.0377 21.3949 26.7651 24.9259 29.2892 25.4429C31.197 25.8335 32.9566 25.3974 34.4249 24.1716C34.5192 24.1682 34.6017 25.3486 34.93 25.3486H38.3769L38.3785 25.3503ZM49.8085 17.123C49.3825 13.9304 45.0483 13.6711 42.573 14.3463C39.6145 15.1529 38.9965 19.0359 41.7378 20.3981C42.6976 20.8746 46.3684 21.2148 46.5873 21.9405C47.0992 23.6344 43.548 23.6024 43.3173 21.8091C42.3423 22.1846 40.7393 21.9152 39.8317 22.183C39.1868 22.3732 40.0927 23.6866 40.3251 23.9897C41.6452 25.7022 44.528 25.7291 46.5115 25.4984C49.1905 25.1869 51.3542 22.4608 49.7125 19.9872C48.3503 17.9346 45.9036 18.6503 44.0935 17.8757C42.4046 17.1533 44.3309 15.845 45.6713 16.6347C46.1158 16.8974 46.0653 17.4244 46.2135 17.4665C46.9089 17.6686 48.9464 16.9799 49.8085 17.1196V17.123ZM63.089 20.9857V18.5509C63.089 18.0441 62.1881 16.2339 61.8143 15.7945C60.1843 13.8766 56.5169 13.688 54.3633 14.7067C50.0611 16.7425 50.7312 24.7643 55.6514 25.4749C58.6099 25.9026 61.5685 25.426 62.9189 22.4995C62.8162 22.3598 59.8543 22.0988 59.4636 22.1543C58.7817 22.2486 58.7312 22.7673 58.2227 22.9272C56.7055 23.4021 55.6043 22.5063 55.5234 20.9874H63.089V20.9857ZM28.4607 28.7079H22.0722V51.3724H28.4607V28.7079ZM40.059 28.8762L33.6705 31.8987V34.9212H31.3165V39.6225H33.6705V47.0937C33.6705 47.4995 34.0191 48.818 34.1976 49.2541C35.6255 52.7296 40.8269 51.7866 43.7584 51.2057L43.2516 46.8429C42.5747 47.2487 40.059 47.6107 40.059 46.4236V39.6242H43.4217V34.9229H40.059V28.8796V28.8762Z" fill="#BFBFBF"/>
<path d="M9.46873 34.5792C11.1256 34.591 13.3567 34.6887 14.8924 35.2915C20.6932 37.5681 16.748 46.9437 18.8831 51.3672H13.0839C12.828 51.3672 12.338 49.8315 12.3262 49.5217C11.3917 50.1245 10.3746 51.0253 9.30203 51.3672C6.32499 52.3169 0.611707 51.8336 0.0711929 47.9102C-0.730317 42.1043 5.41908 42.2946 9.30203 41.2944C9.95536 41.126 11.2283 40.7893 11.7823 40.503C12.2033 40.2858 11.9524 39.5803 11.784 39.2334C11.3243 38.2871 10.1961 38.3864 9.30034 38.4403C7.81519 38.5295 7.1164 38.9034 6.49843 40.2942L0.805349 39.7857C0.552772 39.7503 0.537618 39.88 0.55614 39.5314C0.576346 39.1239 0.855864 38.3746 1.03098 37.989C2.46899 34.8285 6.4277 34.5574 9.46873 34.5792ZM9.46873 44.4853C8.221 44.8877 6.34014 44.8524 6.42602 46.7551C6.49843 48.38 8.30014 48.284 9.46873 48.0113C11.6813 47.4943 12.1444 45.7297 11.9894 43.6467C11.9019 43.5474 9.76508 44.3893 9.46873 44.4853Z" fill="#090800"/>
<path d="M9.29688 38.4403C10.1927 38.3864 11.3192 38.2871 11.7805 39.2334C11.9489 39.5786 12.1998 40.2858 11.7789 40.503C11.2232 40.7893 9.95189 41.126 9.29856 41.2944V38.4403H9.29688Z" fill="#BFBFBF"/>
<path d="M60.4087 35.0831C60.3969 34.9838 60.4356 34.7665 60.4087 34.748C60.3077 34.6756 58.282 34.7851 58.0547 34.0762H63.6855C63.7781 34.0762 64.9147 34.5679 65.1033 34.6739C65.4451 34.8693 66.5749 35.8004 66.7231 36.0934C66.8629 36.3696 66.1607 36.7602 66.7888 37.8581C67.4741 39.0553 68.1409 38.5215 68.6174 38.8027C68.9609 39.0048 71.5877 44.9807 72.1451 45.9389C73.7919 48.7728 77.0484 51.1722 79.6584 53.208C80.8741 54.156 82.0663 55.1562 83.5161 55.7338C85.4795 56.5168 87.8032 56.6043 89.487 57.9969C85.993 58.5677 82.5984 60.5496 79.3991 57.9969C78.7592 57.4867 77.1478 55.104 76.3917 56.3332C75.9253 57.091 76.5281 58.5205 76.3008 59.5999C76.1998 60.0781 75.2703 61.932 74.9369 62.2671C74.7971 62.4068 74.782 62.5045 74.526 62.4422C74.7668 61.8865 74.9436 61.2618 75.0093 60.659C75.0295 60.4738 75.176 59.8979 74.8645 59.9265C73.642 63.764 71.8555 68.2296 67.4657 69.1574C68.3026 67.9837 69.3853 66.2814 69.6109 64.8383C69.9376 62.7386 69.2607 60.3492 70.1582 58.2478C70.4949 58.1602 70.1363 59.7649 70.6583 59.253C70.7088 59.2025 71.0658 58.3235 71.3369 57.9985C71.8706 57.3604 73.5006 56.148 73.4753 55.3364C73.4433 54.3396 71.8285 53.7081 71.1634 53.1272C68.8885 51.1419 67.3613 47.4291 66.9605 44.4806C66.7905 44.4318 66.6255 45.1946 66.6255 45.235V48.34L65.9738 46.0534C65.7027 43.3828 66.3813 38.6461 64.7766 36.5043C63.8303 35.2397 61.9124 34.6352 60.407 35.0764C60.5333 36.0884 61.5975 36.5649 61.6665 35.2448C62.0942 35.5445 62.1431 35.92 62.0892 36.4184C61.3079 36.7535 58.9387 35.5058 60.407 35.0747L60.4087 35.0831Z" fill="#FCFCFC"/>
<path d="M60.7423 51.3707C56.5849 52.2968 57.2416 58.1549 53.1768 59.0928C53.0859 59.0238 54.5087 57.5184 54.1029 57.0806C52.1059 59.9533 48.3862 60.413 46.0255 62.6121C45.6348 62.9758 45.4547 63.5483 44.9428 63.7941C44.1093 61.206 43.3078 59.3993 44.0537 56.6125C46.0171 49.2726 57.9505 47.2655 58.8749 41.532C58.9406 41.1245 58.8749 40.7002 58.8951 40.291C59.8515 41.1279 60.4527 42.3605 60.6968 43.6099C61.1936 46.1491 60.1041 48.8028 60.744 51.369L60.7423 51.3707Z" fill="#FFFFFE"/>
<path d="M58.7257 66.0584C58.5068 66.8565 57.8501 66.2537 57.5773 65.8614C55.6039 63.0191 56.8045 56.8646 58.82 54.2328C60.3068 52.293 63.3058 52.1162 64.9189 53.9953C67.1012 56.5379 63.1088 59.4392 66.0656 61.4127C66.5994 61.768 68.3607 62.2159 68.4449 62.3118C68.849 62.7665 68.4752 64.9151 68.2984 65.5448C67.9212 66.8784 66.9412 68.2912 65.8736 69.1668C64.5165 70.2832 63.9608 69.7157 62.4251 69.2476C64.1645 68.5438 64.7455 66.9306 64.7758 65.134L63.8008 67.0956C62.7484 68.798 59.4279 69.9784 57.4578 69.8386C56.2134 69.7511 54.8209 69.1634 53.5193 69.1567C53.398 68.4057 53.8628 67.7102 54.5212 67.3987C56.0989 66.6511 57.5858 68.441 58.985 66.9879C59.8791 66.0601 59.4127 65.1474 59.2393 64.0294C59.1905 63.7212 59.2713 62.9871 59.2292 62.9534C58.9311 62.7143 58.7257 63.472 58.7257 63.5394C58.7257 64.1321 58.8453 65.6223 58.7257 66.0584ZM59.0625 54.7261C59.2006 54.8558 60.9046 54.0846 60.908 53.9718C60.9248 53.3774 58.8992 53.9734 59.0625 54.7261ZM62.5851 54.9029C62.2551 54.8524 61.9873 54.6184 61.6573 54.5695C60.194 54.354 60.9332 55.0477 60.7446 55.2313C60.679 55.2953 59.7781 55.0831 59.736 55.5647L60.2395 55.7331C59.0827 55.7651 59.6956 56.0884 59.2326 56.74C59.4548 56.8276 59.9751 56.4975 60.0711 56.5733C60.4735 56.8848 59.5087 57.7436 60.5274 58.0534C61.5984 58.3801 61.2161 57.2788 61.8644 57.2654C62.3089 57.2553 62.1052 57.7587 62.4234 57.7486C62.4588 57.5786 62.3746 57.1458 62.4268 57.0785C62.7265 56.6912 62.7232 57.5163 62.9286 57.4135C62.5935 56.5548 62.1928 55.7718 62.5868 54.9046L62.5851 54.9029ZM63.2654 54.5594C63.0414 54.7952 64.3834 57.4085 64.4575 55.8173C64.4895 55.1218 63.9271 54.6504 63.2654 54.5594Z" fill="#FCFCFC"/>
<path d="M78.736 20.3124C78.0844 21.1695 76.8316 20.9657 75.8786 20.9843C76.6077 21.6612 75.338 22.5755 74.6073 22.6546C74.2671 22.6917 74.2621 22.4189 74.3648 22.328C74.3917 22.3044 74.7554 22.2977 75.0451 22.0855C76.0217 21.3699 75.397 20.8714 74.4338 20.8243C73.4555 20.7755 71.3692 22.8079 70.9163 23.6666C70.7748 23.936 70.7007 24.6382 70.6637 24.6769C70.1552 25.2174 70.5576 23.5387 70.4953 23.5016C67.4492 25.8169 68.0268 30.0888 69.3183 33.2393C68.1463 32.4058 67.7355 30.7506 67.6378 29.3782C67.3903 29.3631 67.3398 29.9844 67.3246 30.1528C67.0367 33.1888 69.2812 35.6135 70.5273 38.1628C71.4888 40.1313 72.1118 42.2596 72.9908 44.2651C73.3225 45.0211 74.0802 45.8917 73.9455 46.6696C70.3656 41.8723 70.0205 33.3757 62.4297 33.1568C64.5328 30.9745 65.6677 28.309 66.316 25.3707C66.9862 25.3589 67.3819 25.3084 67.7826 24.7359C68.5353 23.6582 67.7995 22.8483 67.8853 22.6614C68.1548 22.0737 70.007 20.7974 70.6704 20.57C72.5967 19.91 73.6357 20.4656 75.4492 20.4875C76.5504 20.501 77.623 20.1929 78.7343 20.3141L78.736 20.3124Z" fill="#FCFCFC"/>
<path d="M79.3965 67.9932C79.9152 68.5101 78.3003 68.1565 78.3896 68.4933C78.9975 68.2744 80.3513 69.3672 79.4555 69.6501C78.7163 69.8824 77.1301 68.6465 76.204 68.83C76.1635 68.798 76.9145 67.7456 76.2898 67.9948C75.6197 68.2626 74.8316 68.9917 73.9375 69.3402C72.6393 69.8471 71.3579 70.0054 69.9838 70.1754C69.8895 69.7258 70.1034 69.8875 70.3156 69.7595C71.016 69.3402 71.7233 68.9631 72.3379 68.4158C72.7942 68.01 74.4494 65.8884 74.6397 65.8328C75.5186 65.5785 76.5997 67.0115 77.2597 67.3567C77.6857 67.5806 79.2517 67.8534 79.3948 67.9965L79.3965 67.9932Z" fill="#FCFCFC"/>
<path d="M40.0628 28.8745V34.9178H43.4255V39.6191H40.0628V46.4184C40.0628 47.6072 42.5785 47.2435 43.2554 46.8377L43.7622 51.2006C40.8307 51.7815 35.631 52.7261 34.2014 49.249C34.0229 48.8145 33.6743 47.4961 33.6743 47.0886V39.6174H31.3203V34.9161H33.6743V31.8936L40.0628 28.8711V28.8745Z" fill="#090800"/>
<path d="M28.4666 28.707H22.0781V51.3716H28.4666V28.707Z" fill="#090800"/>
<path d="M18.5484 10.2422V15.2786C21.0557 13.0239 24.3947 14.1689 25.3192 17.3295C26.5299 21.4684 24.3914 27.537 19.2321 24.9203L18.215 23.8409C18.1561 24.0295 18.2891 25.3513 18.2133 25.3513H14.5156V10.2422H18.5501H18.5484ZM19.1058 22.1082C21.869 24.5464 23.0376 16.826 19.8534 17.3261C18.1191 17.5989 18.0584 21.1855 19.1058 22.1082Z" fill="#100E00"/>
<path d="M38.3832 25.3476H34.9364C34.608 25.3476 34.5255 24.1689 34.4312 24.1706C32.9646 25.3948 31.2033 25.8326 29.2955 25.4419C26.7714 24.925 26.044 21.394 28.1387 19.9038C29.1036 19.2168 34.1079 18.3378 34.1921 18.0313C34.5912 16.5832 32.5218 16.3155 31.5687 16.9486C31.1932 17.1978 31.0164 17.9421 30.8766 17.9741C30.1543 18.1374 28.1993 17.3696 27.2884 17.6255C27.4366 13.8655 32.4578 13.6836 35.2344 14.3083C39.7875 15.3321 37.2079 22.214 38.3849 25.3493L38.3832 25.3476ZM34.1787 20.1429C33.1633 20.6969 30.5416 20.7895 30.8177 22.4009C31.0551 23.7901 33.8251 23.2664 34.1416 21.6987C34.2443 21.1885 34.1568 20.6564 34.1787 20.1429Z" fill="#100E00"/>
<path d="M63.0945 20.9845H55.529C55.6098 22.5034 56.7111 23.3975 58.2282 22.9243C58.7384 22.7644 58.7872 22.2474 59.4692 22.1514C59.8598 22.0976 62.8217 22.3569 62.9244 22.4966C61.574 25.4248 58.6155 25.8997 55.657 25.472C50.7368 24.7614 50.0666 16.7396 54.3688 14.7038C56.5225 13.6851 60.1899 13.8737 61.8198 15.7916C62.1937 16.231 63.0945 18.0429 63.0945 18.548V20.9829V20.9845ZM59.2284 18.8006C59.0533 15.8589 55.6317 15.9229 55.5307 18.8006H59.2284Z" fill="#100E00"/>
<path d="M49.8063 17.122C48.9442 16.9823 46.9067 17.6709 46.2113 17.4689C46.0631 17.4268 46.1136 16.8997 45.6691 16.6371C44.3304 15.8473 42.4024 17.1557 44.0913 17.8781C45.9015 18.6526 48.3481 17.9353 49.7103 19.9896C51.3521 22.4632 49.1883 25.1876 46.5093 25.5008C44.5258 25.7315 41.643 25.7046 40.3229 23.9921C40.0888 23.689 39.1846 22.3756 39.8295 22.1853C40.7371 21.9159 42.3401 22.1853 43.3151 21.8115C43.5458 23.6031 47.097 23.6368 46.5851 21.9429C46.3662 21.2171 42.6954 20.877 41.7356 20.4005C38.9943 19.0382 39.6123 15.1553 42.5708 14.3487C45.0478 13.6735 49.3803 13.9311 49.8063 17.1254V17.122Z" fill="#100E00"/>
<path d="M9.46875 44.4893C9.76511 44.3933 11.9002 43.5514 11.9895 43.6507C12.1444 45.7336 11.6813 47.4983 9.46875 48.0152V44.4893Z" fill="#BFBFBF"/>
<path d="M62.5808 54.9002C62.1868 55.7691 62.5875 56.552 62.9226 57.4091C62.7172 57.5118 62.7205 56.6868 62.4208 57.074C62.3686 57.1414 62.4545 57.5758 62.4174 57.7442C62.0975 57.7543 62.3013 57.2508 61.8584 57.2609C61.2118 57.2744 61.5924 58.3756 60.5214 58.049C59.4505 57.7223 60.4676 56.8804 60.0651 56.5689C59.9691 56.4948 59.4471 56.8248 59.2266 56.7356C59.6896 56.0839 59.0784 55.7589 60.2335 55.7286L59.73 55.5603C59.7721 55.0787 60.673 55.2908 60.7387 55.2269C60.9272 55.0416 60.188 54.3479 61.6513 54.5651C61.983 54.6139 62.2491 54.848 62.5791 54.8985L62.5808 54.9002Z" fill="#0A0A0A"/>
<path d="M63.2674 54.5605C63.9291 54.6498 64.4932 55.123 64.4595 55.8184C64.3838 57.4096 63.0434 54.7963 63.2674 54.5605Z" fill="#0A0A0A"/>
<path d="M59.0562 54.723C58.8929 53.9703 60.9186 53.3742 60.9017 53.9686C60.8984 54.0814 59.1943 54.8526 59.0562 54.723Z" fill="#0A0A0A"/>
<path d="M19.1056 22.1024C18.0583 21.1779 18.1189 17.5913 19.8533 17.3202C23.0374 16.8201 21.8688 24.5406 19.1056 22.1024Z" fill="#BFBFBF"/>
<path d="M34.1781 20.1445C34.1562 20.6581 34.2438 21.1902 34.141 21.7004C33.8245 23.2681 31.0545 23.7917 30.8171 22.4026C30.541 20.7911 33.1627 20.6985 34.1781 20.1445Z" fill="#BFBFBF"/>
<path d="M59.229 18.7976H55.5312C55.634 15.9199 59.0538 15.8559 59.229 18.7976Z" fill="#BFBFBF"/>
</svg>
