<svg width="254" height="40" viewBox="0 0 254 40" fill="none" xmlns="http://www.w3.org/2000/svg">
<path d="M253.209 38.7043C247.512 38.0185 235.59 41.0856 232.968 34.3071C232.806 33.8889 232.139 31.6093 232.139 31.3794V16.5376H213.702V38.7043H205.424V16.5376H200.906V12.0274H205.424C205.356 8.8736 205.341 4.19761 208.077 2.0951C209.113 1.2963 212.662 0.00767418 213.887 0.00767418H226.49V4.51788H216.521C216.411 4.51788 214.787 5.46363 214.622 5.62942C213.175 7.09514 213.842 10.1283 213.698 12.0349H232.135V0.00390625H240.413V12.0274H252.075V16.5376H240.413V32.1292C240.413 35.4865 250.948 33.8022 253.205 34.1941V38.7043H253.209Z" fill="black"/>
<path d="M8.27813 15.7817L12.5397 13.0839C25.4448 8.49833 43.3387 12.2436 39.0282 29.7683C36.3228 40.7631 18.6136 41.69 10.7876 36.7615C10.3392 36.4789 8.64739 34.5159 8.2819 34.9492V38.7058H0V0.378447H7.33615C7.46803 0.378447 7.75439 -0.288475 8.27813 0.566844V15.7855V15.7817ZM16.4771 16.6446C10.1433 17.3303 7.54715 20.9023 8.27436 27.2438C8.78303 31.6824 12.2646 33.4797 16.3528 33.8301C24.6234 34.5422 32.6453 33.5965 31.1306 23.2045C30.117 16.2603 22.0386 16.0379 16.4771 16.6408V16.6446Z" fill="black"/>
<path d="M80.8927 26.3004H51.9211C51.3785 34.1565 60.561 34.6162 66.3146 33.7232C69.1104 33.2899 71.3523 30.4301 71.6726 30.4301H80.1391C77.2227 40.4377 62.087 40.3925 53.7975 38.5123C45.5081 36.6321 42.6143 30.3849 43.7409 22.0728C45.1954 11.3493 59.0425 10.5015 67.5316 11.647C76.4089 12.8452 81.1451 16.9032 80.8927 26.2967V26.3004ZM52.2979 22.1708H71.6726C73.0215 22.1708 70.6364 18.9304 70.1089 18.4707C66.4804 15.3094 52.7613 15.2529 52.2979 22.1708Z" fill="black"/>
<path d="M176.008 11.3858C184.663 10.945 196.513 11.8794 197.802 22.4635C199.347 35.1237 192.135 38.8841 180.786 39.4493C172.316 39.8713 159.927 38.8389 158.826 28.3226C157.47 15.3647 164.32 11.9774 176.008 11.382V11.3858ZM174.874 16.6421C169.606 17.2713 166.562 20.2027 166.709 25.6813C166.939 34.3551 175.511 34.502 182.248 33.771C188.454 33.0966 190.289 28.9632 189.591 23.153C188.778 16.3821 180.183 16.009 174.878 16.6421H174.874Z" fill="black"/>
<path d="M153.887 19.543H145.421C145.217 19.543 143.974 17.3275 142.602 16.7208C139.995 15.5716 134.4 15.8052 131.544 16.2009C126.626 16.8829 125.722 20.7638 130.918 22.0035C136.615 23.3637 150.074 21.9771 153.673 27.0826C155.187 29.2304 155.01 32.6215 153.514 34.7617C149.562 40.4136 133.269 39.9124 127.161 38.5296C123.013 37.5914 119.098 35.0744 118.898 30.4361H127.177C127.256 30.4361 127.312 31.3781 127.761 31.9169C130.025 34.6336 142.003 34.5092 144.965 32.9832C147.746 31.5476 146.442 29.1135 143.816 28.2921C137.904 26.4459 122.715 28.1678 119.84 21.8C118.936 19.7955 119.226 18.1263 120.33 16.2725C123.808 10.4322 140.112 10.8316 145.93 12.2785C149.66 13.2054 153.315 15.4134 153.891 19.543H153.887Z" fill="black"/>
<path d="M83.1562 38.7043L96.3251 0.380686H104.415C104.566 0.380686 105.078 -0.583903 104.973 0.557779L91.6228 38.7043H83.1562Z" fill="black"/>
<path d="M98.2031 38.7043L111.033 0.418378C113.889 0.241286 116.896 0.63315 119.646 0.00390625L106.293 38.7043H98.2031Z" fill="black"/>
</svg>
