<svg width="441" height="162" viewBox="0 0 441 162" fill="none" xmlns="http://www.w3.org/2000/svg">
<path d="M262.544 97.032L260.852 95.34L266.036 90.156L260.852 84.936L262.544 83.244L267.728 88.428L273.02 83.136L274.712 84.864L269.42 90.156L274.64 95.34L272.912 97.032L267.728 91.812L262.544 97.032Z" fill="white"/>
<g clip-path="url(#clip0_13644_3206)">
<path d="M45.3562 95.7892C35.852 103.526 21.8252 109.091 9.79044 104.1C-6.40053 97.3861 0.819654 78.1969 7.80856 67.2428C17.4546 52.1263 38.2846 34.0812 57.5142 37.3986C61.9202 38.159 65.4468 40.7142 70.0655 40.0011L75.2346 38.7539C72.2905 42.0932 69.5169 45.7012 67.4675 49.654C67.0015 50.1187 67.14 48.4304 67.1113 48.2378C66.0933 41.4341 61.8173 38.1117 55.0596 37.6571C36.2757 36.3947 18.8642 59.2731 12.1893 74.6717C8.96662 82.1074 6.58466 91.1773 11.016 98.6502C18.0775 110.556 36.9628 102.404 44.7603 95.2788C46.045 94.1043 46.0433 92.8639 46.7303 91.3362C50.9878 81.8827 63.7974 70.1393 74.8109 71.1195C77.3279 71.3443 80.4695 73.2877 80.4695 76.1014V78.8898L83.8458 72.806H90.4296C90.1915 73.4567 89.7914 74.1732 89.4454 74.7782C86.8676 79.2785 84.1564 83.7112 81.6208 88.2385C80.2973 90.6011 76.2897 96.9789 76.082 99.2535C75.7714 102.659 78.1956 103.607 81.0924 102.581C86.3054 100.736 92.8926 93.2221 96.2351 88.8418C100.121 83.7501 103.562 78.2544 106.634 72.6354H113.218L110.518 77.5362C113.192 74.959 118.723 71.2344 122.509 73.0511C125.016 74.2543 124.829 77.8725 123.348 79.8176C123.321 79.9426 123.522 79.9308 123.598 79.8987C124.007 79.728 125.058 79.0368 125.496 78.7563C134.036 73.259 138.356 63.3475 143.858 55.2274H150.357L141.243 70.8609C141.541 71.0333 141.985 71.1026 142.331 71.1195C144.145 71.2124 146.91 70.7173 148.589 70.9437C149.114 71.0147 148.627 71.6586 148.431 71.8022C147.798 72.2619 142.455 71.7735 141.151 71.9509C140.915 71.9831 140.713 71.9814 140.562 72.2061L126.831 95.9767C125.32 98.4643 125.278 102.649 129.152 102.358C134.417 101.962 142.651 94.1178 146.059 90.2124C150.71 84.884 154.434 78.8408 157.79 72.6354H164.205L150.109 96.9704C148.269 101.913 150.904 103.468 155.202 101.055C161.053 97.7714 166.404 90.9441 170.456 85.7374C175.026 79.8632 184.035 71.9374 191.797 71.613C196.262 71.4271 199.602 73.7085 198.212 78.5417C196.747 83.6385 188.703 87.9952 184.042 89.7054C180.882 90.8664 177.566 91.6826 174.183 91.7502C172.23 96.8825 171.433 103.394 178.983 102.892C186.22 102.41 197.4 92.7473 202.352 87.593C206.658 83.1113 210.548 78.1716 213.414 72.6337H220.082L216.032 80.2384C219.53 76.485 225.197 71.7042 230.726 72.7097C234.347 73.3688 235.145 78.1446 232.227 80.1421C230.528 81.3047 228.116 80.764 227.309 78.834C226.443 76.7622 227.635 74.7647 229.369 73.6476C227.655 73.4651 226.192 73.913 224.647 74.5805C216.659 78.0364 211.103 88.5427 206.78 95.7317C205.029 98.6418 203.314 101.592 201.683 104.572H194.593L206.746 83.9545C201.98 89.0767 197.007 94.0688 191.269 98.1179C186.005 101.834 175.657 107.713 169.387 103.862C165.096 101.226 165.628 95.7047 167.073 91.5592C164.885 93.8322 162.707 96.1626 160.324 98.2362C156.772 101.325 149.807 106.737 144.896 104.55C141.602 103.083 142.686 99.3312 143.8 96.7372C144.8 94.4119 146.424 92.3332 147.489 90.0383C143.728 93.9116 139.85 97.7681 135.29 100.724C131.639 103.09 123.316 107.446 119.975 102.797C117.744 99.6912 121.27 94.0046 122.815 91.108C125.946 85.2423 129.507 79.6013 132.636 73.7321C132.012 73.8876 131.706 74.6734 131.288 75.0858C129.024 77.3216 124.167 81.832 120.902 81.7711C116.508 81.6883 117.354 75.0655 121.063 75.1618C121.814 75.1821 122.573 75.7212 123.348 75.6739C123.396 72.6793 120.024 72.8787 117.911 73.5243C111.727 75.4119 107.306 82.6026 104.244 87.8955C101.083 93.3607 98.3773 99.1133 95.2121 104.577L88.2333 104.653L95.4923 91.3886C93.6404 93.3354 91.9641 95.4512 90.0126 97.3084C86.1856 100.947 79.1308 106.395 73.5481 104.994C69.7735 104.048 68.6762 100.801 70.0031 97.3033C66.2942 100.261 62.3321 103.338 57.6813 104.655C53.7024 105.782 48.4455 105.748 46.2323 101.582C46.0348 101.21 45.3579 99.3836 45.3579 99.0778V95.7824L45.3562 95.7892ZM73.0063 71.8428C64.2245 72.7266 55.2453 85.1341 52.7351 92.9534C50.9389 98.5488 51.5905 104.705 59.101 102.875C66.6116 101.045 75.6533 89.6496 78.4032 82.4843C80.4138 77.2455 80.299 71.1094 73.0063 71.8428ZM174.499 91.0556C181.746 91.0776 190.948 85.5549 193.242 78.4724C193.913 76.4039 194.466 72.9159 191.416 72.6709C188.365 72.4258 183.639 77.1204 181.761 79.3157C178.775 82.8105 176.358 86.8562 174.497 91.054L174.499 91.0556Z" fill="white"/>
<path d="M164.762 58.8375C166.114 57.4906 168.905 57.5785 169.562 59.5793C170.429 62.2241 168.885 64.5731 166.008 63.9799C163.786 63.522 163.27 60.3212 164.76 58.8358L164.762 58.8375Z" fill="white"/>
</g>
<path d="M370.456 0.104053C400.929 -1.71795 425.112 20.6353 435.214 47.7352C446.538 78.1111 441.209 116.06 419.495 140.499C394.57 168.55 356.013 168.354 331.031 140.499C305.504 112.037 302.068 65.9928 321.204 33.1762C331.522 15.4829 349.367 1.36531 370.456 0.104053ZM370.967 1.80845C344.842 3.19754 324.87 23.9946 316.334 47.3944C305.32 77.5844 310.35 114.41 331.713 138.795C356.021 166.542 394.017 166.919 418.472 139.135C438.321 116.584 444.023 82.476 435.513 53.9137C426.957 25.1911 402.841 0.114279 370.967 1.80845Z" fill="white"/>
<path d="M373.866 20.7282C388.348 20.3226 400.557 29.1906 408.267 40.7669C423.523 63.6757 422.879 99.5516 407.275 122.143C393.352 142.303 369.313 147.905 350.29 130.616C325.185 107.799 323.666 59.2306 346.372 34.3106C353.425 26.5709 363.176 21.0282 373.866 20.7282ZM372.673 22.4326C358.228 23.3854 346.65 33.8487 340.064 46.0693C327.496 69.3957 329.517 103.247 346.294 124.046C363.476 145.349 389.449 143.984 405.332 122.075C422.167 98.8562 422.073 59.6687 403.723 37.3001C396.091 27.9975 385.064 21.6162 372.673 22.4326Z" fill="white"/>
<path d="M322.426 82.5495C324.108 84.1943 325.315 88.97 322.661 90.2006L321.233 90.7289C324.487 90.0352 326.547 93.1049 326.13 96.0552C325.535 100.258 320.108 98.6697 320.759 95.4569C321.088 93.8309 323.341 93.5667 323.447 95.3308C322.91 95.2132 322.371 94.9337 322 95.5012C321.223 97.0608 324.197 98.1243 324.601 95.8881C325.238 92.36 319.943 91.6595 319.528 95.416C319.164 98.7174 321.497 101.025 324.079 102.627L327.029 104.022C321.529 103.601 317.516 99.6003 317.137 94.0593C316.835 89.6517 317.492 84.8317 317.122 80.4395C316.948 78.3737 316.367 77.1892 314.758 75.9023C318.398 76.0165 321.095 78.6601 321.703 82.1643C321.891 83.2415 321.903 84.7823 321.736 85.8612C321.529 87.1974 320.975 86.3026 320.636 86.2924C319.808 86.2685 319.515 88.2422 320.807 88.3564C323.368 88.5831 322.843 84.1005 322.429 82.5478L322.426 82.5495Z" fill="white"/>
<path d="M434.575 75.7307C434.474 76.0426 433.997 76.0869 433.74 76.3426C432.1 77.972 432.1 80.6206 432.012 82.7954C431.836 87.0854 432.789 94.0854 431.197 97.8316C429.838 101.027 425.668 103.99 422.133 103.85L424.804 102.687C427.67 101.109 430.322 98.4725 429.791 94.9137C429.549 93.2877 427.97 92.2906 426.38 92.6758C424.459 93.1411 424.003 96.5806 425.809 96.855C428.013 97.1874 427.919 93.8144 425.712 95.1592C426.13 93.136 428.681 93.7462 428.615 95.7506C428.521 98.6037 424.238 99.4372 423.312 96.4477C422.431 93.5996 424.47 89.8891 427.754 90.3851L426.14 89.5295C424.088 87.8115 425.255 83.8402 426.902 82.2057C426.453 83.4175 426.165 87.5081 427.704 87.9649C430.106 88.6773 429.867 84.9975 427.757 86.2963C426.302 81.4813 429.129 75.6898 434.572 75.7307H434.575Z" fill="white"/>
<path d="M421.626 114.588C419.649 114.735 421.169 116.211 421.287 117.317C422.173 116.799 423.036 116.211 424.099 116.126C425.529 116.013 426.656 116.845 428.101 116.635L426.821 119.19C426.336 119.265 426.733 118.708 426.399 118.423C425.594 117.735 422.013 117.135 421.287 118.425C421.292 118.646 424.926 120.385 425.248 120.446C425.659 120.525 425.962 120.083 426.397 120.216L424.948 122.938L424.348 122.008L420.431 120.216C419.985 122.284 422.644 124.361 424.52 123.795L423.326 126.521C421.773 124.84 419.45 123.804 419.748 121.068C419.247 121.363 417.989 121.501 417.629 121.76C417.27 122.019 417.413 122.694 417.096 122.763C416.08 122.597 415.049 121.878 415.847 120.826C416.644 119.775 418.93 121.2 419.917 119.959C419.915 119.845 418.131 118.914 417.918 118.878C417.502 118.81 417.18 119.124 416.854 118.936L418.301 116.467C418.695 117.535 419.7 117.639 420.6 118.168C421.013 116.576 418.62 115.512 419.283 114.043C419.978 112.499 421.841 114.348 421.625 114.588H421.626Z" fill="white"/>
<path d="M352.746 140.52L352.091 146.973L356.642 142.734L359.081 143.82L358.96 144.245L358.045 144.538C357.396 146.039 356.465 147.405 355.809 148.904C355.674 149.213 355.163 150.283 355.153 150.484C355.132 150.904 355.582 151.135 355.497 151.575C355.391 151.688 352.889 150.394 352.708 150.227C352.582 150.111 352.535 149.929 352.599 149.873L353.533 149.527L356.179 144.078C354.723 145.329 353.382 146.845 351.921 148.085C350.379 149.394 350.126 149.481 350.208 147.222C350.261 145.736 350.532 143.929 350.677 142.407C350.696 142.22 350.878 141.828 350.557 141.862C350.346 142.987 348.233 146.154 348.338 147.053C348.371 147.324 348.713 147.536 348.681 147.737C348.63 148.068 348.446 147.924 348.251 147.831C347.982 147.701 346.706 147.031 346.636 146.886C346.469 146.544 347.142 146.643 347.413 146.476C347.82 146.223 350.433 140.739 350.401 140.241C350.377 139.88 350.036 139.622 350.126 139.476C350.292 139.24 350.343 139.319 350.561 139.379C351.26 139.575 352.015 140.314 352.744 140.522L352.746 140.52Z" fill="white"/>
<path d="M373.727 146.804C373.792 147.269 373.257 147.281 373.063 147.588C372.582 148.35 373.045 149.466 373.056 150.291C373.064 151.026 372.781 151.715 372.962 152.429L376.877 148.674C377.08 148.014 377.134 147.234 376.284 147.312C376.214 147.154 376.436 146.802 376.539 146.802H379.437C379.457 146.802 379.778 147.05 379.611 147.145C379.273 147.394 378.934 147.455 378.844 147.914C378.731 148.486 378.769 154.508 378.924 154.818C379.091 155.156 379.723 155.028 379.524 155.665L376.115 155.493L376.967 154.728V149.7C376.176 150.665 373.431 152.683 373.005 153.664C372.596 154.605 373.357 154.731 373.559 155.495H370.32C370.245 154.999 370.741 155.14 370.983 154.709C371.113 154.479 371.145 154.305 371.176 154.05C371.321 152.819 371.322 149.475 371.176 148.248C371.104 147.65 370.939 147.421 370.404 147.143C370.237 147.048 370.557 146.801 370.578 146.801H373.731L373.727 146.804Z" fill="white"/>
<path d="M432.016 62.776L430.767 62.2749L425.371 63.6265C427.38 63.9282 429.534 65.4741 431.46 65.8047C432.52 65.9871 431.552 65.186 432.527 65.3309L433.039 68.3988C432.5 68.4721 432.71 67.8398 432.082 67.7682C431.694 67.7239 430.591 68.0221 430.11 68.1125C429.187 68.2863 426.308 68.7755 425.66 69.1164C425.125 69.3976 425.313 69.8629 424.861 70.1032C424.798 69.2391 424.263 68.0426 424.208 67.2432C424.189 66.9722 424.198 66.8648 424.433 66.6944C424.558 66.6484 424.513 67.0847 424.793 67.1819C425.364 67.3796 428.934 66.5887 429.724 66.3569C429.971 66.2836 430.022 66.4541 429.972 66.0143L424.169 64.0389C423.92 64.2469 424.198 64.7957 423.668 64.6491L422.984 61.5829C423.47 61.3784 423.484 61.8948 423.61 61.9221C424.01 62.0056 429.589 60.8006 430.223 60.5552C430.857 60.3097 430.855 59.962 431.079 59.3672C431.776 60.291 431.743 61.6681 432.016 62.7743V62.776Z" fill="white"/>
<path d="M414.632 26.6875C413.294 26.3535 412.614 27.9113 411.837 28.6987L414.056 30.7576C414.422 30.2463 415.772 29.4078 416.004 28.951C416.253 28.4567 415.665 27.8738 416.204 27.9437L418.426 30.1526C418.066 30.5736 417.78 30.052 417.233 30.2804C417.066 30.3503 414.982 32.4842 414.659 32.8268C414.245 33.2665 412.834 34.6403 412.791 35.0715C412.761 35.3749 413.19 36.1163 412.665 35.9987C412.394 35.939 410.799 34.2602 410.608 33.9602C410.514 33.8119 410.376 33.783 410.456 33.5273C411.868 33.8239 412.687 32.1689 413.599 31.3405C413.226 31.0372 411.472 29.0566 411.126 29.1947C410.811 29.7145 409.473 30.6997 409.27 31.0968C408.967 31.6934 409.488 32.0734 409.045 32.4467L406.664 30.0588C406.95 29.6293 407.218 30.0162 407.567 29.977C408.007 29.9276 410.3 27.567 410.784 27.0591C411.542 26.2631 412.715 25.4314 412.338 24.2161C412.636 24.1497 412.674 24.3525 412.839 24.4889C413.158 24.7513 414.276 25.9325 414.48 26.2546C414.574 26.4029 414.712 26.4319 414.632 26.6875Z" fill="white"/>
<path d="M421.63 34.8332L423.106 37.6897C421.803 37.1631 421.059 38.4124 419.949 38.8146C419.75 39.055 421.505 41.494 421.82 41.4923C422.044 41.4923 423.777 40.3009 423.953 40.0708C424.236 39.7009 423.796 39.4061 424.268 39.1572L426.01 41.8621C425.41 41.7633 425.124 41.5996 424.551 41.9115C423.523 42.4706 420.876 44.2074 420.017 44.9505C419.49 45.4056 419.288 45.6339 419.482 46.3651L419.046 46.4214L417.49 43.5529C418.821 44.192 419.92 42.6444 421.028 42.0308L419.283 39.4674C418.729 39.8339 416.91 40.7253 416.724 41.2588C416.615 41.5741 416.939 41.8792 416.496 42.0973L414.594 39.2919C414.994 38.8078 415.403 39.7538 415.942 39.4027C416.731 38.6272 420.926 36.454 421.195 35.6956C421.324 35.3291 420.885 34.7531 421.628 34.8315L421.63 34.8332Z" fill="white"/>
<path d="M395.228 15.7916C396.406 16.608 396.953 18.0976 395.884 19.2583C394.221 21.0684 390.764 18.672 388.922 18.1726C389.08 17.709 389.685 17.8726 389.955 17.5437C390.253 17.1806 391.978 12.8072 392.167 12.1322C392.395 11.3192 392.343 11.263 391.992 10.5062C392.23 10.4755 392.448 10.5181 392.677 10.5863C393.381 10.796 395.327 11.5595 395.975 11.8902C398.303 13.0765 397.861 15.72 395.228 15.7916ZM394.286 12.064L393.198 14.6684C395.336 16.291 397.076 12.589 394.286 12.064ZM392.851 15.4507L391.838 18.401C394.42 20.3321 396.108 15.8222 392.851 15.4507Z" fill="white"/>
<path d="M345.053 28.8196C345.208 24.9796 341.639 29.1162 340.225 29.8559L341.344 31.1001C341.019 32.5795 338.813 31.1206 338.668 30.4013C338.592 30.0161 339.083 29.7673 339.187 29.4025C339.427 28.5554 338.527 25.6511 338.191 24.695C338.075 24.3643 337.572 22.8917 337.448 22.7707C337.076 22.4111 336.499 22.7485 336.195 22.2781C337.671 21.6986 339.054 20.2056 340.378 19.5443C341.424 19.021 340.906 19.9022 340.913 20.3078C340.92 20.6658 343.541 24.4836 343.979 25.0069C345 26.2289 344.739 25.3801 345.5 25.4279C346.372 25.4824 346.507 28.8213 345.053 28.8196ZM340.1 28.8912C340.565 28.6492 342.957 27.134 342.921 26.7726L339.231 21.3407L338.072 22.0531C338.823 24.3132 339.751 26.5153 340.1 28.8912Z" fill="white"/>
<path d="M321.736 51.3663C323.57 51.1157 326.312 52.4486 326.972 54.2228C327.676 56.1198 326.478 58.944 324.509 59.59C322.54 60.236 318.997 58.8622 318.45 56.7794C317.874 54.5893 319.403 51.6833 321.738 51.3646L321.736 51.3663ZM320.705 53.0621C320.073 53.207 319.438 54.0336 319.398 54.666C319.26 56.7931 324.453 59.1946 325.871 57.3726C327.637 55.1023 322.547 52.636 320.705 53.0604V53.0621Z" fill="white"/>
<path d="M324.665 118.698C324.654 121.316 327.402 121.762 329.417 120.893C329.272 120.564 328.759 120.487 328.479 120.213C327.644 119.397 328.024 118.585 327.809 117.644C327.687 117.106 327.32 116.791 327.032 116.376C326.943 116.249 326.679 116.097 326.943 115.954C328.137 116.136 329.289 116.637 329.549 117.95C329.703 118.727 329.348 121.27 330.933 119.768C332.052 118.71 331.961 116.353 330.671 115.465C330.061 115.045 329.289 115.151 328.738 114.672C330.006 113.389 331.3 114.612 332.045 115.794C335.445 121.193 328.007 125.442 324.649 121.144C323.841 120.109 323.294 118.587 323.896 117.331C325.096 114.827 327.912 118.193 324.663 118.694L324.665 118.698Z" fill="white"/>
<path d="M336.231 137.77C335.936 137.847 335.89 137.649 335.72 137.516C335.016 136.971 334.38 136.057 333.68 135.469C333.944 135.043 334.234 135.431 334.648 135.263C335.36 134.975 339.139 131.251 339.908 130.444C340.046 130.3 340.144 130.134 340.156 129.93L340.4 129.935C342.028 131.365 344.504 132.514 343.545 135.109C343.166 136.132 341.866 137.129 340.756 137.095C339.245 137.047 337.946 135.011 337.705 135.053C336.935 135.907 335.614 136.454 336.233 137.767L336.231 137.77ZM341.128 132.002C340.479 132.104 339.043 133.981 338.461 134.47C339.638 137.455 344.056 133.134 341.639 132.099C341.455 132.021 341.339 131.968 341.128 132.001V132.002Z" fill="white"/>
<path d="M360.267 14.6762C360.183 14.7648 360.732 16.8698 360.87 17.0539C361.25 17.5669 362.065 17.1254 361.969 17.7407L358.562 18.5946C359.432 16.5545 357.983 14.2672 357.758 12.1571C357.594 10.6317 358.056 10.0709 359.493 9.5562C364.911 7.61659 365.441 15.5608 360.267 14.6762ZM360.047 10.2823C359.839 10.3283 359.64 10.422 359.496 10.5823C359.231 11.0288 359.849 13.9928 360.386 14.1393C362.919 14.4018 362.333 9.77266 360.047 10.2806V10.2823Z" fill="white"/>
<path d="M356.092 19.6259C356.11 19.6429 356.115 20.0537 356.074 20.1184C355.99 20.2497 353.59 21.1445 353.277 21.4956L353.045 21.1002C353.681 20.3554 352.777 19.7827 352.22 19.3071L349.437 20.3963L349.527 22.0137L350.635 22.6069C350.528 22.825 348.607 23.771 348.339 23.7181C347.862 23.6227 348.53 22.9392 348.581 22.6C348.767 21.3916 348.363 19.452 348.252 18.1771C348.194 17.5175 348.407 16.0091 347.995 15.5353C347.812 15.3257 347.223 15.4552 347.4 15.1143C347.535 14.8553 349.203 13.8599 349.609 14.0832L354.983 19.2884C355.153 19.6429 356.052 19.5867 356.092 19.6293V19.6259ZM351.489 18.7703C351.559 18.5129 351.421 18.4873 351.322 18.3442C350.812 17.6027 349.602 16.5511 348.936 15.8745L349.277 19.6242L351.491 18.7703H351.489Z" fill="white"/>
<path d="M414.634 137.259C414.844 136.177 413.983 135.97 413.185 135.614C412.94 135.628 411.222 137.233 411.038 137.511C410.744 137.956 411.447 139.146 411.852 139.272C412.12 139.355 412.933 139.146 412.757 139.556C412.507 139.739 411.104 141.419 410.884 141.177C410.905 140.582 410.923 140.105 410.751 139.521C410.538 138.798 408.38 134.182 407.961 133.618C407.724 133.3 407.576 133.136 407.133 133.165L408.328 131.539L408.711 131.484C411.377 132.645 414.008 134.341 416.851 134.953C417.121 135.169 416.964 135.123 416.85 135.297C416.442 135.914 415.479 136.414 415.147 137.175L414.634 137.259ZM412.248 135.045L409.009 133.681L410.375 136.918C410.605 137.085 412.428 135.244 412.248 135.045Z" fill="white"/>
<path d="M407.731 21.0565C406.869 20.9798 407.492 20.0015 407.138 19.3981C406.954 19.0845 405.614 18.1607 405.248 18.2374L403.656 20.4395C403.658 20.5145 404.817 21.2321 404.939 21.244C405.202 21.2679 405.539 20.7906 406.023 21.1537C405.745 21.4741 404.839 23.4342 404.407 22.9569C404.655 21.8866 404.07 21.4826 403.208 21.0497C402.776 21.6701 401.201 23.2262 401.801 23.9506C401.984 24.1705 403.409 24.9323 403.741 24.9681C404.532 25.0533 405.016 24.2318 405.515 24.796L404.147 26.3282L398.781 22.8734C398.795 22.19 399.516 22.5359 400.02 22.178C400.371 21.9292 401.374 20.3952 401.713 19.9214C402.074 19.4169 403.698 17.1347 403.632 16.7376C403.586 16.4615 403.052 16.262 403.612 15.9297L408.655 19.4782L407.733 21.0582L407.731 21.0565Z" fill="white"/>
<path d="M397.933 140.836C399.353 144.384 398.022 142.218 396.825 142.222C396.534 142.222 395.363 142.566 395.397 142.936L398.194 148.671C398.409 149.046 398.79 149.046 399.184 149.019L399.298 149.443L396.312 150.888C395.733 150.495 396.398 150.239 396.501 149.874C396.66 149.32 393.865 144.582 393.669 143.563C393.498 143.44 392.269 144.267 392.126 144.488C391.731 145.099 392.329 145.739 391.538 145.939L390.609 144.158L397.931 140.836H397.933Z" fill="white"/>
<path d="M385.818 8.58436L385.656 10.6211C384.897 10.7711 385.044 10.1047 384.783 9.70415C384.386 9.09227 383.607 9.05648 382.93 9.08716L381.892 15.3099L382.588 16.5848L379.179 16.0718L379.182 15.5707C379.755 15.5758 380 15.2707 380.157 14.7543C380.486 13.6703 380.904 10.8631 381.032 9.66324C381.071 9.30021 381.059 8.93717 381.054 8.57413C380.508 8.61504 379.861 8.47528 379.337 8.64913C378.782 8.8349 378.831 9.57973 378.156 9.42633L378.409 7.54297L385.816 8.58265L385.818 8.58436Z" fill="white"/>
<path d="M334.693 37.9569C334.749 37.3944 334.63 36.7348 334.064 36.4553L327.023 35.1429L329.154 32.6783C329.58 32.9135 329.147 33.1897 329.311 33.522C329.648 34.2021 332.701 34.5856 333.498 34.8889C333.037 34.2276 332.012 31.3302 331.336 31.1665C331.012 31.0881 330.708 31.5142 330.436 31.0557L332.051 29.2695C332.31 29.4349 332.278 29.6036 332.312 29.8575C332.622 32.2403 334.421 34.2583 335.235 36.4791C335.53 37.2836 335.74 37.8341 335.338 38.6863C334.083 41.3435 331.165 37.8171 334.695 37.9586L334.693 37.9569Z" fill="white"/>
<path d="M374.157 9.77767L373.504 9.7487C372.89 7.84659 370.607 8.10054 369.891 9.85607C368.621 12.97 370.787 17.6895 374.327 14.3796C374.864 15.6238 373.257 16.3158 372.197 16.4231C370.295 16.6157 368.696 16.0345 367.992 14.1563C367.147 11.9031 367.583 8.72094 370.203 7.95226C370.961 7.72898 372.812 7.59263 373.564 7.73239C374.203 7.8517 374.056 9.22374 374.159 9.77767H374.157Z" fill="white"/>
<path d="M330.294 44.1069C332.297 44.1853 330.886 47.1408 329.94 47.9265C328.314 49.2798 326.483 49.0599 324.786 47.9947C321.459 45.9085 322.674 42.5832 325.121 40.3828C325.738 40.526 327.593 41.5282 326.124 41.7225C325.183 41.8469 324.411 41.8997 323.976 42.9837C323.238 44.8262 325.899 46.5902 327.4 47.0811C329.493 47.7663 330.84 46.0891 330.294 44.1052V44.1069Z" fill="white"/>
<path d="M319.694 62.4386L319.588 62.9601C318.317 63.2106 317.579 65.6531 318.973 66.1388C319.822 66.4354 323.297 67.0166 324.219 67.0404C324.489 67.0473 324.727 67.0762 324.983 66.9535C325.329 66.7865 325.155 66.2274 325.659 66.357C325.712 66.8666 325.363 69.7232 325.146 69.9345C324.785 70.289 324.734 69.2613 324.598 69.1215C324.39 68.9068 319.394 67.9591 318.733 67.9097C317.357 67.8074 317.94 68.4653 316.969 68.571L318.008 62.2852L319.696 62.4386H319.694Z" fill="white"/>
<path d="M435.045 59.7509C435.26 59.9537 435.647 60.9269 435.171 61.0684C434.348 61.2832 434.728 59.9622 434.319 59.8787C432.918 60.0867 434.54 64.334 434.912 64.5709C435.088 64.6817 435.236 64.6613 435.428 64.6494L435.258 63.1171L436.102 63.1256C436.652 65.6515 434.402 65.6532 433.434 63.6625C432.977 62.7234 432.727 60.6883 433.479 59.8873C433.845 59.4969 434.655 59.3828 435.045 59.7526V59.7509Z" fill="white"/>
<path d="M354.123 87.3224C348.074 99.7236 351.2 118.895 366.362 122.547C375.169 124.669 382.798 121.458 383.105 111.614L383.096 89.0217H403.38C403.271 97.0409 404.175 105.098 400.798 112.604C394.736 126.084 377.75 132.218 364.234 126.379C349.659 120.083 345.811 100.116 353.179 87.0156L354.123 87.3207V87.3224Z" fill="white"/>
<path d="M402.702 71.4702H382.59V50.4208C382.59 47.2762 379.396 43.7038 376.543 42.6624C369.613 40.1331 363.966 43.201 360.026 48.8204C355.33 55.5153 353.51 63.364 353.106 71.4719H351.742V35.5073L353.459 35.4102C353.791 38.6656 355.584 42.0965 359.178 42.4732C362.773 42.8499 367.346 39.4598 370.896 38.5531C384.364 35.1085 398.693 45.9587 402.01 58.7843C403.094 62.9754 402.608 67.1819 402.704 71.4702H402.702Z" fill="white"/>
<path d="M412.244 68.2288C412.021 69.7287 411.922 71.1331 411.399 72.5801C408.839 79.6619 402.108 82.6736 394.953 82.723C392.54 82.7401 390.21 82.2015 388.214 80.8363L388.323 80.4988C389.998 80.3982 390.019 78.0325 388.459 77.782C385.732 77.3439 385.093 80.5976 386.844 82.2935C389.305 84.6797 394.329 84.2553 397.418 83.5667C393.792 86.2477 387.217 88.1277 383.114 85.6819C382.76 85.4705 381.355 84.3286 381.228 84.4172C379.689 89.1486 372.706 92.2063 368.266 89.9633C363.867 87.7408 365.407 80.4937 370.231 80.3164C372.164 80.2448 374.195 81.7532 373.887 83.8104C373.665 85.2933 372.024 86.3722 370.659 85.5251C374.662 83.3468 369.285 80.4443 368.518 84.0678C367.642 88.2112 374.41 89.0651 375.818 84.8927C377.067 81.1925 374.47 78.2746 370.868 77.8144C363.853 76.9196 359.178 83.8156 356.534 89.3003C356.113 90.1747 356.006 91.845 354.828 90.6212C357.528 82.873 361.494 75.6413 370.275 74.0647C380.043 72.3109 392.195 74.1329 402.282 73.5176C406.569 73.2568 409.302 71.7552 411.856 68.4419C411.965 68.2987 411.854 68.13 412.246 68.2288H412.244Z" fill="white"/>
<path d="M428.029 50.1283C426.987 49.7788 425.861 50.1777 424.908 50.66C424.766 50.8424 426.232 53.6632 424.623 54.9483C421.663 57.3106 420.214 51.9946 419.672 49.9987C421.201 50.1709 422.69 49.5777 424.127 49.0562C425.255 48.6471 426.491 48.3915 427.219 47.4336L428.029 50.13V50.1283ZM421.022 51.7508C421.068 55.0983 426.009 53.5728 424.088 50.9566L421.022 51.7508Z" fill="white"/>
<path d="M430.185 56.6065C427.775 56.3935 424.671 57.711 422.643 59.0353L421.828 56.4753C422.07 56.1753 422.566 56.6236 422.98 56.5537C423.894 56.3986 427.759 55.2191 428.497 54.8033C428.975 54.534 428.922 54.0738 429.375 53.9102L430.185 56.6065Z" fill="white"/>
<defs>
<clipPath id="clip0_13644_3206">
<rect width="234" height="69" fill="white" transform="translate(0 37)"/>
</clipPath>
</defs>
</svg>
