<svg width="643" height="90" viewBox="0 0 643 90" fill="none" xmlns="http://www.w3.org/2000/svg">
<g clip-path="url(#clip0_13644_2301)">
<path d="M188.307 44.5078V50.988H168.274V78.4179H161.766V44.5078H188.307Z" fill="white"/>
<path d="M201.828 44.5078V50.988H221.861V78.4179H228.369V44.5078H201.828Z" fill="white"/>
<path d="M141.231 44.457V44.507H130.33H127.958L100.916 71.4322H87.6429V44.507V44.457H80.6328V44.507V77.6676V78.3721H81.3398L81.385 78.4171H103.418L130.952 51.4919H140.986L141.231 51.7367V76.0738V78.3721H148.241V77.6676V44.507V44.457H141.231Z" fill="white"/>
<path d="M301.986 44.457V44.502H249.401V44.457H242.391V78.3671H249.401V64.952H309.001V44.457H301.991H301.986ZM301.986 57.9671H249.401V51.4919H301.986V57.9671Z" fill="white"/>
<path d="M67.6237 71.389V44.4588H60.6136V44.5037H60.5986V71.384H7.01008V44.5087H5.31021C4.38255 44.3489 3.33455 44.4338 2.31162 44.5087H0V78.4188H74.1223V71.389H67.6237Z" fill="white"/>
</g>
<path d="M348.544 74.45L346.852 72.758L352.036 67.574L346.852 62.354L348.544 60.662L353.728 65.846L359.02 60.554L360.712 62.282L355.42 67.574L360.64 72.758L358.912 74.45L353.728 69.23L348.544 74.45Z" fill="white"/>
<path d="M393.921 32.1424L398.498 31.2129L398.493 31.9909L394.836 32.7335L394.831 35.1888L398.251 34.4916V35.2696L394.831 35.9668L394.826 38.4321L398.544 37.6743L398.539 38.4574L393.906 39.397L393.921 32.1424Z" fill="white"/>
<path d="M403.331 36.3324L403.422 36.3122L405.685 29.7498L406.645 29.5527L403.846 37.3731L402.901 37.5651L400.133 30.8763L401.093 30.6844L403.331 36.3324Z" fill="white"/>
<path d="M408.453 29.1854L413.03 28.2559V29.0389L409.372 29.7815L409.367 32.2317L412.787 31.5346L412.782 32.3176L409.362 33.0097L409.357 35.4751L413.075 34.7223V35.5003L408.438 36.44L408.453 29.1854Z" fill="white"/>
<path d="M421.309 33.8288L420.42 34.0056L416.302 29.1507L416.226 29.1659L416.211 34.8644L415.297 35.0463L415.312 27.7968L416.201 27.6149L420.334 32.4799L420.409 32.4648L420.42 26.7561L421.324 26.5742L421.309 33.8288Z" fill="white"/>
<path d="M423.364 26.1499L429.048 24.998V25.776L426.663 26.261L426.648 32.7326L425.729 32.9195L425.744 26.448L423.359 26.9329L423.364 26.1499Z" fill="white"/>
<path d="M433.536 24.7701C432.531 24.9721 431.864 25.6188 431.859 26.3159C431.859 27.0939 432.758 27.195 433.324 27.2202L434.092 27.2607C434.875 27.3011 436.224 27.4627 436.219 28.8268C436.219 30.0039 435.224 31.1254 433.476 31.479C431.849 31.8074 430.844 31.2062 430.758 30.0342L431.708 29.8422C431.778 30.6505 432.577 30.8677 433.481 30.6859C434.532 30.4737 435.335 29.7866 435.335 28.9935C435.335 28.271 434.628 28.1447 433.824 28.0942L432.89 28.0285C431.708 27.9427 430.965 27.5132 430.97 26.5332C430.97 25.3157 432.112 24.275 433.567 23.982C435.032 23.6839 436.088 24.2901 436.123 25.3763L435.234 25.5582C435.148 24.861 434.451 24.5831 433.531 24.7701" fill="white"/>
<path d="M526.108 38.2054L526.027 38.2206L524.324 38.5843L522.622 38.948L520.919 39.3118L519.217 39.6755L517.514 40.0393L516.883 40.1757L517.302 40.3272L518.439 40.7364L519.575 41.1456L520.712 41.5548L521.849 41.9641L522.986 42.3733L524.122 42.7825L525.259 43.1917L526.396 43.6009L527.532 44.0101L528.669 44.4193L529.806 44.8285L530.942 45.2377L532.079 45.6469L533.216 46.0561L534.352 46.4653L535.489 46.8745L536.626 47.2837L537.762 47.6929L537.879 47.7334H537.894C538.222 47.8546 538.551 47.986 538.879 48.1224C539.243 48.2739 539.601 48.4305 539.96 48.6023C540.096 48.668 540.238 48.7235 540.374 48.7943C540.586 48.9003 540.799 49.0216 541.006 49.1327C541.344 49.3146 541.683 49.5066 542.021 49.7087C542.269 49.8552 542.521 50.0017 542.764 50.1583C542.85 50.2139 542.926 50.2694 543.006 50.325C543.345 50.5574 543.663 50.7797 543.946 51.002C544.259 51.2495 544.547 51.492 544.795 51.7294C544.805 51.7395 544.815 51.7496 544.825 51.7547C545.143 52.0528 545.411 52.3458 545.623 52.6236C545.926 53.0278 546.118 53.3966 546.169 53.7098C546.174 53.7502 546.174 53.7856 546.179 53.8209C546.204 54.2251 546.007 54.5282 545.532 54.7C545.446 54.7303 545.355 54.7555 545.254 54.7808C545.032 54.8263 544.78 54.8515 544.502 54.8515C544.34 54.8515 544.173 54.8465 544.002 54.8313C543.825 54.8162 543.643 54.7959 543.456 54.7656C543.224 54.7303 542.976 54.6798 542.723 54.6191C542.345 54.5333 541.94 54.4221 541.526 54.2958C541.152 54.1796 540.773 54.0483 540.384 53.8967C540.187 53.8209 539.99 53.7502 539.788 53.6694C539.622 53.5986 539.45 53.5229 539.283 53.4471C538.924 53.2905 538.571 53.1238 538.217 52.9419C537.869 52.7701 537.525 52.5832 537.187 52.3912C536.848 52.1993 536.52 52.0022 536.191 51.7951C536.09 51.7345 535.989 51.6739 535.893 51.6082L535.216 51.1636L534.322 50.5776L534.196 50.6028L532.493 50.9615L530.791 51.3202L529.088 51.6789L527.436 52.0275L528.376 52.6438L529.012 53.0631C529.124 53.1339 529.24 53.2046 529.351 53.2753C529.674 53.4824 530.003 53.6896 530.331 53.8917C530.659 54.0937 530.988 54.2958 531.321 54.4979C531.655 54.6949 531.988 54.8919 532.327 55.0839C532.665 55.2759 532.998 55.4679 533.342 55.6548C533.68 55.8417 534.024 56.0286 534.368 56.2105C534.711 56.3924 535.06 56.5742 535.408 56.7511C535.757 56.9279 536.105 57.1097 536.454 57.2815C536.555 57.332 536.656 57.3876 536.757 57.4331C537.01 57.5543 537.257 57.6705 537.51 57.7917C537.869 57.9585 538.222 58.1252 538.581 58.2868C538.94 58.4485 539.303 58.6152 539.662 58.7668C540.031 58.9234 540.394 59.0749 540.758 59.2265C541.132 59.3781 541.501 59.5296 541.87 59.6711C542.243 59.8176 542.617 59.9641 542.991 60.1005C543.37 60.2419 543.749 60.3783 544.128 60.5097C544.517 60.6461 544.901 60.7724 545.28 60.8936C545.674 61.0199 546.063 61.1412 546.447 61.2574C546.846 61.3786 547.24 61.4898 547.634 61.5958C547.861 61.6565 548.099 61.7272 548.321 61.7828C548.498 61.8282 548.664 61.8636 548.836 61.904C549.256 62.0051 549.665 62.096 550.069 62.1819C550.498 62.2728 550.918 62.3486 551.332 62.4193C551.776 62.4951 552.211 62.5557 552.63 62.6062C553.095 62.6618 553.545 62.7022 553.979 62.7224C554.323 62.7426 554.661 62.7527 554.984 62.7527C555.126 62.7527 555.262 62.7527 555.399 62.7477C555.965 62.7275 556.485 62.6669 556.96 62.5759C557.015 62.5658 557.081 62.5608 557.137 62.5456C557.935 62.3789 558.551 62.1061 559.001 61.7525C559.349 61.4746 559.607 61.1513 559.753 60.7774C559.764 60.7522 559.769 60.7219 559.779 60.6966C559.966 60.151 559.951 59.5145 559.733 58.8021C559.617 58.4131 559.435 57.9989 559.203 57.5695C559.021 57.2259 558.799 56.8773 558.546 56.5136C558.334 56.2105 558.101 55.9023 557.844 55.5841C557.834 55.574 557.824 55.5638 557.819 55.5537C557.576 55.2607 557.318 54.9677 557.036 54.6646C556.778 54.3867 556.505 54.1089 556.217 53.826C555.949 53.5633 555.666 53.2955 555.368 53.0278C555.091 52.7752 554.798 52.5175 554.494 52.2599C554.206 52.0174 553.908 51.7698 553.6 51.5223C553.307 51.2849 553.004 51.0474 552.686 50.81C552.383 50.5826 552.075 50.3503 551.756 50.1229C551.448 49.9006 551.135 49.6783 550.812 49.4561C550.498 49.2388 550.18 49.0216 549.852 48.8094C549.781 48.7639 549.715 48.7185 549.645 48.673C549.392 48.5063 549.129 48.3497 548.877 48.188C548.548 47.9809 548.23 47.7687 547.897 47.5666C547.568 47.3646 547.23 47.1726 546.896 46.9756C546.563 46.7785 546.229 46.5815 545.891 46.3895C545.553 46.1976 545.209 46.0157 544.87 45.8288C544.527 45.6419 544.183 45.46 543.84 45.2781C543.491 45.0962 543.143 44.9194 542.799 44.7426C542.668 44.6769 542.542 44.6062 542.41 44.5456C542.188 44.4344 541.966 44.3334 541.743 44.2273C541.39 44.0556 541.036 43.8838 540.682 43.7171C540.324 43.5504 539.96 43.3937 539.601 43.2321C539.238 43.0704 538.874 42.9088 538.515 42.7572C538.146 42.6006 537.778 42.4541 537.409 42.3076C537.035 42.156 536.666 42.0146 536.292 41.8731C535.913 41.7317 535.54 41.5852 535.166 41.4538C535.125 41.4386 535.08 41.4184 535.034 41.4033H535.05L534.034 41.0395L532.897 40.6303L531.761 40.2211L530.624 39.8119L529.487 39.4027L528.351 38.9935L527.214 38.5843L526.133 38.1953L526.108 38.2054ZM526.077 38.655L527.042 39.0036L528.179 39.4128L529.316 39.822L530.452 40.2312L531.589 40.6404L532.539 40.9789H532.498L534.863 41.8226L534.923 41.8428L534.994 41.8681C535.343 41.9944 535.701 42.1257 536.055 42.2621L536.116 42.2823C536.484 42.4238 536.853 42.5652 537.222 42.7168L537.247 42.7269C537.606 42.8683 537.959 43.0149 538.323 43.1664C538.621 43.2927 538.919 43.4241 539.217 43.5554L539.404 43.6362L539.616 43.7322C539.904 43.8585 540.187 43.9848 540.475 44.1162C540.768 44.2526 541.061 44.394 541.354 44.5355L541.531 44.6214C541.622 44.6668 541.713 44.7072 541.804 44.7527C541.935 44.8133 542.062 44.874 542.193 44.9396C542.264 44.975 542.329 45.0104 542.395 45.0457C542.456 45.076 542.516 45.1064 542.577 45.1417C542.92 45.3135 543.269 45.4903 543.613 45.6722C543.956 45.849 544.295 46.0359 544.638 46.2178L544.729 46.2683C545.037 46.435 545.35 46.6068 545.654 46.7785C545.942 46.9402 546.224 47.1069 546.507 47.2736L546.654 47.3595L546.947 47.5313C547.179 47.6677 547.417 47.8041 547.649 47.9455C547.881 48.087 548.109 48.2335 548.336 48.38L548.624 48.5619C548.72 48.6225 548.816 48.6831 548.912 48.7437C549.074 48.8448 549.23 48.9408 549.387 49.0469L549.503 49.1277L549.589 49.1883C549.912 49.4055 550.231 49.6177 550.539 49.8299C550.857 50.0522 551.17 50.2745 551.478 50.4917C551.792 50.719 552.1 50.9464 552.398 51.1737C552.701 51.4061 553.004 51.6435 553.302 51.881C553.631 52.1437 553.919 52.3811 554.186 52.6085C554.469 52.851 554.762 53.1036 555.05 53.3663C555.338 53.6239 555.616 53.8917 555.884 54.1544C556.167 54.4322 556.439 54.7101 556.687 54.9778C556.97 55.2809 557.228 55.5739 557.455 55.8468L557.48 55.8771C557.723 56.1701 557.95 56.4732 558.162 56.7763C558.405 57.1249 558.622 57.4684 558.794 57.7917C559.016 58.201 559.183 58.59 559.289 58.9436C559.476 59.57 559.496 60.1156 559.339 60.5703L559.319 60.636C559.203 60.934 558.996 61.2018 558.703 61.4291C558.293 61.7525 557.723 61.9899 557.015 62.1415C556.995 62.1415 556.975 62.1465 556.95 62.1516C556.914 62.1516 556.879 62.1617 556.849 62.1667C556.379 62.2577 555.879 62.3132 555.353 62.3284C555.222 62.3284 555.091 62.3334 554.954 62.3334C554.661 62.3334 554.343 62.3233 553.974 62.3031C553.56 62.2829 553.115 62.2425 552.65 62.1869C552.231 62.1364 551.802 62.0758 551.372 62.0051C550.968 61.9394 550.549 61.8586 550.13 61.7727C549.741 61.6918 549.326 61.6009 548.912 61.4999L548.705 61.4544C548.604 61.4291 548.503 61.4089 548.397 61.3837C548.245 61.3433 548.094 61.3028 547.942 61.2624L547.71 61.1968C547.316 61.0907 546.922 60.9745 546.533 60.8583C546.149 60.7421 545.765 60.6259 545.376 60.4996C544.997 60.3783 544.618 60.252 544.229 60.1156C543.855 59.9843 543.481 59.8479 543.102 59.7064C542.734 59.57 542.36 59.4286 541.991 59.2821C541.622 59.1406 541.258 58.9941 540.89 58.8425C540.526 58.691 540.162 58.5445 539.798 58.3828C539.44 58.2262 539.081 58.0646 538.722 57.9029C538.369 57.7412 538.015 57.5745 537.656 57.4078L537.409 57.2916C537.242 57.2108 537.075 57.135 536.909 57.0542C536.858 57.0289 536.808 57.0036 536.757 56.9784C536.707 56.9531 536.656 56.9279 536.606 56.9026C536.257 56.7308 535.913 56.554 535.565 56.3772C535.221 56.2004 534.878 56.0236 534.534 55.8417C534.191 55.6598 533.852 55.4729 533.514 55.286C533.175 55.0991 532.842 54.9071 532.503 54.7151C532.17 54.5232 531.837 54.3261 531.508 54.1291C531.175 53.9321 530.851 53.73 530.523 53.5279C530.195 53.3258 529.871 53.1238 529.548 52.9116C529.492 52.8762 529.442 52.8409 529.386 52.8105C529.331 52.7752 529.27 52.7398 529.215 52.7045L528.578 52.2851L528.507 52.2397L529.144 52.1033L530.846 51.7446L532.549 51.3859L534.201 51.0373L534.949 51.5274L535.625 51.9719C535.686 52.0123 535.747 52.0477 535.812 52.0881C535.853 52.1134 535.893 52.1386 535.929 52.1588C536.257 52.371 536.6 52.5731 536.944 52.7701C537.288 52.9621 537.641 53.1541 537.995 53.3309C538.354 53.5077 538.717 53.6795 539.081 53.8411L539.243 53.9119C539.359 53.9674 539.475 54.018 539.596 54.0685C539.753 54.1341 539.904 54.1897 540.061 54.2453L540.208 54.3009C540.632 54.4625 541.011 54.5939 541.375 54.705C541.814 54.8414 542.223 54.9526 542.602 55.0384C542.905 55.1092 543.148 55.1546 543.365 55.19C543.557 55.2203 543.744 55.2405 543.941 55.2607C544.128 55.2759 544.31 55.286 544.482 55.286C544.79 55.286 545.073 55.2607 545.325 55.2052C545.436 55.1799 545.547 55.1496 545.659 55.1092C546.528 54.796 546.613 54.1493 546.593 53.7906V53.7654C546.593 53.7199 546.588 53.6795 546.578 53.634C546.517 53.2551 546.305 52.8257 545.952 52.3559C545.724 52.0528 545.436 51.7446 545.103 51.4263L545.083 51.4061C544.825 51.1586 544.527 50.906 544.204 50.6483C543.926 50.4311 543.602 50.1936 543.244 49.9511L543.158 49.8905C543.107 49.8552 543.052 49.8198 542.996 49.7794C542.799 49.6531 542.602 49.5318 542.4 49.4156L542.238 49.3197C541.9 49.1176 541.551 48.9206 541.208 48.7336L541.011 48.6275C540.864 48.5467 540.713 48.4659 540.561 48.3901C540.475 48.3497 540.389 48.3093 540.304 48.2739C540.248 48.2487 540.192 48.2234 540.137 48.1981C539.738 48.0112 539.379 47.8496 539.036 47.7081C538.717 47.5767 538.374 47.4353 538.02 47.309L537.904 47.2686L536.767 46.8594L535.631 46.4502L534.494 46.041L533.357 45.6318L532.22 45.2225L531.084 44.8133L529.947 44.4041L528.81 43.9949L527.674 43.5857L526.537 43.1765L525.4 42.7673L524.264 42.3581L523.127 41.9489L521.99 41.5397L520.854 41.1305L519.717 40.7213L518.58 40.3121L518.454 40.2666L519.298 40.0847L521 39.721L522.703 39.3573L524.405 38.9935L526.067 38.6399L526.077 38.655Z" fill="white"/>
<path d="M604.47 21.0393L603.035 21.3424L601.333 21.7011L599.63 22.0598L597.928 22.4184L596.225 22.7771L594.523 23.1358L592.82 23.4945L591.118 23.8532L589.415 24.2119L587.713 24.5706L587.273 24.6615L587.526 24.8232L588.496 25.4597L589.466 26.0963L590.436 26.7328L591.406 27.3693L592.376 28.0059L593.346 28.6424L594.316 29.279L595.286 29.9155L596.256 30.5521L597.226 31.1886L598.196 31.8251L599.166 32.4617L600.136 33.0982L601.106 33.7348L602.076 34.3713L603.046 35.0079L604.016 35.6444L604.986 36.2809L605.955 36.9175L606.925 37.554L607.895 38.1906L608.865 38.8271L609.835 39.4637L610.805 40.1002L611.775 40.7367L622.364 47.6932L643.001 43.3082L631.134 35.513L617.373 38.4381L614.741 36.7104L613.771 36.0738L612.801 35.4373L611.831 34.8007L610.861 34.1642L609.891 33.5276L608.921 32.8911L607.951 32.2546L606.981 31.618L606.011 30.9815L605.041 30.3449L604.071 29.7084L603.101 29.0718L602.131 28.4353L601.161 27.7988L600.191 27.1622L600.105 27.1066L600.257 27.0763L601.959 26.7126L603.662 26.3488L605.364 25.9851L607.067 25.6214L608.769 25.2576L610.421 24.904L609.482 24.2877L608.512 23.6511L607.542 23.0146L606.572 22.378L605.602 21.7415L604.632 21.1049L604.48 21.0039L604.47 21.0393ZM604.384 21.504L605.354 22.1406L606.324 22.7771L607.294 23.4137L608.264 24.0502L609.234 24.6868L609.305 24.7322L608.668 24.8686L606.966 25.2324L605.263 25.5961L603.561 25.9598L601.858 26.3236L600.156 26.6873L600.004 26.7176L598.989 26.9349L599.858 27.5057L599.944 27.5613L600.914 28.1979L601.884 28.8344L602.854 29.4709L603.824 30.1075L604.794 30.744L605.764 31.3806L606.733 32.0171L607.703 32.6537L608.673 33.2902L609.643 33.9267L610.613 34.5633L611.583 35.1998L612.553 35.8364L613.523 36.4729L614.493 37.1095L617.125 38.8423L617.277 38.9433L617.454 38.9079L631.038 36.0182L641.885 43.1415L622.445 47.2739L612.008 40.4185L611.038 39.7819L610.068 39.1454L609.098 38.5088L608.128 37.8723L607.158 37.2358L606.188 36.5992L605.218 35.9627L604.248 35.3261L603.278 34.6896L602.308 34.053L601.338 33.4165L600.368 32.78L599.398 32.1434L598.428 31.5069L597.458 30.8703L596.488 30.2338L595.518 29.5972L594.548 28.9607L593.578 28.3242L592.608 27.6876L591.638 27.0511L590.668 26.4145L589.698 25.778L588.728 25.1414L588.38 24.9141L589.501 24.6767L591.204 24.318L592.906 23.9542L594.609 23.5955L596.311 23.2318L598.014 22.8731L599.716 22.5144L601.419 22.1557L603.121 21.7971L604.379 21.5293L604.384 21.504Z" fill="white"/>
<path d="M547.988 33.1441L546.811 33.3967L545.108 33.7553L543.406 34.114L541.703 34.4778L541.117 34.6041L541.451 34.8213L542.421 35.4578L543.391 36.0944L544.361 36.7309L545.33 37.3675L546.3 38.004L547.27 38.6406L548.24 39.2771L549.21 39.9136L550.18 40.5502L551.15 41.1867L552.12 41.8233L553.09 42.4598L554.06 43.0964L555.03 43.7329L556 44.3695L556.97 45.006L557.94 45.6425L558.91 46.2791L559.88 46.9156L560.85 47.5522L561.82 48.1887L562.79 48.8253L563.76 49.4618L564.73 50.0983L565.7 50.7349L566.67 51.3714L567.64 52.008L568.61 52.6445L569.58 53.2811L570.55 53.9176L571.52 54.5541L572.49 55.1907L573.46 55.8272L574.43 56.4638L575.4 57.1003L576.223 57.6409L576.476 57.5853L578.178 57.2216L579.881 56.8578L581.583 56.4941L583.104 56.1708L582.24 55.6049L581.27 54.9684L580.3 54.3319L579.33 53.6953L578.36 53.0588L577.39 52.4222L576.42 51.7857L575.45 51.1491L574.48 50.5126L573.51 49.8761L572.54 49.2395L571.57 48.603L570.6 47.9664L569.63 47.3299L568.66 46.6933L567.69 46.0568L566.72 45.4202L565.75 44.7837L564.78 44.1472L563.81 43.5106L562.84 42.8741L561.871 42.2375L560.901 41.601L559.931 40.9644L558.961 40.3279L557.991 39.6914L557.021 39.0548L556.051 38.4183L555.081 37.7817L554.111 37.1452L553.141 36.5086L552.171 35.8721L551.201 35.2356L550.231 34.599L549.261 33.9625L548.291 33.3259L547.993 33.1289L547.988 33.1441ZM547.902 33.6038L548.048 33.6998L549.018 34.3363L549.988 34.9729L550.958 35.6094L551.928 36.2459L552.898 36.8825L553.868 37.519L554.838 38.1556L555.808 38.7921L556.778 39.4287L557.748 40.0652L558.718 40.7017L559.688 41.3383L560.658 41.9748L561.628 42.6114L562.598 43.2479L563.568 43.8845L564.538 44.521L565.508 45.1575L566.478 45.7941L567.448 46.4306L568.418 47.0672L569.388 47.7037L570.358 48.3403L571.328 48.9768L572.298 49.6134L573.268 50.2499L574.238 50.8864L575.208 51.523L576.178 52.1595L577.148 52.7961L578.118 53.4326L579.087 54.0692L580.057 54.7057L581.027 55.3422L581.992 55.9737L581.492 56.0798L579.79 56.4436L578.087 56.8073L576.385 57.171L576.309 57.1862L575.637 56.7416L574.667 56.1051L573.697 55.4685L572.727 54.832L571.757 54.1955L570.787 53.5589L569.817 52.9224L568.847 52.2858L567.877 51.6493L566.907 51.0127L565.937 50.3762L564.967 49.7397L563.997 49.1031L563.027 48.4666L562.057 47.83L561.087 47.1935L560.118 46.5569L559.148 45.9204L558.178 45.2838L557.208 44.6473L556.238 44.0108L555.268 43.3742L554.298 42.7377L553.328 42.1011L552.358 41.4646L551.388 40.828L550.418 40.1915L549.448 39.555L548.478 38.9184L547.508 38.2819L546.538 37.6453L545.568 37.0088L544.598 36.3722L543.628 35.7357L542.658 35.0992L542.224 34.8162L543.492 34.5485L545.194 34.1848L546.897 33.8261L547.897 33.6139L547.902 33.6038Z" fill="white"/>
<path d="M440.356 56.2089L439.442 56.4008L437.74 56.7595L436.037 57.1182L434.335 57.4769L433.865 57.5779L434.143 57.7396L435.148 58.3256L436.153 58.9116L437.159 59.4977L438.164 60.0837L439.169 60.6697L440.175 61.2557L441.18 61.8418L442.185 62.4278L443.191 63.0138L444.196 63.5998L445.201 64.1859L446.207 64.7719L446.843 65.1407L445.767 65.368L444.065 65.7317L442.842 65.9894L442.579 65.7924L441.655 65.1003L440.725 64.4081L439.801 63.716L438.876 63.0239L437.952 62.3318L437.027 61.6397L436.103 60.9476L435.178 60.2555L434.254 59.5633L433.329 58.8712L432.405 58.1791L432.117 57.9619L430.945 58.2094L429.242 58.5681L427.54 58.9268L425.837 59.2905L425.625 59.336L425.736 59.4219L426.656 60.1241L427.575 60.8263L428.494 61.5285L429.414 62.2308L430.333 62.933L431.253 63.6352L432.172 64.3374L433.092 65.0396L434.011 65.7419L434.931 66.4441L435.85 67.1463L436.77 67.8485L437.689 68.5507L438.608 69.2529L439.528 69.9552L440.447 70.6574L441.367 71.3596L442.286 72.0618L443.206 72.764L444.125 73.4662L445.045 74.1685L445.964 74.8707L446.884 75.5729L447.803 76.2751L448.722 76.9773L449.642 77.6796L450.561 78.3818L451.481 79.084L452.4 79.7862L453.32 80.4884L454.239 81.1906L455.159 81.8929L456.078 82.5951L456.811 83.1558L457.159 83.0801L458.862 82.7214L460.564 82.3576L462.267 81.999L463.823 81.6706L462.979 81.034L462.054 80.3369L461.13 79.6397L460.205 78.9425L459.281 78.2454L458.356 77.5482L457.432 76.851L456.507 76.1539L455.583 75.4567L454.658 74.7595L453.734 74.0624L453.623 73.9815L453.825 73.9411L455.527 73.5774L457.23 73.2187L458.932 72.855L459.867 72.6579L460.322 72.9206L461.327 73.5016L462.332 74.0826L463.338 74.6636L464.343 75.2445L465.348 75.8255L466.354 76.4065L467.359 76.9874L468.364 77.5684L469.37 78.1494L470.375 78.7304L471.38 79.3113L472.285 79.8317L472.461 79.7963L474.164 79.4326L475.866 79.0688L477.569 78.7051L479.271 78.3414H479.287L479.276 78.3363L478.266 77.7604L477.256 77.1845L476.245 76.6085L475.235 76.0326L474.225 75.4567L473.214 74.8808L472.204 74.3049L471.193 73.729L470.183 73.153L469.173 72.5771L468.162 72.0012L467.152 71.4253L466.141 70.8493L465.131 70.2734L464.121 69.6975L463.11 69.1216L462.1 68.5457L461.09 67.9697L460.079 67.3938L459.069 66.8179L458.058 66.242L457.048 65.6661L456.038 65.0901L455.027 64.5142L454.017 63.9383L453.006 63.3624L451.996 62.7865L450.986 62.2105L449.975 61.6346L448.965 61.0587L447.955 60.4828L446.944 59.9069L445.934 59.331L444.923 58.755L443.913 58.1791L442.903 57.6032L441.892 57.0273L440.882 56.4513L440.412 56.1836L440.356 56.2089ZM440.281 56.6635L440.604 56.8505L441.614 57.4264L442.625 58.0023L443.635 58.5782L444.646 59.1541L445.656 59.7301L446.666 60.306L447.677 60.8819L448.687 61.4578L449.697 62.0337L450.708 62.6096L451.718 63.1856L452.729 63.7615L453.739 64.3374L454.749 64.9133L455.76 65.4893L456.77 66.0652L457.781 66.6411L458.791 67.217L459.801 67.7929L460.812 68.3689L461.822 68.9448L462.832 69.5207L463.843 70.0966L464.853 70.6725L465.864 71.2485L466.874 71.8244L467.884 72.4003L468.895 72.9762L469.905 73.5521L470.916 74.128L471.926 74.704L472.936 75.2799L473.947 75.8558L474.957 76.4317L475.967 77.0076L476.978 77.5836L477.988 78.1595L478.019 78.1746L477.417 78.3009L475.715 78.6647L474.012 79.0284L472.31 79.3922H472.3L471.542 78.9577L470.537 78.3767L469.531 77.7957L468.526 77.2148L467.521 76.6338L466.515 76.0528L465.51 75.4719L464.505 74.8909L463.499 74.3099L462.494 73.729L461.489 73.148L460.483 72.567L460.029 72.3043L459.882 72.2184L459.72 72.2538L458.786 72.4508L457.083 72.8146L455.381 73.1783L453.678 73.537L453.476 73.5824L452.542 73.7795L453.305 74.3554L453.416 74.4362L454.34 75.1334L455.265 75.8305L456.189 76.5277L457.114 77.2249L458.038 77.922L458.963 78.6192L459.887 79.3164L460.812 80.0136L461.736 80.7107L462.661 81.4079L462.747 81.4685L462.125 81.5999L460.423 81.9585L458.72 82.3172L457.018 82.681L456.866 82.7113L456.295 82.2718L455.376 81.5695L454.456 80.8673L453.537 80.1651L452.617 79.4629L451.698 78.7607L450.779 78.0584L449.859 77.3562L448.94 76.654L448.02 75.9518L447.101 75.2496L446.181 74.5474L445.262 73.8451L444.342 73.1429L443.423 72.4407L442.503 71.7385L441.584 71.0363L440.665 70.3341L439.745 69.6318L438.826 68.9296L437.906 68.2274L436.987 67.5252L436.067 66.823L435.148 66.1207L434.228 65.4185L433.309 64.7163L432.39 64.0141L431.47 63.3119L430.551 62.6096L429.631 61.9074L428.712 61.2052L427.792 60.503L426.873 59.8008L426.59 59.5835L427.58 59.3764L429.283 59.0127L430.985 58.654L431.965 58.4469L432.097 58.5429L433.026 59.235L433.951 59.9271L434.875 60.6192L435.8 61.3113L436.724 62.0034L437.649 62.6955L438.573 63.3877L439.498 64.0798L440.422 64.7719L441.352 65.464L442.276 66.1561L442.539 66.3531L442.695 66.4693L442.887 66.4289L444.11 66.1713L445.813 65.8075L446.889 65.5802L447.99 65.3478L447.02 64.782L446.383 64.4132L445.378 63.8272L444.373 63.2411L443.367 62.6551L442.362 62.0691L441.357 61.4831L440.351 60.897L439.346 60.311L438.341 59.725L437.335 59.139L436.33 58.5529L435.325 57.9669L435.011 57.7851L436.082 57.5577L437.785 57.194L439.487 56.8353L440.24 56.6736L440.281 56.6635Z" fill="white"/>
<path d="M414.78 61.9328L407.899 63.3978L413.123 66.8231L414.093 67.4596L415.063 68.0961L416.033 68.7327L417.003 69.3692L417.973 70.0058L418.943 70.6423L419.913 71.2789L420.883 71.9154L421.853 72.5519L422.823 73.1885L423.793 73.825L424.763 74.4616L425.167 74.7243C425.359 74.8556 425.546 74.9819 425.723 75.1082C426.061 75.3507 426.364 75.5831 426.642 75.8104C426.844 75.9771 427.036 76.1388 427.203 76.3005C427.309 76.4015 427.405 76.4975 427.501 76.5935C427.819 76.9219 428.072 77.2351 428.254 77.5281C428.425 77.8009 428.536 78.0585 428.572 78.2808C428.658 78.8214 428.385 79.2003 427.668 79.3518L426.768 79.5438L425.066 79.9075L424.217 80.0894L423.732 79.7711L422.762 79.1346L421.792 78.4981L420.822 77.8615L419.852 77.225L418.882 76.5884L417.912 75.9519L416.942 75.3153L415.972 74.6788L415.002 74.0423L414.032 73.4057L413.062 72.7692L412.092 72.1326L411.122 71.4961L410.152 70.8595L401.014 64.8528L394.133 66.328L407.182 74.896L408.152 75.5326L409.122 76.1691L410.092 76.8057L411.062 77.4422L412.032 78.0788L413.002 78.7153L413.972 79.3518L414.942 79.9884L415.912 80.6249L416.882 81.2615L417.852 81.898L418.822 82.5346L419.792 83.1711L420.762 83.8076L421.732 84.4442L422.701 85.0807L423.671 85.7173L424.641 86.3538L425.611 86.9904L426.581 87.6269L427.551 88.2634L428.521 88.9L429.218 89.3547L429.693 89.2536L431.396 88.8899L433.098 88.5261L434.801 88.1624L436.503 87.7987L438.206 87.4349L439.54 87.152C439.676 87.1217 439.797 87.0914 439.924 87.056C441.111 86.7327 441.853 86.1618 442.156 85.3838C442.328 84.9393 442.359 84.4341 442.257 83.8784C442.182 83.4591 442.03 83.0145 441.803 82.5396C441.636 82.186 441.424 81.8172 441.176 81.4383C440.969 81.12 440.732 80.7916 440.464 80.4532C440.393 80.3622 440.323 80.2713 440.247 80.1803C440.075 79.9732 439.888 79.761 439.696 79.5438C439.444 79.2609 439.176 78.978 438.888 78.69C438.62 78.4223 438.342 78.1545 438.049 77.8817C437.771 77.6241 437.483 77.3664 437.185 77.1088C436.897 76.8612 436.604 76.6137 436.296 76.3611C436.003 76.1237 435.7 75.8812 435.387 75.6437C435.089 75.4113 434.781 75.1789 434.462 74.9466C434.159 74.7243 433.846 74.4969 433.523 74.2696C433.215 74.0524 432.896 73.8351 432.568 73.6128C432.396 73.4966 432.224 73.3805 432.053 73.2643L431.603 72.9713L430.633 72.3347L429.663 71.6982L428.693 71.0616L427.723 70.4251L426.753 69.7885L425.783 69.152L424.813 68.5154L423.843 67.8789L422.873 67.2424L421.903 66.6058L420.933 65.9693L419.963 65.3327L418.993 64.6962L418.023 64.0596L417.053 63.4231L416.083 62.7866L414.775 61.9277L414.78 61.9328ZM414.694 62.3976L415.851 63.1553L416.821 63.7919L417.791 64.4284L418.761 65.065L419.731 65.7015L420.701 66.3381L421.671 66.9746L422.641 67.6112L423.611 68.2477L424.581 68.8842L425.551 69.5208L426.521 70.1573L427.491 70.7939L428.461 71.4304L429.431 72.067L430.401 72.7035L431.371 73.34L431.815 73.6331C431.992 73.7492 432.159 73.8604 432.33 73.9766C432.654 74.1938 432.967 74.4111 433.275 74.6283C433.593 74.8506 433.907 75.0729 434.205 75.3002C434.518 75.5326 434.826 75.7599 435.119 75.9923C435.442 76.2449 435.741 76.4773 436.018 76.7046C436.311 76.9421 436.594 77.1846 436.897 77.4422C437.19 77.6999 437.478 77.9525 437.751 78.2101C438.039 78.4779 438.317 78.7456 438.58 79.0083C438.858 79.2912 439.125 79.5691 439.373 79.8469C439.58 80.0793 439.757 80.2814 439.908 80.4683C439.974 80.5491 440.04 80.63 440.1 80.7108L440.121 80.7361C440.378 81.0594 440.611 81.3827 440.813 81.6909C441.05 82.0496 441.252 82.4032 441.409 82.7417C441.616 83.1812 441.757 83.5904 441.828 83.9693C441.914 84.4543 441.889 84.8786 441.752 85.2373C441.495 85.889 440.843 86.3639 439.807 86.6468C439.691 86.6771 439.575 86.7125 439.449 86.7378L438.115 87.0207L436.412 87.3844L434.71 87.7481L433.007 88.1119L431.305 88.4756L429.602 88.8394L429.304 88.905L428.759 88.5464L427.789 87.9098L426.819 87.2733L425.849 86.6367L424.879 86.0002L423.909 85.3636L422.939 84.7271L421.969 84.0905L420.999 83.454L420.029 82.8175L419.059 82.1809L418.089 81.5444L417.119 80.9078L416.149 80.2713L415.179 79.6347L414.209 78.9982L413.239 78.3617L412.269 77.7251L411.299 77.0886L410.329 76.452L409.359 75.8155L408.389 75.1789L407.419 74.5424L395.234 66.5452L400.923 65.3277L409.91 71.2334L410.88 71.8699L411.85 72.5065L412.82 73.143L413.79 73.7796L414.76 74.4161L415.73 75.0526L416.7 75.6892L417.67 76.3257L418.64 76.9623L419.61 77.5988L420.58 78.2354L421.55 78.8719L422.52 79.5084L423.49 80.145L423.975 80.4633L424.126 80.5643L424.303 80.5289L425.147 80.3471L426.849 79.9833L427.748 79.7914C429.047 79.5135 429.052 78.6042 428.991 78.2202C428.946 77.9424 428.814 77.6392 428.612 77.3058C428.41 76.9825 428.137 76.644 427.804 76.3005C427.708 76.1994 427.602 76.0984 427.491 75.9923C427.329 75.8407 427.142 75.6791 426.91 75.4871C426.607 75.2396 426.298 75.0021 425.97 74.7647C425.788 74.6333 425.601 74.507 425.399 74.3706L424.995 74.1079L424.025 73.4714L423.055 72.8348L422.085 72.1983L421.115 71.5618L420.145 70.9252L419.175 70.2887L418.205 69.6521L417.235 69.0156L416.265 68.379L415.295 67.7425L414.325 67.106L413.355 66.4694L409.001 63.6151L414.689 62.4026L414.694 62.3976Z" fill="white"/>
<path d="M498.314 43.8023L497.374 43.9993L495.671 44.363L493.969 44.7217L492.266 45.0855L490.564 45.4441L488.861 45.8079L487.159 46.1666L485.456 46.5303L483.754 46.889L482.703 47.1113L483.299 47.5053L484.269 48.1419L485.239 48.7784L486.209 49.415L487.179 50.0515L488.149 50.688L489.119 51.3246L490.089 51.9611L491.059 52.5977L492.029 53.2342L492.999 53.8708L493.969 54.5073L494.939 55.1438L495.909 55.7804L496.879 56.4169L497.849 57.0535L498.819 57.69L499.789 58.3266L500.759 58.9631L501.729 59.5996L502.699 60.2362L503.669 60.8727L504.639 61.5093L505.609 62.1458L506.579 62.7824L507.549 63.4189L508.518 64.0554L509.488 64.692L510.458 65.3285L511.428 65.9651L512.398 66.6016L513.368 67.2382L514.338 67.8747L515.308 68.5113L516.278 69.1478L517.248 69.7843L517.809 70.1531L518.526 70.0016L520.229 69.6429L521.931 69.2842L523.634 68.9255L524.69 68.7032L524.089 68.3092L523.119 67.6726L522.149 67.0361L521.179 66.3995L520.209 65.763L519.239 65.1265L518.269 64.4899L517.299 63.8534L516.329 63.2168L515.359 62.5803L514.389 61.9437L513.419 61.3072L512.449 60.6707L511.479 60.0341L510.509 59.3976L509.539 58.761L508.569 58.1245L507.599 57.4879L506.629 56.8514L505.659 56.2149L504.689 55.5783L503.719 54.9418L502.749 54.3052L501.779 53.6687L500.809 53.0321L499.839 52.3956L498.869 51.7591L497.899 51.1225L496.929 50.486L495.959 49.8494L495.52 49.5615L496.288 49.3948L497.99 49.031L498.051 49.0159L499.041 49.5514L500.072 50.1071L501.102 50.6628L502.133 51.2185L503.163 51.7742L504.194 52.3299L505.225 52.8856L506.255 53.4413L507.286 53.9971L508.316 54.5528L509.347 55.1085L510.373 55.6642L511.403 56.2199L512.434 56.7756L513.464 57.3313L514.495 57.887L515.526 58.4428L516.556 58.9985L517.587 59.5542L518.617 60.1099L519.648 60.6656L520.678 61.2213L521.709 61.777L522.74 62.3327L523.77 62.8885L524.801 63.4442L525.831 63.9999L526.862 64.5556L527.893 65.1113L528.923 65.667L529.954 66.2227L530.984 66.7784L531.793 67.218L532.151 67.1422L533.854 66.7784L535.556 66.4147L537.259 66.051L538.926 65.6973L537.921 65.1517L536.89 64.596L535.86 64.0403L534.834 63.4846L533.803 62.9289L532.773 62.3732L531.742 61.8174L530.712 61.2617L529.681 60.706L528.65 60.1503L527.62 59.5946L526.589 59.0389L525.559 58.4832L524.528 57.9275L523.497 57.3717L522.467 56.816L521.436 56.2603L520.406 55.7046L519.375 55.1489L518.345 54.5932L517.314 54.0375L516.283 53.4818L515.253 52.926L514.222 52.3703L513.192 51.8146L512.161 51.2589L511.13 50.7032L510.1 50.1475L509.069 49.5918L508.039 49.0361L507.008 48.4804L505.977 47.9246L504.947 47.3689L503.916 46.8132L502.886 46.2575L501.855 45.7018L500.824 45.1461L499.794 44.5904L498.763 44.0347L498.303 43.7871L498.314 43.8023ZM498.248 44.2569L498.571 44.4287L499.602 44.9844L500.632 45.5401L501.663 46.0958L502.694 46.6516L503.724 47.2073L504.755 47.763L505.785 48.3187L506.816 48.8744L507.847 49.4301L508.877 49.9858L509.908 50.5415L510.938 51.0973L511.969 51.653L513 52.2087L514.03 52.7644L515.061 53.3201L516.091 53.8758L517.122 54.4315L518.153 54.9872L519.183 55.543L520.214 56.0987L521.244 56.6544L522.275 57.2101L523.305 57.7658L524.336 58.3215L525.367 58.8772L526.397 59.4329L527.428 59.9886L528.458 60.5444L529.489 61.1001L530.52 61.6558L531.55 62.2115L532.581 62.7672L533.611 63.3229L534.642 63.8786L535.673 64.4343L536.703 64.9901L537.698 65.5256L537.188 65.6317L535.486 65.9903L533.783 66.3541L532.081 66.7128L531.879 66.7582L531.207 66.3995L530.176 65.8438L529.146 65.2881L528.115 64.7324L527.084 64.1767L526.059 63.621L525.028 63.0653L523.998 62.5096L522.967 61.9538L521.936 61.3981L520.906 60.8424L519.875 60.2867L518.845 59.731L517.814 59.1753L516.783 58.6196L515.753 58.0639L514.722 57.5082L513.692 56.9524L512.661 56.3967L511.636 55.841L510.605 55.2853L509.574 54.7296L508.544 54.1739L507.513 53.6182L506.483 53.0625L505.452 52.5067L504.426 51.951L503.396 51.3953L502.365 50.8396L501.335 50.2839L500.304 49.7282L499.279 49.1725L498.288 48.637L498.147 48.5612L497.99 48.5965L497.93 48.6117L496.227 48.9754L495.459 49.1422L494.444 49.3594L495.313 49.9303L495.752 50.2182L496.722 50.8548L497.692 51.4913L498.662 52.1278L499.632 52.7644L500.602 53.4009L501.572 54.0375L502.542 54.674L503.512 55.3106L504.482 55.9471L505.452 56.5836L506.422 57.2202L507.392 57.8567L508.362 58.4933L509.332 59.1298L510.302 59.7664L511.272 60.4029L512.242 61.0394L513.212 61.676L514.182 62.3125L515.152 62.9491L516.122 63.5856L517.092 64.2222L518.062 64.8587L519.032 65.4953L520.002 66.1318L520.971 66.7683L521.941 67.4049L522.911 68.0414L523.614 68.5011L523.573 68.5113L521.871 68.875L520.168 69.2337L518.466 69.5924L517.925 69.7086L517.516 69.4408L516.546 68.8043L515.576 68.1677L514.606 67.5312L513.636 66.8946L512.666 66.2581L511.696 65.6215L510.726 64.985L509.756 64.3485L508.786 63.7119L507.816 63.0754L506.846 62.4388L505.876 61.8023L504.906 61.1657L503.936 60.5292L502.966 59.8927L501.996 59.2561L501.026 58.6196L500.057 57.983L499.087 57.3465L498.117 56.7099L497.147 56.0734L496.177 55.4369L495.207 54.8003L494.237 54.1638L493.267 53.5272L492.297 52.8907L491.327 52.2541L490.357 51.6176L489.387 50.9811L488.417 50.3445L487.447 49.708L486.477 49.0714L485.507 48.4349L484.537 47.7983L483.84 47.3437H483.87L485.573 46.9749L487.275 46.6162L488.978 46.2524L490.68 45.8938L492.383 45.53L494.085 45.1713L495.788 44.8076L497.49 44.4489L498.273 44.2822L498.248 44.2569Z" fill="white"/>
<path d="M471.341 49.9062L469.83 50.2296L468.128 50.5933L466.425 50.952L464.723 51.3157L463.02 51.6744L461.318 52.0382L459.615 52.3969L457.913 52.7555L456.21 53.1193L454.508 53.483L453.32 53.7356L453.997 54.1802L454.967 54.8167L455.937 55.4533L456.907 56.0898L457.877 56.7264L458.847 57.3629L459.817 57.9994L460.787 58.636L461.757 59.2725L462.727 59.9091L463.697 60.5456L464.667 61.1822L465.637 61.8187L466.607 62.4552L467.577 63.0918L468.547 63.7283L469.517 64.3649L470.487 65.0014L471.457 65.638L472.427 66.2745L473.397 66.911L474.367 67.5476L475.337 68.1841L476.307 68.8207L477.277 69.4572L478.247 70.0938L479.216 70.7303L480.186 71.3668L481.156 72.0034L482.126 72.6399L483.096 73.2765L484.066 73.913L485.036 74.5496L486.006 75.1861L486.976 75.8226L487.946 76.4592L488.431 76.7775L489.28 76.5956L490.982 76.2369L492.685 75.8782L494.387 75.5195L495.312 75.3225L494.787 74.979L493.817 74.3424L492.847 73.7059L491.877 73.0693L490.907 72.4328L489.937 71.7963L488.967 71.1597L487.997 70.5232L487.027 69.8866L486.057 69.2501L485.087 68.6135L484.117 67.977L483.147 67.3405L482.177 66.7039L481.207 66.0674L480.237 65.4308L479.267 64.7943L478.297 64.1577L477.327 63.5212L476.357 62.8847L475.387 62.2481L474.417 61.6116L473.447 60.975L472.477 60.3385L471.507 59.7019L470.537 59.0654L469.567 58.4289L468.597 57.7923L467.627 57.1558L466.657 56.5192L466.147 56.1858L467.041 55.9938L467.102 55.9787L468.107 56.499L469.148 57.0345L470.189 57.57L471.229 58.1055L472.27 58.641L473.311 59.1765L474.351 59.712L475.392 60.2475L476.433 60.783L477.474 61.3186L478.514 61.8541L479.555 62.3896L480.596 62.9251L481.636 63.4606L482.677 63.9961L483.718 64.5316L484.758 65.0671L485.799 65.6026L486.84 66.1381L487.881 66.6736L488.921 67.2091L489.962 67.7446L491.003 68.2801L492.043 68.8156L493.084 69.3511L494.125 69.8866L495.165 70.4221L496.206 70.9576L497.247 71.4931L498.288 72.0286L499.328 72.5642L500.369 73.0997L501.41 73.6352L501.839 73.8574L502.839 73.6453L504.542 73.2815L506.244 72.9178L507.947 72.554L509.094 72.3116L508.391 71.9478L507.351 71.4123L506.31 70.8768L505.269 70.3413L504.229 69.8058L503.188 69.2703L502.147 68.7348L501.107 68.1993L500.066 67.6638L499.025 67.1283L497.984 66.5928L496.944 66.0573L495.903 65.5218L494.862 64.9863L493.822 64.4508L492.781 63.9153L491.74 63.3797L490.7 62.8442L489.659 62.3087L488.618 61.7732L487.577 61.2377L486.537 60.7022L485.496 60.1667L484.455 59.6312L483.415 59.0957L482.374 58.5602L481.333 58.0247L480.293 57.4892L479.252 56.9537L478.211 56.4182L477.17 55.8827L476.13 55.3472L475.089 54.8117L474.048 54.2762L473.008 53.7407L472.285 53.3668C472.336 53.1546 472.351 52.9273 472.346 52.6899C472.336 52.2352 472.22 51.735 472.002 51.1995C471.856 50.8308 471.659 50.4468 471.416 50.0427C471.391 50.0022 471.371 49.9618 471.346 49.9214M471.123 50.3963C471.315 50.7247 471.472 51.0429 471.593 51.346C471.79 51.8361 471.891 52.2857 471.901 52.6848C471.906 52.897 471.891 53.089 471.851 53.2557L471.775 53.5841L472.073 53.7356L472.796 54.1095L473.836 54.645L474.877 55.1805L475.918 55.716L476.958 56.2515L477.999 56.787L479.04 57.3225L480.08 57.858L481.121 58.3935L482.162 58.929L483.202 59.4645L484.243 60L485.284 60.5355L486.325 61.071L487.365 61.6065L488.406 62.142L489.447 62.6775L490.487 63.213L491.528 63.7485L492.569 64.284L493.609 64.8195L494.65 65.355L495.691 65.8906L496.732 66.4261L497.772 66.9616L498.813 67.4971L499.854 68.0326L500.894 68.5681L501.935 69.1036L502.976 69.6391L504.016 70.1746L505.057 70.7101L506.098 71.2456L507.139 71.7811L507.8 72.1246L506.138 72.4783L504.436 72.842L502.733 73.2057L501.885 73.3876L501.591 73.2361L500.551 72.7006L499.51 72.165L498.469 71.6295L497.429 71.094L496.388 70.5585L495.347 70.023L494.307 69.4875L493.266 68.952L492.225 68.4165L491.185 67.881L490.144 67.3455L489.103 66.81L488.062 66.2745L487.022 65.739L485.981 65.2035L484.94 64.668L483.9 64.1325L482.859 63.597L481.818 63.0615L480.778 62.526L479.737 61.9905L478.696 61.455L477.655 60.9195L476.615 60.384L475.574 59.8484L474.533 59.3129L473.493 58.7774L472.452 58.2419L471.411 57.7064L470.371 57.1709L469.33 56.6354L468.289 56.0999L467.284 55.5796L467.147 55.5088L466.996 55.5392L466.935 55.5543L466.041 55.7463L465.026 55.9635L465.895 56.5344L466.405 56.8678L467.375 57.5044L468.345 58.1409L469.315 58.7774L470.285 59.414L471.255 60.0505L472.225 60.6871L473.195 61.3236L474.165 61.9601L475.135 62.5967L476.105 63.2332L477.074 63.8698L478.044 64.5063L479.014 65.1429L479.984 65.7794L480.954 66.416L481.924 67.0525L482.894 67.689L483.864 68.3256L484.834 68.9621L485.804 69.5987L486.774 70.2352L487.744 70.8718L488.714 71.5083L489.684 72.1448L490.654 72.7814L491.624 73.4179L492.594 74.0545L493.564 74.691L494.19 75.1002L492.584 75.4387L490.881 75.7974L489.179 76.1561L488.502 76.2975L488.169 76.0803L487.199 75.4438L486.229 74.8072L485.259 74.1707L484.289 73.5341L483.319 72.8976L482.349 72.261L481.379 71.6245L480.409 70.988L479.439 70.3514L478.469 69.7149L477.499 69.0783L476.529 68.4418L475.559 67.8052L474.589 67.1687L473.619 66.5321L472.649 65.8956L471.679 65.2591L470.709 64.6225L469.739 63.986L468.769 63.3494L467.799 62.7129L466.829 62.0764L465.859 61.4398L464.889 60.8033L463.919 60.1667L462.949 59.5302L461.979 58.8936L461.009 58.2571L460.039 57.6205L459.069 56.984L458.099 56.3475L457.129 55.7109L456.159 55.0744L455.19 54.4378L454.417 53.9276L454.583 53.8922L456.286 53.5285L457.988 53.1647L459.691 52.801L461.393 52.4423L463.096 52.0786L464.798 51.7199L466.501 51.3612L468.203 50.9975L469.906 50.6388L471.113 50.3811L471.123 50.3963Z" fill="white"/>
<path d="M578.176 26.9141L577.266 27.106L575.564 27.4698L573.861 27.8335L572.159 28.1973L571.295 28.3842L571.785 28.7075L572.755 29.344L573.725 29.9806L574.695 30.6171L575.665 31.2537L576.635 31.8902L577.605 32.5268L578.575 33.1633L579.545 33.7998L580.515 34.4364L581.485 35.0729L582.455 35.7095L583.425 36.346L584.395 36.9826L585.365 37.6191L586.335 38.2556L587.305 38.8922L588.275 39.5287L588.562 39.7207C588.8 39.8773 589.017 40.0339 589.229 40.1855C589.563 40.428 589.871 40.6654 590.144 40.8927C590.305 41.0292 590.457 41.1656 590.603 41.2969C590.745 41.4283 590.876 41.5596 590.992 41.691C591.311 42.0294 591.558 42.3528 591.725 42.6458C591.851 42.8731 591.937 43.0853 591.967 43.2773C592.053 43.8178 591.781 44.1967 591.063 44.3483L590.366 44.4948L588.664 44.8585L587.618 45.0808L587.244 44.8333L586.274 44.1967L585.304 43.5602L584.334 42.9236L583.364 42.2871L582.394 41.6505L581.424 41.014L580.454 40.3775L579.484 39.7409L578.514 39.1044L577.544 38.4678L576.574 37.8313L575.604 37.1947L574.634 36.5582L573.664 35.9217L572.694 35.2851L571.724 34.6486L570.754 34.012L569.784 33.3755L568.815 32.7389L567.845 32.1024L566.875 31.4659L565.905 30.8293L564.935 30.1928L564.394 29.8391L563.641 30.0008L561.939 30.3645L560.236 30.7283L558.534 31.092L557.523 31.3092L558.099 31.6881L559.069 32.3247L560.039 32.9612L561.009 33.5978L561.979 34.2343L562.949 34.8709L563.919 35.5074L564.889 36.1439L565.859 36.7805L566.829 37.417L567.799 38.0536L568.769 38.6901L569.739 39.3267L570.709 39.9632L571.679 40.5997L572.649 41.2363L573.619 41.8728L574.589 42.5094L575.559 43.1459L576.529 43.7825L577.499 44.419L578.469 45.0555L579.439 45.6921L580.409 46.3286L581.379 46.9652L582.349 47.6017L583.319 48.2383L584.289 48.8748L585.259 49.5113L586.228 50.1479L587.198 50.7844L588.168 51.421L589.138 52.0575L590.108 52.6941L591.078 53.3306L592.048 53.9671L592.629 54.3511L593.306 54.2096L595.009 53.8459L596.711 53.4822L598.414 53.1184L600.116 52.7547L601.819 52.3909L602.95 52.1484C603.163 52.103 603.36 52.0474 603.547 51.9918C604.607 51.6584 605.279 51.1128 605.567 50.3853C605.719 49.9913 605.764 49.5518 605.699 49.0668C605.643 48.6374 605.502 48.1726 605.279 47.6825C605.118 47.3239 604.911 46.95 604.668 46.5661C604.461 46.2427 604.229 45.9093 603.966 45.5708C603.87 45.4445 603.764 45.3182 603.658 45.1869C603.516 45.0101 603.36 44.8333 603.203 44.6564C602.955 44.3735 602.688 44.0856 602.4 43.7976C602.137 43.5299 601.859 43.2571 601.566 42.9842C601.293 42.7266 601.005 42.4639 600.702 42.2063C600.419 41.9587 600.121 41.7061 599.818 41.4586C599.525 41.2211 599.222 40.9786 598.914 40.7361C598.616 40.5038 598.308 40.2714 597.994 40.039C597.691 39.8167 597.378 39.5894 597.055 39.362C596.747 39.1448 596.428 38.9225 596.105 38.7053C595.898 38.5638 595.686 38.4224 595.474 38.286L595.14 38.0687L594.17 37.4322L593.2 36.7956L592.23 36.1591L591.26 35.5225L590.29 34.886L589.32 34.2495L588.35 33.6129L587.38 32.9764L586.41 32.3398L585.44 31.7033L584.47 31.0667L583.5 30.4302L582.53 29.7937L581.561 29.1571L580.591 28.5206L579.621 27.884L578.651 27.2475L578.201 26.9494L578.176 26.9141ZM578.09 27.3738L578.388 27.5708L579.358 28.2074L580.328 28.8439L581.298 29.4804L582.268 30.117L583.238 30.7535L584.208 31.3901L585.178 32.0266L586.148 32.6632L587.118 33.2997L588.088 33.9362L589.058 34.5728L590.028 35.2093L590.998 35.8459L591.967 36.4824L592.937 37.119L593.907 37.7555L594.877 38.392L595.211 38.6093C595.423 38.7507 595.63 38.8871 595.837 39.0286C596.161 39.2458 596.474 39.4631 596.782 39.6803C597.1 39.9026 597.408 40.1299 597.712 40.3522C598.025 40.5846 598.328 40.817 598.626 41.0443C598.954 41.302 599.247 41.5343 599.52 41.7566C599.813 41.9991 600.106 42.2467 600.394 42.4993C600.682 42.7468 600.965 43.0095 601.243 43.2672C601.531 43.5349 601.809 43.8077 602.066 44.0704C602.344 44.3533 602.612 44.6413 602.854 44.9141C603.011 45.0909 603.163 45.2627 603.299 45.4344C603.4 45.5607 603.501 45.687 603.597 45.8083C603.845 46.1265 604.072 46.4499 604.279 46.7732C604.516 47.142 604.714 47.5007 604.86 47.8392C605.062 48.2938 605.193 48.7182 605.244 49.1021C605.3 49.5164 605.264 49.8902 605.138 50.2085C604.9 50.8198 604.309 51.2745 603.39 51.5624C603.193 51.623 603.011 51.6736 602.834 51.7089L601.703 51.9514L600 52.3152L598.298 52.6789L596.595 53.0426L594.893 53.4064L593.19 53.7701L592.69 53.8762L592.255 53.5933L591.285 52.9568L590.316 52.3202L589.346 51.6837L588.376 51.0471L587.406 50.4106L586.436 49.774L585.466 49.1375L584.496 48.501L583.526 47.8644L582.556 47.2279L581.586 46.5913L580.616 45.9548L579.646 45.3182L578.676 44.6817L577.706 44.0452L576.736 43.4086L575.766 42.7721L574.796 42.1355L573.826 41.499L572.856 40.8624L571.886 40.2259L570.916 39.5894L569.946 38.9528L568.976 38.3163L568.006 37.6797L567.036 37.0432L566.066 36.4066L565.096 35.7701L564.126 35.1336L563.156 34.497L562.186 33.8605L561.216 33.2239L560.246 32.5874L559.276 31.9508L558.6 31.5063L560.302 31.1425L562.004 30.7788L563.707 30.415L564.283 30.2888L564.672 30.5464L565.642 31.1829L566.612 31.8195L567.582 32.456L568.552 33.0926L569.522 33.7291L570.492 34.3657L571.462 35.0022L572.432 35.6387L573.402 36.2753L574.372 36.9118L575.342 37.5484L576.312 38.1849L577.282 38.8215L578.252 39.458L579.221 40.0945L580.191 40.7311L581.161 41.3676L582.131 42.0042L583.101 42.6407L584.071 43.2773L585.041 43.9138L586.011 44.5503L586.981 45.1869L587.355 45.4344L587.507 45.5355L587.683 45.5001L588.729 45.2778L590.432 44.9141L591.129 44.7676C592.427 44.4897 592.432 43.5804 592.372 43.1964C592.331 42.959 592.23 42.7013 592.079 42.4235C591.897 42.1002 591.629 41.7516 591.285 41.3828C591.139 41.2262 591.008 41.0948 590.871 40.9685C590.73 40.8372 590.568 40.6957 590.396 40.5492C590.118 40.3168 589.805 40.0693 589.457 39.8217C589.224 39.65 589.002 39.4984 588.775 39.3469L588.487 39.1549L587.517 38.5183L586.547 37.8818L585.577 37.2453L584.607 36.6087L583.637 35.9722L582.667 35.3356L581.697 34.6991L580.727 34.0625L579.757 33.426L578.787 32.7895L577.817 32.1529L576.847 31.5164L575.877 30.8798L574.907 30.2433L573.937 29.6067L572.967 28.9702L572.376 28.5812L573.927 28.2528L575.63 27.8891L577.332 27.5253L578.065 27.3687L578.09 27.3738Z" fill="white"/>
<path d="M518.96 31.6969C518.677 31.4494 518.444 31.1412 518.298 30.7926C518.141 30.4339 518.06 30.0399 518.06 29.5902C518.06 29.1002 518.151 28.6354 518.333 28.1959C518.596 27.524 519.03 26.9077 519.586 26.4126C520.137 25.9225 520.778 25.574 521.501 25.4173C521.991 25.3214 522.435 25.3214 522.84 25.4022C523.456 25.5335 523.986 25.8619 524.355 26.3317C524.724 26.8016 524.936 27.3977 524.941 28.1252V29.8479L531.822 28.3828V26.6601C531.822 25.2506 531.534 23.9472 531.009 22.8257C530.225 21.1333 528.917 19.8451 527.265 19.0772C525.628 18.3143 523.623 18.087 521.496 18.5417C520.086 18.8448 518.722 19.4258 517.479 20.2088C515.625 21.391 514.054 23.0328 512.943 24.9122C511.826 26.7864 511.175 28.9284 511.18 31.0553C511.18 32.389 511.432 33.6065 511.897 34.6876C512.357 35.7536 513.029 36.673 513.847 37.4106L516.883 40.169L526.103 38.2088L518.96 31.7171V31.707V31.6969Z" fill="white"/>
<path d="M594.16 19.7935V9.80074L607.916 6.87063V0L587.289 4.38508V24.6888L604.471 21.0413V17.6009L594.16 19.7935Z" fill="white"/>
<path d="M541.117 14.2842V34.598L547.988 33.138V12.8242L541.117 14.2842Z" fill="white"/>
<path d="M429.495 38.2048L425.625 59.3421L432.112 57.968L432.991 52.3603L433.875 57.584L440.361 56.2099L436.487 36.7246L429.495 38.2048Z" fill="white"/>
<path d="M413.969 48.0897C413.181 46.4074 411.873 45.109 410.231 44.3513C408.584 43.5834 406.589 43.3611 404.462 43.8107L394.141 46.0083V66.3271L401.021 64.852V51.424L404.462 50.6914C404.947 50.5954 405.386 50.5954 405.8 50.6813C406.417 50.8076 406.942 51.136 407.311 51.6058C407.685 52.0757 407.897 52.6718 407.897 53.4043V63.4021L414.778 61.937V51.9443C414.778 50.5247 414.485 49.2213 413.969 48.0947" fill="white"/>
<path d="M577.368 13.0702C576.575 11.3879 575.271 10.0895 573.629 9.33173C571.983 8.56383 569.987 8.34155 567.86 8.79117L557.539 10.9837V31.3026L564.42 29.8274V16.3994L567.86 15.6668C568.345 15.5709 568.785 15.5709 569.199 15.6567C569.815 15.783 570.341 16.1114 570.709 16.5863C571.083 17.0561 571.295 17.6523 571.295 18.3848V28.3826L578.176 26.9175V16.9248C578.176 15.5052 577.883 14.2018 577.368 13.0752" fill="white"/>
<path d="M496.685 23.8269L492.118 41.6805L489.592 42.216V25.3375L482.711 26.8025V47.1163L498.306 43.8023L503.803 22.3164L496.685 23.8269Z" fill="white"/>
<path d="M467.077 40.8087V43.9257C467.077 44.4107 466.981 44.8806 466.814 45.3201C466.556 45.9869 466.112 46.6134 465.561 47.1034C465.01 47.5884 464.364 47.942 463.646 48.0936L460.206 48.8312V38.8384L463.646 38.1009C464.126 38.0049 464.571 38.0049 464.98 38.0908C465.597 38.2171 466.122 38.5454 466.496 39.0203C466.859 39.4901 467.077 40.0913 467.077 40.8087ZM473.957 42.4657V39.3436C473.957 37.9291 473.669 36.6307 473.139 35.4991C472.351 33.8118 471.058 32.5185 469.406 31.7556C467.759 30.9978 465.758 30.7756 463.636 31.2252L453.32 33.4177V53.7265L471.33 49.9022C471.634 49.4829 471.932 49.0534 472.194 48.6089C473.301 46.7296 473.952 44.5875 473.952 42.4607" fill="white"/>
<defs>
<clipPath id="clip0_13644_2301">
<rect width="309" height="34" fill="white" transform="translate(0 44.418)"/>
</clipPath>
</defs>
</svg>
