<svg width="415" height="91" viewBox="0 0 415 91" fill="none" xmlns="http://www.w3.org/2000/svg">
<g clip-path="url(#clip0_13644_3143)">
<path d="M230.688 40.5061L233.316 35.9593C229.653 39.513 221.76 44.6101 219.57 36.9141C214.911 40.6568 205.267 44.0525 205.227 34.7604C202.666 36.7203 199.991 38.5342 196.927 39.6135C190.369 41.9227 179.619 41.5949 178.816 32.7239C177.501 18.1575 198.861 -3.48274 213.66 0.475347C216.833 1.32248 216.735 2.7248 220.653 1.8657C221.829 1.60965 222.838 0.968313 223.99 0.898915C221.611 3.52168 219.465 6.37897 218.011 9.6335L216.935 5.09151C215.186 0.717044 210.426 0.654825 206.489 1.80588C195.942 4.8905 182.39 22.4051 184.613 33.6189C186.47 42.99 197.46 38.8979 202.7 35.105C205.944 32.7574 206.391 30.8741 208.702 27.9522C211.002 25.0423 214.552 21.68 218.021 20.2897C220.43 19.3229 225.847 18.5069 227.31 21.2708C227.54 21.7064 227.447 22.7186 227.934 22.5607L229.252 20.1653H234.033C234.071 20.6008 233.777 20.9238 233.593 21.2804C231.869 24.59 225.03 34.3057 224.757 37.1056C224.628 38.4409 225.298 38.6299 226.502 38.6132C230.143 38.5581 236.45 30.5965 238.529 27.6602C240.26 25.2169 241.618 22.5248 243.475 20.1676H247.3C248.617 20.1676 247.494 21.2637 247.181 21.8404C247.389 22.0103 248.704 21.1416 249.1 21.0124C251.735 20.1533 254.446 20.4716 254.814 23.6639C254.854 24.0085 254.264 24.925 254.945 24.712C256.095 24.3507 258.983 21.1033 259.844 20.0432C262.021 17.3606 264.003 14.1468 265.588 11.0765H270.369L265.827 19.6914H270.369C269.532 21.9624 265.877 20.1988 264.754 21.1296L256.145 35.7248C254.823 38.9984 257.773 38.4457 259.774 37.443C262.858 35.8971 267.924 30.709 270.123 27.9402C272.09 25.4658 273.429 22.5583 275.509 20.17H279.692L270.795 36.0287C269.858 40.7047 274.524 37.2228 276.109 35.8468C281.954 30.776 284.543 23.013 292.654 20.3423C295.833 19.2942 301.071 19.1626 300.469 23.8601C299.926 28.091 292.714 31.4843 289.018 32.2597C287.765 32.5229 286.532 32.5468 285.303 32.8483C282.58 41.7337 290.854 38.5581 295.212 35.8277C301.277 32.0251 306.443 26.0737 310.411 20.1724H315.312L313.641 23.5227C315.785 21.9792 318.857 19.7154 321.635 20.1844C325.079 20.7683 323.908 26.6647 320.511 26.1024C318.395 25.753 318.018 22.9699 319.375 21.6106C310.879 24.2478 307.889 33.8056 303.239 40.5132H298.339L304.791 29.266C299.673 34.0784 291.793 41.7839 284.136 40.731C282.872 40.5563 281.136 39.5177 280.448 38.4409C279.453 36.883 279.644 35.3204 279.812 33.5758C277.18 36.4331 272.1 42.04 267.73 40.8794C264.142 39.9269 265.954 35.3084 267.018 33.0948C263.523 36.1364 258.603 41.7265 253.387 40.4008C252.05 40.061 251.039 38.9243 250.994 37.5148C250.9 34.6671 258.189 24.8006 257.694 24.2406C256.031 25.6142 253.253 28.2729 250.934 27.062C248.701 25.8966 250.269 21.6561 252.916 22.3238C251.979 20.8927 249.5 21.9146 248.295 22.6061C245.216 24.3794 243.052 28.6175 241.247 31.5848C239.474 34.4972 237.812 37.5172 236.182 40.5132H230.684L230.688 40.5061ZM222.02 20.6989C218.329 21.3283 213.775 26.4063 211.942 29.5148C210.122 32.6043 206.785 39.9006 213.488 38.7209C218.274 37.8785 224.788 29.7877 226.158 25.3199C227.22 21.8571 225.663 20.0743 222.018 20.6965L222.02 20.6989ZM285.91 31.4101C289.656 31.3144 293.828 28.7275 295.664 25.5017C298.468 20.5769 295.331 19.9618 291.762 23.0321C289.374 25.0853 287.148 28.5457 285.912 31.4125L285.91 31.4101Z" fill="black"/>
<path d="M275.632 62.2843V65.156C278.484 61.107 285.106 60.5566 287.468 65.3929L290.229 62.897C297.001 60.3412 300.513 63.1578 300.967 70.0617C301.232 74.0868 300.955 78.6168 300.73 82.6228H296.188V69.3414C296.188 69.0519 295.361 67.3528 295.048 67.0656C293.75 65.8691 291.161 66.2233 289.849 67.3049C289.433 67.6471 288.297 69.3749 288.297 69.82V82.6228H283.516V69.3414C283.516 68.8796 282.699 67.3073 282.302 66.9675C281.068 65.905 278.362 66.2496 277.176 67.3049C276.815 67.6256 275.625 69.6836 275.625 70.0593V82.6228H270.844V62.6409L271.202 62.282H275.625L275.632 62.2843Z" fill="black"/>
<path d="M4.54205 62.2818V65.151C4.80501 65.3879 6.28476 63.4328 6.70789 63.1337C8.98848 61.5208 12.5217 61.6691 14.8931 63.0475C20.083 66.0628 20.9412 73.9215 18.0295 78.7746C15.5219 82.9528 9.70325 84.7596 5.84729 81.1963C5.43373 80.8134 5.27595 79.9184 4.54205 79.9902V90.9982H0V62.2818H4.54205ZM8.54384 65.9288C3.43522 66.8094 2.98102 77.0899 7.94142 78.8607C16.7554 82.0076 17.9244 64.3111 8.54384 65.9288Z" fill="black"/>
<path d="M310.058 79.7521V90.9994H305.516V62.2829H310.058V65.1546C311.286 63.7235 312.764 62.326 314.741 62.0652C323.163 60.9452 326.937 70.2302 324.279 77.1174C321.877 83.3441 314.284 85.4595 310.058 79.7521ZM313.818 65.9275C308.953 66.8249 308.458 77.2227 313.412 78.9074C316.787 80.056 319.897 77.8018 320.311 74.3414C320.851 69.8162 319.35 64.9081 313.818 65.9275Z" fill="black"/>
<path d="M83.1931 12.0312V40.5084H78.6511V37.8784C77.8837 37.8401 77.7116 38.7758 77.2263 39.2018C74.6876 41.4345 71.0874 41.48 68.2474 39.7977C59.9474 34.8824 62.9069 18.3776 73.9274 19.9929C75.6246 20.2418 77.506 21.4694 78.1778 23.0416C78.271 23.1062 78.6511 22.7257 78.6511 22.6827V12.0336H83.1931V12.0312ZM72.1344 23.8146C67.2505 24.6473 66.7485 34.8082 71.3503 36.6891C75.0461 38.1991 78.1849 35.7175 78.6248 31.9892C79.1531 27.5238 77.451 22.91 72.1344 23.817V23.8146Z" fill="black"/>
<path d="M19.1244 12.0312V15.9798L18.7658 16.3387H4.78111V23.8768L5.13969 24.2357H17.0925C17.145 24.2357 17.3602 23.8792 17.4486 23.9964L14.941 28.5432H4.78111V40.5084H0V12.0312H19.1244Z" fill="black"/>
<path d="M127.418 79.2751L125.577 82.6277C122.953 82.8934 120.493 82.5033 120.005 79.512C117.799 82.5057 114.588 83.762 110.914 82.7522C105.776 81.3403 104.978 74.6134 109.601 72.0864C111.872 70.8444 114.679 70.9114 117.146 70.306C118.475 69.9805 119.575 70.0284 119.546 68.3844C119.474 64.2372 112.499 65.0557 111.643 68.638L107.335 67.5444C108.363 61.8394 118.093 60.3821 121.898 63.6174C125.843 66.9677 123.01 74.0176 124.227 78.0379C124.722 79.6723 126.027 79.2535 127.413 79.2751H127.418ZM119.527 72.5746C117.87 74.1133 112.427 73.996 111.454 75.8554C109.317 79.9356 117.428 81.1177 119.166 76.3963C119.63 75.1351 119.551 73.8955 119.529 72.5746H119.527Z" fill="black"/>
<path d="M107.338 37.1579C107.558 37.3733 105.885 40.4005 105.309 40.5082C103.04 40.9366 100.133 40.1445 100.166 37.3949C99.8342 37.0239 99.0884 38.5459 98.8254 38.8044C94.2475 43.332 84.6781 40.4197 86.8463 33.274C88.4026 28.1482 94.6706 29.3279 98.4238 27.873C99.8533 27.3178 99.9179 26.0878 99.1744 24.8673C97.6492 22.3594 92.194 23.5224 91.778 26.6094L87.2623 25.0731C88.9572 20.1123 96.4683 18.6311 100.7 20.7082C105.54 23.0845 103.614 30.0674 103.982 34.4131C104.19 36.878 104.799 37.3949 107.336 37.1579H107.338ZM99.4493 30.4574C97.654 32.2307 90.2242 31.7521 91.1924 35.4876C91.888 38.1702 96.1743 37.5815 97.8955 36.2007C99.6167 34.82 99.5067 32.5274 99.4469 30.4574H99.4493Z" fill="black"/>
<path d="M385.357 79.2739C385.577 79.4892 383.903 82.5164 383.327 82.6241C381.059 83.0525 378.152 82.2604 378.185 79.5108C377.853 79.1399 377.107 80.6618 376.844 80.9203C372.01 85.6992 362.106 82.0043 365.03 74.8348C366.864 70.3359 372.952 71.3505 376.445 69.9889C378.833 69.0556 377.361 66.0715 375.142 65.6886C372.802 65.2866 370.402 66.3228 369.799 68.7254L365.283 67.189C367.119 62.6542 371.881 61.5462 376.368 62.0679C384.023 62.9581 381.549 71.6161 382.003 76.7684C382.211 79.1351 383.057 79.4677 385.359 79.2715L385.357 79.2739ZM377.468 72.5734C375.606 74.2963 368.252 73.8871 369.211 77.6035C369.892 80.243 374.193 79.6974 375.914 78.3166C377.635 76.9359 377.525 74.6433 377.466 72.5734H377.468Z" fill="black"/>
<path d="M267.501 73.5298H252.919C253.55 77.2845 256.041 80.2471 260.155 78.9788C261.926 78.4331 262.077 77.3922 263.322 76.3871L267.023 77.1194C265.923 80.9506 261.905 83.2384 258.051 83.1115C244.848 82.6832 245.109 61.0071 259.263 62.0313C265.543 62.486 267.84 67.8535 267.501 73.5274V73.5298ZM262.72 70.4189C262.376 63.8596 253.939 64.24 253.158 70.4189H262.72Z" fill="black"/>
<path d="M141.467 19.9859C156.977 17.8872 157.14 41.8176 142.603 40.9776C130.557 40.2813 130.478 21.472 141.467 19.9859ZM142.665 23.5755C136.22 24.3724 136.33 38.441 144.498 37.1392C150.171 36.2346 150.183 22.647 142.665 23.5755Z" fill="black"/>
<path d="M196.683 62.1051C212.547 59.9561 212.361 83.9344 198.058 83.0968C185.78 82.3765 186.11 63.5361 196.683 62.1051ZM195.39 66.9127C192.529 69.5857 192.808 77.4923 196.913 78.9832C205.002 81.9242 206.449 66.9223 199.624 65.7401C198.158 65.4864 196.49 65.8861 195.39 66.9127Z" fill="black"/>
<path d="M335.339 62.105C351.128 59.8269 351.126 83.9415 336.713 83.0967C324.608 82.3884 324.665 63.6461 335.339 62.105ZM340.572 78.2317C343.907 75.2931 343.271 66.3096 338.124 65.6539C330.866 64.7302 330.381 77.6693 335.917 79.1099C337.476 79.5144 339.336 79.3205 340.572 78.2317Z" fill="black"/>
<path d="M26.9559 19.9875C42.975 17.817 42.5829 42.3815 27.8786 40.9553C16.0167 39.8042 16.5402 21.3994 26.9559 19.9875ZM28.1464 23.5722C21.9859 24.5582 21.9142 38.2559 29.9823 37.1336C36.095 36.2841 35.6718 22.3686 28.1464 23.5722Z" fill="black"/>
<path d="M30.0681 62.1054C38.0621 61.0214 42.6017 66.7072 41.8368 74.3649C41.1029 81.702 32.8698 85.3753 26.7069 81.6182C19.2245 77.0595 20.9959 63.333 30.0681 62.1054ZM31.2633 65.6974C24.7754 66.5756 25.1483 80.5462 33.0993 79.2587C39.0374 78.2967 38.7529 64.6827 31.2633 65.6974Z" fill="black"/>
<path d="M161.362 20.1645V23.0362C161.575 23.2874 162.962 21.5261 163.296 21.2629C167.465 17.9749 174.51 20.7125 174.51 26.2668V40.5053H169.729V27.224C169.729 27.1235 169.108 25.7881 168.974 25.5871C167.585 23.5148 164.178 23.9311 162.67 25.6613C162.194 26.2069 161.362 27.9969 161.362 28.6598V40.5053H156.82V20.1645H161.362Z" fill="black"/>
<path d="M229.971 82.6261H225.19V69.5841C225.19 69.4022 224.671 68.1171 224.523 67.8587C223.285 65.7145 219.74 65.9347 218.162 67.5739C217.765 67.9855 216.823 69.8042 216.823 70.302V82.6261H212.281V62.2853H216.823V65.1546C217.538 65.1354 217.658 64.159 218.272 63.6158C218.886 63.0726 220.667 62.1824 221.506 62.0675C233.251 60.4546 229.247 75.7485 229.971 82.6261Z" fill="black"/>
<path d="M49.9662 62.2852V75.5665C49.9662 75.667 50.5997 77.2488 50.7192 77.445C51.8906 79.3978 55.3641 79.1345 56.8773 77.6963C57.2335 77.3565 58.3355 75.4636 58.3355 75.0879V62.2852H62.8776V82.626H58.3355L58.2136 79.9912C57.867 79.9984 56.8988 81.3816 56.4016 81.7669C53.0907 84.3346 47.7717 83.1094 46.0505 79.2494C45.6656 78.3831 45.1875 76.227 45.1875 75.3272V62.6441L45.5461 62.2852H49.9686H49.9662Z" fill="black"/>
<path d="M415.003 82.6258H410.221V69.8231C410.221 69.7369 409.774 68.4064 409.681 68.2102C408.321 65.2787 404.147 65.9344 402.61 68.4279C402.424 68.7295 401.855 70.0624 401.855 70.3041V82.6282H397.312V62.2874H401.855V65.1591C402.524 64.9126 402.763 64.1277 403.236 63.7208C407.401 60.1432 414.187 62.1031 414.761 67.9134C415.227 72.6229 414.24 77.902 415.003 82.6282V82.6258Z" fill="black"/>
<path d="M59.9979 40.5053H55.4559V27.4632C55.4559 27.1091 54.3897 25.1516 54.012 24.8405C52.9625 23.9766 50.9162 24.0531 49.7161 24.5892C48.6739 25.0558 47.0889 27.0444 47.0889 28.1811V40.5053H42.5469V20.1645H47.0889V23.0361C49.1831 20.3679 52.4318 19.157 55.7595 20.2195C57.5572 20.7938 59.9979 23.3975 59.9979 25.3095V40.5053Z" fill="black"/>
<path d="M182.653 69.2194C181.871 66.1371 178.663 65.0244 175.859 66.1395C172.404 67.5131 171.948 72.9573 173.136 75.9869C174.895 80.4714 181.008 80.3661 182.779 75.9534L186.71 76.8819C185.139 82.7376 178.049 84.4917 172.997 81.8714C165.754 78.1143 166.148 65.783 173.877 62.7175C178.837 60.7504 184.893 62.6146 186.69 67.9104L182.655 69.2194H182.653Z" fill="black"/>
<path d="M115.708 14.6641V20.168H121.206V23.6379C119.681 24.3798 117.393 23.9658 115.708 23.7576V34.4066C115.708 35.1389 117.178 36.9193 117.979 36.9193H121.684L119.774 40.3916C116.64 40.729 113.298 40.8415 111.838 37.5654C111.713 37.2854 111.166 35.7515 111.166 35.6055V23.76C110.116 24.174 108.799 24.0902 107.719 23.7863L107.802 20.2733L111.164 20.168V15.6213L115.706 14.6641H115.708Z" fill="black"/>
<path d="M151.565 56.7812V62.2852H157.064V65.8748H151.924L151.565 66.2337V76.5238C151.565 77.2561 153.036 79.0365 153.836 79.0365H157.542L155.83 82.5878C152.67 82.7265 149.156 83.064 147.693 79.6802C147.566 79.3883 147.023 77.8735 147.023 77.7203V65.8748H143.438V62.2852H147.023V57.7385L151.565 56.7812Z" fill="black"/>
<path d="M240.724 56.7812V62.2852H246.222V65.8748H240.724V76.7631C240.724 77.5576 242.259 79.0365 242.995 79.0365H246.7L244.786 82.504C241.845 82.8941 238.166 82.8462 236.777 79.7544C236.677 79.5318 236.18 78.0529 236.18 77.9596V65.8748H232.594V62.2852H236.18V57.7385L240.722 56.7812H240.724Z" fill="black"/>
<path d="M95.3827 82.6227H90.6016L90.9601 53.9062H95.0241L95.3827 54.2652V82.6227Z" fill="black"/>
<path d="M79.609 62.2826V66.5901C77.4073 65.8458 74.6988 66.6523 73.4318 68.6624C73.2597 68.9376 72.4374 70.8664 72.4374 71.0172V82.6234H67.6562V62.6416L68.0148 62.2826H72.0788C72.8246 63.1824 72.2748 64.7379 72.4397 65.8722C74.2303 63.3284 76.2096 61.3254 79.609 62.2826Z" fill="black"/>
<path d="M141.765 62.2827V66.5901C141.072 66.2647 140.252 66.2886 139.497 66.3556C132.32 66.9922 134.859 77.8135 134.355 82.6235H129.812V62.2827H134.355L134.476 65.8746C134.988 65.8603 135.827 64.0368 136.269 63.6012C137.599 62.2899 139.989 61.7562 141.765 62.2827Z" fill="black"/>
<path d="M362.89 62.2835V66.2321L362.541 66.5336C359.979 65.8803 357.141 66.9859 356.149 69.5345C355.977 69.9772 355.48 71.8557 355.48 72.2147V82.6244H350.938V62.2835H355.48V65.8731C356.304 65.8779 356.395 64.7699 356.809 64.2123C358.171 62.3817 360.739 61.6949 362.89 62.2835Z" fill="black"/>
<path d="M392.531 82.626H387.75V62.6441L388.109 62.2852H392.173L392.531 62.6441V82.626Z" fill="black"/>
<path d="M129.808 20.1641H125.266V40.5049H129.808V20.1641Z" fill="black"/>
<path d="M102.237 53.751C103.193 53.7223 104.295 54.3158 104.816 55.1174C106.277 57.3573 105.483 61.0043 104.36 63.2514C104.006 63.9597 101.314 67.8651 100.795 67.7718C100.356 67.3052 99.0623 66.4508 99.2344 65.8023C99.3133 65.5008 101.252 63.3351 101.644 62.4473C101.996 61.6528 102.266 60.6788 102.299 59.803C102.127 59.2765 99.9468 59.5852 99.3659 57.6971C98.7683 55.754 100.193 53.8156 102.235 53.751H102.237Z" fill="black"/>
<path d="M390.06 53.7482C393.49 53.6261 393.935 58.8693 390.502 59.1804C386.632 59.5298 386.524 53.8726 390.06 53.7482Z" fill="black"/>
<path d="M127.536 11.6719C131.227 11.6719 131.213 17.554 127.082 17.0323C123.786 16.6159 124.271 11.6719 127.536 11.6719Z" fill="black"/>
<path d="M279.635 12.3129C282.461 11.7769 283.212 15.9599 280.718 16.5247C277.613 17.2259 276.831 12.8442 279.635 12.3129Z" fill="black"/>
<path d="M222.018 20.7005C225.663 20.0783 227.219 21.8611 226.158 25.3238C224.788 29.7916 218.274 37.8825 213.488 38.7248C206.785 39.9022 210.12 32.6058 211.941 29.5188C213.775 26.4079 218.327 21.3322 222.02 20.7029L222.018 20.7005Z" fill="#F8F7F2"/>
<path d="M285.909 31.4111C287.145 28.5443 289.373 25.084 291.758 23.0307C295.327 19.9629 298.464 20.5755 295.66 25.5003C293.824 28.7262 289.652 31.313 285.906 31.4087L285.909 31.4111Z" fill="#F8F7F2"/>
<path d="M8.54144 65.929C17.922 64.3113 16.7554 82.0078 7.93902 78.861C2.97862 77.0901 3.43044 66.8096 8.54144 65.929Z" fill="#F8F7F2"/>
<path d="M313.814 65.9294C319.345 64.9075 320.844 69.8157 320.306 74.3433C319.893 77.8036 316.783 80.0579 313.407 78.9092C308.456 77.2245 308.949 66.8268 313.814 65.9294Z" fill="#F8F7F2"/>
<path d="M72.1374 23.8138C77.454 22.9092 79.1561 27.5206 78.6277 31.986C78.1879 35.7144 75.0491 38.1984 71.3533 36.686C66.7515 34.805 67.2535 24.6442 72.1374 23.8114V23.8138Z" fill="#F8F7F2"/>
<path d="M119.525 72.5742C119.547 73.8952 119.628 75.1348 119.162 76.3959C117.424 81.1174 109.313 79.9352 111.45 75.8551C112.425 73.9933 117.866 74.1129 119.523 72.5742H119.525Z" fill="#F8F7F2"/>
<path d="M99.4428 30.457C99.5025 32.527 99.6699 34.7741 97.8913 36.2003C96.1127 37.6266 91.8815 38.1698 91.1882 35.4872C90.22 31.7517 97.6475 32.2303 99.4452 30.457H99.4428Z" fill="#F8F7F2"/>
<path d="M377.466 72.5742C377.526 74.6442 377.693 76.8913 375.914 78.3175C374.136 79.7438 369.892 80.2463 369.211 77.6044C368.25 73.888 375.606 74.2972 377.468 72.5742H377.466Z" fill="#F8F7F2"/>
<path d="M262.718 70.4185H253.156C253.938 64.2397 262.374 63.8592 262.718 70.4185Z" fill="#F8F7F2"/>
<path d="M142.666 23.5767C150.184 22.6482 150.172 36.2383 144.499 37.1404C136.331 38.4423 136.221 24.3712 142.666 23.5767Z" fill="#F8F7F2"/>
<path d="M195.395 66.9098C196.494 65.8832 198.163 65.4859 199.628 65.7372C206.454 66.9194 205.005 81.9189 196.918 78.9803C192.813 77.4894 192.533 69.5828 195.395 66.9098Z" fill="#F8F7F2"/>
<path d="M340.573 78.2343C339.337 79.3232 337.475 79.517 335.919 79.1126C330.382 77.672 330.87 64.7328 338.125 65.6565C343.272 66.3122 343.908 75.2957 340.573 78.2343Z" fill="#F8F7F2"/>
<path d="M28.1483 23.5699C35.6714 22.3662 36.0945 36.2817 29.9842 37.1312C21.9161 38.2535 21.9902 24.5558 28.1483 23.5699Z" fill="#F8F7F2"/>
<path d="M31.2627 65.6946C38.7523 64.68 39.0368 78.2939 33.0987 79.2559C25.1477 80.5434 24.7748 66.5728 31.2627 65.6946Z" fill="#F8F7F2"/>
</g>
<defs>
<clipPath id="clip0_13644_3143">
<rect width="415" height="91" fill="white"/>
</clipPath>
</defs>
</svg>
