<svg width="75" height="75" viewBox="0 0 75 75" fill="none" xmlns="http://www.w3.org/2000/svg">
<path d="M43.6582 0.0110821C49.5342 0.650401 54.551 4.65599 54.5944 10.9162C54.646 18.3694 47.9461 29.4713 43.9853 35.7641C42.8804 37.5205 41.3954 40.109 40.1154 41.6455C39.9593 41.8329 39.81 42.1274 39.5318 42.1423C39.2087 42.0663 39.0947 40.1755 39.0567 39.771C38.4649 33.4253 38.2586 27.0227 38.5137 20.6688C38.7947 13.658 39.3825 6.28754 42.7107 0.0110821C43.0202 0.0341573 43.3528 -0.022852 43.6582 0.0110821Z" fill="black"/>
<path d="M32.0216 0.00976562C35.3485 6.12334 35.9281 13.4042 36.2186 20.2617C36.5063 27.0526 36.3584 34.6362 35.544 41.3999C35.3499 43.007 34.4988 41.4189 34.0767 40.8298C31.7284 37.5531 29.3992 33.6874 27.3957 30.1759C22.3816 21.3856 13.9524 5.88716 27.9319 0.726454L31.0742 0.00976562H32.0216Z" fill="black"/>
<path d="M74.6636 35.0976C74.1614 39.7873 70.1911 44.4105 65.8 45.9375C65.3466 46.095 63.7259 46.6121 63.3622 46.6121H44.3455C44.2871 46.2402 44.5056 46.0773 44.7608 45.8764C46.9462 44.154 50.3749 42.293 52.8304 40.8121C59.7502 36.6409 66.8872 32.8335 73.9265 28.8714C74.2102 28.8144 74.0799 28.9189 74.1329 29.0533C74.2862 29.4347 74.6201 30.6536 74.6622 31.0323C74.7667 31.9702 74.7627 34.1542 74.6622 35.0963L74.6636 35.0976Z" fill="black"/>
<path d="M74.6626 62.4609V74.6528H72.1583L71.8203 74.4492V62.4609H74.6626Z" fill="black"/>
<path d="M11.4073 9.90896C11.6381 9.8696 12.7647 11.3763 12.9982 11.6735C19.7769 20.2643 26.9397 31.7232 31.4678 41.6849C31.6416 42.0677 32.6474 43.9245 32.0922 44.0372C25.9122 40.9302 19.5855 37.6331 13.928 33.6357C11.5091 31.9268 8.19175 29.4632 6.74344 26.8733C3.22515 20.5819 7.06242 14.4928 11.406 9.90896H11.4073Z" fill="black"/>
<path d="M63.2238 9.89921C63.3867 9.85985 64.6871 11.3353 64.9083 11.5959C68.7144 16.0807 71.1766 21.8942 67.6746 27.3631C64.6301 32.1179 54.515 37.7673 49.4371 40.539C47.8069 41.4281 44.8261 43.2578 43.2176 43.7967C42.0788 44.1781 42.5539 43.3678 42.8254 42.7271C43.7307 40.5879 45.0677 38.1229 46.1618 36.0421C51.013 26.8256 56.8089 18.0855 63.2238 9.89921Z" fill="black"/>
<path d="M30.3503 46.1088C30.6313 46.4685 30.5594 46.7508 30.0612 46.7522C24.3467 46.4495 18.2589 47.1322 12.5892 46.7522C3.91563 46.1698 -1.97805 37.275 0.61723 28.9992C0.767897 28.8661 3.29667 30.2588 3.68488 30.4665C12.7724 35.3109 21.6659 40.5897 30.3503 46.1088Z" fill="black"/>
<path d="M40.8946 62.4623L43.8726 71.5404L46.51 62.5274L49.7473 62.4759L52.4552 71.2119L52.7376 71.4033L55.5134 62.4623H58.0856L58.2349 62.7419L54.0298 74.6637L50.7721 74.5225L48.0682 65.8476L45.7105 74.4614C45.3969 74.8442 42.9265 74.6216 42.3103 74.5917L37.9844 62.4609H40.8946V62.4623Z" fill="black"/>
<path d="M25.8933 48.4164C26.7254 48.396 29.2759 48.2046 29.8921 48.3987C30.0238 48.4394 30.1487 48.563 30.1161 48.7136C30.0062 49.2172 22.6832 53.816 21.6814 54.3616C20.3214 55.1041 18.4726 56.1221 16.9252 56.2402C12.5057 56.5782 8.8109 52.8427 6.83594 49.262C6.96217 49.0652 7.10062 49.0733 7.30423 49.0489C8.2028 48.9457 9.35114 49.0937 10.2945 49.0611C15.4878 48.8806 20.6838 48.5453 25.8947 48.4177L25.8933 48.4164Z" fill="black"/>
<path d="M67.8894 49.1885C68.0645 49.3473 66.1615 51.8991 65.9294 52.1692C63.8757 54.5636 60.9777 56.5494 57.6658 56.2373C55.2035 56.0051 49.9939 52.5357 47.8154 51.0589C47.3512 50.744 44.5414 48.9061 44.6106 48.5804C45.1957 48.2383 46.2734 48.3483 46.9847 48.37C51.1667 48.4989 55.3868 48.7717 59.5607 48.9224C62.3392 49.0229 65.115 48.9821 67.8894 49.1885Z" fill="black"/>
<path d="M2.92826 67.338H8.88438V62.4609H11.7267V74.4492L11.5231 74.6528H9.08663L8.88438 74.4492V69.64H2.92826V74.4492L2.72601 74.6528H0.0859375V62.4609H2.72601L2.92826 62.6645V67.338Z" fill="black"/>
<path d="M69.5091 62.4623V64.5621C69.3897 64.7549 69.239 64.7495 69.0422 64.7725C66.5039 65.0712 62.2106 63.4885 61.9296 67.3393H69.3069L69.4888 67.5633C69.4521 68.2121 69.7141 69.1256 69.3069 69.6414H61.9296C61.8034 73.8126 66.7998 71.8783 69.3829 72.4104L69.4901 74.4315L69.3829 74.5944C65.323 74.6256 59.8488 75.603 58.8538 70.3486C58.1588 66.6783 59.7252 62.4609 64.0281 62.4609H69.5091V62.4623Z" fill="black"/>
<path d="M25.864 74.6525L25.7188 74.377L31.1387 62.5923L33.9905 62.4512L39.6793 74.377L39.534 74.6525H36.6917L35.3167 71.8292L29.7365 71.8238L28.5706 74.6525H25.864ZM34.4588 69.5054L32.697 65.17C32.6115 65.1035 32.4486 65.3912 32.4011 65.4808C31.7604 66.6767 31.3613 68.2471 30.8034 69.504H34.4575L34.4588 69.5054Z" fill="black"/>
<path d="M22.4176 62.4623H25.2599V71.1997C25.2599 72.5 24.0084 73.7678 22.8601 74.2171C20.9883 74.9501 16.9854 74.9324 15.3118 73.7054C14.7431 73.2886 13.8906 72.1865 13.8906 71.4698V62.4609H16.5293L16.7329 62.6645V70.9282C16.7329 70.996 17.1266 71.8335 17.2121 71.9394C17.9098 72.8068 20.4956 72.8475 21.3833 72.3303C21.8516 72.0575 22.4189 71.1752 22.4189 70.6567V62.4609L22.4176 62.4623Z" fill="black"/>
</svg>
