<svg width="158" height="41" viewBox="0 0 158 41" fill="none" xmlns="http://www.w3.org/2000/svg">
<path d="M97.9182 40.4816C96.7889 40.5725 94.8383 40.5793 93.7144 40.4816C79.4933 39.2423 71.1414 24.4063 77.0528 11.5331C84.5495 -4.79332 110.265 -3.56219 115.552 13.8067C119.431 26.5537 111.438 39.3903 97.9182 40.4816ZM94.7718 8.37991C80.2765 9.63412 81.4208 32.9957 96.6287 32.1067C111.414 31.2434 110.379 7.02933 94.7718 8.37991Z" fill="black"/>
<path d="M157.185 39.9394L145.66 39.8689L131.688 22.1132V39.9394H122.602V0.775391H131.688V17.7913L132.362 17.1791L145.86 0.775391H156.507L140.777 19.3482L157.185 39.8037V39.9394Z" fill="black"/>
<path d="M48.011 29.8162V39.7426C48.011 39.7576 47.8223 39.9449 47.8074 39.9449H38.9927C38.9777 39.9449 38.7891 39.7562 38.7891 39.7426V0.78082L56.9004 0.775391C63.2759 1.25318 69.3121 4.23667 71.2382 10.6719C73.1643 17.1072 71.0808 23.7407 65.3595 27.1734C59.9735 30.4053 54.0621 29.8162 48.011 29.8176V29.8162ZM48.011 22.1186C53.1486 22.0833 62.1385 23.1163 62.5294 15.8449C62.8321 10.2036 58.3853 8.82185 53.6454 8.60739C51.7763 8.52323 49.8815 8.68204 48.011 8.61282V22.1172V22.1186Z" fill="black"/>
<path d="M9.0862 0.775391V17.7913C13.9279 12.2248 18.5199 6.43425 23.2585 0.775391H33.9043L18.1656 19.2166L34.4472 39.9394H22.9191L22.4291 39.1427L9.08485 22.1118V39.9381H0V0.775391H9.0862Z" fill="black"/>
</svg>
