<svg width="159" height="159" viewBox="0 0 159 159" fill="none" xmlns="http://www.w3.org/2000/svg">
<path fill-rule="evenodd" clip-rule="evenodd" d="M51.2349 28.6217C51.0503 28.6217 50.8776 28.8062 50.7168 29.175L40.5648 50.8972L29.9985 29.1404C29.8371 28.7947 29.6644 28.6217 29.4805 28.6217C29.2735 28.6217 29.1469 28.8523 29.1008 29.3134L26.6143 51.7974C26.5455 52.4201 26.4992 52.7889 26.476 52.9042C26.2913 53.9652 25.8769 54.553 25.2328 54.6675C24.8917 54.7362 24.5448 54.7709 24.1969 54.7713C23.9665 54.7713 23.8514 54.8404 23.8516 54.9788C23.8516 55.1631 24.0473 55.2557 24.4386 55.2563C24.8065 55.2563 25.3705 55.239 26.1305 55.2043C26.8907 55.1696 27.2934 55.1525 27.3391 55.1526L28.617 55.2218C29.4682 55.2444 30.1473 55.2558 30.6542 55.2563C30.9992 55.2563 31.1719 55.1525 31.1721 54.945C31.1721 54.8299 31.057 54.7723 30.8267 54.772C30.4084 54.774 29.9913 54.7275 29.5837 54.6333C28.9621 54.5181 28.6513 54.1031 28.6513 53.388C28.6513 53.0421 28.6743 52.5007 28.7203 51.7634L30.1362 35.4719C30.2969 35.8871 31.0684 37.5761 32.4504 40.5391C33.8325 43.5022 34.6152 45.1797 34.7984 45.5716C37.1001 50.1605 38.4466 52.8355 38.8384 53.596C39.3911 54.6569 39.7477 55.1873 39.909 55.1871C39.9684 55.1889 40.0274 55.1771 40.0816 55.1526C40.1964 55.0833 40.5187 54.4837 41.0485 53.354L49.6132 35.1601L51.2708 53.2154C51.3622 53.9767 51.3161 54.3917 51.1323 54.4607C51.0728 54.4732 51.0183 54.5026 50.9754 54.5457C50.9324 54.5888 50.9029 54.6434 50.8905 54.703C50.8905 54.8879 51.2128 55.003 51.8573 55.0488C53.5609 55.1871 55.5519 55.2563 57.8308 55.2563C58.1762 55.2563 58.3488 55.1638 58.3488 54.9788C58.3488 54.8404 58.2223 54.7713 57.969 54.7713C57.2438 54.7764 56.5219 54.6713 55.8281 54.46C54.8149 54.1374 54.1934 52.9157 53.9635 50.7944L51.6494 29.5566C51.5802 28.9342 51.442 28.6217 51.2349 28.6217ZM70.3758 31.6655C70.4217 31.0201 70.5367 30.5472 70.7211 30.2473C70.8252 30.091 70.9631 29.9602 71.1245 29.8645C71.2859 29.7688 71.4665 29.7104 71.6533 29.694C71.9384 29.6392 72.2268 29.6045 72.5167 29.5902C72.7006 29.5902 72.793 29.5209 72.7937 29.3825C72.7937 29.1976 72.6095 29.1052 72.2411 29.1052C71.8268 29.1052 71.1649 29.1224 70.2557 29.1571C69.3465 29.1916 68.8688 29.2089 68.8226 29.2089L67.3034 29.1396C66.2901 29.117 65.4725 29.1056 64.8507 29.1052C64.4821 29.1052 64.298 29.1976 64.2983 29.3825C64.2983 29.5212 64.3899 29.5902 64.5751 29.5902C64.9693 29.5792 65.3631 29.614 65.7493 29.694C66.3017 29.8095 66.6758 30.0112 66.8716 30.2992C67.0673 30.5874 67.1881 31.0431 67.2341 31.6664C67.2797 32.4047 67.3028 34.8952 67.3031 39.1378V44.1878C67.3031 48.3385 68.3045 51.3708 70.3074 53.2849C72.0338 54.9227 74.405 55.7412 77.4207 55.7404C80.2522 55.7404 82.6234 54.8873 84.5339 53.181C85.7945 52.045 86.6747 50.5472 87.0547 48.8918C87.5179 46.9083 87.7381 44.8757 87.7107 42.8389V39.1369C87.7107 34.8943 87.7338 32.4037 87.7797 31.6655C87.7894 31.1861 87.9014 30.7143 88.1079 30.2818C88.2138 30.1205 88.3536 29.984 88.5177 29.8824C88.6816 29.781 88.8659 29.7166 89.0573 29.694C89.3422 29.6392 89.6308 29.6045 89.9205 29.5902C90.1045 29.5902 90.1969 29.5209 90.1975 29.3825C90.1975 29.1976 90.0132 29.1052 89.645 29.1052C89.2308 29.1052 88.6493 29.1224 87.9011 29.1571C87.1526 29.1916 86.7672 29.2089 86.7443 29.2089C86.7213 29.2089 86.5084 29.1975 86.1055 29.1743C85.7026 29.1512 85.2135 29.1339 84.6379 29.1224C84.0622 29.111 83.5441 29.1052 83.084 29.1052C82.7154 29.1052 82.5313 29.1976 82.5316 29.3825C82.5316 29.5209 82.6238 29.5902 82.8084 29.5902C83.2026 29.5792 83.5966 29.614 83.9827 29.694C84.5352 29.8095 84.9093 30.0112 85.1049 30.2992C85.3006 30.5874 85.4216 31.0431 85.4676 31.6664C85.5134 32.4047 85.5364 34.8952 85.5366 39.1378V43.4614C85.5366 47.4505 84.8689 50.2753 83.5338 51.9357C82.8841 52.7182 82.0627 53.3396 81.1339 53.7517C80.1876 54.1939 79.1564 54.4238 78.1124 54.4254C77.1536 54.4433 76.1979 54.309 75.2811 54.0274C74.3861 53.7075 73.5724 53.1936 72.8983 52.5228C72.0149 51.651 71.3569 50.5764 70.9819 49.3924C70.5335 48.0897 70.3093 46.2854 70.3093 43.9791V39.1369C70.3093 34.8943 70.3323 32.4037 70.3783 31.6655H70.3758ZM109.648 54.2869C110.645 53.6014 111.429 52.6484 111.91 51.537C112.412 50.4244 112.639 49.2073 112.573 47.9884C112.507 46.7694 112.15 45.5842 111.53 44.5327C110.828 43.334 109.498 41.962 107.542 40.4165L106.575 39.6557C104.918 38.3645 103.801 37.3211 103.225 36.5251C102.656 35.7486 102.353 34.8083 102.362 33.8447C102.362 32.6226 102.765 31.6483 103.571 30.9218C104.376 30.1953 105.389 29.8322 106.609 29.8322C108.82 29.8322 110.258 30.4432 110.926 31.6653C111.184 32.208 111.336 32.7948 111.375 33.3946C111.42 33.6948 111.513 33.8447 111.652 33.8444C111.812 33.8444 111.893 33.5792 111.893 33.0488C111.893 32.3571 111.905 31.723 111.928 31.1466C111.951 30.5704 111.974 30.1322 111.997 29.8322L112.031 29.3825C112.031 29.2216 111.916 29.1404 111.686 29.1404C111.279 29.12 110.874 29.062 110.477 28.9674C109.424 28.7276 108.346 28.6114 107.266 28.6217C105.079 28.6217 103.341 29.1924 102.052 30.3338C100.763 31.4751 100.119 32.9798 100.118 34.8475C100.116 36.1311 100.443 37.3936 101.068 38.5142C101.701 39.6676 102.88 40.9474 104.607 42.3534L106.161 43.6334C107.68 44.9014 108.722 45.9621 109.286 46.8156C109.866 47.7226 110.16 48.7828 110.132 49.8594C110.141 51.0606 109.675 52.2169 108.837 53.0762C107.974 53.9988 106.76 54.4599 105.194 54.4597C104.03 54.4871 102.882 54.1875 101.879 53.5951C100.935 53.019 100.337 52.131 100.084 50.9315C100.006 50.5097 99.9714 50.0808 99.9801 49.6519C99.9801 49.3986 99.8995 49.2717 99.7384 49.2715C99.5772 49.2712 99.485 49.4557 99.4615 49.8249C99.3463 51.6699 99.2888 52.892 99.2888 53.4912C99.2694 53.8053 99.2985 54.1202 99.3751 54.4254C99.4699 54.5988 99.6227 54.7335 99.8067 54.8057C101.073 55.4282 102.615 55.7395 104.434 55.7395C106.528 55.7395 108.267 55.2553 109.648 54.2869ZM125.716 52.7303C125.555 53.9059 125.21 54.5516 124.68 54.6674C124.386 54.7359 124.085 54.7707 123.782 54.771C123.529 54.771 123.403 54.8402 123.403 54.9787C123.403 55.163 123.587 55.2553 123.955 55.256C124.254 55.256 124.674 55.2445 125.215 55.2216C125.757 55.1986 126.24 55.1812 126.666 55.1696C127.091 55.1579 127.316 55.1525 127.338 55.1525C127.361 55.1525 127.597 55.1638 128.046 55.187C128.495 55.2102 129.065 55.2266 129.755 55.2388C130.446 55.2512 131.068 55.256 131.62 55.256C131.965 55.256 132.138 55.1636 132.138 54.9787C132.138 54.8402 131.999 54.771 131.722 54.771C131.248 54.755 130.775 54.7085 130.307 54.6324C129.823 54.5631 129.495 54.3729 129.323 54.0616C129.12 53.6442 128.997 53.1925 128.96 52.7299C128.845 51.7615 128.787 49.2595 128.788 45.224V39.1369C128.788 34.8943 128.81 32.4037 128.857 31.6655C128.866 31.1861 128.978 30.7143 129.185 30.2818C129.29 30.1205 129.43 29.984 129.594 29.8824C129.758 29.781 129.942 29.7166 130.134 29.694C130.419 29.6392 130.707 29.6045 130.997 29.5902C131.182 29.5902 131.274 29.5209 131.274 29.3825C131.274 29.1976 131.09 29.1052 130.722 29.1052C130.422 29.1052 130.002 29.1108 129.461 29.1224C128.921 29.1339 128.437 29.1512 128.011 29.1743C127.585 29.1975 127.361 29.2089 127.339 29.2089C127.316 29.2089 127.092 29.1975 126.666 29.1743C126.24 29.1514 125.751 29.134 125.198 29.1224C124.646 29.1107 124.197 29.1049 123.852 29.1052C123.483 29.1052 123.299 29.1976 123.299 29.3825C123.299 29.5212 123.391 29.5902 123.576 29.5902C123.937 29.5896 124.297 29.6361 124.646 29.7288C125.36 29.8905 125.751 30.5362 125.821 31.6658C125.866 32.4042 125.889 34.8946 125.89 39.1372V45.2248C125.89 49.2604 125.831 51.7618 125.716 52.7303ZM46.1243 92.3864C46.3526 92.3055 46.5633 92.1823 46.7458 92.0231C46.8789 91.8299 46.973 91.6126 47.0228 91.3833C47.2467 90.5773 47.4139 89.7567 47.5233 88.9274C47.696 87.7979 47.7823 87.1407 47.7823 86.9558C47.7823 86.6098 47.7017 86.437 47.5407 86.437C47.3794 86.437 47.2645 86.6098 47.1955 86.9558C46.9881 88.224 46.5622 89.1925 45.9177 89.8614C44.7895 91.0148 42.7867 91.5913 39.9094 91.5908C36.3181 91.5908 33.3427 90.3341 30.9832 87.8208C28.6236 85.3073 27.4437 82.3442 27.4437 78.9311C27.4132 77.1951 27.6399 75.4641 28.1163 73.7946C28.5788 72.3089 29.4175 70.9682 30.5507 69.9034C32.2773 68.2204 34.9246 67.3788 38.4928 67.3783C39.8659 67.3675 41.2331 67.5597 42.5501 67.9493C43.8046 68.3296 44.754 68.7966 45.3984 69.3501C46.3653 70.1802 46.8487 71.3562 46.8487 72.8781C46.8487 73.3623 46.9411 73.6046 47.1257 73.6046C47.3103 73.6046 47.4139 73.3623 47.4365 72.8781C47.4365 72.7398 47.448 72.2151 47.4709 71.3042C47.4939 70.3933 47.517 69.7304 47.54 69.3154C47.5629 68.9696 47.5858 68.6527 47.609 68.3644C47.6322 68.076 47.6553 67.8569 47.6783 67.7071C47.6969 67.5985 47.7084 67.4886 47.7127 67.3786C47.7197 67.3328 47.717 67.2859 47.7049 67.2412C47.6927 67.1966 47.6712 67.1549 47.6419 67.119C47.6127 67.0832 47.5761 67.0538 47.5348 67.033C47.4934 67.0121 47.4481 67.0004 47.4018 66.9981C45.2838 66.7207 44.064 66.5478 43.7426 66.4792C42.0897 66.1891 40.4138 66.0503 38.7356 66.0642C34.1777 66.0642 30.6669 67.2978 28.2039 69.7652C26.87 71.0735 25.8537 72.6709 25.2334 74.4347C24.6712 75.9646 24.3678 77.5778 24.3356 79.2079C24.3356 83.5201 25.7284 86.9329 28.5139 89.4464C31.2762 91.9366 35.0746 93.1821 39.909 93.1821C42.7404 93.1821 44.8121 92.9169 46.1243 92.3864ZM70.2203 66.6002C69.9323 66.5655 69.7542 66.5483 69.6851 66.5483C69.5238 66.5483 69.4087 66.7095 69.3399 67.0325C69.1505 67.5476 68.8951 68.0359 68.5802 68.4851C60.9143 80.5224 56.69 87.0827 55.9076 88.1664C55.2859 89.0432 54.7852 89.7119 54.4053 90.1727C53.9495 90.7009 53.4203 91.1609 52.8341 91.5388C52.2498 91.9608 51.5514 92.1956 50.8315 92.2125C50.5785 92.2125 50.4518 92.2817 50.4515 92.42C50.4515 92.6043 50.6012 92.6967 50.9005 92.6973C51.3838 92.6973 51.9305 92.6858 52.5406 92.6626C53.1505 92.6396 53.6685 92.6222 54.0945 92.6108C54.5203 92.5989 54.7562 92.5931 54.8023 92.5936C54.8713 92.5936 55.1361 92.6051 55.5965 92.6283C56.0569 92.6513 56.6151 92.6685 57.2713 92.68C57.9273 92.6914 58.5431 92.6973 59.1187 92.6973C59.5099 92.6973 59.7056 92.6167 59.7057 92.4551C59.7059 92.2938 59.5677 92.2131 59.2914 92.2131C57.8179 92.2131 57.0813 91.7864 57.0813 90.9332C57.0813 90.2414 57.5763 89.0769 58.5662 87.4396C60.5457 84.0501 61.858 81.9169 62.5024 81.0401C62.5786 80.9521 62.6749 80.8841 62.7832 80.8419C62.8916 80.7996 63.0085 80.7847 63.1239 80.7979H69.2012C69.2408 80.7899 69.2817 80.7914 69.3206 80.802C69.3596 80.8125 69.3955 80.8321 69.4257 80.8589C69.4558 80.8858 69.4795 80.9194 69.4943 80.9569C69.5094 80.9946 69.5156 81.035 69.5122 81.0753V82.6665C69.5122 84.9957 69.4892 87.0595 69.4431 88.8579C69.4198 90.0571 69.3105 90.8758 69.115 91.3138C69.0395 91.5116 68.9166 91.6876 68.757 91.8263C68.5973 91.9651 68.4061 92.0622 68.2 92.1093C68.1078 92.1325 67.8429 92.167 67.4056 92.2131C67.152 92.2594 67.0259 92.3286 67.0259 92.4205C67.0259 92.6048 67.2101 92.6973 67.5783 92.6979C67.8774 92.6979 68.3724 92.6806 69.0632 92.6459C69.7539 92.6114 70.3641 92.5941 70.8933 92.5941C71.4916 92.5941 72.1591 92.6114 72.8961 92.6459C73.6329 92.6806 74.128 92.6979 74.381 92.6979C77.0743 92.7671 78.7547 92.8016 79.4224 92.8016C80.1357 92.8016 80.5961 92.7612 80.8036 92.6804C81.0111 92.5998 81.1723 92.3403 81.287 91.9023C81.3561 91.5797 81.4485 90.9801 81.5639 90.1038C81.6795 89.2274 81.7369 88.7085 81.7366 88.5472C81.7366 88.2014 81.6676 88.0283 81.5294 88.0283C81.3911 88.0283 81.2876 88.2014 81.2186 88.5472C81.0806 89.3314 80.8849 89.9137 80.6316 90.294C80.3486 90.6953 79.9326 90.9833 79.4577 91.1063C78.767 91.314 77.7311 91.4177 76.3499 91.4177C74.9454 91.4177 73.99 91.3138 73.4837 91.1063C73.2926 91.0399 73.1182 90.9329 72.9722 90.7928C72.8261 90.6526 72.7121 90.4824 72.6377 90.294C72.4561 89.7408 72.3574 89.1638 72.3442 88.5817V81.0418C72.3394 81.0087 72.3424 80.9752 72.3528 80.9435C72.3633 80.9121 72.3809 80.8833 72.4044 80.8596C72.428 80.8361 72.4566 80.8182 72.4881 80.8079C72.5197 80.7973 72.5533 80.7944 72.5862 80.7992C74.8421 80.7992 76.488 80.8567 77.5239 80.9718C78.56 81.0871 79.1584 81.4674 79.3195 82.1133C79.417 82.4267 79.4637 82.7538 79.458 83.0821C79.458 83.451 79.5386 83.6354 79.6998 83.6354C79.8146 83.6354 79.8952 83.4623 79.9414 83.1164C79.9414 83.0939 79.953 82.7999 79.9759 82.2343C79.9988 81.6689 80.0333 81.1789 80.0789 80.7645C80.1015 80.4416 80.136 80.1303 80.1826 79.8304C80.2291 79.5307 80.2694 79.3 80.3034 79.1387C80.3288 79.0365 80.3462 78.9325 80.3552 78.8274C80.3552 78.6431 80.2975 78.5501 80.1826 78.5501C80.0902 78.5501 79.952 78.6654 79.7682 78.8959C79.4912 79.2192 78.9156 79.4152 78.0416 79.4841C77.5117 79.5305 75.6814 79.5536 72.5512 79.5532C72.413 79.5532 72.344 79.438 72.344 79.2073V68.2425C72.344 68.0122 72.413 67.897 72.5512 67.8966C75.1065 67.8966 76.6834 67.9313 77.2819 68.0003C78.7088 68.1388 79.5377 68.5654 79.7682 69.2803C79.894 69.6472 79.9525 70.0339 79.9409 70.4217C79.9409 70.7217 80.0325 70.8714 80.2179 70.8714C80.3563 70.8714 80.4476 70.6756 80.4947 70.2832L80.6332 68.208C80.654 67.8524 80.706 67.4993 80.7887 67.153C80.8397 66.9652 80.8801 66.7746 80.9093 66.5822C80.9093 66.3747 80.8629 66.271 80.771 66.271C80.637 66.2933 80.508 66.3402 80.3913 66.4098C80.1841 66.5022 79.6547 66.5714 78.8029 66.6172C78.273 66.6405 75.6371 66.6521 70.8954 66.6518C70.6696 66.6474 70.4441 66.63 70.2203 66.6002ZM63.5388 79.2426C63.6768 78.9651 64.5745 77.4664 66.2321 74.7459C67.8896 72.0255 68.8796 70.423 69.2015 69.938C69.2351 69.8806 69.2828 69.8329 69.34 69.7994C69.3583 69.7883 69.3791 69.7824 69.4004 69.7824C69.4218 69.7824 69.4427 69.7883 69.461 69.7994C69.4804 69.8164 69.4952 69.838 69.5043 69.8622C69.5133 69.8864 69.5162 69.9124 69.5127 69.938V79.2771C69.5162 79.3173 69.51 79.3578 69.4951 79.3954C69.4801 79.433 69.4566 79.4666 69.4264 79.4935C69.3962 79.5203 69.3602 79.5399 69.3213 79.5504C69.2823 79.561 69.2415 79.5625 69.2019 79.5544H63.6768C63.4696 79.5544 63.4235 79.4501 63.5388 79.2426ZM102.983 68.0703C103.95 68.0933 104.676 68.1048 105.159 68.1048C107.876 68.1514 109.291 68.7853 109.407 70.0069C109.408 70.0705 109.414 70.1341 109.424 70.197C109.434 70.26 109.44 70.3235 109.441 70.3872C109.464 70.7795 109.556 70.9755 109.718 70.9754C109.88 70.975 109.961 70.8251 109.96 70.5255C109.96 70.4564 109.977 69.9031 110.012 68.8654C110.046 67.8276 110.063 67.1128 110.063 66.7207C110.063 66.4434 110.006 66.3047 109.891 66.3047C109.826 66.3081 109.762 66.3197 109.701 66.3394C109.587 66.3693 109.472 66.3925 109.356 66.4086C109.206 66.4316 109.062 66.4547 108.924 66.4777C108.113 66.6076 107.293 66.6653 106.472 66.6506H93.522C92.6105 66.6388 91.6999 66.5811 90.7939 66.4777C90.45 66.4604 90.1113 66.3844 89.7928 66.2527C89.6268 66.1724 89.4532 66.1087 89.2748 66.0626C89.1824 66.0626 89.0673 66.2817 88.9293 66.7197C88.4229 68.7492 88.1698 69.9484 88.1698 70.3171C88.1698 70.5246 88.227 70.6284 88.3424 70.6284C88.4806 70.6284 88.5956 70.513 88.6876 70.2824C88.8533 69.9093 89.0497 69.5507 89.2748 69.2103C89.5469 68.7985 89.9571 68.4977 90.4314 68.3627C90.9263 68.2132 91.7148 68.1267 92.797 68.1033C93.3495 68.1033 94.2011 68.0919 95.3521 68.0688C96.503 68.0458 97.3547 68.0343 97.9074 68.0342V82.6665C97.9074 86.702 97.8498 89.2039 97.7347 90.1722C97.5735 91.3479 97.2398 91.982 96.7335 92.0745C96.394 92.1573 96.0466 92.2039 95.6975 92.2131C95.5129 92.2131 95.4205 92.2823 95.4205 92.4205C95.4205 92.6048 95.6046 92.6973 95.973 92.6979C96.2718 92.6979 96.6918 92.6863 97.2332 92.6633C97.7748 92.6401 98.2582 92.6229 98.6836 92.6113C99.1093 92.5995 99.3338 92.5941 99.356 92.5941C99.3785 92.5941 99.6152 92.6054 100.064 92.6288C100.513 92.6521 101.077 92.6685 101.756 92.6804C102.435 92.6925 103.051 92.6979 103.603 92.6979C103.971 92.6979 104.156 92.6054 104.156 92.4205C104.156 92.2823 104.064 92.2131 103.879 92.2131C103.358 92.2022 102.839 92.1559 102.325 92.0745C101.842 92.0052 101.514 91.815 101.341 91.5037C101.138 91.0865 101.015 90.6347 100.978 90.1722C100.863 89.2036 100.805 86.7017 100.805 82.6663V68.0356C101.291 68.0356 102.017 68.0472 102.983 68.0703ZM120.191 88.8582C120.168 90.0576 120.058 90.8761 119.862 91.3142C119.787 91.5119 119.664 91.688 119.505 91.8268C119.345 91.9656 119.154 92.0627 118.948 92.1096C118.855 92.1328 118.59 92.1675 118.153 92.2135C117.9 92.2599 117.773 92.3291 117.773 92.421C117.773 92.6052 117.958 92.6976 118.326 92.6984C118.775 92.7184 119.225 92.7068 119.673 92.6636C120.248 92.6173 120.651 92.5943 120.881 92.5946C120.996 92.5946 122.435 92.6291 125.198 92.6984C127.891 92.7674 129.571 92.8019 130.239 92.8019C130.953 92.8019 131.413 92.7615 131.62 92.6809C131.828 92.6001 131.989 92.3408 132.104 91.9026C132.173 91.58 132.265 90.9806 132.381 90.1042C132.496 89.2278 132.554 88.7089 132.553 88.5477C132.553 88.2017 132.484 88.0287 132.346 88.0287C132.208 88.0287 132.105 88.2017 132.035 88.5477C131.897 89.3319 131.702 89.9142 131.449 90.2945C131.166 90.6958 130.749 90.9836 130.274 91.1067C129.584 91.3143 128.548 91.4181 127.167 91.418C125.762 91.418 124.807 91.3142 124.3 91.1067C124.109 91.0404 123.935 90.9333 123.789 90.7931C123.643 90.6529 123.529 90.4829 123.455 90.2945C123.273 89.7413 123.174 89.1643 123.161 88.5821V79.6229C123.156 79.5901 123.159 79.5566 123.17 79.5251C123.18 79.4935 123.198 79.465 123.222 79.4415C123.245 79.4179 123.274 79.4003 123.305 79.3898C123.336 79.3793 123.37 79.3763 123.403 79.3809C125.658 79.3809 127.305 79.4384 128.341 79.5539C129.377 79.6692 129.975 80.0496 130.136 80.6952C130.234 81.0087 130.28 81.3356 130.275 81.6638C130.275 82.0327 130.355 82.2173 130.517 82.2171C130.632 82.2171 130.712 82.0441 130.758 81.6985C130.758 81.6756 130.77 81.3814 130.793 80.8163C130.816 80.2511 130.85 79.7611 130.896 79.3462C130.919 79.0236 130.953 78.7125 131 78.4123C131.046 78.1124 131.087 77.8818 131.121 77.7205C131.146 77.6184 131.164 77.5142 131.173 77.4091C131.173 77.225 131.115 77.1318 131 77.1318C130.908 77.1318 130.769 77.2471 130.585 77.4778C130.308 77.8009 129.733 77.997 128.858 78.0658C128.328 78.1125 126.498 78.1354 123.368 78.135C123.23 78.135 123.161 78.0197 123.16 77.7891V68.2425C123.16 68.0122 123.23 67.897 123.368 67.8966C125.923 67.8966 127.5 67.9313 128.098 68.0003C129.526 68.1388 130.354 68.5654 130.585 69.2803C130.71 69.6472 130.769 70.0339 130.757 70.4217C130.757 70.7217 130.849 70.8715 131.034 70.8714C131.172 70.8714 131.264 70.6753 131.311 70.2832L131.45 68.208C131.47 67.8524 131.522 67.4993 131.605 67.153C131.656 66.9652 131.696 66.7747 131.726 66.5822C131.726 66.3747 131.679 66.271 131.587 66.271C131.453 66.2933 131.324 66.3402 131.207 66.4098C131 66.5022 130.471 66.5714 129.619 66.6172C129.089 66.6405 126.453 66.6521 121.711 66.6518C120.261 66.5827 118.96 66.548 117.809 66.548C117.441 66.548 117.257 66.6405 117.257 66.8255C117.257 66.9178 117.407 66.987 117.706 67.0328C117.775 67.0328 117.884 67.0388 118.034 67.0503C118.184 67.0617 118.316 67.0735 118.431 67.0848C118.525 67.0924 118.617 67.1097 118.708 67.1368C119.26 67.2524 119.634 67.4541 119.83 67.7419C120.026 68.0299 120.147 68.4854 120.193 69.109C120.239 69.8474 120.262 72.3377 120.262 76.5803V82.6665C120.262 84.9957 120.239 87.0595 120.193 88.8579L120.191 88.8582ZM28.0992 127.615C27.9379 128.791 27.6041 129.424 27.0979 129.517C26.7584 129.6 26.4111 129.647 26.062 129.656C25.8774 129.656 25.785 129.725 25.785 129.864C25.785 130.048 25.9693 130.141 26.3377 130.141C26.5223 130.141 26.764 130.135 27.0629 130.123C27.3616 130.112 27.6493 130.106 27.9259 130.106C28.2029 130.106 28.4665 130.1 28.7201 130.088C28.9737 130.078 29.1804 130.06 29.3418 130.037H29.5849C29.6075 130.037 29.8435 130.048 30.2928 130.072C30.7423 130.095 31.3063 130.112 31.9847 130.123C32.6633 130.135 33.2792 130.141 33.8323 130.141C34.2001 130.141 34.3844 130.048 34.3847 129.864C34.3847 129.725 34.2923 129.656 34.1077 129.656C33.5873 129.645 33.0682 129.599 32.5538 129.517C32.0704 129.448 31.7424 129.258 31.5699 128.947C31.3669 128.529 31.2439 128.078 31.2072 127.614C31.0918 126.646 31.0342 124.144 31.0345 120.108V119.279C31.0272 119.244 31.028 119.208 31.0371 119.173C31.046 119.138 31.063 119.106 31.0864 119.079C31.1098 119.053 31.1392 119.031 31.1721 119.018C31.2052 119.005 31.2408 118.998 31.2762 119.002L35.5236 119.07C35.6087 119.073 35.6921 119.092 35.7692 119.128C35.8464 119.164 35.9155 119.214 35.9724 119.277C36.157 119.509 36.698 120.24 37.5954 121.475C38.4928 122.708 39.2064 123.683 39.7363 124.397C40.7032 125.665 41.3247 126.478 41.601 126.836C41.9949 127.325 42.4158 127.793 42.8613 128.236C43.3117 128.722 43.8291 129.142 44.398 129.482C45.2034 129.919 46.4351 130.139 48.0929 130.139H50.5443C51.097 130.139 51.3732 130.046 51.3732 129.862C51.3732 129.723 51.2695 129.653 51.0623 129.653C50.6114 129.654 50.1613 129.619 49.7158 129.55C48.2652 129.32 46.8609 128.49 45.5028 127.059C44.3748 125.861 41.9806 122.91 38.3204 118.205C41.1054 115.623 42.4981 112.959 42.4986 110.215C42.5153 109.217 42.2522 108.234 41.7391 107.378C41.3261 106.655 40.7744 106.02 40.116 105.511C38.7115 104.496 36.6051 103.989 33.7969 103.989C33.3825 103.989 32.6171 104.006 31.5006 104.041C30.3841 104.075 29.7913 104.092 29.7222 104.092C29.6989 104.092 29.4689 104.081 29.0316 104.058C28.5945 104.035 28.0651 104.018 27.4432 104.006C26.8217 103.995 26.2811 103.989 25.8213 103.989C25.4529 103.989 25.2686 104.081 25.2687 104.266C25.2687 104.405 25.3603 104.474 25.5457 104.474C25.9397 104.463 26.3337 104.498 26.7198 104.577C27.2723 104.693 27.6464 104.895 27.8421 105.183C28.0379 105.47 28.1587 105.926 28.2047 106.55C28.2506 107.288 28.2737 109.779 28.2737 114.021V120.108C28.2737 124.145 28.2161 126.646 28.101 127.614L28.0992 127.615ZM31.3107 105.305C31.7707 105.167 32.5422 105.098 33.625 105.098C35.4664 105.098 36.9225 105.709 37.993 106.931C39.0637 108.153 39.5989 109.848 39.5989 112.016C39.5989 114.599 38.8966 116.374 37.4925 117.342C36.871 117.781 36.0076 118 34.9025 118C33.1071 118 31.8987 117.815 31.2769 117.446C31.2013 117.407 31.1385 117.347 31.0958 117.274C31.053 117.2 31.032 117.116 31.0352 117.031V105.72C31.028 105.63 31.0516 105.54 31.1018 105.464C31.152 105.389 31.2247 105.333 31.3107 105.305ZM67.6532 128.375C67.5152 128.975 67.239 129.333 66.8245 129.448C66.3667 129.592 65.8888 129.663 65.4089 129.656C65.2243 129.656 65.1319 129.724 65.1319 129.863C65.1319 130.048 65.3161 130.141 65.6845 130.141C66.306 130.141 67.0196 130.129 67.8254 130.106L68.9995 130.036C69.0454 130.036 69.241 130.048 69.5863 130.071C69.9317 130.094 70.3866 130.111 70.9512 130.123C71.515 130.134 72.0848 130.14 72.6606 130.141C73.0749 130.141 73.2821 130.048 73.282 129.863C73.282 129.724 73.1897 129.656 73.0051 129.656C72.423 129.66 71.8428 129.59 71.2786 129.448C70.795 129.31 70.4554 128.958 70.2598 128.393C70.0641 127.828 69.9547 126.842 69.9317 125.436L69.4828 108.867C72.2679 112.003 75.272 115.312 78.4954 118.793C79.6003 119.993 80.8723 121.343 82.3111 122.841C83.7499 124.34 84.9411 125.568 85.8848 126.524C86.8286 127.481 87.3695 128.029 87.508 128.167C88.9808 129.643 89.821 130.382 90.0288 130.381C90.0584 130.383 90.0878 130.377 90.115 130.365C90.142 130.353 90.1657 130.335 90.184 130.312C90.2339 130.215 90.2633 130.109 90.2705 130.001C90.2929 129.84 90.3102 129.598 90.322 129.274C90.3339 128.951 90.3398 128.502 90.3395 127.925L90.4085 107.725C90.4085 106.55 90.4891 105.766 90.6503 105.373C90.7351 105.176 90.868 105.002 91.0368 104.87C91.2059 104.737 91.4053 104.648 91.617 104.612C92.0316 104.543 92.3308 104.497 92.5149 104.474C92.7677 104.428 92.8943 104.347 92.8946 104.231C92.8946 104.07 92.6874 103.989 92.2731 103.989C91.7207 103.989 91.1049 104.006 90.4258 104.041C89.7466 104.075 89.384 104.093 89.3378 104.093C89.3147 104.093 88.8659 104.076 87.9912 104.041C87.1165 104.006 86.3683 103.989 85.7466 103.989C85.286 103.989 85.0557 104.07 85.0561 104.231C85.0561 104.393 85.2167 104.474 85.5396 104.474C86.0393 104.475 86.5373 104.533 87.0242 104.646C87.2595 104.693 87.4792 104.798 87.6633 104.953C87.8473 105.107 87.9898 105.305 88.0774 105.528C88.2502 105.977 88.348 106.779 88.3709 107.932L88.7507 125.503C88.4054 125.158 87.2371 123.89 85.2461 121.699C83.2548 119.51 81.6606 117.768 80.4635 116.477C73.9943 109.536 70.3341 105.581 69.4827 104.612C69.4362 104.566 69.3101 104.428 69.1026 104.196C68.8955 103.965 68.7282 103.793 68.6021 103.678C68.5167 103.583 68.4005 103.522 68.2741 103.505C68.0206 103.505 67.8939 104.081 67.8941 105.234V109.264C67.8941 109.367 67.8885 110.301 67.8771 112.065C67.8655 113.829 67.8597 116.453 67.8597 119.934V125.053C67.8604 126.669 67.7914 127.777 67.6532 128.375ZM125.716 120.143L128.927 128.654C129.111 129.16 129.042 129.472 128.72 129.587C128.658 129.592 128.599 129.619 128.555 129.664C128.511 129.708 128.484 129.767 128.478 129.829C128.478 129.944 128.823 130.025 129.514 130.071C131.102 130.117 132.909 130.141 134.935 130.141C135.395 130.141 135.625 130.048 135.625 129.863C135.625 129.724 135.499 129.656 135.246 129.656C134.789 129.66 134.334 129.589 133.899 129.448C132.84 129.149 131.85 127.868 130.93 125.608C130.308 124.064 129.37 121.665 128.115 118.414C126.861 115.162 125.698 112.13 124.628 109.317C123.557 106.504 122.976 104.982 122.884 104.752C122.561 103.921 122.308 103.506 122.124 103.506C121.941 103.507 121.687 103.956 121.365 104.855L113.526 126.335C113.248 127.154 112.852 127.929 112.352 128.635C112.145 128.904 111.885 129.128 111.588 129.291C111.291 129.455 110.963 129.555 110.626 129.586C110.351 129.625 110.074 129.648 109.797 129.656C109.475 129.656 109.314 129.724 109.313 129.863C109.313 130.048 109.532 130.141 109.969 130.141C110.614 130.141 111.419 130.123 112.387 130.088C113.354 130.054 113.849 130.036 113.871 130.036C113.964 130.036 114.338 130.054 114.994 130.088C115.65 130.123 116.139 130.141 116.461 130.141C116.876 130.141 117.083 130.048 117.083 129.863C117.083 129.724 116.933 129.656 116.634 129.656H116.323C116.016 129.66 115.714 129.569 115.46 129.396C115.338 129.315 115.238 129.204 115.172 129.074C115.105 128.944 115.074 128.799 115.08 128.652C115.11 127.857 115.273 127.075 115.564 126.335L117.635 120.213C117.654 120.134 117.698 120.065 117.76 120.015C117.823 119.964 117.901 119.936 117.981 119.935H125.405C125.471 119.935 125.537 119.954 125.592 119.991C125.648 120.028 125.691 120.081 125.716 120.143ZM118.258 118.449L121.296 109.11C121.481 108.58 121.653 108.58 121.814 109.11L125.094 118.449C125.14 118.611 125.094 118.692 124.956 118.691H118.36C118.222 118.691 118.188 118.61 118.258 118.449Z" fill="#C2040F"/>
</svg>
