<svg width="376" height="58" viewBox="0 0 376 58" fill="none" xmlns="http://www.w3.org/2000/svg">
<path d="M202.34 57.8735C198.858 57.5925 195.369 55.9583 192.781 53.6684C192.559 53.4716 191.398 52.3748 191.332 52.2282C191.271 52.0966 191.238 52.0015 191.332 51.8726L194.807 48.6366C197.782 52.292 203.338 54.3009 207.833 52.3721C211.941 50.6089 212.598 46.5476 212.321 42.5054C210.56 44.479 208.397 46.2151 205.752 46.8123C196.938 48.8049 189.449 41.0517 190.69 32.374C191.88 24.0466 201.01 18.4909 208.675 22.9132C210.192 23.7887 211.258 24.9207 212.443 26.1763V21.9739H217.614L217.62 46.5327C217.005 52.877 212.989 56.4863 206.912 57.6346C206.333 57.6495 205.622 57.6875 205.108 57.8749C204.206 57.8219 203.232 57.9468 202.341 57.8749L202.34 57.8735ZM204.103 26.2197C193.368 26.2768 193.445 43.313 205.284 42.2624C214.769 41.4209 214.526 26.1641 204.103 26.2197Z" fill="black"/>
<path d="M375.762 32.6588C375.787 33.0823 375.644 33.6551 375.882 33.9796V34.7003C375.644 35.0247 375.787 35.5975 375.762 36.021C375.205 45.2226 363.98 49.444 356.236 45.8497C346.901 41.517 346.4 28.4279 355.206 23.2428C363.063 18.6155 375.174 23.0283 375.762 32.6588ZM362.028 26.2114C352.122 26.6973 352.305 41.5509 361.386 42.269C373.412 43.2191 372.929 25.6766 362.028 26.2114Z" fill="black"/>
<path d="M305.156 33.86V46.588H299.383V10.6871L313.639 10.6816C323.07 10.7034 329.723 21.075 323.726 29.0468C319.42 34.7708 311.499 33.8451 305.156 33.86ZM305.156 28.8174C309.339 28.5391 315.727 29.9427 318.743 26.233C320.593 23.958 320.365 19.7991 318.207 17.7684C317.159 16.7816 314.702 15.7297 313.273 15.7297H305.154V28.8174H305.156Z" fill="black"/>
<path d="M91.3354 33.86V46.588H85.5625V10.6871L99.8189 10.6816C109.269 10.7142 115.928 21.1374 109.854 29.1147C105.552 34.7627 97.6254 33.8451 91.3354 33.86ZM91.3354 28.8174H99.333C100.654 28.8174 103.106 27.8591 104.141 27.0135C106.682 24.9394 106.819 20.3692 104.625 18.0101C103.58 16.8848 100.975 15.7297 99.4524 15.7297H91.334V28.8174H91.3354Z" fill="black"/>
<path d="M28.5547 2.64008L46.0579 2.63465C48.455 2.88033 50.7001 3.64181 52.8081 4.78064C57.263 7.18725 60.9048 12.0575 66.5188 9.62508C70.5828 7.86457 71.195 3.97708 71.6103 0L76.9013 0.358344C76.6991 2.81246 76.3285 5.49326 75.358 7.76413C72.6731 14.0487 65.3841 17.1191 58.9515 14.7369C55.3084 13.3877 52.595 10.3363 49.1161 8.8283C44.6259 6.88184 38.6603 8.19306 33.8457 7.80349V15.6681C33.8457 18.2878 37.1726 21.7314 39.7991 21.7314H42.5057V27.0143C36.4817 27.5667 30.7048 24.2751 29.004 18.3407C28.8737 17.886 28.5547 16.796 28.5547 16.3875V2.64008Z" fill="black"/>
<path d="M267.996 35.8989H247.671C248.672 43.4119 258.818 44.7775 262.643 38.6666L266.78 41.4655C260.576 50.5761 244.671 48.4708 242.319 37.221C240.173 26.9539 249.194 19.3961 259.076 21.8122C265.462 23.3732 268.956 29.5383 267.996 35.8989ZM262.825 31.9368C261.546 23.6501 249.295 24.0505 247.792 31.9368H262.825Z" fill="black"/>
<path d="M126.432 21.4076C135.705 20.6746 143.304 28.3967 140.826 37.7001C137.867 48.8182 121.734 50.5068 116.015 40.8587C111.011 32.4145 116.82 22.1664 126.43 21.4062L126.432 21.4076ZM127.154 26.21C117.432 26.9592 117.644 41.5686 126.873 42.2676C138.777 43.1702 138.209 25.3575 127.154 26.21Z" fill="black"/>
<path d="M148.211 38.0608C149.385 40.7755 152.081 42.4016 155.008 42.6215C157.469 42.8061 161.858 42.1261 161.567 38.8345C161.457 37.5898 160.294 36.9152 159.238 36.4781C154.922 34.6904 146.097 35.1479 145.689 28.8741C145.12 20.149 159.489 19.8381 164.625 24.0161C164.917 24.2537 166.332 25.6436 166.355 25.8961C166.364 25.9924 166.336 26.059 166.262 26.12L162.934 28.5714C162.789 28.6054 162.31 27.9172 162.105 27.7339C159.959 25.8051 155.744 25.0111 153.059 26.0332C150.812 26.8883 150.657 29.056 152.857 30.1229C156.978 32.1223 166.59 31.4803 167.213 37.883C168.212 48.1406 152.58 49.4111 146.406 43.8866C145.895 43.4305 143.727 40.9845 143.892 40.4212C143.961 40.1851 147.671 38.3214 148.209 38.0608H148.211Z" fill="black"/>
<path d="M289.765 28.5748C288.866 27.0967 286.992 26.2171 285.312 25.8737C283.551 25.514 279.435 25.3049 278.528 27.2677C277.793 28.8599 278.965 29.734 280.298 30.2783C284.335 31.9262 293.273 31.7891 294.157 37.4547C295.863 48.4005 278.067 50.0619 272.085 42.4403C271.835 42.1213 270.722 40.6703 270.933 40.3405L275.207 38.0601C276.891 41.8173 280.946 43.157 284.858 42.4702C286.235 42.2286 288.087 41.4372 288.502 39.9862C288.975 38.337 288.063 37.3217 286.659 36.6539C282.546 34.6952 273.955 35.2965 272.836 29.6824C270.935 20.1537 287.089 19.4004 292.471 24.7267C292.588 24.8421 293.337 25.7108 293.355 25.7759C293.412 25.989 293.311 26.0433 293.189 26.175C292.436 26.984 290.833 27.6925 290.001 28.5151L289.765 28.5721V28.5748Z" fill="black"/>
<path d="M0.0505348 28.4552C0.184914 23.4601 1.71602 19.2034 4.9194 15.3661C9.52902 9.84439 16.5792 7.24368 23.7433 7.80291V13.0858C21.4494 13.041 19.3346 13.007 17.1031 13.6002C10.6692 15.3119 5.90078 21.0481 5.34426 27.6761V46.5869C3.58104 46.5869 1.81375 46.5869 0.0518922 46.5869C0.172698 40.5521 -0.110992 34.4901 0.0518922 28.4566L0.0505348 28.4552Z" fill="black"/>
<path d="M179.124 21.9727H187.302V26.6556H179.124V38.2421C179.124 38.5733 179.373 39.6768 179.51 40.0175C179.826 40.7994 180.516 41.3301 181.312 41.5798C181.72 41.7074 182.877 41.9043 183.272 41.9043H187.301V46.5872C183.237 46.4921 178.271 47.3337 175.397 43.7625C174.603 42.7757 173.711 40.4505 173.711 39.2031V26.6556H169.742V21.9727H173.711V15.6094H178.942C178.955 15.6094 179.123 15.7763 179.123 15.7899V21.9741L179.124 21.9727Z" fill="black"/>
<path d="M228.67 21.9707V26.0537C229.237 25.2677 229.662 24.5402 230.417 23.8954C231.45 23.0145 233.746 21.9707 235.104 21.9707H240.456V26.6536C236.172 26.6536 230.863 26.1568 229.571 31.3352C229.483 31.6908 229.271 32.6518 229.271 32.9572V46.5852H223.859V21.9707H228.67Z" fill="black"/>
<path d="M335.584 21.9721V26.055L336.364 24.8524C337.496 23.4434 340.073 21.9721 341.898 21.9721H347.37V26.655C346.231 26.6984 345.076 26.598 343.937 26.6495C341.251 26.7731 338.456 27.164 337.05 29.7389C336.712 30.3592 336.185 31.9229 336.185 32.5975V46.5852H330.773V21.9707H335.584V21.9721Z" fill="black"/>
<path d="M46.4749 46.5846C46.6513 42.5383 46.2414 38.2966 46.4694 34.272C46.6106 31.7989 47.3341 29.1004 48.7322 27.0454C51.413 23.1063 56.1312 21.5331 60.0051 19.0898C60.339 19.6681 62.785 23.2257 62.6967 23.5664C62.6004 23.9411 56.8492 26.8662 55.9859 27.4417C54.0503 28.7326 51.8867 31.0564 51.8867 33.5553V46.4027C51.8867 46.415 51.7184 46.5833 51.7062 46.5833H46.4749V46.5846Z" fill="black"/>
<path d="M36.4892 46.5874H31.1982V43.4057C31.1982 43.0596 30.6648 41.857 30.453 41.5081C28.3857 38.1147 23.1857 38.2369 21.3926 41.7796C21.2826 41.9968 20.8564 43.1275 20.8564 43.2849V46.5874H15.4446C15.3157 43.6419 15.5396 40.9394 17.1997 38.4337C21.3953 32.0989 30.9688 32.2224 34.9785 38.6726C35.4902 39.4952 36.4919 41.7701 36.4919 42.685V46.5874H36.4892Z" fill="black"/>
</svg>
