<svg width="221" height="61" viewBox="0 0 221 61" fill="none" xmlns="http://www.w3.org/2000/svg">
<path d="M55.1202 0H0V55.0813L55.1202 0Z" fill="white"/>
<path d="M4.92188 60.1185H60.0226V5.04688L4.92188 60.1185Z" fill="white"/>
<path d="M92.0463 0.0769156H72.5469V60.1082H84.5881V37.686H92.3071C106.374 37.686 114.44 30.9325 114.44 19.1714V18.8434C114.431 6.91798 106.269 0.0777997 92.0472 0.0777997L92.0463 0.0769156ZM102.659 19.1706C102.659 25.4034 98.9926 28.6931 92.0463 28.6931H84.5881V9.64805H92.0463C99.2728 9.64805 102.659 12.5425 102.659 18.8328V19.1706ZM143.76 23.6573H133.938V9.82221H160.075V0.0769156H121.984V60.1082H143.538C157.296 60.1082 165.189 53.451 165.189 41.8439V41.4867C165.189 30.005 157.585 23.6564 143.76 23.6564V23.6573ZM133.91 32.6591H142.796C150.042 32.6591 153.553 35.5536 153.553 41.4292V41.7572C153.553 47.6426 150.08 50.6237 143.21 50.6237H133.938L133.909 32.6591H133.91ZM194.925 28.7417L219.798 0H206.58L184.775 25.8569V0.0769156H172.733V60.1082H184.775V33.537L206.657 60.1082H221.004L194.925 28.7417Z" fill="white"/>
</svg>
