<svg width="197" height="60" viewBox="0 0 197 60" fill="none" xmlns="http://www.w3.org/2000/svg">
<path d="M24.2861 0H0V24.2402H24.2861V0Z" fill="black"/>
<path d="M52.8408 0H28.5547V24.2402H52.8408V0Z" fill="black"/>
<path d="M24.2861 28.502H0V52.7421H24.2861V28.502Z" fill="black"/>
<path d="M94.846 28.502V50.121H97.7988V59.7843H94.6817V52.7421H77.9452V59.7843H74.8281V50.121H77.2078C77.4098 50.121 78.6267 47.8284 78.7959 47.4474C79.9077 44.9347 80.4316 41.9112 80.8734 39.2031C81.4515 35.664 81.7964 32.0641 82.2135 28.502H94.8492H94.846ZM91.563 31.2856H85.2452C85.1253 31.2856 85.0251 31.5599 85.0005 31.6962C84.6704 33.5027 84.5915 35.5556 84.3189 37.4032C83.6784 41.7421 83.0215 46.1582 81.0606 50.1194H91.563V31.284V31.2856Z" fill="black"/>
<path d="M165.406 28.502V31.4499C167.973 31.6584 170.241 31.7832 172.3 33.4945C175.573 36.2158 175.818 41.5401 173.68 45.0299C171.928 47.8908 168.668 48.9993 165.406 48.8105V52.5779H162.125V48.8105C156.855 49.0979 152.849 45.9118 152.599 40.5481C152.376 35.7412 154.923 32.2858 159.765 31.6338C160.548 31.5287 161.356 31.7488 162.125 31.4499V28.502H165.406ZM162.123 33.9067C160.955 33.8887 159.67 34.0808 158.615 34.5817C155.748 35.9464 155.5 40.1835 156.334 42.8785C157.094 45.3338 159.645 46.6164 162.123 46.3536V33.9067ZM165.406 46.3536C168.856 46.6952 171.386 44.6752 171.648 41.2018C171.997 36.6116 170.29 33.841 165.406 33.9067V46.3536Z" fill="#0B0A0D"/>
<path d="M134.36 28.5488C141.706 27.8393 147.599 31.3325 148.175 39.066C148.845 48.0362 143.565 53.6791 134.478 52.9006C121.24 51.7675 120.879 29.8511 134.36 28.5471V28.5488ZM135.672 31.1699C128.85 31.5854 126.825 38.0642 128.206 43.9288C130.192 52.357 142.264 52.5623 144.391 44.2934C146.086 37.7013 143.455 30.6969 135.672 31.1715V31.1699Z" fill="#0B0A0D"/>
<path d="M71.3774 28.502V31.0409C71.3774 31.059 71.1491 31.2873 71.131 31.2873H56.1172V38.9847H70.2294V41.6058H56.1172V50.1227H72.0343V52.7438H52.8359V28.5036H71.379L71.3774 28.502Z" fill="black"/>
<path d="M31.836 43.4057V52.9047H28.5547V28.502H40.4514C42.767 28.502 45.8299 30.3594 46.8005 32.4829C49.0981 37.5148 45.5852 43.4057 39.9587 43.4057H31.836ZM31.836 40.7846H39.466C39.7485 40.7846 41.0919 40.4233 41.4401 40.2985C45.058 39.0175 45.1287 32.9936 41.4647 31.5812C41.2118 31.4843 39.9637 31.1198 39.7929 31.1198H31.8343V40.783L31.836 40.7846Z" fill="black"/>
<path d="M121.103 34.5543L118.098 35.3935C116.211 30.373 108.446 29.8622 105.109 33.5771C102.311 36.6925 102.206 42.8757 104.242 46.4034C107.482 52.0151 116.283 51.3844 118.661 45.3819C118.942 45.1831 120.989 46.4444 121.443 46.607C120.126 49.6584 117.331 51.997 114.056 52.6621C105.889 54.3176 99.7538 49.7224 99.4434 41.3665C99.1346 33.0532 104.071 27.8866 112.503 28.4959C116.098 28.7553 120.304 30.7901 121.105 34.5559L121.103 34.5543Z" fill="#0B0A0D"/>
<path d="M196.254 28.502V31.1214H188.049V52.2494H184.767V31.1214H176.562V28.502H196.254Z" fill="#0B0A0D"/>
</svg>
