<svg width="256" height="70" viewBox="0 0 256 70" fill="none" xmlns="http://www.w3.org/2000/svg">
<path d="M37.5694 0L40.6525 0.41855C46.4975 1.38784 51.9269 3.89882 56.5883 7.49758L56.6771 7.8177L49.9657 12.7024C37.1923 4.07242 19.7843 7.94575 11.9494 21.1632C1.09638 39.472 15.2274 62.412 36.3648 61.3338C49.5191 60.6629 60.6279 49.8596 61.5172 36.7135C61.5583 36.1058 61.3662 34.2618 61.6303 33.9L68.9651 28.5034C69.2199 28.4044 69.2273 28.9226 69.2607 29.0937C72.5964 46.1268 60.8403 63.5921 44.4465 68.1357C42.1849 68.7625 39.8759 69.0654 37.5694 69.4719H32.3481C30.9567 69.1556 29.5205 69.0715 28.1193 68.7985C13.6185 65.9732 2.40109 53.9719 0.398482 39.3637C0.264699 38.3874 0.367585 37.2993 0 36.3899V33.0817C0.346562 32.5153 0.190481 31.8356 0.255462 31.2374C2.05898 14.6136 15.2309 1.41268 32.0181 0.117856L32.2204 0H37.5691H37.5694Z" fill="white"/>
<path d="M255.978 27.8673C256.006 28.5085 256.009 29.2631 255.978 29.9031C255.699 35.5834 252.495 40.0413 247.276 42.2672C241.793 44.6058 235.811 43.741 229.998 43.899V55.6684L229.807 55.8592H220.828V13.8711L240.121 13.8724C248.403 14.3508 255.582 19.0507 255.978 27.8673ZM229.998 36.9012C235.039 36.5664 243.357 38.4442 246.068 32.7896C247.295 30.2308 247.125 26.0826 245.333 23.8064C241.945 19.5018 234.772 21.2355 229.998 20.8692V36.9012Z" fill="white"/>
<path d="M172.817 13.8711L163.456 20.8692H145.818V30.1576C152.851 30.5952 161.984 28.6653 168.02 33.1056C173.993 37.5 173.72 47.9893 167.911 52.4216C160.305 58.2259 146.139 54.9762 137.088 55.8659L136.648 55.6684V13.8711H172.817H172.817ZM145.818 48.7343C150.158 48.3673 155.67 49.4676 159.799 48.1342C164.383 46.6543 165.051 40.3878 160.932 38.2776C156.97 36.2472 150.454 37.8288 146.078 37.2083L145.818 37.3468V48.7346V48.7343Z" fill="white"/>
<path d="M212.43 13.8711L203.069 20.8692H189.761V31.0482H209.119V38.0463H189.952L189.761 38.2371V48.5432L189.952 48.7343H212.366L212.557 48.9251V55.6687L212.366 55.8595H180.719V13.8711H212.43Z" fill="white"/>
<path d="M128.124 18.9575L121.687 23.5469C120.549 22.9449 119.544 22.2926 118.289 21.8517C108.186 18.3042 98.1276 25.9155 99.4855 36.6937C100.701 46.3436 110.395 50.752 119.149 47.5916C120.616 47.0618 121.893 46.1674 123.321 45.5667L129.14 49.942C125.686 53.5866 120.823 55.7201 115.833 56.2394C101.371 57.7444 89.5594 47.4186 90.6835 32.6391C91.7942 18.0338 106.361 10.526 119.772 14.135C122.243 14.7998 125.618 16.3765 127.489 18.131C127.634 18.2667 128.238 18.7903 128.124 18.9575Z" fill="white"/>
<path d="M21.6484 25.4484L34.9506 33.598L62.2665 13.5398L62.515 13.498C64.057 15.6873 65.5484 17.9269 66.5938 20.4095L35.0506 43.6199L34.5473 43.5447L21.6484 35.4362V25.448V25.4484Z" fill="white"/>
</svg>
