<svg width="92" height="70" viewBox="0 0 92 70" fill="none" xmlns="http://www.w3.org/2000/svg">
<g clip-path="url(#clip0_13644_685)">
<path d="M34.8496 5.39303V1.27944H44.1464V27.4721C44.3074 27.5099 44.3058 27.4125 44.3805 27.3311C48.3133 22.9665 51.9939 18.3542 55.8919 13.956H67.3053L54.9547 27.8625L67.7204 49.971H56.5559L48.1299 34.524C48.0029 34.493 47.9971 34.5433 47.929 34.613C46.6466 35.9151 45.4421 37.3045 44.1472 38.5956V49.971H34.8504V47.4525C34.1714 47.748 33.5912 48.2341 32.9429 48.5875C25.9039 52.424 13.5118 52.2033 6.9335 47.4365C2.96909 44.5637 0.846596 39.8717 0.982728 34.9438H10.5285C10.5999 40.1 14.6996 42.5707 19.3655 42.8385C23.2909 43.0635 30.0916 42.5027 30.7731 37.4942C31.2139 34.2503 29.3396 32.819 26.6136 31.8149C21.0812 29.7774 14.1916 29.3258 8.92235 26.9567C-1.37135 22.3276 -0.379417 7.30544 9.11576 2.32714C15.7181 -1.13499 27.3018 -0.851239 33.2285 3.96839C33.7091 4.35876 34.154 4.92291 34.5997 5.26795C34.6836 5.33259 34.7043 5.42997 34.8496 5.39303ZM34.8496 24.7857V15.803H29.3296L29.2209 15.6611C28.9428 12.4944 27.2196 10.1337 24.2463 9.10702C19.6809 7.52959 10.287 8.22134 11.0498 15.0659C11.3379 17.6499 13.3823 18.5994 15.5745 19.2206C21.2962 20.84 28.3286 21.6804 33.6344 24.2098C33.8278 24.3021 34.7492 24.8906 34.8496 24.7857Z" fill="#111104"/>
<path d="M13.5185 59.291H10.3642C9.90765 56.1521 5.9175 55.6005 4.18515 58.0368C2.95581 59.7662 2.93257 63.1637 3.79252 65.0559C5.29495 68.3628 9.70179 67.875 10.3642 64.3281H13.5185C13.1615 67.0053 11.3038 69.3114 8.62353 69.8294C4.26649 70.6722 0.858226 68.3577 0.166777 63.9369C-0.702306 58.3785 1.81364 53.2986 7.98687 53.8451C10.8307 54.097 13.3948 56.3141 13.5176 59.291H13.5185Z" fill="#111104"/>
<path d="M76.3938 58.1992C77.3567 58.289 78.7346 58.7844 79.3381 59.5869C80.0785 60.5708 80.0204 62.0265 79.119 62.887C78.7645 63.2254 78.2988 63.3647 77.9295 63.6552C80.921 64.2974 80.9733 68.4496 78.0299 69.3412C75.7995 70.017 72.7191 69.4016 70.375 69.6165V58.1992H76.393H76.3938ZM75.5638 60.214C74.8748 60.1368 74.0663 60.2703 73.3641 60.214V62.8165H75.7298C76.1788 62.8165 76.8288 62.3111 76.9143 61.8318C77.0969 60.8084 76.5067 60.319 75.5638 60.214ZM73.3641 67.5178H76.1448C76.1764 67.5178 76.6561 67.3121 76.7292 67.2693C77.5368 66.7916 77.4372 65.3695 76.6802 64.8775C76.5424 64.7877 75.9439 64.5795 75.8128 64.5795H73.3641V67.5178Z" fill="#111104"/>
<path d="M29.5241 57.8886C33.8272 57.6342 36.2136 60.9763 35.5903 65.1151C34.6506 71.3611 25.6161 71.4492 24.3519 65.6717C23.4995 61.773 25.3447 58.1354 29.5241 57.8886ZM29.7764 60.403C25.8884 60.549 26.3939 68.6503 30.8688 67.224C33.3715 66.4264 33.4885 60.2636 29.7764 60.403Z" fill="#111104"/>
<path d="M63.3033 57.889C67.9674 57.6069 70.3655 61.6257 69.1901 65.9416C67.7143 71.3606 59.3073 71.1986 58.1311 65.589C57.3226 61.7298 59.172 58.1392 63.3033 57.8899V57.889ZM63.554 60.405C60.2046 60.557 60.2436 66.4613 62.821 67.2244C64.7434 67.7936 66.1786 66.6443 66.3803 64.6958C66.5928 62.6348 66.0425 60.2925 63.554 60.405Z" fill="#111104"/>
<path d="M85.8805 57.8877C90.3869 57.6317 92.6497 61.2777 91.8337 65.5029C90.6476 71.6456 81.0196 71.3677 80.5033 64.6198C80.2252 60.978 82.1244 58.101 85.8805 57.8877ZM86.1312 60.4037C83.6036 60.5204 83.1578 63.3848 83.7132 65.4013C84.3349 67.6571 87.4103 68.1104 88.472 66.1334C89.5336 64.1563 89.0289 60.2703 86.1312 60.4037Z" fill="#111104"/>
<path d="M46.7186 58.1992V69.6166H43.8134V60.6338H40.6591C40.5687 62.8325 40.9023 65.2889 40.2657 67.4137C39.7751 69.0516 38.7915 69.9037 37.05 69.8684C36.83 69.8642 35.4297 69.6929 35.4297 69.4906V67.3499C36.3245 67.5111 37.0384 67.6017 37.3986 66.6128C37.5115 66.303 37.6709 65.4366 37.6709 65.1252V58.1992H46.7186Z" fill="#111104"/>
<path d="M51.207 58.1992V62.3968C52.511 61.0754 53.6698 59.5962 54.9008 58.1992H58.5116L54.6891 62.6108L58.5946 69.6165H55.1498L52.4529 64.7869L51.207 65.9647V69.6165H48.3433C48.3341 69.6165 48.2188 69.4999 48.2188 69.4906V58.1992H51.207Z" fill="#111104"/>
<path d="M17.4179 58.1992V62.3968C18.7129 61.0678 19.87 59.5869 21.1118 58.1992H24.7226L20.8453 62.6058L24.8056 69.6165H21.3608L18.6215 64.7491C18.4937 64.9405 17.4179 65.8791 17.4179 65.9647V69.6165H14.5542C14.5451 69.6165 14.4297 69.4999 14.4297 69.4906V58.1992H17.4179Z" fill="#111104"/>
</g>
<defs>
<clipPath id="clip0_13644_685">
<rect width="92" height="70" fill="white"/>
</clipPath>
</defs>
</svg>
