<svg width="211" height="143" viewBox="0 0 211 143" fill="none" xmlns="http://www.w3.org/2000/svg">
<path d="M158.064 142.606H146.166L143.952 112.191H135.373L132.605 142.606H121.812L130.943 28.6875H148.792L158.061 142.606H158.064ZM136.478 97.2595H142.844L140.631 55.5063H139.129L136.481 97.2595H136.478Z" fill="black"/>
<path d="M60.5141 28.6911C71.8583 29.8407 75.105 38.9937 75.6064 49.0026C76.0801 58.4741 76.3267 72.9043 75.2823 82.1597C74.3016 90.8638 70.6781 98.3795 60.9518 98.8948L58.1566 85.653C61.2011 85.2956 63.2954 83.9991 63.6639 80.7801C62.5447 70.7989 65.5393 55.7509 63.0128 46.3736C62.0516 42.8 59.7384 42.016 56.2202 42.2376V142.609H44.322V29.1066C44.322 29.0235 43.9729 28.8933 44.0449 28.6911C49.314 29.0817 55.3282 28.1647 60.5113 28.6911H60.5141Z" fill="black"/>
<path d="M19.6973 60.4863V46.5243C19.6973 45.7126 18.8358 43.0808 18.182 42.5074C17.3703 41.7954 15.4339 41.776 14.4255 42.0835C12.8022 42.5794 12.3312 45.3109 12.2177 46.7902C11.8908 50.9705 11.7855 59.5638 12.2564 63.6361C12.5279 65.9742 14.5419 69.6835 15.6805 71.8277C20.304 80.5429 30.8504 93.8706 31.6094 103.472C32.1136 109.863 32.2244 124.706 30.8642 130.673C26.8972 148.079 1.65469 146.691 0.316659 126.72C0.194768 124.881 0.0340938 119.75 0.336051 118.144C0.405307 117.772 0.565982 117.515 0.870709 117.293L12.2287 108.872V125.324C12.2287 126.404 13.1346 128.626 14.2843 129.078C18.5449 130.745 19.484 126.936 19.7112 123.678C20.2819 115.467 20.1655 106.581 16.6168 99.0981C10.96 87.1694 0.571522 77.8669 0.153215 63.6195C-0.018541 57.7964 -0.312187 45.5353 1.01476 40.2995C4.94852 24.7806 26.3432 24.5423 30.5623 39.5377C31.3352 42.283 32.1025 48.2363 31.59 50.94C31.4737 51.555 31.0221 51.796 30.6177 52.1811L19.6973 60.4863Z" fill="black"/>
<path d="M196.803 28.6875V43.2036L196.388 43.6192H185.179V142.606H173.281V43.6192H162.765L161.383 28.6875H196.803Z" fill="black"/>
<path d="M100.226 28.6875V127.261L100.642 127.674H110.188L113.233 142.606H88.3281V28.6875H100.226Z" fill="black"/>
<path d="M203.106 0.00531621C213.143 -0.365897 213.644 18.8236 204.419 19.8403C192.917 21.1091 192.745 0.387611 203.106 0.00531621ZM201.993 1.38213C193.959 2.7728 194.56 20.0453 204.394 18.71C212.65 17.5881 212.098 -0.365897 201.993 1.38213Z" fill="black"/>
<path d="M205.244 4.63281C206.685 5.0345 207.026 8.45022 205.851 9.5223C205.411 9.92399 204.458 9.87136 204.278 10.4337C205.197 10.2703 207.242 14.6805 207.042 14.8606C205.269 15.157 205.07 12.6305 204.231 11.4504C203.466 10.3728 202.128 9.54724 200.956 10.575V14.8606H200.125V4.63281H205.244ZM200.953 9.05967C207.131 10.2675 207.078 4.53031 201.214 5.58578L200.953 9.05967Z" fill="black"/>
</svg>
