<svg width="320" height="55" viewBox="0 0 320 55" fill="none" xmlns="http://www.w3.org/2000/svg">
<path d="M55.8871 0V29.0759C54.9297 43.9094 38.6155 47.3615 28.4635 54.4664C28.3064 54.5685 28.1493 54.6721 27.9905 54.7742C25.7486 53.4248 22.3273 51.4048 18.075 49.0462C12.0797 45.7221 10.6995 45.0174 8.62929 43.613C4.83221 41.0341 0 34.8201 0 30.0494V0H55.8871ZM40.6599 22.6788V14.4982L40.4169 14.2553H15.3892V22.6788C16.1506 22.3694 16.7791 21.8348 17.5469 21.5157C19.0891 20.8742 20.9277 20.6555 22.5897 20.5664C23.0368 20.5421 23.6783 20.4547 23.9747 20.8159V31.5074C23.9747 31.8832 23.654 33.2066 23.5341 33.6586C23.2296 34.8185 22.6335 35.8358 22.1928 36.9341H33.6942C33.3395 35.9249 32.7806 35.0614 32.4809 34.0166C31.3194 29.9846 32.131 24.9127 31.9836 20.7236C32.2963 20.2732 36.0885 20.7819 36.8061 20.9439C38.2932 21.2808 39.3332 22.0341 40.6615 22.6772L40.6599 22.6788Z" fill="#F4F4F4"/>
<path d="M119.547 9.72032C128.1 9.33316 135.186 9.39471 140.371 9.55023C145.815 9.71384 147.545 10.4331 149.523 11.4131C156.905 15.0758 156.622 27.6123 149.214 31.1259L149.186 31.3332L155.349 41.469H144.738L139.475 32.9629L129.253 32.924C129.258 35.7718 129.263 38.6212 129.268 41.469H119.548V9.72032H119.547ZM129.266 17.3339L129.274 25.2731C130.423 25.3039 137.024 25.4708 141.497 25.2731C141.769 25.2618 142.474 25.2213 143.12 24.7596C145.01 23.4102 145.177 19.3297 143.433 17.9171C142.778 17.3874 141.997 17.3485 141.659 17.3355C136.88 17.1557 130.455 17.3064 129.266 17.3355V17.3339Z" fill="#F4F4F4"/>
<path d="M319.285 9.55859V17.3342H296.606V21.8699H317.665V28.9976H296.849L296.606 29.2406V33.6953H319.285V41.4709H286.805L286.562 41.2279V9.72059L319.285 9.55859Z" fill="#F4F4F4"/>
<path d="M89.5789 33.8558L89.5627 41.4694C86.3277 41.4694 83.0943 41.4694 79.8594 41.4694V9.71906C81.8859 9.60405 83.9059 9.53115 85.9422 9.54897C89.4946 9.57975 93.0746 9.53115 96.632 9.54897C106.277 9.60243 116.086 10.8076 115.172 23.0801C114.211 35.9892 98.6617 33.6954 89.5789 33.8542V33.8558ZM89.5789 17.3327C89.5821 20.3068 89.5853 23.2794 89.587 26.2535C94.3025 26.3686 98.1061 26.32 100.837 26.2422C101.555 26.2211 102.639 26.1758 103.515 25.4355C105.439 23.8107 105.597 19.5017 103.458 17.9515C103.086 17.6826 102.417 17.331 101.323 17.3327H89.5789Z" fill="#F4F4F4"/>
<path d="M210.742 41.4713C214.98 30.9143 219.216 20.3573 223.454 9.79871C228.236 9.74525 233.016 9.69018 237.798 9.63672C242.136 20.2504 246.473 30.8641 250.811 41.4762C247.255 41.4745 243.699 41.4729 240.144 41.4713L238.012 36.6375C232.987 36.6261 227.96 36.6148 222.935 36.6035C222.245 38.2266 221.557 39.8481 220.867 41.4713H210.742ZM225.483 29.3219H235.527C233.771 25.0632 232.015 20.806 230.259 16.5473C228.667 20.806 227.076 25.0632 225.483 29.3219Z" fill="#F4F4F4"/>
<path d="M194.556 34.435C197.714 26.2528 200.873 18.0707 204.032 9.88846C207.674 9.83176 211.317 9.77669 214.958 9.71999L202.087 41.4801L187.013 41.3083L173.812 9.71999L185.069 9.70703C188.231 17.9492 191.393 26.1929 194.554 34.435H194.556Z" fill="#F4F4F4"/>
<path d="M282.673 9.7207C282.667 12.528 282.66 15.3353 282.654 18.1443C278.286 18.1443 273.919 18.1443 269.552 18.1443C269.547 25.9215 269.542 33.6971 269.536 41.4743C266.301 41.4743 263.066 41.4727 259.832 41.471V18.1443C255.462 18.1362 251.093 18.1281 246.722 18.1183C246.719 15.3467 246.714 12.5734 246.711 9.8017L282.673 9.7207Z" fill="#F4F4F4"/>
<path d="M160.039 41.4709V9.55859C163.321 9.59099 166.603 9.62339 169.887 9.65417C169.817 20.2598 169.747 30.8653 169.678 41.4709H160.039Z" fill="#F4F4F4"/>
</svg>
