<svg width="249" height="78" viewBox="0 0 249 78" fill="none" xmlns="http://www.w3.org/2000/svg">
<g clip-path="url(#clip0_13644_3116)">
<path d="M78.3099 18.4375V22.8946H50.9523L50.6472 23.1985V78.0011H46.1723V23.1985L45.8672 22.8946H41.4941V78.0011H36.8158V22.8946H32.4427L32.1376 23.1985V78.0011H27.6627V23.1985L27.3576 22.8946H0V18.4375H78.3099Z" fill="black"/>
<path d="M107.297 32.2109L113.91 45.3798L120.925 32.2109H126.722V55.1044H121.433L121.739 40.3128L114.211 54.9039L113.664 54.4349L106.384 40.3158L106.585 55.1044H101.5V32.2109H107.297Z" fill="black"/>
<path d="M78.3099 0H0V4.65974H78.3099V0Z" fill="black"/>
<path d="M78.3099 9.11719H0V13.7769H78.3099V9.11719Z" fill="black"/>
<path d="M219.876 22.8919H214.791L214.691 21.4748C210.507 25.7638 201.258 22.9851 203.255 16.1627C204.56 11.7055 211.18 12.4136 214.768 11.7278C215.422 9.09708 212.162 8.63819 210.305 9.20648C209.599 9.42224 208.9 10.7371 208.791 10.7371H204.011C204.312 4.45354 215.497 3.97845 218.651 7.8045C218.979 8.20261 219.876 9.81933 219.876 10.2306V22.8929V22.8919ZM214.792 15.1922C214.616 15.017 210.36 15.4941 209.823 15.6136C207.289 16.1779 207.409 19.7436 210.415 19.8661C213.06 19.9745 215.213 17.8959 214.792 15.1922Z" fill="black"/>
<path d="M164.141 55.1064H159.056L158.956 53.4867C155.73 57.0919 147.879 56.1832 147.281 50.7293C146.552 44.071 154.494 44.4042 159.057 43.9646C159.533 41.263 156.331 40.6025 154.378 41.4321C153.266 41.9042 153.448 42.748 153.36 42.748H148.072C148.165 42.281 148.331 41.7087 148.532 41.2822C151.255 35.494 164.14 36.6944 164.14 42.8493V55.1064H164.141ZM159.055 47.2061C157.427 47.7765 152.881 47.0491 152.389 49.1724C151.472 53.124 157.446 52.6347 158.688 49.7761C159.039 48.9698 159.104 48.0733 159.055 47.2061Z" fill="black"/>
<path d="M160.081 16.0052H147.47C147.242 19.3217 151.954 21.3355 153.988 18.5386C154.198 18.2489 154.145 17.8285 154.182 17.8285H159.674C158.147 23.7332 149.837 25.116 145.434 21.5786C139.65 16.9331 141.87 6.30481 149.631 5.49442C156.767 4.74987 160.319 9.25158 160.081 16.0042V16.0052ZM154.792 12.561C154.634 7.76857 147.669 7.89216 147.47 12.561H154.792Z" fill="black"/>
<path d="M248.967 16.0051H236.356C236.435 18.8486 239.472 20.827 242.061 19.3581C242.752 18.9661 243.27 17.8285 243.373 17.8285H248.56C247.273 23.0201 241.015 24.5639 236.421 22.7273C228.424 19.5293 229.868 6.49623 238.514 5.49135C245.614 4.66577 249.417 9.20091 248.967 16.0041V16.0051ZM236.356 12.561H243.882C243.42 7.84452 236.865 7.86681 236.356 12.561Z" fill="black"/>
<path d="M196.038 37.5381C202.969 37.2484 207.01 42.8391 205.33 49.4306C203.311 57.3522 190.856 57.7249 188.045 50.241C185.75 44.1296 189.339 37.8187 196.038 37.5381ZM195.617 41.581C191.515 42.2779 191.165 50.6371 195.658 51.571C202.256 52.9426 202.561 40.3998 195.617 41.581Z" fill="black"/>
<path d="M184.898 55.1083H179.812V43.8641C179.812 43.7891 179.19 42.6708 179.093 42.5543C178.026 41.2708 175.105 41.5545 173.906 42.6394C173.556 42.9554 172.694 44.4962 172.694 44.8771V55.1083H167.609V38.0901H172.694L172.696 39.7108C175.67 36.3447 182.257 36.8988 184.186 41.13C184.348 41.4876 184.899 43.1793 184.899 43.4589V55.1083H184.898Z" fill="black"/>
<path d="M180.008 22.8916H174.923V11.85C174.923 11.77 174.508 10.8947 174.405 10.7448C173.239 9.03389 170.127 9.16558 168.818 10.6314C168.629 10.8431 167.804 12.4882 167.804 12.6604V22.8916H162.719V5.87337H167.804L167.806 7.49415C170.578 4.44202 176.704 4.69425 178.872 8.32176C179.291 9.02274 180.008 10.8917 180.008 11.6474V22.8916Z" fill="black"/>
<path d="M200.758 22.8922H195.673V12.0532C195.673 11.9792 195.32 11.0048 195.24 10.864C194.183 9.02133 191.091 9.17834 189.675 10.5347C189.391 10.8062 188.554 12.1525 188.554 12.4574V22.8911H183.469V5.87398H188.554L188.556 7.49476C191.373 4.40515 197.578 4.70296 199.701 8.44595C200.133 9.20873 200.758 11.022 200.758 11.8506V22.8922Z" fill="black"/>
<path d="M121.433 0V4.45714H114.111V22.8935H108.822V4.45714H101.5V0H121.433Z" fill="black"/>
<path d="M228.421 0H223.336V22.8935H228.421V0Z" fill="black"/>
<path d="M126.312 22.8946H121.227V5.87646H126.312L126.412 7.49623C127.124 6.72839 127.871 5.99296 128.944 5.76301C129.793 5.58067 131.733 5.2788 132.414 5.77516V9.62452L132.109 9.92841H128.651C127.751 9.92841 126.312 11.6515 126.312 12.4609V22.8946Z" fill="black"/>
<path d="M144.616 32.2109H139.734V55.1044H144.616V32.2109Z" fill="black"/>
<path d="M139.538 5.875H134.453V22.8932H139.538V5.875Z" fill="black"/>
<path d="M136.077 38.0898H130.992V55.108H136.077V38.0898Z" fill="black"/>
<path d="M139.538 0H134.453V3.84935H139.538V0Z" fill="black"/>
<path d="M136.077 32.2109H130.992V36.0603H136.077V32.2109Z" fill="black"/>
<path d="M214.791 15.1945C215.212 17.8982 213.059 19.9758 210.414 19.8684C207.407 19.7458 207.287 16.1801 209.822 15.6159C210.358 15.4964 214.614 15.0192 214.791 15.1945Z" fill="#F8F7F2"/>
<path d="M159.059 47.207C159.107 48.0741 159.041 48.9706 158.691 49.777C157.449 52.6356 151.476 53.1249 152.392 49.1732C152.884 47.05 157.43 47.7773 159.059 47.207Z" fill="#F8F7F2"/>
<path d="M154.791 12.5599H147.469C147.668 7.891 154.634 7.76742 154.791 12.5599Z" fill="#F8F7F2"/>
<path d="M236.359 12.5602C236.869 7.86607 243.424 7.84378 243.885 12.5602H236.359Z" fill="#F8F7F2"/>
<path d="M195.618 41.5824C202.562 40.4023 202.257 52.944 195.659 51.5725C191.166 50.6385 191.516 42.2793 195.618 41.5824Z" fill="#F8F7F2"/>
</g>
<defs>
<clipPath id="clip0_13644_3116">
<rect width="249" height="78" fill="white"/>
</clipPath>
</defs>
</svg>
