<svg width="220" height="133" viewBox="0 0 220 133" fill="none" xmlns="http://www.w3.org/2000/svg">
<path d="M89.5009 0C89.8069 15.0118 89.097 30.0849 89.4887 45.0967C89.6821 52.5219 90.7984 59.1416 97.4891 63.3744C98.0693 63.7416 99.6826 64.7967 100.412 64.9412C103.72 65.5973 107.179 65.5507 110.68 65.2692C114.18 64.9877 117.037 64.4124 119.706 61.8272C123.804 57.8588 124.281 52.2942 125.212 46.8031L125.202 0H148.922L148.677 13.4402H141.829C141.611 23.9768 142.116 34.56 141.839 45.0943C141.7 50.4385 141.127 55.5551 139.553 60.6472C133.447 80.4035 111.066 86.7122 93.4669 79.9236C79.001 74.3444 73.7204 62.7599 72.3837 47.7676L72.3788 13.4402C71.2551 13.7094 65.9109 14.0497 65.409 13.1978L65.2891 0H89.4985L89.5009 0Z" fill="black"/>
<path d="M128.138 129.141C128.042 129.699 126.456 130.558 125.91 130.825C121.467 132.991 115.618 132.502 112.528 128.367C105.544 119.018 118.95 109.125 127.592 116.726C128.27 117.324 127.482 117.955 126.918 118.393C125.481 119.512 125.712 118.56 124.441 117.931C118.886 115.177 112.888 118.036 114.012 124.687C114.683 128.658 119.097 129.799 122.576 129.207C125.464 128.715 125.376 127.471 125.202 124.866H120.433C119.655 124.866 119.586 121.933 120.189 121.933H127.77C127.797 121.933 128.138 122.274 128.138 122.301C128.138 124.188 128.424 127.466 128.138 129.143V129.141Z" fill="black"/>
<path d="M145.378 114.361C146.227 114.457 148.088 115.086 148.798 115.585C151.327 117.36 151.652 121.346 149.295 123.407C148.276 124.298 147.035 123.872 147.728 125.454C148.455 127.114 149.951 129.312 150.962 130.742C151.892 132.056 148.423 131.941 147.77 131.395C147.07 130.81 145.503 126.827 144.727 125.765C144.553 125.527 144.391 125.295 144.156 125.113H138.166V131.344C138.166 131.887 135.23 131.887 135.23 131.344V114.729C135.23 114.702 135.571 114.361 135.598 114.361C138.57 114.361 142.55 114.041 145.38 114.361H145.378ZM138.166 122.425H145.87C146.705 122.425 148.161 120.78 148.159 119.86C148.159 118.888 146.778 117.049 145.87 117.049H138.288C138.261 117.049 137.921 117.39 137.921 117.417V121.816C137.921 121.897 138.244 122.188 138.166 122.428V122.425Z" fill="black"/>
<path d="M172.561 116.891C175.279 119.547 175.913 123.855 174.116 127.19C170.395 134.096 159.378 133.641 156.587 126.132C153.109 116.771 165.508 109.997 172.561 116.891ZM170.099 118.379C168.275 116.771 165.971 116.288 163.643 116.969C157.826 118.675 157.518 126.989 163.185 129.065C170.025 131.572 175.355 123.016 170.099 118.379Z" fill="black"/>
<path d="M66.0251 122.913C66.3801 123.4 73.9595 115.05 74.738 114.636C75.7809 114.1 77.1102 114.457 78.251 114.362C78.8557 114.949 76.0624 116.918 75.6781 117.287C75.1174 117.828 71.8982 120.918 71.93 121.283L79.4849 130.862C79.6489 132.235 76.929 131.675 76.0502 131.589C75.0562 130.74 70.2775 123.564 69.783 123.415C69.3399 123.28 66.0251 126.446 66.0251 126.698V131.339C66.0251 131.883 63.0898 131.883 63.0898 131.339V114.724C63.0898 114.181 66.0251 114.181 66.0251 114.724V122.911V122.913Z" fill="black"/>
<path d="M30.5671 114.359H33.5024V127.432C33.5024 127.523 32.7826 128.864 32.6627 129.036C29.2304 133.905 19.2029 133.114 18.1551 126.397C17.8271 124.299 17.8246 117.356 18.0841 115.204C18.2579 113.764 21.0806 114.269 21.2398 114.761C21.7122 117.505 20.3388 126.397 22.2655 128.154C23.9865 129.726 28.2732 129.8 29.72 127.809C29.9159 127.542 30.5671 126.152 30.5671 125.966V114.359Z" fill="black"/>
<path d="M206.881 125.111V131.342C206.881 131.885 203.945 131.885 203.945 131.342V114.727C203.945 114.7 204.286 114.359 204.313 114.359H214.095C214.355 114.359 216.485 115.086 216.837 115.285C220.005 117.06 220.245 121.542 217.376 123.745C216.333 124.546 214.658 125.109 213.361 125.109H206.881V125.111ZM207.003 117.047C206.922 117.172 206.636 117.346 206.636 117.415V122.056C206.636 122.083 206.976 122.423 207.003 122.423H214.095C216.032 122.423 217.253 119.544 215.819 118.014C215.547 117.726 214.389 117.047 214.095 117.047H207.003Z" fill="black"/>
<path d="M181.203 114.726C181.392 114.116 184.138 114.236 184.138 114.726V126.7C184.138 126.788 184.956 128.039 185.101 128.183C186.785 129.875 191.307 129.726 192.697 127.679C192.961 127.29 193.429 126.102 193.429 125.723V114.726C193.429 114.182 196.364 114.182 196.364 114.726V126.944C196.364 127.833 194.572 130.169 193.796 130.732C191.076 132.7 185.191 132.497 182.785 130.007C182.523 129.735 181.203 127.608 181.203 127.432V114.726Z" fill="black"/>
<path d="M56.6769 117.737C56.6133 117.882 55.2154 118.996 54.902 118.983C54.2557 118.961 52.3168 117.39 51.411 117.118C46.9408 115.774 42.544 118.415 42.6468 123.241C42.7618 128.651 48.2383 130.678 52.7134 128.548C53.6339 128.11 54.5348 127.212 55.35 126.607C56.1653 127.407 57.8936 127.992 56.7455 129.158C52.476 133.484 43.6578 133.116 40.5953 127.439C36.0564 119.025 44.9505 111.519 53.3622 114.927C54.1382 115.24 57.1127 116.763 56.6769 117.742V117.737Z" fill="black"/>
<path d="M2.93529 114.359V128.409C2.93529 128.436 3.27558 128.776 3.30251 128.776H12.8404C13.7706 128.776 13.3961 131.709 13.2076 131.709H0L0.0122406 114.372L2.93529 114.359Z" fill="black"/>
<path d="M90.2383 120.955C90.4929 121.131 90.6716 120.855 90.8307 120.696C92.5199 119.009 93.8591 116.218 95.6119 114.477L98.792 114.36C98.9928 114.539 97.847 116.211 97.6438 116.495C96.552 118.032 92.3584 122.429 92.0058 123.824C91.6533 125.22 92.3094 130.799 91.8394 131.477C91.5652 131.871 89.2076 131.923 88.8771 131.215L88.8992 123.876C88.0595 121.738 82.4827 116.451 82.1595 114.725C82.0665 114.235 82.2232 114.397 82.5267 114.355C83.2318 114.257 84.8916 114.252 85.4792 114.588C86.0667 114.923 88.9016 118.857 89.6018 119.753C89.8637 120.088 90.1844 120.913 90.2407 120.953L90.2383 120.955Z" fill="black"/>
</svg>
