<svg width="217" height="63" viewBox="0 0 217 63" fill="none" xmlns="http://www.w3.org/2000/svg">
<path d="M78.0312 62.7056V46.4369H81.0001C82.8396 42.3074 83.6532 37.7477 84.1377 33.2601C84.573 29.2281 84.7452 25.1062 84.8207 21.0632C84.8589 18.9879 84.7851 16.9066 84.8174 14.832H111.704V46.4377H115.69V62.7064H107.209L107.124 53.8093H86.5143V62.7064H78.0329L78.0312 62.7056ZM102.458 22.0339H92.7048C92.6836 27.8213 92.4401 33.7199 91.4058 39.42C90.9714 41.8127 90.3681 44.1757 89.4814 46.4369H102.458V22.0339Z" fill="#030304"/>
<path d="M35.6224 0.0033939V53.8086H26.2926V7.29095C22.7714 7.3215 19.274 6.97786 15.9479 8.35239C10.9945 10.3998 9.76001 14.962 10.6263 19.9332C11.821 26.7855 18.5103 29.6899 23.5851 33.3536L23.4994 33.6056L9.96535 53.8086H0L12.1196 35.619L12.0433 35.4663C10.7315 34.538 9.42487 33.5682 8.22512 32.4992C4.22541 28.9356 1.49671 24.5116 1.18787 19.0245C0.483631 6.52393 8.97687 0.46751 20.6485 0L35.6215 0.0033939H35.6224Z" fill="black"/>
<path d="M52.6658 14.827V30.1641H64.8787V14.827H74.2086V53.8043H64.8787V37.5356H52.6658V53.8043H43.4632C43.4539 53.8043 43.3359 53.6864 43.3359 53.677V14.9534C43.3359 14.9441 43.4539 14.8262 43.4632 14.8262H52.6658V14.827Z" fill="#030304"/>
<path d="M149.779 37.6252H127.558C127.708 40.5338 128.412 43.8734 130.924 45.6594C134.173 47.9698 139.45 47.4183 143.097 46.4137C145.307 45.8054 147.417 44.8508 149.355 43.6417V51.1406C146.767 52.8528 143.644 53.8871 140.565 54.3062C128.877 55.8963 119.958 51.3213 118.325 39.0965C117.199 30.6609 118.9 19.4195 127.528 15.5224C132.474 13.2884 140.306 13.576 144.522 17.2465C150.181 22.1728 149.84 30.761 149.779 37.6261V37.6252ZM140.365 30.7619C140.375 27.7167 140.108 23.3258 136.931 21.8639C135.203 21.0689 132.766 21.2098 131.119 22.16C128.318 23.7764 127.637 27.7973 127.558 30.7619H140.365Z" fill="#030304"/>
<path d="M165.127 14.832V32.7111C165.798 31.95 166.379 31.0999 166.977 30.2811C170.719 25.1563 174.418 19.9967 178.104 14.8329H187.433L174.468 32.8231L189.215 53.8102H178.698C174.645 48.0286 170.592 42.2335 166.469 36.4979C166.042 35.9048 165.637 35.2718 165.128 34.7449V53.8102H155.883V14.832H165.128H165.127Z" fill="#030304"/>
<path d="M216.444 23.7295C215.172 23.0999 213.896 22.4907 212.523 22.097C207.134 20.5545 201.598 21.0491 199.332 26.8417C197.587 31.3013 197.675 39.7088 200.413 43.7705C203.482 48.3268 209.875 47.6947 214.355 45.8323L216.444 44.658V52.1992C214.945 53.1962 213.304 53.8546 211.528 54.194C205.822 55.2843 198.436 54.3679 194.052 50.2944C187.379 44.0929 187.1 29.791 191.41 22.2319C195.793 14.543 204.552 12.9632 212.729 14.6898C213.214 14.7925 216.445 15.652 216.445 16.0609V23.7295H216.444Z" fill="#030304"/>
</svg>
